<?xml version="1.0" encoding="UTF-8"?>
<svg width="26px" height="16px" viewBox="0 0 26 16" version="1.1" xmlns="http://www.w3.org/2000/svg" xmlns:xlink="http://www.w3.org/1999/xlink">
    <!-- Generator: Sketch 51.2 (57519) - http://www.bohemiancoding.com/sketch -->
    <title>Shape</title>
    <desc>Created with Sketch.</desc>
    <defs></defs>
    <g id="Symbols" stroke="none" stroke-width="1" fill="none" fill-rule="evenodd">
        <g id="03---elements" transform="translate(-1190.000000, -7604.000000)" fill="#05C0A5" fill-rule="nonzero">
            <g id="others">
                <g transform="translate(64.000000, 5809.000000)">
                    <g id="Help-center" transform="translate(873.000000, 1369.000000)">
                        <g id="Customer-Support" transform="translate(1.000000, 282.000000)">
                            <g id="Group-2" transform="translate(174.000000, 139.000000)">
                                <g id="Group-4" transform="translate(0.000000, 0.000000)">
                                    <g id="Arrow-long" transform="translate(78.000000, 5.000000)">
                                        <path d="M2.84217094e-14,7.53468943 C2.84217094e-14,8.13029063 0.482830172,8.61312081 1.07843137,8.61312081 L22.2005882,8.61312081 L17.5719608,13.2417483 C17.1632653,13.664902 17.1691102,14.337526 17.5850976,14.7535134 C18.001085,15.1695008 18.673709,15.1753457 19.0968627,14.7666502 L25.567451,8.29606198 C25.7689988,8.09568129 25.8823341,7.82321073 25.8823529,7.53900316 C25.8823529,7.39449336 25.8543137,7.25429728 25.7982353,7.12272865 C25.7444856,6.99198543 25.6653072,6.8732178 25.5652941,6.77331689 L19.0947059,0.30272865 C18.6715522,-0.10596687 17.9989282,-0.100121949 17.5829408,0.31586548 C17.1669533,0.73185291 17.1611084,1.40447691 17.5698039,1.82763061 L22.2005882,6.45625806 L1.07843137,6.45625806 C0.482830172,6.45625806 2.84217094e-14,6.93908823 2.84217094e-14,7.53468943 Z" id="Shape"></path>
                                    </g>
                                </g>
                            </g>
                        </g>
                    </g>
                </g>
            </g>
        </g>
    </g>
</svg>