<?xml version="1.0" encoding="UTF-8"?>
<svg width="28px" height="28px" viewBox="0 0 28 28" version="1.1" xmlns="http://www.w3.org/2000/svg" xmlns:xlink="http://www.w3.org/1999/xlink">
    <!-- Generator: Sketch 51.2 (57519) - http://www.bohemiancoding.com/sketch -->
    <title>BTC</title>
    <desc>Created with Sketch.</desc>
    <defs></defs>
    <g id="Symbols" stroke="none" stroke-width="1" fill="none" fill-rule="evenodd">
        <g id="footer(desktop)" transform="translate(-945.000000, -215.000000)">
            <g id="footer2">
                <g id="welcome-donate-us3" transform="translate(946.000000, 173.000000)">
                    <g id="Group-6" transform="translate(0.000000, 43.000000)">
                        <g id="BTC">
                            <path d="M13,26 C5.82023,26 0,20.17977 0,13 C0,5.82023 5.82023,0 13,0 C20.17977,0 26,5.82023 26,13 C26,20.17977 20.17977,26 13,26 Z" id="Fill-504" stroke="#8799AB"></path>
                            <path d="M15.8441286,15.6357838 C15.739169,15.9875874 15.5030413,16.2774847 15.1792593,16.4520733 C14.8554772,16.6269121 14.48304,16.6654317 14.1302906,16.5606284 L10.5989092,15.5117208 L11.385667,12.8775081 L14.9167977,13.9265408 L14.9169231,13.9265408 C15.6449938,14.1427756 16.0610701,14.90954 15.8441286,15.6357838 M17.0351751,10.2374174 C17.2102331,10.5603314 17.2488562,10.93177 17.1438966,11.2836988 C16.9269551,12.0096924 16.1577533,12.424403 15.4300587,12.2085434 L15.4299333,12.2085434 L11.8986773,11.1596358 L12.6851843,8.52542307 L16.2165657,9.57433071 C16.5693151,9.67913394 16.8599917,9.91450346 17.0351751,10.2374174 M18.6159639,9.38448431 C18.2123022,8.64048149 17.5422915,8.09770587 16.729576,7.85633329 L16.2623366,7.71763786 L16.9164215,5.52727557 L15.2381971,5.02877242 L14.5841122,7.21913472 L13.151295,6.7935436 L13.8055054,4.6031813 L13.4034739,4.48374565 L11.7747824,4 L11.1442726,6.11132216 L9.15944586,5.52177278 L8.59928533,7.39772541 L10.584112,7.98739985 L8.54498725,14.8156173 L6.56016053,14.2260679 L6,16.1021456 L7.98470132,16.6915699 L7.45263032,18.4735999 L7.85453641,18.5930355 L9.48322793,19.0767812 L10.0389995,17.2157111 L11.4752024,17.6423027 L10.9194309,19.5034979 L12.5908837,20 L13.1466553,18.1388049 L13.617155,18.2785008 C13.9171111,18.367546 14.2234626,18.4116934 14.5279331,18.4116934 C15.048342,18.4116934 15.5638602,18.282753 16.0344853,18.028749 C16.7804882,17.6261695 17.3245976,16.9580803 17.5667445,16.1472935 C17.8213059,15.2944855 17.6956554,14.4184156 17.2907397,13.6972994 C18.0258328,13.3147301 18.6115749,12.6485168 18.8663871,11.7953336 C19.108534,10.9845468 19.0195002,10.1283621 18.6159639,9.38448431" id="Fill-505" fill="#8799AB"></path>
                        </g>
                    </g>
                </g>
            </g>
        </g>
    </g>
</svg>