<?xml version="1.0" encoding="UTF-8"?>
<svg width="24px" height="22px" viewBox="0 0 24 22" version="1.1" xmlns="http://www.w3.org/2000/svg" xmlns:xlink="http://www.w3.org/1999/xlink">
    <!-- Generator: Sketch 51.2 (57519) - http://www.bohemiancoding.com/sketch -->
    <title>exchange (1)</title>
    <desc>Created with Sketch.</desc>
    <defs></defs>
    <g id="Symbols" stroke="none" stroke-width="1" fill="none" fill-rule="evenodd">
        <g id="network-box" transform="translate(-128.000000, -108.000000)" fill="#FFFFFF" fill-rule="nonzero" stroke="#FFFFFF" stroke-width="0.2">
            <g id="Group-3">
                <g id="exchange-(1)" transform="translate(129.000000, 109.000000)">
                    <path d="M20.6250349,12.4075276 C20.6250349,14.2245295 19.4700642,14.3543154 19.2500698,14.3543154 L2.34487406,14.3543154 L5.98165672,10.9214796 L5.01230633,10 L0.199928517,14.5425049 C-0.0666428391,14.7956278 -0.0666428391,15.2043722 0.199928517,15.4574951 L5.01230633,20 L5.98165672,19.0850097 L2.34487406,15.6521739 L19.2500698,15.6521739 C20.1987957,15.6521739 22,15.0032446 22,12.4075276 L22,10.4607398 L20.6250349,10.4607398 L20.6250349,12.4075276 Z" id="Shape"></path>
                    <path d="M1.37496509,7.59896171 C1.37496509,5.78195977 2.52993576,5.65217391 2.74993018,5.65217391 L19.6551259,5.65217391 L16.0183433,9.08500973 L16.9876937,10 L21.8000715,5.45749513 C22.0666428,5.20437216 22.0666428,4.79562784 21.8000715,4.54250487 L16.9876937,0 L16.0114685,0.921479559 L19.6551259,4.35431538 L2.74993018,4.35431538 C1.80120427,4.35431538 0,5.00324465 0,7.59896171 L0,9.54574951 L1.37496509,9.54574951 L1.37496509,7.59896171 Z" id="Shape"></path>
                </g>
            </g>
        </g>
    </g>
</svg>