<?xml version="1.0" encoding="UTF-8"?>
<svg width="18px" height="17px" viewBox="0 0 18 17" version="1.1" xmlns="http://www.w3.org/2000/svg" xmlns:xlink="http://www.w3.org/1999/xlink">
    <!-- Generator: Sketch 51.2 (57519) - http://www.bohemiancoding.com/sketch -->
    <title>github-[#142]</title>
    <desc>Created with Sketch.</desc>
    <defs></defs>
    <g id="Symbols" stroke="none" stroke-width="1" fill="none" fill-rule="evenodd">
        <g id="footer(desktop)" transform="translate(-1128.000000, -367.000000)" fill="#8799AB" fill-rule="nonzero">
            <g id="footer2">
                <g id="Group-4" transform="translate(215.000000, 365.000000)">
                    <g id="Group-2" transform="translate(779.000000, 2.000000)">
                        <g id="Github" transform="translate(134.801932, 0.000000)">
                            <path d="M8.5,7.73067631e-13 C13.19455,7.73067631e-13 17,3.90148554 17,8.7150177 C17,12.5646534 14.5673,15.8303413 11.19195,16.9837871 C10.761,17.0696367 10.608,16.7976377 10.608,16.5655886 C10.608,16.2782897 10.6182,15.3398931 10.6182,14.1736975 C10.6182,13.3611005 10.3462,12.8307024 10.04105,12.5604034 C11.934,12.3445042 13.923,11.607557 13.923,8.26026938 C13.923,7.30827291 13.5932,6.53137579 13.0475,5.92107805 C13.1359,5.70092887 13.42745,4.81438216 12.9642,3.6141866 C12.9642,3.6141866 12.2519,3.38043747 10.62925,4.50753329 C9.93595545,4.31429052 9.21972114,4.21564784 8.5,4.21428438 C7.78083306,4.21558239 7.06515155,4.3142277 6.37245,4.50753329 C4.7481,3.38043747 4.0341,3.6141866 4.0341,3.6141866 C3.57255,4.81438216 3.8641,5.70092887 3.95165,5.92107805 C3.4085,6.53137579 3.07615,7.30827291 3.07615,8.26026938 C3.07615,11.599057 5.0609,12.3470542 6.94875,12.5672034 C6.70565,12.7848026 6.4855,13.1690012 6.409,13.7325491 C5.9245,13.9552483 4.6937,14.3402968 3.9355,13.0083518 C3.9355,13.0083518 3.48585,12.1711049 2.63245,12.1099051 C2.63245,12.1099051 1.8037,12.0988552 2.57465,12.6394532 C2.57465,12.6394532 3.1314,12.9072022 3.51815,13.9144484 C3.51815,13.9144484 4.0171,15.4699427 6.3818,14.9429446 C6.38605,15.6713919 6.3937,16.3581894 6.3937,16.5655886 C6.3937,16.7959377 6.2373,17.0653867 5.81315,16.984637 C2.43525,15.8328913 0,12.5655034 0,8.7150177 C0,3.90148554 3.8063,0 8.5,0" id="github-[#142]"></path>
                        </g>
                    </g>
                </g>
            </g>
        </g>
    </g>
</svg>