<?xml version="1.0" encoding="UTF-8"?>
<svg width="16px" height="16px" viewBox="0 0 16 16" version="1.1" xmlns="http://www.w3.org/2000/svg" xmlns:xlink="http://www.w3.org/1999/xlink">
    <!-- Generator: Sketch 51.2 (57519) - http://www.bohemiancoding.com/sketch -->
    <title>Shape</title>
    <desc>Created with Sketch.</desc>
    <defs></defs>
    <g id="Symbols" stroke="none" stroke-width="1" fill="none" fill-rule="evenodd">
        <g id="footer(desktop)" transform="translate(-1058.000000, -368.000000)" fill="#96A8B6" fill-rule="nonzero">
            <g id="footer2">
                <g id="Group-4" transform="translate(215.000000, 365.000000)">
                    <g id="Group-2" transform="translate(779.000000, 2.000000)">
                        <g id="Instagram" transform="translate(64.270531, 1.000000)">
                            <path d="M15.2584348,4.49777778 C15.2458396,3.86288032 15.125669,3.23471591 14.9030338,2.64 C14.7106448,2.12936359 14.409168,1.66684774 14.0196329,1.28471498 C13.6375001,0.895179815 13.1749842,0.593703047 12.6643478,0.40131401 C12.0699003,0.178773161 11.4420314,0.0586041038 10.8074203,0.0459130435 C9.99033816,0.00850241546 9.73016425,0 7.65217391,0 C5.57418357,0 5.31400966,0.00850241546 4.49777778,0.0459130435 C3.86288032,0.0585082605 3.23471591,0.178678843 2.64,0.40131401 C2.12905943,0.593593566 1.66624371,0.895076657 1.28386473,1.28471498 C0.894329573,1.66684774 0.592852805,2.12936359 0.400463768,2.64 C0.177922919,3.23444751 0.0577538622,3.86231646 0.0450628019,4.49692754 C0.00850241546,5.31400966 0,5.57418357 0,7.65217391 C0,9.73016425 0.00850241546,9.99033816 0.0459130435,10.80657 C0.0585082605,11.4414675 0.178678843,12.0696319 0.40131401,12.6643478 C0.593703047,13.1749842 0.895179815,13.6375001 1.28471498,14.0196329 C1.66683032,14.4091893 2.12935117,14.7106693 2.64,14.9030338 C3.23444751,15.1255747 3.86231646,15.2457437 4.49692754,15.2584348 C5.31400966,15.2958454 5.57418357,15.3043478 7.65217391,15.3043478 C9.73016425,15.3043478 9.99033816,15.2958454 10.80657,15.2584348 C11.4414675,15.2458396 12.0696319,15.125669 12.6643478,14.9030338 C13.6926339,14.5055072 14.5055072,13.6926339 14.9030338,12.6643478 C15.1255747,12.0699003 15.2457437,11.4420314 15.2584348,10.8074203 C15.2958454,9.99033816 15.3043478,9.73016425 15.3043478,7.65217391 C15.3043478,5.57418357 15.2958454,5.31400966 15.2584348,4.49777778 Z M13.8810435,10.7445024 C13.8751771,11.2294082 13.7860212,11.7096993 13.6174686,12.1644058 C13.3602762,12.8320788 12.8327784,13.3598855 12.165256,13.6174686 C11.7102767,13.7861007 11.2296926,13.8752575 10.7445024,13.8810435 C9.93677295,13.9176039 9.69530435,13.925256 7.65217391,13.925256 C5.60904348,13.925256 5.36672464,13.9176039 4.55984541,13.8810435 C4.07494129,13.8751602 3.59465307,13.7860049 3.13994203,13.6174686 C2.8072287,13.4950026 2.50622297,13.2994651 2.25909179,13.045256 C2.00498876,12.7983698 1.80945793,12.4976649 1.68687923,12.165256 C1.51823084,11.7102812 1.42907349,11.2296943 1.42330435,10.7445024 C1.38674396,9.93677295 1.37909179,9.69530435 1.37909179,7.65217391 C1.37909179,5.60904348 1.38674396,5.36672464 1.42330435,4.55984541 C1.42918762,4.07494129 1.51834292,3.59465307 1.68687923,3.13994203 C1.80934521,2.8072287 2.00488272,2.50622297 2.25909179,2.25909179 C2.50597804,2.00498876 2.80668296,1.80945793 3.13909179,1.68687923 C3.59407117,1.51824718 4.07465521,1.42909035 4.55984541,1.42330435 C5.36757488,1.38674396 5.60904348,1.37909179 7.65217391,1.37909179 C9.69530435,1.37909179 9.93762319,1.38674396 10.7445024,1.42330435 C11.2294065,1.42918762 11.7096948,1.51834292 12.1644058,1.68687923 C12.4971191,1.80934521 12.7981249,2.00488272 13.045256,2.25909179 C13.2993591,2.50597804 13.4948899,2.80668296 13.6174686,3.13909179 C13.7861007,3.59407117 13.8752575,4.07465521 13.8810435,4.55984541 C13.9176039,5.36757488 13.925256,5.60904348 13.925256,7.65217391 C13.925256,9.69530435 13.9176039,9.93762319 13.8810435,10.7445024 Z M7.65217391,3.72235749 C5.48179623,3.72235749 3.72235749,5.48179623 3.72235749,7.65217391 C3.72235749,9.82255159 5.48179623,11.5819903 7.65217391,11.5819903 C9.82255159,11.5819903 11.5819903,9.82255159 11.5819903,7.65217391 C11.5819903,6.6099218 11.1679573,5.61035761 10.4309738,4.87337407 C9.69399022,4.13639053 8.69442603,3.72235749 7.65217391,3.72235749 Z M7.65217391,10.2028986 C6.24344759,10.2028986 5.10144928,9.06090023 5.10144928,7.65217391 C5.10144928,6.24344759 6.24344759,5.10144928 7.65217391,5.10144928 C9.06090023,5.10144928 10.2028986,6.24344759 10.2028986,7.65217391 C10.2028986,9.06090023 9.06090023,10.2028986 7.65217391,10.2028986 Z M12.6549952,3.56761353 C12.6549952,4.074755 12.2438758,4.4858744 11.7367343,4.4858744 C11.2295928,4.4858744 10.8184734,4.074755 10.8184734,3.56761353 C10.8184734,3.06047205 11.2295928,2.64935266 11.7367343,2.64935266 C12.2438758,2.64935266 12.6549952,3.06047205 12.6549952,3.56761353 Z" id="Shape"></path>
                        </g>
                    </g>
                </g>
            </g>
        </g>
    </g>
</svg>