<?xml version="1.0" encoding="UTF-8"?>
<svg width="17px" height="16px" viewBox="0 0 17 16" version="1.1" xmlns="http://www.w3.org/2000/svg" xmlns:xlink="http://www.w3.org/1999/xlink">
    <!-- Generator: Sketch 51.2 (57519) - http://www.bohemiancoding.com/sketch -->
    <title>Shape</title>
    <desc>Created with Sketch.</desc>
    <defs></defs>
    <g id="Symbols" stroke="none" stroke-width="1" fill="none" fill-rule="evenodd">
        <g id="footer(desktop)" transform="translate(-1092.000000, -368.000000)" fill="#96A8B6" fill-rule="nonzero">
            <g id="footer2">
                <g id="Group-4" transform="translate(215.000000, 365.000000)">
                    <g id="Group-2" transform="translate(779.000000, 2.000000)">
                        <g id="Linkedin" transform="translate(98.840580, 1.000000)">
                            <path d="M3.64621118,15.3043478 L3.64621118,4.98883516 L0.217548017,4.98883516 L0.217548017,15.3043478 L3.64621118,15.3043478 Z M1.93232298,3.57958146 C3.12795796,3.57958146 3.87218347,2.78747062 3.87218347,1.7975958 C3.84990731,0.785398949 3.12800382,0.0152737697 1.95501194,0.0152737697 C0.782203536,0.0152737697 0.0152584806,0.785414238 0.0152584806,1.7975958 C0.0152584806,2.78751648 0.759300526,3.57958146 1.9099398,3.57958146 L1.93221596,3.57958146 L1.93232298,3.57958146 Z M5.5439656,15.3043478 L8.97262876,15.3043478 L8.97262876,9.54365982 C8.97262876,9.23535595 8.99490492,8.92737315 9.08544673,8.70698137 C9.33331295,8.09100048 9.89746393,7.45301863 10.8446058,7.45301863 C12.0852977,7.45301863 12.5816417,8.39898328 12.5816417,9.78570091 L12.5816417,15.3042714 L16.0100908,15.3043478 L16.0100908,9.38945437 C16.0100908,6.22093454 14.3185705,4.74665647 12.0627157,4.74665647 C10.2130913,4.74665647 9.40098232,5.78053321 8.94981749,6.48470139 L8.97270521,6.48470139 L8.97270521,4.98862112 L5.54404204,4.98862112 C5.58903774,5.95657143 5.54404204,15.3041338 5.54404204,15.3041338 L5.5439656,15.3043478 Z" id="Shape"></path>
                        </g>
                    </g>
                </g>
            </g>
        </g>
    </g>
</svg>