<?xml version="1.0" encoding="UTF-8"?>
<svg width="18px" height="14px" viewBox="0 0 18 14" version="1.1" xmlns="http://www.w3.org/2000/svg" xmlns:xlink="http://www.w3.org/1999/xlink">
    <!-- Generator: Sketch 51.2 (57519) - http://www.bohemiancoding.com/sketch -->
    <title>Medium</title>
    <desc>Created with Sketch.</desc>
    <defs></defs>
    <g id="Symbols" stroke="none" stroke-width="1" fill="none" fill-rule="evenodd">
        <g id="footer(desktop)" transform="translate(-1203.000000, -369.000000)" fill="#8799AB" fill-rule="nonzero">
            <g id="footer2">
                <g id="Group-4" transform="translate(215.000000, 365.000000)">
                    <g id="Group-2" transform="translate(779.000000, 2.000000)">
                        <g id="Medium" transform="translate(209.000000, 2.000000)">
                            <path d="M17.1160714,1.92857143 C17.1160714,1.92857143 16.3928571,1.92857143 16.3928571,2.65178571 L16.3928571,10.8482143 C16.3928571,10.8482143 16.3928571,11.5714286 17.1160714,11.5714286 L17.3571429,11.5714286 L17.3571429,13.5 L11.5714286,13.5 L11.5714286,11.5714286 L12.5357143,11.5714286 L12.5357143,2.60357143 L12.4392857,2.60357143 L9.48375,13.5 L6.88210714,13.5 L3.95357143,2.60357143 L3.85714286,2.60357143 L3.85714286,11.5714286 L4.82142857,11.5714286 L4.82142857,13.5 L0,13.5 L0,11.5714286 L0.241071429,11.5714286 C0.241071429,11.5714286 0.964285714,11.5714286 0.964285714,10.8482143 L0.964285714,2.65178571 C0.964285714,2.65178571 0.964285714,1.92857143 0.241071429,1.92857143 L0,1.92857143 L0,0 L6.39707143,0 L8.64096429,8.35071429 L8.71521429,8.35071429 L10.9793571,0 L17.3571429,0 L17.3571429,1.92857143 L17.1160714,1.92857143 Z" id="Shape"></path>
                        </g>
                    </g>
                </g>
            </g>
        </g>
    </g>
</svg>