<?xml version="1.0" encoding="UTF-8"?>
<svg width="24px" height="24px" viewBox="0 0 24 24" version="1.1" xmlns="http://www.w3.org/2000/svg" xmlns:xlink="http://www.w3.org/1999/xlink">
    <!-- Generator: Sketch 51.2 (57519) - http://www.bohemiancoding.com/sketch -->
    <title>more</title>
    <desc>Created with Sketch.</desc>
    <defs></defs>
    <g id="Symbols" stroke="none" stroke-width="1" fill="none" fill-rule="evenodd">
        <g id="balance-box" transform="translate(-126.000000, -105.000000)" fill="#FFFFFF" fill-rule="nonzero">
            <g id="more">
                <g transform="translate(126.000000, 105.000000)">
                    <g id="Layer_1">
                        <path d="M12,24 C5.38272,24 0,18.61728 0,12 C0,5.38272 5.38272,0 12,0 C18.61728,0 24,5.38272 24,12 C24,18.61728 18.61728,24 12,24 Z M12,1.26315789 C6.0793985,1.26315789 1.26315789,6.0793985 1.26315789,12 C1.26315789,17.9206015 6.0793985,22.7368421 12,22.7368421 C17.9206015,22.7368421 22.7368421,17.9206015 22.7368421,12 C22.7368421,6.0793985 17.9206015,1.26315789 12,1.26315789 Z" id="Shape"></path>
                        <circle id="Oval" cx="12" cy="12" r="1.92"></circle>
                        <circle id="Oval" cx="6.24" cy="12" r="1.92"></circle>
                        <circle id="Oval" cx="17.76" cy="12" r="1.92"></circle>
                    </g>
                </g>
            </g>
        </g>
    </g>
</svg>