<?xml version="1.0" encoding="UTF-8"?>
<svg width="24px" height="26px" viewBox="0 0 24 26" version="1.1" xmlns="http://www.w3.org/2000/svg" xmlns:xlink="http://www.w3.org/1999/xlink">
    <!-- Generator: Sketch 51.2 (57519) - http://www.bohemiancoding.com/sketch -->
    <title>printer (1)</title>
    <desc>Created with Sketch.</desc>
    <defs></defs>
    <g id="Symbols" stroke="none" stroke-width="1" fill="none" fill-rule="evenodd">
        <g id="address-box" transform="translate(-127.000000, -103.000000)" fill="#FFFFFF" fill-rule="nonzero">
            <g id="printer-(1)" transform="translate(128.000000, 104.000000)">
                <path d="M22.6666667,16.7461224 L22.6666667,7.98367347 C22.6666667,6.81795918 21.7389592,5.8677551 20.6008439,5.8677551 L18.3628692,5.8677551 L18.3628692,1.40571429 C18.3628692,0.631836735 17.7459916,0 16.990436,0 L5.66666667,0 C4.91111111,0 4.29423347,0.631836735 4.29423347,1.40571429 L4.29423347,5.87265306 L2.06582278,5.87265306 C0.927707454,5.8677551 0,6.81795918 0,7.98367347 L0,16.7461224 C0,17.9118367 0.927707454,18.8620408 2.06582278,18.8620408 L4.29901547,18.8620408 L4.29901547,22.5942857 C4.29901547,23.3681633 4.91589311,24 5.67144866,24 L16.995218,24 C17.7507736,24 18.3676512,23.3681633 18.3676512,22.5942857 L18.3676512,18.8620408 L20.6008439,18.8620408 C21.7389592,18.8620408 22.6666667,17.9167347 22.6666667,16.7461224 Z M5.47060478,1.40571429 C5.47060478,1.29306122 5.56146273,1.2 5.67144866,1.2 L16.995218,1.2 C17.1052039,1.2 17.1960619,1.29306122 17.1960619,1.40571429 L17.1960619,5.87265306 L5.47060478,5.87265306 L5.47060478,1.40571429 Z M17.1960619,22.5942857 C17.1960619,22.7069388 17.1052039,22.8 16.995218,22.8 L5.67144866,22.8 C5.56146273,22.8 5.47060478,22.7069388 5.47060478,22.5942857 L5.47060478,12.964898 L17.1912799,12.964898 L17.1912799,22.5942857 L17.1960619,22.5942857 Z M17.7794655,11.764898 L4.88720113,11.764898 C4.56202532,11.764898 4.29901547,12.0342857 4.29901547,12.3673469 L4.29901547,17.6620408 L2.06582278,17.6620408 C1.57327707,17.6620408 1.17158931,17.2506122 1.17158931,16.7461224 L1.17158931,7.98367347 C1.17158931,7.47918367 1.57327707,7.0677551 2.06582278,7.0677551 L20.5960619,7.0677551 C21.0886076,7.0677551 21.4902954,7.47918367 21.4902954,7.98367347 L21.4902954,16.7461224 C21.4902954,17.2506122 21.0886076,17.6620408 20.5960619,17.6620408 L18.3628692,17.6620408 L18.3628692,12.3673469 C18.3676512,12.0342857 18.1046414,11.764898 17.7794655,11.764898 Z" id="Shape" stroke="#FFFFFF" stroke-width="0.2"></path>
                <path d="M2.86178862,9.52147239 C2.73712737,9.64689843 2.66666667,9.81595092 2.66666667,9.99591002 C2.66666667,10.1704158 2.73712737,10.3449216 2.86178862,10.4703476 C2.98644986,10.5957737 3.15447154,10.6666667 3.33333333,10.6666667 C3.50677507,10.6666667 3.6802168,10.5957737 3.80487805,10.4703476 C3.9295393,10.3449216 4,10.1704158 4,9.99591002 C4,9.82140423 3.9295393,9.64689843 3.80487805,9.52147239 C3.5501355,9.27062031 3.10569106,9.27062031 2.86178862,9.52147239 Z" id="Shape" stroke="#FFFFFF" stroke-width="0.2"></path>
                <path d="M14.1692151,17.3333333 L8.50152905,17.3333333 C8.22426096,17.3333333 8,17.6314363 8,18 C8,18.3685637 8.22426096,18.6666667 8.50152905,18.6666667 L14.1651376,18.6666667 C14.4424057,18.6666667 14.6666667,18.3685637 14.6666667,18 C14.6666667,17.6314363 14.4424057,17.3333333 14.1692151,17.3333333 Z" id="Shape"></path>
                <path d="M14.1692151,20 L8.50152905,20 C8.22426096,20 8,20.298103 8,20.6666667 C8,21.0352304 8.22426096,21.3333333 8.50152905,21.3333333 L14.1651376,21.3333333 C14.4424057,21.3333333 14.6666667,21.0352304 14.6666667,20.6666667 C14.6666667,20.298103 14.4424057,20 14.1692151,20 Z" id="Shape"></path>
                <path d="M14.1692151,14.6666667 L8.50152905,14.6666667 C8.22426096,14.6666667 8,14.9647696 8,15.3333333 C8,15.701897 8.22426096,16 8.50152905,16 L14.1651376,16 C14.4424057,16 14.6666667,15.701897 14.6666667,15.3333333 C14.6666667,14.9647696 14.4424057,14.6666667 14.1692151,14.6666667 Z" id="Shape"></path>
            </g>
        </g>
    </g>
</svg>