<?xml version="1.0" encoding="UTF-8"?>
<svg width="19px" height="17px" viewBox="0 0 19 17" version="1.1" xmlns="http://www.w3.org/2000/svg" xmlns:xlink="http://www.w3.org/1999/xlink">
    <!-- Generator: Sketch 51.2 (57519) - http://www.bohemiancoding.com/sketch -->
    <title>Reddit</title>
    <desc>Created with Sketch.</desc>
    <defs></defs>
    <g id="Symbols" stroke="none" stroke-width="1" fill="none" fill-rule="evenodd">
        <g id="footer(desktop)" transform="translate(-1165.000000, -367.000000)" fill="#8799AB" fill-rule="nonzero">
            <g id="footer2">
                <g id="Group-4" transform="translate(215.000000, 365.000000)">
                    <g id="Group-2" transform="translate(779.000000, 2.000000)">
                        <g id="Reddit" transform="translate(171.067633, 0.575000)">
                            <path d="M12.1604,10.4972 C11.4409537,10.4941501 10.8579069,9.91276801 10.8528,9.19333333 C10.8528,8.47186667 11.4492,7.86893333 12.1604,7.86893333 C12.8706667,7.86893333 13.4465333,8.47186667 13.4465333,9.19333333 C13.4465333,9.91386667 12.8716,10.4972 12.1604,10.4972 M12.3414667,12.908 C11.7133333,13.5436 10.7286667,13.8534667 9.3324,13.8534667 C7.9352,13.8534667 6.95146667,13.5436 6.32426667,12.908 C6.18753216,12.7689107 6.18753216,12.5458893 6.32426667,12.4068 C6.38920057,12.3406731 6.47798888,12.3034215 6.57066667,12.3034215 C6.66334446,12.3034215 6.75213276,12.3406731 6.81706667,12.4068 C7.30706667,12.9042667 8.12933333,13.146 9.3324,13.146 C10.5345333,13.146 11.3577333,12.9033333 11.8486667,12.4068 C11.9136006,12.3406731 12.0023889,12.3034215 12.0950667,12.3034215 C12.1877445,12.3034215 12.2765328,12.3406731 12.3414667,12.4068 C12.4782012,12.5458893 12.4782012,12.7689107 12.3414667,12.908 M5.2192,9.19333333 C5.2192,8.4728 5.81466667,7.86893333 6.52493333,7.86893333 C7.2352,7.86893333 7.81106667,8.4728 7.81106667,9.19333333 C7.81106667,9.91386667 7.2352,10.4972 6.52493333,10.4972 C5.8060056,10.4936353 5.22379317,9.91225523 5.2192,9.19333333 M18.6666667,7.7588 C18.6666667,6.5772 17.7184,5.61493333 16.5526667,5.61493333 C16.0150667,5.61493333 15.5082667,5.8184 15.12,6.18333333 C13.7246667,5.26213333 11.8561333,4.66666667 9.78693333,4.58546667 L10.9284,1.05186667 L13.9262667,1.76773333 C13.9272,2.74026667 14.7074667,3.5308 15.6669333,3.5308 C16.6264,3.5308 17.4076,2.7384 17.4076,1.76493333 C17.4076,0.7924 16.6264,9.09494702e-13 15.6669333,9.09494702e-13 C14.9482667,9.09494702e-13 14.3313333,0.443333333 14.0653333,1.07426667 L10.4645333,0.213733333 L9.0552,4.578 C6.9076,4.61813333 4.9616,5.2108 3.514,6.15346667 C3.12982209,5.80666808 2.63062043,5.61476978 2.11306667,5.61493333 C0.948266667,5.61493333 2.13162821e-14,6.57626667 2.13162821e-14,7.7588 C2.13162821e-14,8.51013333 0.3864,9.198 1.00426667,9.5844 C0.441466667,12.9556 4.35866667,15.8666667 9.29413333,15.8666667 C14.2090667,15.8666667 18.1132,12.9817333 17.5924,9.6264 C18.2611575,9.2436804 18.6717407,8.53024299 18.6666667,7.75973333" id="reddit-[#143]"></path>
                        </g>
                    </g>
                </g>
            </g>
        </g>
    </g>
</svg>