<?xml version="1.0" encoding="UTF-8"?>
<svg width="67px" height="68px" viewBox="0 0 67 68" version="1.1" xmlns="http://www.w3.org/2000/svg" xmlns:xlink="http://www.w3.org/1999/xlink">
    <!-- Generator: Sketch 51.2 (57519) - http://www.bohemiancoding.com/sketch -->
    <title>Group 15</title>
    <desc>Created with Sketch.</desc>
    <defs></defs>
    <g id="Symbols" stroke="none" stroke-width="1" fill="none" fill-rule="evenodd">
        <g id="03---elements" transform="translate(-1156.000000, -7950.000000)" fill="#CECECE" fill-rule="nonzero">
            <g id="others">
                <g transform="translate(64.000000, 5809.000000)">
                    <g id="arrows" transform="translate(1089.000000, 1977.000000)">
                        <g id="Group-15" transform="translate(3.000000, 164.000000)">
                            <path d="M45.2428191,37.0591417 L49.3590426,33 L67,50.106383 L49.3590426,67.212766 L45.2428191,63.1536242 L55.5333777,53.0057699 L19.9574468,53.0057699 L19.9574468,47.206996 L55.5333777,47.206996 L45.2428191,37.0591417 Z M8.55319149,47.2553191 L17.106383,47.2553191 L17.106383,52.9574468 L8.55319149,52.9574468 L8.55319149,47.2553191 Z M0,47.2553191 L5.70212766,47.2553191 L5.70212766,52.9574468 L0,52.9574468 L0,47.2553191 Z" id="Combined-Shape"></path>
                            <path d="M45.2428191,4.05914172 L49.3590426,0 L67,17.106383 L49.3590426,34.212766 L45.2428191,30.1536242 L55.5333777,20.0057699 L19.9574468,20.0057699 L19.9574468,14.206996 L55.5333777,14.206996 L45.2428191,4.05914172 Z M8.55319149,14.2553191 L17.106383,14.2553191 L17.106383,19.9574468 L8.55319149,19.9574468 L8.55319149,14.2553191 Z M0,14.2553191 L5.70212766,14.2553191 L5.70212766,19.9574468 L0,19.9574468 L0,14.2553191 Z" id="Combined-Shape" transform="translate(33.500000, 17.106383) scale(-1, 1) translate(-33.500000, -17.106383) "></path>
                        </g>
                    </g>
                </g>
            </g>
        </g>
    </g>
</svg>