<?xml version="1.0" encoding="UTF-8"?>
<svg width="18px" height="15px" viewBox="0 0 18 15" version="1.1" xmlns="http://www.w3.org/2000/svg" xmlns:xlink="http://www.w3.org/1999/xlink">
    <!-- Generator: Sketch 51.2 (57519) - http://www.bohemiancoding.com/sketch -->
    <title>twitter-[#154]</title>
    <desc>Created with Sketch.</desc>
    <defs></defs>
    <g id="Symbols" stroke="none" stroke-width="1" fill="none" fill-rule="evenodd">
        <g id="footer(desktop)" transform="translate(-1021.000000, -368.000000)" fill="#96A8B6" fill-rule="nonzero">
            <g id="footer2">
                <g id="Group-4" transform="translate(215.000000, 365.000000)">
                    <g id="Group-2" transform="translate(779.000000, 2.000000)">
                        <g id="Twitter" transform="translate(26.917874, 1.000000)">
                            <path d="M16.1730946,4.26025575 C16.1730946,4.102711 16.1730946,3.9460665 16.1622916,3.79032225 C16.8837962,3.27690791 17.507859,2.63882129 18.0051151,1.90608696 C17.3303533,2.20104874 16.6155764,2.39430548 15.8841125,2.47954987 C16.6519962,2.0285112 17.2293275,1.31324768 17.5081739,0.467478261 C16.7813838,0.891514648 15.988213,1.1897907 15.1621074,1.3497289 C13.7524201,-0.11513934 11.4305764,-0.185122572 9.93522251,1.19218414 C8.97852305,2.07311267 8.57021233,3.40089648 8.86661893,4.66717136 C5.90795851,4.5259349 3.14501052,3.1472379 1.25315601,0.868092072 C0.273543144,2.53155214 0.777959979,4.67145424 2.39738107,5.7222711 C1.81021968,5.70560558 1.23540192,5.54979078 0.720204604,5.26764194 L0.720204604,5.31355499 C0.721104859,7.0447468 1.96075703,8.53557033 3.68384655,8.87856777 C3.13990461,9.02487508 2.56989368,9.04611199 2.01657289,8.94068542 C2.50001023,10.4225064 3.88730435,11.4370946 5.4672532,11.4668031 C3.91315658,12.6670784 1.94965824,13.2086327 -3.50830476e-14,12.9747315 C1.69499527,14.0437033 3.65868799,14.6093967 5.6626087,14.6059949 C12.4568389,14.6086957 16.1730946,9.06672123 16.1730946,4.26025575 Z" id="twitter-[#154]"></path>
                        </g>
                    </g>
                </g>
            </g>
        </g>
    </g>
</svg>