<?xml version="1.0" encoding="UTF-8"?>
<svg width="50px" height="50px" viewBox="0 0 50 50" version="1.1" xmlns="http://www.w3.org/2000/svg" xmlns:xlink="http://www.w3.org/1999/xlink">
    <!-- Generator: Sketch 51.2 (57519) - http://www.bohemiancoding.com/sketch -->
    <title>OUTLINE_copy</title>
    <desc>Created with Sketch.</desc>
    <defs></defs>
    <g id="Symbols" stroke="none" stroke-width="1" fill="none" fill-rule="evenodd">
        <g id="03---elements" transform="translate(-1216.000000, -8187.000000)" fill="#B3B6BA" fill-rule="nonzero">
            <g id="others">
                <g transform="translate(64.000000, 5809.000000)">
                    <g id="Share-to" transform="translate(1084.000000, 2317.000000)">
                        <g id="Group-32">
                            <g id="Group-18" transform="translate(0.000000, 61.000000)">
                                <g id="Twitter" transform="translate(68.000000, 0.000000)">
                                    <g id="OUTLINE_copy">
                                        <path d="M28.146875,14.94375 C25.8984375,15.7609375 24.478125,17.871875 24.640625,20.1796875 L24.6953125,21.0703125 L23.7953125,20.9609375 C20.5234375,20.5421875 17.6625,19.125 15.234375,16.7421875 L14.046875,15.5609375 L13.740625,16.434375 C13.09375,18.3796875 13.5078125,20.434375 14.85625,21.8171875 C15.575,22.58125 15.4125,22.690625 14.1734375,22.2359375 C13.7421875,22.090625 13.3640625,21.98125 13.328125,22.0359375 C13.203125,22.1640625 13.634375,23.8171875 13.975,24.471875 C14.4421875,25.38125 15.3953125,26.271875 16.4390625,26.8 L17.3203125,27.21875 L16.278125,27.2375 C15.271875,27.2375 15.2359375,27.25625 15.34375,27.6390625 C15.703125,28.8203125 17.1234375,30.075 18.70625,30.621875 L19.821875,31.003125 L18.8515625,31.584375 C17.3830934,32.4300906 15.7254372,32.8927298 14.03125,32.9296875 C13.2203125,32.9484375 12.55625,33.0203125 12.55625,33.075 C12.55625,33.25625 14.7515625,34.2734375 16.0265625,34.675 C19.85625,35.85625 24.4078125,35.346875 27.825,33.3296875 C30.253125,31.8921875 32.6796875,29.0390625 33.8140625,26.2734375 C34.4265625,24.8015625 35.0375,22.109375 35.0375,20.8203125 C35.0375,19.9828125 35.0921875,19.875 36.0984375,18.875 C36.6921875,18.29375 37.25,17.6578125 37.3578125,17.475 C37.5375,17.1296875 37.51875,17.1296875 36.603125,17.4375 C35.075,17.9828125 34.8578125,17.9109375 35.6140625,17.0921875 C36.1703125,16.5109375 36.8375,15.45625 36.8375,15.146875 C36.8375,15.0921875 36.56875,15.1828125 36.2609375,15.346875 C35.9375,15.528125 35.21875,15.8015625 34.678125,15.9640625 L33.7078125,16.2734375 L32.8265625,15.671875 C32.340625,15.3453125 31.6578125,14.98125 31.2984375,14.871875 C30.378125,14.6171875 28.975,14.653125 28.146875,14.94375 Z" id="Shape"></path>
                                        <path d="M25,1.5625 C37.9234375,1.5625 48.4375,12.0765625 48.4375,25 C48.4375,37.9234375 37.9234375,48.4375 25,48.4375 C12.0765625,48.4375 1.5625,37.9234375 1.5625,25 C1.5625,12.0765625 12.0765625,1.5625 25,1.5625 Z M25,0 C11.1921875,0 0,11.19375 0,25 C0,38.80625 11.1921875,50 25,50 C38.8078125,50 50,38.80625 50,25 C50,11.19375 38.8078125,0 25,0 Z" id="Shopping_10_117_"></path>
                                    </g>
                                </g>
                            </g>
                        </g>
                    </g>
                </g>
            </g>
        </g>
    </g>
</svg>