<?xml version="1.0" encoding="UTF-8"?>
<svg width="88px" height="65px" viewBox="0 0 88 65" version="1.1" xmlns="http://www.w3.org/2000/svg" xmlns:xlink="http://www.w3.org/1999/xlink">
    <!-- Generator: Sketch 51.2 (57519) - http://www.bohemiancoding.com/sketch -->
    <title>Wallet</title>
    <desc>Created with Sketch.</desc>
    <defs></defs>
    <g id="Symbols" stroke="none" stroke-width="1" fill="none" fill-rule="evenodd">
        <g id="unlock-box" transform="translate(-42.000000, -70.000000)" fill="#FFFFFF" fill-rule="nonzero" stroke="#FFFFFF" stroke-width="0.8">
            <g id="Wallet" transform="translate(43.000000, 71.000000)">
                <path d="M56.4135065,19.0722389 L55.9366234,19.0722389 L55.9366234,12.7491221 C55.9366234,5.73717401 50.2316883,0.0322389475 43.2197403,0.0322389475 C36.2077922,0.0322389475 30.5028571,5.73717401 30.5028571,12.7491221 C30.5028571,13.6322389 31.227013,14.3563948 32.1101299,14.3563948 C32.9932468,14.3563948 33.7174026,13.6322389 33.7174026,12.7491221 C33.7174026,7.50340778 37.9916883,3.22912206 43.2374026,3.22912206 C48.4831169,3.22912206 52.7574026,7.50340778 52.7574026,12.7491221 L52.7574026,19.0722389 L30.025974,19.0722389 C27.7298701,19.0722389 25.8576623,20.9444467 25.8576623,23.2405506 L25.8576623,40.6026286 C25.8576623,42.8987325 27.7298701,44.7709402 30.025974,44.7709402 L56.3958442,44.7709402 C58.6919481,44.7709402 60.5641558,42.8987325 60.5641558,40.6026286 L60.5641558,23.2405506 C60.5641558,20.9444467 58.7096104,19.0722389 56.4135065,19.0722389 Z M57.3672727,40.5849662 C57.3672727,41.1148364 56.9433766,41.5387325 56.4135065,41.5387325 L30.025974,41.5387325 C29.4961039,41.5387325 29.0722078,41.1148364 29.0722078,40.5849662 L29.0722078,23.2228883 C29.0722078,22.6930182 29.4961039,22.2691221 30.025974,22.2691221 L56.3958442,22.2691221 C56.9257143,22.2691221 57.3496104,22.6930182 57.3496104,23.2228883 L57.3496104,40.5849662 L57.3672727,40.5849662 Z" id="Shape"></path>
                <path d="M43.678961,27.3912 C42.5132468,27.1615896 41.2945455,27.8150961 40.8,28.9278234 C40.2877922,30.0758753 40.6233766,31.365226 41.6654545,32.1247065 C41.8774026,32.2836675 41.9127273,32.4249662 41.9127273,32.6545766 C41.9127273,33.8026286 41.9127273,34.9330182 41.9127273,36.0810701 C41.9127273,37.017174 42.9018182,37.7413299 43.9085714,37.2291221 C44.3324675,37.017174 44.5797403,36.5579532 44.5444156,36.0810701 C44.5444156,34.9330182 44.5444156,33.8026286 44.5444156,32.6545766 C44.5444156,32.4073039 44.5974026,32.2483428 44.827013,32.0893818 C45.5511688,31.5595117 45.9044156,30.8353558 45.9044156,29.9522389 C45.8690909,28.6805506 44.9683117,27.6384727 43.678961,27.3912 Z" id="Shape"></path>
                <path d="M20.3823377,30.9943169 L11.4981818,30.9943169 C10.7916883,28.5392519 8.54857143,26.7376935 5.8638961,26.7376935 C2.63168831,26.7376935 0,29.3693818 0,32.6015896 C0,35.8337974 2.63168831,38.4654857 5.8638961,38.4654857 C8.53090909,38.4654857 10.7916883,36.6639273 11.4981818,34.2088623 L20.4,34.2088623 C21.2831169,34.2088623 22.0072727,33.4847065 22.0072727,32.6015896 C21.9896104,31.7184727 21.2654545,30.9943169 20.3823377,30.9943169 Z M5.8638961,35.2509402 C4.39792208,35.2509402 3.21454545,34.0675636 3.21454545,32.6015896 C3.21454545,31.1356156 4.39792208,29.9522389 5.8638961,29.9522389 C7.32987013,29.9522389 8.51324675,31.1356156 8.51324675,32.6015896 C8.51324675,34.0675636 7.32987013,35.2509402 5.8638961,35.2509402 Z" id="Shape"></path>
                <path d="M20.3823377,21.5802909 L10.6503896,21.5802909 C8.90181818,21.5802909 7.47116883,20.1496415 7.47116883,18.4010701 L7.47116883,13.1730182 C9.92623377,12.4665247 11.7277922,10.2234078 11.7277922,7.53873245 C11.7277922,4.30652466 9.0961039,1.67483635 5.8638961,1.67483635 C2.63168831,1.67483635 0,4.30652466 0,7.53873245 C0,10.2057454 1.80155844,12.4665247 4.25662338,13.1730182 L4.25662338,18.4010701 C4.25662338,21.9158753 7.11792208,24.777174 10.6327273,24.777174 L20.3823377,24.777174 C21.2654545,24.777174 21.9896104,24.0530182 21.9896104,23.1699013 C21.9896104,22.2867844 21.2654545,21.5802909 20.3823377,21.5802909 Z M3.19688312,7.53873245 C3.19688312,6.07275843 4.38025974,4.8893818 5.84623377,4.8893818 C7.31220779,4.8893818 8.49558442,6.07275843 8.49558442,7.53873245 C8.49558442,9.00470648 7.31220779,10.1880831 5.84623377,10.1880831 C4.38025974,10.1880831 3.19688312,9.00470648 3.19688312,7.53873245 Z" id="Shape"></path>
                <path d="M20.3823377,40.4083428 L10.6503896,40.4083428 C7.13558442,40.4083428 4.27428571,43.2696415 4.27428571,46.7844467 L4.27428571,52.0124987 C1.81922078,52.7189922 0.0176623377,54.9621091 0.0176623377,57.6467844 C0.0176623377,60.8789922 2.64935065,63.5106805 5.88155844,63.5106805 C9.11376623,63.5106805 11.7454545,60.8789922 11.7454545,57.6467844 C11.7454545,54.9797714 9.9438961,52.7189922 7.48883117,52.0124987 L7.48883117,46.7844467 C7.48883117,45.0358753 8.91948052,43.605226 10.6680519,43.605226 L20.4176623,43.605226 C21.3007792,43.605226 22.0249351,42.8810701 22.0249351,41.9979532 C21.9896104,41.1324987 21.2654545,40.4083428 20.3823377,40.4083428 Z M8.51324675,57.6467844 C8.51324675,59.1127584 7.32987013,60.2961351 5.8638961,60.2961351 C4.39792208,60.2961351 3.21454545,59.1127584 3.21454545,57.6467844 C3.21454545,56.1808104 4.39792208,54.9974338 5.8638961,54.9974338 C7.32987013,54.9974338 8.51324675,56.1808104 8.51324675,57.6467844 Z" id="Shape"></path>
                <path d="M80.5755844,26.7376935 C77.9085714,26.7376935 75.6477922,28.5392519 74.9412987,30.9943169 L66.0394805,30.9943169 C65.1563636,30.9943169 64.4322078,31.7184727 64.4322078,32.6015896 C64.4322078,33.4847065 65.1563636,34.2088623 66.0394805,34.2088623 L74.9412987,34.2088623 C75.6477922,36.6639273 77.8909091,38.4654857 80.5755844,38.4654857 C83.8077922,38.4654857 86.4394805,35.8337974 86.4394805,32.6015896 C86.4394805,29.3693818 83.8077922,26.7376935 80.5755844,26.7376935 Z M80.5755844,35.2509402 C79.1096104,35.2509402 77.9262338,34.0675636 77.9262338,32.6015896 C77.9262338,31.1356156 79.1096104,29.9522389 80.5755844,29.9522389 C82.0415584,29.9522389 83.2249351,31.1356156 83.2249351,32.6015896 C83.2425974,34.0675636 82.0415584,35.2509402 80.5755844,35.2509402 Z" id="Shape"></path>
                <path d="M82.1828571,52.0124987 L82.1828571,46.7844467 C82.1828571,43.2696415 79.3215584,40.4083428 75.8067532,40.4083428 L66.0571429,40.4083428 C65.174026,40.4083428 64.4498701,41.1324987 64.4498701,42.0156156 C64.4498701,42.8987325 65.174026,43.6228883 66.0571429,43.6228883 L75.8067532,43.6228883 C77.5553247,43.6228883 78.985974,45.0535376 78.985974,46.8021091 L78.985974,52.030161 C76.5309091,52.7366545 74.7293506,54.9797714 74.7293506,57.6644467 C74.7293506,60.8966545 77.361039,63.5283428 80.5932468,63.5283428 C83.8254545,63.5283428 86.4571429,60.8966545 86.4571429,57.6644467 C86.4394805,54.9797714 84.6379221,52.7189922 82.1828571,52.0124987 Z M80.5755844,60.3137974 C79.1096104,60.3137974 77.9262338,59.1304208 77.9262338,57.6644467 C77.9262338,56.1984727 79.1096104,55.0150961 80.5755844,55.0150961 C82.0415584,55.0150961 83.2249351,56.1984727 83.2249351,57.6644467 C83.2425974,59.1127584 82.0415584,60.3137974 80.5755844,60.3137974 Z" id="Shape"></path>
                <path d="M66.0571429,24.777174 L75.8067532,24.777174 C79.3215584,24.777174 82.1828571,21.9158753 82.1828571,18.4010701 L82.1828571,13.1730182 C84.6379221,12.4665247 86.4394805,10.2234078 86.4394805,7.53873245 C86.4394805,4.30652466 83.8077922,1.67483635 80.5755844,1.67483635 C77.3433766,1.67483635 74.7116883,4.30652466 74.7116883,7.53873245 C74.7116883,10.2057454 76.5132468,12.4665247 78.9683117,13.1730182 L78.9683117,18.4010701 C78.9683117,20.1496415 77.5376623,21.5802909 75.7890909,21.5802909 L66.0394805,21.5802909 C65.1563636,21.5802909 64.4322078,22.3044467 64.4322078,23.1875636 C64.4498701,24.0530182 65.174026,24.777174 66.0571429,24.777174 Z M77.9262338,7.53873245 C77.9262338,6.07275843 79.1096104,4.8893818 80.5755844,4.8893818 C82.0415584,4.8893818 83.2249351,6.07275843 83.2249351,7.53873245 C83.2249351,9.00470648 82.0415584,10.1880831 80.5755844,10.1880831 C79.1096104,10.1880831 77.9262338,9.00470648 77.9262338,7.53873245 Z" id="Shape"></path>
            </g>
        </g>
    </g>
</svg>