<?xml version="1.0" encoding="UTF-8"?>
<svg width="57px" height="57px" viewBox="0 0 57 57" version="1.1" xmlns="http://www.w3.org/2000/svg" xmlns:xlink="http://www.w3.org/1999/xlink">
    <!-- Generator: Sketch 51.2 (57519) - http://www.bohemiancoding.com/sketch -->
    <title>wallet</title>
    <desc>Created with Sketch.</desc>
    <defs></defs>
    <g id="Symbols" stroke="none" stroke-width="1" fill="none" fill-rule="evenodd">
        <g id="balance-box" transform="translate(-37.000000, -35.000000)" fill="#FFFFFF" fill-rule="nonzero">
            <g id="wallet" transform="translate(37.000000, 35.000000)">
                <path d="M53.6601562,30.5684765 L53.6601562,28.3886719 C53.6601562,25.6628027 52.3468183,23.2381875 50.3200898,21.7133262 C50.3200898,21.7118789 50.3203125,21.7104317 50.3203125,21.7089844 L50.3203125,18.3691407 C50.3203125,13.765166 46.5746777,10.0195312 41.9707032,10.0195312 L40.3007812,10.0195312 L40.3007812,5.00976562 C40.3007812,2.24738086 38.0534004,0 35.2910157,0 L15.0292969,0 C12.2669121,0 10.0195312,2.24738086 10.0195312,5.00976562 L10.0195312,10.0195312 L6.6796875,10.0195312 C2.99650782,10.0195312 0,13.016039 0,16.6992188 L0,48.6503907 C0,53.2543652 3.74563477,57 8.34960941,57 L45.3105469,57 C49.9145215,57 53.6601562,53.2543652 53.6601562,48.6503907 L53.6601562,46.6932422 C55.603834,46.0038985 57,44.1477246 57,41.9707032 L57,35.2910157 C57,33.1139942 55.603834,31.2578203 53.6601562,30.5684765 Z M40.1111111,13.7222222 L41.6944444,13.7222222 C44.3135945,13.7222222 46.4444444,15.8530722 46.4444444,18.4722222 L46.4444444,20.0555556 C45.75105,20.0555556 40.9169222,20.0555556 40.1111111,20.0555556 L40.1111111,13.7222222 Z M26.3888889,3.16666667 L35.2234299,3.16666667 C36.1723973,3.16666667 36.9444444,3.92430222 36.9444444,4.85555556 L36.9444444,20.0555556 L26.3888889,20.0555556 L26.3888889,3.16666667 Z M20.0555556,3.16666667 L23.2222222,3.16666667 L23.2222222,20.0555556 L20.0555556,20.0555556 L20.0555556,3.16666667 Z M13.7222222,4.85555556 C13.7222222,3.92430222 14.4325056,3.16666667 15.3055555,3.16666667 L16.8888889,3.16666667 L16.8888889,20.0555556 L13.7222222,20.0555556 L13.7222222,4.85555556 Z M6.33333333,13.7222222 L9.5,13.7222222 L9.5,20.0555556 L6.33333333,20.0555556 C4.58723333,20.0555556 3.16666667,18.6349889 3.16666667,16.8888889 C3.16666667,15.1427889 4.58723333,13.7222222 6.33333333,13.7222222 Z M50.6666667,48.745356 C50.6666667,51.5508667 48.3944333,53.8333333 45.6015008,53.8333333 L8.23183258,53.8333333 C5.43890008,53.8333333 3.16666667,51.5508667 3.16666667,48.745356 L3.16666667,22.1666667 C4.16090245,22.7459046 5.3137342,23.0793368 6.54344392,23.0793368 C8.50917855,23.0793368 45.0741607,23.0793368 45.6015008,23.0793368 C48.3944333,23.0793368 50.6666667,25.3618034 50.6666667,28.1673141 L50.6666667,30.0894389 L45.6015008,30.0894389 C40.9466133,30.0894389 37.1595577,33.89355 37.1595577,38.5694013 C37.1595577,43.2452524 40.9466133,47.0493635 45.6015008,47.0493635 L50.6666667,47.0493635 L50.6666667,48.745356 Z M53.8333333,41.6944444 C53.8333333,42.5674944 53.0638597,43.2777778 52.1180556,43.2777778 L45.2569445,43.2777778 C42.4195319,43.2777778 40.1111111,41.1469278 40.1111111,38.5277777 C40.1111111,35.9086277 42.4195319,33.7777778 45.2569445,33.7777778 L52.1180556,33.7777778 C53.0638597,33.7777778 53.8333333,34.4880611 53.8333333,35.3611111 L53.8333333,41.6944444 Z" id="Shape"></path>
                <circle id="Oval" cx="47.5" cy="38.5" r="1.5"></circle>
            </g>
        </g>
    </g>
</svg>