<?xml version="1.0" encoding="UTF-8"?>
<svg width="201px" height="184px" viewBox="0 0 201 184" version="1.1" xmlns="http://www.w3.org/2000/svg" xmlns:xlink="http://www.w3.org/1999/xlink">
    <!-- Generator: Sketch 51.2 (57519) - http://www.bohemiancoding.com/sketch -->
    <title>ADA</title>
    <desc>Created with Sketch.</desc>
    <defs></defs>
    <g id="Page-1" stroke="none" stroke-width="1" fill="none" fill-rule="evenodd">
        <g id="Artboard" transform="translate(-1456.000000, -1620.000000)" fill="#000000">
            <g id="ADA" transform="translate(1456.000000, 1619.000000)">
                <path d="M110.0095,54.1893 C103.4675,57.9163 101.1845,66.2413 104.9115,72.7843 C108.6385,79.3263 116.9635,81.6083 123.5055,77.8823 C130.0485,74.1553 132.3305,65.8303 128.6045,59.2873 C124.8775,52.7453 116.5515,50.4623 110.0095,54.1893" id="Fill-579"></path>
                <path d="M96.9285,31.0399 C92.3035,33.6749 90.6895,39.5599 93.3245,44.1849 C95.9585,48.8099 101.8445,50.4239 106.4695,47.7889 C111.0945,45.1539 112.7075,39.2689 110.0735,34.6439 C107.4385,30.0189 101.5535,28.4049 96.9285,31.0399" id="Fill-580"></path>
                <path d="M96.9285,138.5872 C92.3035,141.2222 90.6895,147.1072 93.3245,151.7322 C95.9585,156.3582 101.8445,157.9712 106.4695,155.3362 C111.0945,152.7022 112.7075,146.8162 110.0735,142.1912 C107.4385,137.5662 101.5535,135.9532 96.9285,138.5872" id="Fill-581"></path>
                <path d="M143.2932,57.661 C138.6682,60.296 137.0542,66.181 139.6892,70.806 C142.3242,75.432 148.2092,77.045 152.8342,74.41 C157.4592,71.776 159.0732,65.89 156.4382,61.265 C153.8032,56.64 147.9182,55.027 143.2932,57.661" id="Fill-582"></path>
                <path d="M49.6072,111.5145 C44.9822,114.1495 43.3682,120.0345 46.0032,124.6595 C48.6382,129.2845 54.5232,130.8985 59.1482,128.2635 C63.7732,125.6295 65.3872,119.7435 62.7522,115.1185 C60.1172,110.4935 54.2322,108.8805 49.6072,111.5145" id="Fill-583"></path>
                <path d="M48.97,57.661 C44.345,60.296 42.731,66.181 45.366,70.806 C48.001,75.432 53.886,77.045 58.511,74.41 C63.136,71.776 64.75,65.89 62.115,61.265 C59.48,56.64 53.595,55.027 48.97,57.661" id="Fill-584"></path>
                <path d="M143.2932,110.8773 C138.6682,113.5123 137.0542,119.3973 139.6892,124.0223 C142.3242,128.6473 148.2092,130.2613 152.8342,127.6263 C157.4592,124.9913 159.0732,119.1063 156.4382,114.4813 C153.8032,109.8563 147.9182,108.2423 143.2932,110.8773" id="Fill-585"></path>
                <path d="M167.6926,86.2381 C164.0156,88.3331 162.7336,93.0111 164.8276,96.6881 C166.9216,100.3651 171.6006,101.6481 175.2776,99.5531 C178.9546,97.4591 180.2376,92.7801 178.1426,89.1031 C176.0476,85.4261 171.3696,84.1441 167.6926,86.2381" id="Fill-586"></path>
                <path d="M26.5266,86.2381 C22.8496,88.3331 21.5666,93.0111 23.6616,96.6881 C25.7556,100.3651 30.4346,101.6481 34.1116,99.5531 C37.7886,97.4591 39.0706,92.7801 36.9766,89.1031 C34.8816,85.4261 30.2036,84.1441 26.5266,86.2381" id="Fill-587"></path>
                <path d="M129.301,32.0779 C129.223,36.3089 132.59,39.8019 136.821,39.8799 C141.051,39.9569 144.544,36.5909 144.622,32.3599 C144.7,28.1289 141.333,24.6359 137.103,24.5579 C132.872,24.4799 129.379,27.8469 129.301,32.0779" id="Fill-588"></path>
                <path d="M57.1819,153.432 C57.1039,157.663 60.4709,161.156 64.7019,161.234 C68.9319,161.311 72.4259,157.945 72.5029,153.714 C72.5809,149.483 69.2149,145.99 64.9839,145.912 C60.7529,145.834 57.2599,149.201 57.1819,153.432" id="Fill-589"></path>
                <path d="M61.4158,38.6175 C65.0808,40.7325 69.7668,39.4765 71.8818,35.8115 C73.9968,32.1465 72.7408,27.4605 69.0758,25.3455 C65.4098,23.2305 60.7248,24.4865 58.6088,28.1515 C56.4938,31.8165 57.7508,36.5025 61.4158,38.6175" id="Fill-590"></path>
                <path d="M132.7288,160.4466 C136.3948,162.5616 141.0798,161.3046 143.1948,157.6396 C145.3108,153.9746 144.0538,149.2896 140.3888,147.1746 C136.7238,145.0586 132.0378,146.3156 129.9228,149.9806 C127.8078,153.6456 129.0638,158.3316 132.7288,160.4466" id="Fill-591"></path>
                <path d="M125.6238,81.4613 C119.0818,85.1883 116.7988,93.5133 120.5258,100.0553 C124.2528,106.5983 132.5778,108.8803 139.1208,105.1533 C145.6628,101.4263 147.9448,93.1023 144.2188,86.5593 C140.4918,80.0173 132.1658,77.7343 125.6238,81.4613" id="Fill-592"></path>
                <path d="M110.0095,108.7327 C103.4675,112.4597 101.1845,120.7847 104.9115,127.3267 C108.6385,133.8697 116.9635,136.1517 123.5055,132.4247 C130.0485,128.6987 132.3305,120.3737 128.6045,113.8307 C124.8775,107.2887 116.5515,105.0057 110.0095,108.7327" id="Fill-593"></path>
                <path d="M91.7991,54.1893 C98.3411,57.9163 100.6241,66.2413 96.8981,72.7843 C93.1711,79.3263 84.8451,81.6083 78.3031,77.8823 C71.7601,74.1553 69.4781,65.8303 73.2051,59.2873 C76.9321,52.7453 85.2571,50.4623 91.7991,54.1893" id="Fill-594"></path>
                <path d="M76.1848,81.4613 C82.7268,85.1883 85.0098,93.5133 81.2828,100.0553 C77.5568,106.5983 69.2308,108.8803 62.6888,105.1533 C56.1458,101.4263 53.8638,93.1023 57.5908,86.5593 C61.3168,80.0173 69.6428,77.7343 76.1848,81.4613" id="Fill-595"></path>
                <path d="M91.7991,108.7327 C98.3411,112.4597 100.6241,120.7847 96.8981,127.3267 C93.1711,133.8697 84.8451,136.1517 78.3031,132.4247 C71.7601,128.6987 69.4781,120.3737 73.2051,113.8307 C76.9321,107.2887 85.2571,105.0057 91.7991,108.7327" id="Fill-596"></path>
                <path d="M106.8127,7.0462 C106.8127,10.3902 104.1027,13.1012 100.7577,13.1012 C97.4147,13.1012 94.7037,10.3902 94.7037,7.0462 C94.7037,3.7022 97.4147,0.9912 100.7577,0.9912 C104.1027,0.9912 106.8127,3.7022 106.8127,7.0462" id="Fill-597"></path>
                <path d="M106.8127,178.3255 C106.8127,181.6695 104.1027,184.3805 100.7577,184.3805 C97.4147,184.3805 94.7037,181.6695 94.7037,178.3255 C94.7037,174.9815 97.4147,172.2715 100.7577,172.2715 C104.1027,172.2715 106.8127,174.9815 106.8127,178.3255" id="Fill-598"></path>
                <path d="M29.3542,45.0174 C32.2592,46.6734 33.2712,50.3704 31.6162,53.2754 C29.9602,56.1814 26.2632,57.1934 23.3572,55.5374 C20.4532,53.8814 19.4402,50.1844 21.0962,47.2794 C22.7512,44.3744 26.4492,43.3614 29.3542,45.0174" id="Fill-599"></path>
                <path d="M178.1589,129.8343 C181.0639,131.4903 182.0759,135.1873 180.4209,138.0923 C178.7649,140.9973 175.0679,142.0103 172.1619,140.3543 C169.2569,138.6983 168.2449,135.0013 169.9009,132.0963 C171.5559,129.1913 175.2539,128.1783 178.1589,129.8343" id="Fill-600"></path>
                <path d="M23.3391,129.7952 C26.2451,128.1412 29.9421,129.1552 31.5961,132.0612 C33.2511,134.9672 32.2361,138.6642 29.3301,140.3182 C26.4241,141.9732 22.7281,140.9582 21.0731,138.0522 C19.4191,135.1472 20.4331,131.4502 23.3391,129.7952" id="Fill-601"></path>
                <path d="M172.1863,45.053 C175.0923,43.399 178.7893,44.413 180.4433,47.319 C182.0983,50.225 181.0833,53.922 178.1773,55.576 C175.2713,57.231 171.5743,56.216 169.9203,53.31 C168.2663,50.405 169.2803,46.708 172.1863,45.053" id="Fill-602"></path>
                <path d="M57.5823,10.8699 C57.5823,13.5989 55.3703,15.8109 52.6413,15.8109 C49.9113,15.8109 47.6993,13.5989 47.6993,10.8699 C47.6993,8.1409 49.9113,5.9289 52.6413,5.9289 C55.3703,5.9289 57.5823,8.1409 57.5823,10.8699" id="Fill-603"></path>
                <path d="M154.1047,174.661 C154.1047,177.39 151.8927,179.602 149.1637,179.602 C146.4347,179.602 144.2217,177.39 144.2217,174.661 C144.2217,171.932 146.4347,169.72 149.1637,169.72 C151.8927,169.72 154.1047,171.932 154.1047,174.661" id="Fill-604"></path>
                <path d="M151.365,15.0677 C148.981,16.3957 145.971,15.5397 144.643,13.1557 C143.315,10.7717 144.172,7.7617 146.555,6.4337 C148.94,5.1057 151.949,5.9617 153.277,8.3457 C154.605,10.7307 153.749,13.7397 151.365,15.0677" id="Fill-605"></path>
                <path d="M55.2488,179.0975 C52.8648,180.4255 49.8548,179.5695 48.5268,177.1855 C47.1988,174.8015 48.0548,171.7915 50.4388,170.4635 C52.8238,169.1355 55.8328,169.9915 57.1608,172.3755 C58.4888,174.7605 57.6328,177.7695 55.2488,179.0975" id="Fill-606"></path>
                <path d="M193.4626,96.7747 C191.1076,95.3957 190.3166,92.3687 191.6956,90.0137 C193.0746,87.6587 196.1026,86.8677 198.4576,88.2467 C200.8126,89.6267 201.6036,92.6527 200.2236,95.0077 C198.8446,97.3627 195.8166,98.1537 193.4626,96.7747" id="Fill-607"></path>
                <path d="M3.3469,97.2845 C0.9919,95.9055 0.2009,92.8775 1.5799,90.5225 C2.9599,88.1685 5.9869,87.3775 8.3419,88.7565 C10.6969,90.1355 11.4879,93.1625 10.1079,95.5175 C8.7289,97.8725 5.7019,98.6635 3.3469,97.2845" id="Fill-608"></path>
            </g>
        </g>
    </g>
</svg>