<?xml version="1.0" encoding="UTF-8"?>
<svg width="201px" height="201px" viewBox="0 0 201 201" version="1.1" xmlns="http://www.w3.org/2000/svg" xmlns:xlink="http://www.w3.org/1999/xlink">
    <!-- Generator: Sketch 51.2 (57519) - http://www.bohemiancoding.com/sketch -->
    <title>ADX</title>
    <desc>Created with Sketch.</desc>
    <defs></defs>
    <g id="Page-1" stroke="none" stroke-width="1" fill="none" fill-rule="evenodd">
        <g id="Artboard" transform="translate(-1452.000000, -7693.000000)">
            <g id="ADX" transform="translate(1452.000000, 7693.000000)">
                <path d="M200.9495,100.4637 C200.9495,155.6927 156.1785,200.4637 100.9495,200.4637 C45.7205,200.4637 0.9495,155.6927 0.9495,100.4637 C0.9495,45.2347 45.7205,0.4637 100.9495,0.4637 C156.1785,0.4637 200.9495,45.2347 200.9495,100.4637" id="Fill-899" fill="#1472BE"></path>
                <polygon id="Fill-901" fill="#FFFFFF" points="100.9495 115.6336 100.9405 115.6466 100.9495 115.6546 100.9625 115.6466"></polygon>
                <polygon id="Fill-903" fill="#FFFFFF" points="146.9495 131.2723 131.5735 146.6523 116.5875 131.2723 101.1465 115.8313 100.9495 115.6333 100.9405 115.6463 100.7515 115.8313 85.3115 131.2723 70.3295 146.6523 54.9495 131.2723 85.5735 100.6523 85.7575 100.4633 54.9495 69.6553 70.3295 54.2793 85.3115 69.6553 100.9495 85.2933 100.9625 85.2853 101.1465 85.0953 116.5875 69.6553 131.5735 54.2793 146.9495 69.6553 116.3295 100.2793 116.1405 100.4633"></polygon>
                <polygon id="Fill-905" fill="#FFFFFF" points="129.9587 52.8221 114.7797 68.0051 100.9497 54.0171 87.3087 67.6721 72.1257 52.4891 100.9497 23.6551"></polygon>
                <polygon id="Fill-907" fill="#FFFFFF" points="100.9495 85.2723 100.9405 85.2853 100.9495 85.2933 100.9625 85.2853"></polygon>
                <polygon id="Fill-909" fill="#FFFFFF" points="130.0125 148.2088 100.9495 177.2718 72.1095 148.5838 87.2925 133.4048 100.9495 146.9108 114.8335 133.0298"></polygon>
            </g>
        </g>
    </g>
</svg>