<?xml version="1.0" encoding="UTF-8"?>
<svg width="201px" height="201px" viewBox="0 0 201 201" version="1.1" xmlns="http://www.w3.org/2000/svg" xmlns:xlink="http://www.w3.org/1999/xlink">
    <!-- Generator: Sketch 51.2 (57519) - http://www.bohemiancoding.com/sketch -->
    <title>AE</title>
    <desc>Created with Sketch.</desc>
    <defs></defs>
    <g id="Page-1" stroke="none" stroke-width="1" fill="none" fill-rule="evenodd">
        <g id="Artboard" transform="translate(-762.000000, -6146.000000)">
            <g id="AE" transform="translate(762.000000, 6146.000000)">
                <path d="M200.3679,100.3612 C200.3679,155.5902 155.5969,200.3612 100.3679,200.3612 C45.1399,200.3612 0.3679,155.5902 0.3679,100.3612 C0.3679,45.1322 45.1399,0.3612 100.3679,0.3612 C155.5969,0.3612 200.3679,45.1322 200.3679,100.3612" id="Fill-413" fill="#F4F4F4"></path>
                <path d="M89.7473,106.8485 C91.8783,109.9595 93.9663,113.0075 96.3393,116.4725 C93.1283,119.6775 90.0313,123.2035 86.4773,126.1875 C83.1643,128.9705 79.5153,131.4395 75.7473,133.5765 C68.9873,137.4105 61.4863,138.3135 53.9063,137.5215 C46.8783,136.7875 40.6223,133.8595 35.0573,129.4215 C28.5423,124.2285 24.1313,117.6195 22.1913,109.6015 C20.3373,101.9405 20.5863,94.2085 23.5643,86.7735 C27.2323,77.6175 33.5533,70.8215 42.4073,66.5095 C47.2203,64.1655 52.3343,63.0655 57.7783,62.9945 C64.5063,62.9085 70.7813,64.2115 76.7013,67.3605 C82.5353,70.4635 87.5823,74.5935 91.5263,79.8405 C97.7783,88.1595 103.5903,96.8085 109.8483,105.1235 C113.2903,109.6995 117.0403,114.0955 121.0573,118.1735 C125.0373,122.2135 129.7113,125.4595 135.3313,126.9845 C144.4623,129.4615 152.6483,127.4645 160.0953,121.7885 C163.2243,119.4045 165.4763,116.3685 167.3383,112.9645 C167.5863,112.5115 168.1683,111.9525 168.6093,111.9395 C171.6943,111.8505 174.7833,111.8925 178.0893,111.8925 C176.5683,116.1255 174.6523,119.8705 172.0563,123.2445 C168.2283,128.2165 163.3643,131.9005 157.6543,134.4535 C153.4273,136.3445 149.0053,137.4005 144.3513,137.6275 C137.6023,137.9575 131.1013,136.8635 125.1083,133.8305 C121.5713,132.0405 118.2233,129.7195 115.1523,127.1955 C108.3323,121.5885 103.5043,114.2725 98.4863,107.1085 C93.2893,99.6905 88.0443,92.2735 82.3063,85.2775 C77.6743,79.6305 72.1033,74.9375 64.5573,73.2915 C55.9773,71.4215 48.3223,73.4115 41.3523,78.4785 C36.6643,81.8865 33.4503,86.4435 31.8953,92.0035 C28.4673,104.2645 32.4413,117.1795 44.1783,124.1515 C54.3813,130.2125 66.8393,129.1225 75.9263,121.8985 C78.6153,119.7615 81.2273,117.4675 83.5453,114.9435 C85.8003,112.4885 87.6343,109.6455 89.7473,106.8485" id="Fill-414" fill="#D14071"></path>
                <path d="M135.0999,107.0223 L135.0999,98.5973 L170.1779,98.5973 C169.6879,93.3253 168.1969,88.5973 165.2359,84.4633 C161.0219,78.5843 155.1859,75.0943 148.1239,73.7333 C137.7609,71.7353 129.1319,75.3243 121.3659,81.9993 C117.3869,85.4183 114.3409,89.5323 111.3039,93.9783 C109.3649,91.1643 107.4599,88.5073 105.7089,85.7523 C105.4219,85.3013 105.5479,84.1713 105.9239,83.7803 C109.3579,80.2043 112.7719,76.5943 116.4229,73.2463 C120.9449,69.0973 126.2209,66.1273 132.1659,64.4873 C144.0069,61.2193 154.9519,63.0693 164.7889,70.5283 C172.4479,76.3353 177.4579,83.9933 179.2169,93.4313 C179.9809,97.5353 179.6279,101.8503 179.7029,106.0713 C179.7089,106.4033 179.1199,106.7873 178.7479,107.0673 C178.5949,107.1833 178.2839,107.0943 178.0449,107.0943 C164.1149,107.0943 150.1839,107.0953 136.2539,107.0913 C135.9069,107.0913 135.5599,107.0513 135.0999,107.0223" id="Fill-415" fill="#D14071"></path>
            </g>
        </g>
    </g>
</svg>