<?xml version="1.0" encoding="UTF-8"?>
<svg width="201px" height="201px" viewBox="0 0 201 201" version="1.1" xmlns="http://www.w3.org/2000/svg" xmlns:xlink="http://www.w3.org/1999/xlink">
    <!-- Generator: Sketch 51.2 (57519) - http://www.bohemiancoding.com/sketch -->
    <title>ARK</title>
    <desc>Created with Sketch.</desc>
    <defs></defs>
    <g id="Page-1" stroke="none" stroke-width="1" fill="none" fill-rule="evenodd">
        <g id="Artboard" transform="translate(-1441.000000, -3120.000000)">
            <g id="ARK" transform="translate(1441.000000, 3120.000000)">
                <path d="M100.5427,0.348 C45.4367,0.348 0.7647,45.12 0.7647,100.348 C0.7647,155.577 45.4367,200.348 100.5427,200.348 C155.6477,200.348 200.3207,155.577 200.3207,100.348 C200.3207,45.12 155.6477,0.348 100.5427,0.348" id="Fill-79" fill="#ED1C24"></path>
                <path d="M100.7649,6.3568 C152.5919,6.3568 194.7559,48.5218 194.7559,100.3478 C194.7559,152.1748 152.5919,194.3398 100.7649,194.3398 C48.9379,194.3398 6.7739,152.1748 6.7739,100.3478 C6.7739,48.5218 48.9379,6.3568 100.7649,6.3568" id="Fill-81" fill="#FFFFFF"></path>
                <path d="M101.1575,40.0819 C101.4935,40.8849 101.7255,41.7529 102.1815,42.4799 C124.3065,77.7359 146.4505,112.9799 168.5915,148.2269 C169.1025,149.0399 169.5905,149.8689 169.7545,150.9839 C146.8655,127.3409 123.9785,103.6989 100.9385,79.8989 C77.9205,103.6689 55.0265,127.3099 32.1325,150.9519 C32.0135,150.8769 31.8945,150.8039 31.7765,150.7289 C32.1975,150.0239 32.6035,149.3089 33.0405,148.6129 C55.1735,113.3629 77.3115,78.1149 99.4295,42.8549 C99.9665,41.9999 100.2855,41.0089 100.7065,40.0819 L101.1575,40.0819 Z" id="Fill-83" fill="#ED1C24"></path>
                <path d="M132.2478,129.2586 L69.5978,129.2586 C73.4598,125.2626 77.0178,121.5346 80.6538,117.8836 C81.0478,117.4886 81.8898,117.4036 82.5238,117.4026 C94.7748,117.3756 107.0258,117.3736 119.2758,117.4086 C119.9708,117.4106 120.8778,117.5666 121.3228,118.0126 C124.9158,121.6116 128.4218,125.2966 132.2478,129.2586" id="Fill-85" fill="#ED1C24"></path>
                <path d="M89.0886,108.3406 C93.1786,104.6936 97.2696,101.0466 100.7966,97.9026 C104.4526,101.1516 108.5816,104.8196 112.7096,108.4876 C112.5806,108.6696 112.4516,108.8506 112.3216,109.0316 L89.5746,109.0316 C89.4126,108.8016 89.2506,108.5706 89.0886,108.3406" id="Fill-87" fill="#ED1C24"></path>
            </g>
        </g>
    </g>
</svg>