<?xml version="1.0" encoding="UTF-8"?>
<svg width="201px" height="201px" viewBox="0 0 201 201" version="1.1" xmlns="http://www.w3.org/2000/svg" xmlns:xlink="http://www.w3.org/1999/xlink">
    <!-- Generator: Sketch 51.2 (57519) - http://www.bohemiancoding.com/sketch -->
    <title>BCC</title>
    <desc>Created with Sketch.</desc>
    <defs></defs>
    <g id="Page-1" stroke="none" stroke-width="1" fill="none" fill-rule="evenodd">
        <g id="Artboard" transform="translate(-421.000000, -2358.000000)">
            <g id="BCC" transform="translate(421.000000, 2358.000000)">
                <polygon id="Fill-674" fill="#FFFFFF" points="56.8689 114.5936 99.7609 136.0706 99.7609 170.6036"></polygon>
                <polygon id="Fill-676" fill="#FFFFFF" points="145.4246 114.5936 102.3806 170.6036 102.3806 136.0706"></polygon>
                <path d="M200.762,100.3104 C200.762,155.5394 155.991,200.3104 100.762,200.3104 C45.533,200.3104 0.762,155.5394 0.762,100.3104 C0.762,45.0814 45.533,0.3104 100.762,0.3104 C155.991,0.3104 200.762,45.0814 200.762,100.3104" id="Fill-758" fill="#F99400"></path>
                <path d="M123.5271,114.346 C123.5271,135.232 106.5951,152.164 85.7091,152.164 C64.8231,152.164 47.8911,135.232 47.8911,114.346 C47.8911,93.46 64.8231,76.528 85.7091,76.528 C106.5951,76.528 123.5271,93.46 123.5271,114.346" id="Fill-760" fill="#FFFFFF"></path>
                <path d="M153.6321,41.4725 C153.6321,48.7555 147.7281,54.6595 140.4451,54.6595 C133.1621,54.6595 127.2581,48.7555 127.2581,41.4725 C127.2581,34.1895 133.1621,28.2855 140.4451,28.2855 C147.7281,28.2855 153.6321,34.1895 153.6321,41.4725" id="Fill-762" fill="#FFFFFF"></path>
                <path d="M97.3372,49.2103 C97.3372,55.6323 92.1312,60.8383 85.7092,60.8383 C79.2872,60.8383 74.0822,55.6323 74.0822,49.2103 C74.0822,42.7883 79.2872,37.5823 85.7092,37.5823 C92.1312,37.5823 97.3372,42.7883 97.3372,49.2103" id="Fill-764" fill="#FFFFFF"></path>
                <path d="M143.949,152.6351 C143.949,158.9821 138.803,164.1281 132.456,164.1281 C126.109,164.1281 120.964,158.9821 120.964,152.6351 C120.964,146.2881 126.109,141.1421 132.456,141.1421 C138.803,141.1421 143.949,146.2881 143.949,152.6351" id="Fill-766" fill="#FFFFFF"></path>
                <polygon id="Fill-768" fill="#FFFFFF" points="80.948 85.759 90.178 85.759 90.178 56.124 80.948 56.124"></polygon>
                <polygon id="Fill-770" fill="#FFFFFF" points="101.8552 92.3538 95.0012 86.1708 132.4802 44.6258 139.3342 50.8088"></polygon>
                <polygon id="Fill-771" fill="#FFFFFF" points="129.8474 156.2679 136.3744 149.7409 96.8104 110.1769 90.2834 116.7039"></polygon>
            </g>
        </g>
    </g>
</svg>