<?xml version="1.0" encoding="UTF-8"?>
<svg width="201px" height="200px" viewBox="0 0 201 200" version="1.1" xmlns="http://www.w3.org/2000/svg" xmlns:xlink="http://www.w3.org/1999/xlink">
    <!-- Generator: Sketch 51.2 (57519) - http://www.bohemiancoding.com/sketch -->
    <title>BCH</title>
    <desc>Created with Sketch.</desc>
    <defs></defs>
    <g id="Page-1" stroke="none" stroke-width="1" fill="none" fill-rule="evenodd">
        <g id="Artboard" transform="translate(-1111.000000, -1254.000000)">
            <g id="BCH" transform="translate(1111.000000, 1253.000000)">
                <path d="M200.6799,100.9964 C200.6799,156.2254 155.9089,200.9964 100.6799,200.9964 C45.4509,200.9964 0.6799,156.2254 0.6799,100.9964 C0.6799,45.7674 45.4509,0.9964 100.6799,0.9964 C155.9089,0.9964 200.6799,45.7674 200.6799,100.9964" id="Fill-511" fill="#8AC072"></path>
                <path d="M137.6731,103.493 C139.0271,106.097 139.2871,109.072 138.4021,111.871 C137.5191,114.671 135.6001,116.958 132.9941,118.312 L106.9271,131.87 L96.7871,112.373 L122.8541,98.815 C128.2291,96.02 134.8771,98.118 137.6731,103.493 M114.4771,65.871 C117.2761,66.755 119.5641,68.676 120.9181,71.28 C123.7131,76.654 121.6121,83.303 116.2421,86.099 C116.2411,86.099 116.2401,86.099 116.2401,86.099 L90.1731,99.657 L80.0311,80.16 L106.1001,66.601 C108.7031,65.248 111.6781,64.988 114.4771,65.871 M118.7931,52.204 C112.3421,50.168 105.4851,50.765 99.4851,53.886 L96.0371,55.68 L87.6051,39.468 L75.2151,45.911 L83.6481,62.123 L73.0721,67.624 L64.6391,51.411 L61.6721,52.955 L49.6491,59.208 L57.7771,74.836 L43.1261,82.456 L50.3481,96.342 L65.0001,88.722 L91.2871,139.262 L76.6351,146.882 L83.8581,160.768 L98.5091,153.148 L105.3691,166.338 L108.3371,164.795 L120.3591,158.541 L113.1941,144.766 L123.7961,139.252 L130.9611,153.028 L143.3001,146.61 L136.1351,132.834 L139.6081,131.028 C141.8221,129.876 143.8231,128.431 145.5681,126.743 C148.5491,123.856 150.7861,120.256 152.0701,116.186 C154.1071,109.736 153.5091,102.88 150.3881,96.879 C147.1051,90.567 141.5121,86.23 135.1821,84.333 C137.2671,78.058 136.9191,70.982 133.6341,64.666 C130.5131,58.665 125.2411,54.24 118.7931,52.204" id="Fill-512" fill="#FFFFFF"></path>
            </g>
        </g>
    </g>
</svg>