<?xml version="1.0" encoding="UTF-8"?>
<svg width="201px" height="201px" viewBox="0 0 201 201" version="1.1" xmlns="http://www.w3.org/2000/svg" xmlns:xlink="http://www.w3.org/1999/xlink">
    <!-- Generator: Sketch 51.2 (57519) - http://www.bohemiancoding.com/sketch -->
    <title>BCN</title>
    <desc>Created with Sketch.</desc>
    <defs></defs>
    <g id="Page-1" stroke="none" stroke-width="1" fill="none" fill-rule="evenodd">
        <g id="Artboard" transform="translate(-406.000000, -3510.000000)">
            <g id="BCN" transform="translate(406.000000, 3510.000000)">
                <path d="M200.7092,100.6854 C200.7092,155.9134 155.9382,200.6854 100.7092,200.6854 C45.4802,200.6854 0.7092,155.9134 0.7092,100.6854 C0.7092,45.4564 45.4802,0.6854 100.7092,0.6854 C155.9382,0.6854 200.7092,45.4564 200.7092,100.6854" id="Fill-93" fill="#EF4084"></path>
                <path d="M92.4182,92.6424 C102.8242,92.1394 112.6692,92.1984 122.3592,91.0034 C128.6912,90.2224 131.8142,85.1284 131.7812,78.7154 C131.7492,72.5954 128.5792,67.3604 122.6442,66.6724 C112.6702,65.5174 102.5582,65.5634 92.4182,65.1004 L92.4182,92.6424 Z M44.4332,108.7504 L44.4332,92.3624 L70.8072,92.3624 L70.8072,49.3914 C72.5872,49.2344 73.8592,49.0254 75.1312,49.0234 C91.1182,49.0064 107.1052,48.9344 123.0902,49.0874 C126.8862,49.1244 130.7592,49.5904 134.4512,50.4714 C146.4662,53.3374 153.3682,61.5384 154.0162,73.2424 C154.6852,85.3214 149.1772,93.3024 137.0852,97.7954 C136.7862,97.9064 136.5302,98.1294 135.7012,98.6424 C136.6962,98.9384 137.3162,99.1384 137.9462,99.3074 C148.9552,102.2604 155.2892,109.3924 156.7682,120.6744 C158.1522,131.2384 152.8822,142.1504 142.8212,146.6504 C136.2972,149.5684 128.9042,151.6084 121.8002,151.9504 C105.6852,152.7254 89.5072,152.2124 73.3542,152.2054 C72.7242,152.2054 72.0942,152.0314 71.2202,151.9024 L71.2202,123.0044 L92.1212,123.0044 L92.1212,135.9044 C103.3522,135.3814 114.2982,135.6164 125.0012,134.1114 C132.0972,133.1134 135.1232,126.7344 134.2332,119.1644 C133.5262,113.1494 129.3972,109.2764 121.9742,109.1684 C98.3352,108.8234 74.6892,108.8604 51.0472,108.7524 C48.9272,108.7424 46.8072,108.7504 44.4332,108.7504 Z" id="Fill-95" fill="#FFFFFF"></path>
            </g>
        </g>
    </g>
</svg>