<?xml version="1.0" encoding="UTF-8"?>
<svg width="201px" height="200px" viewBox="0 0 201 200" version="1.1" xmlns="http://www.w3.org/2000/svg" xmlns:xlink="http://www.w3.org/1999/xlink">
    <!-- Generator: Sketch 51.2 (57519) - http://www.bohemiancoding.com/sketch -->
    <title>BTCD</title>
    <desc>Created with Sketch.</desc>
    <defs></defs>
    <g id="Page-1" stroke="none" stroke-width="1" fill="none" fill-rule="evenodd">
        <g id="Artboard" transform="translate(-1797.000000, -4621.000000)">
            <g id="BTCD" transform="translate(1797.000000, 4621.000000)">
                <path d="M200.1663,100.0047 C200.1663,155.2337 155.3953,200.0047 100.1663,200.0047 C44.9373,200.0047 0.1663,155.2337 0.1663,100.0047 C0.1663,44.7757 44.9373,0.0047 100.1663,0.0047 C155.3953,0.0047 200.1663,44.7757 200.1663,100.0047" id="Fill-310" fill="#333333"></path>
                <path d="M162.2864,99.9158 C162.2864,127.5908 141.9994,150.5238 115.4864,154.6578 C115.3894,142.6868 112.5704,131.3648 107.6224,121.2738 C119.0804,120.8838 128.2494,111.4698 128.2494,99.9158 C128.2494,88.4358 119.1964,79.0678 107.8394,78.5678 C112.7144,68.4618 115.4574,57.1388 115.4884,45.1738 C142.0014,49.3098 162.2864,72.2458 162.2864,99.9158" id="Fill-312" fill="#FFFFFF"></path>
                <path d="M104.4573,44.9598 C104.4573,63.8288 96.5893,80.8588 83.9523,92.9458 C81.1883,95.5928 78.1973,98.0018 75.0073,100.1418 C68.2353,104.6858 60.5823,108.0168 52.3563,109.8228 C47.7473,110.8358 42.9573,111.3688 38.0453,111.3688 L38.0453,77.5778 C56.0603,77.5778 70.6633,62.9748 70.6633,44.9598 L104.4573,44.9598 Z" id="Fill-314" fill="#FF6600"></path>
                <path d="M104.4553,155.0506 L70.9603,155.0506 C70.8143,136.9956 56.1333,122.4046 38.0453,122.4046 C44.0133,122.4046 49.8243,121.7296 55.4033,120.4506 C65.8913,118.0506 75.5683,113.5196 83.9523,107.3356 C96.5283,119.3666 104.3813,136.2906 104.4553,155.0506" id="Fill-316" fill="#FF6600"></path>
            </g>
        </g>
    </g>
</svg>