<?xml version="1.0" encoding="UTF-8"?>
<svg width="201px" height="201px" viewBox="0 0 201 201" version="1.1" xmlns="http://www.w3.org/2000/svg" xmlns:xlink="http://www.w3.org/1999/xlink">
    <!-- Generator: Sketch 51.2 (57519) - http://www.bohemiancoding.com/sketch -->
    <title>BTG</title>
    <desc>Created with Sketch.</desc>
    <defs></defs>
    <g id="Page-1" stroke="none" stroke-width="1" fill="none" fill-rule="evenodd">
        <g id="Artboard" transform="translate(-1111.000000, -1613.000000)">
            <g id="BTG" transform="translate(1111.000000, 1613.000000)">
                <path d="M200.9836,100.2322 C200.9836,155.4612 156.2126,200.2322 100.9836,200.2322 C45.7546,200.2322 0.9836,155.4612 0.9836,100.2322 C0.9836,45.0032 45.7546,0.2322 100.9836,0.2322 C156.2126,0.2322 200.9836,45.0032 200.9836,100.2322" id="Fill-570" fill="#00176D"></path>
                <path d="M196.5945,100.2322 C196.5945,153.0372 153.7875,195.8432 100.9835,195.8432 C48.1785,195.8432 5.3725,153.0372 5.3725,100.2322 C5.3725,47.4282 48.1785,4.6212 100.9835,4.6212 C153.7875,4.6212 196.5945,47.4282 196.5945,100.2322" id="Fill-571" fill="#FFFFFF"></path>
                <path d="M191.3538,100.2322 C191.3538,150.1422 150.8938,190.6022 100.9838,190.6022 C51.0738,190.6022 10.6138,150.1422 10.6138,100.2322 C10.6138,50.3222 51.0738,9.8622 100.9838,9.8622 C150.8938,9.8622 191.3538,50.3222 191.3538,100.2322" id="Fill-572" fill="#ECA900"></path>
                <path d="M163.033,100.2322 C163.033,134.5012 135.252,162.2812 100.984,162.2812 C66.715,162.2812 38.934,134.5012 38.934,100.2322 C38.934,65.9632 66.715,38.1832 100.984,38.1832 C135.252,38.1832 163.033,65.9632 163.033,100.2322" id="Fill-573" fill="#FFFFFF"></path>
                <path d="M157.864,100.2322 C157.864,131.6472 132.398,157.1132 100.984,157.1132 C69.569,157.1132 44.103,131.6472 44.103,100.2322 C44.103,68.8182 69.569,43.3522 100.984,43.3522 C132.398,43.3522 157.864,68.8182 157.864,100.2322" id="Fill-574" fill="#00176D"></path>
                <path d="M94.9148,126.3201 L95.1248,106.1801 L122.0448,106.4601 C127.5548,106.5101 132.0048,111.0201 132.0048,116.5201 L132.0048,116.6301 C131.9848,119.3201 130.9048,121.8301 128.9848,123.7101 C127.0648,125.6001 124.5248,126.6201 121.8348,126.5901 L94.9148,126.3201 Z M122.3848,73.1901 C125.0748,73.2201 127.5948,74.2901 129.4748,76.2101 C131.3548,78.1301 132.3748,80.6701 132.3448,83.3601 C132.2948,88.9101 127.7248,93.3801 122.1848,93.3201 L122.1748,93.3201 L95.2548,93.0501 L95.4648,72.9101 L122.3848,73.1901 Z M119.0548,50.6301 C115.0048,49.1601 110.7348,48.1701 106.2948,47.7201 C104.5448,47.5501 102.7748,47.4601 100.9848,47.4601 C99.0948,47.4601 97.2148,47.5601 95.3748,47.7501 C89.9048,48.3301 84.6948,49.7401 79.8548,51.8601 C74.6948,54.1201 69.9748,57.1701 65.8348,60.8701 L64.6248,62.0001 C54.5048,71.6001 48.2048,85.1801 48.2048,100.2301 C48.2048,114.8801 54.1648,128.1301 63.8048,137.6901 C63.8148,137.7001 63.8348,137.7201 63.8548,137.7301 C68.1748,142.0201 73.2448,145.5601 78.8448,148.1501 C83.6448,150.3801 88.8348,151.9001 94.2948,152.5901 C96.4848,152.8701 98.7148,153.0101 100.9848,153.0101 C102.4148,153.0101 103.8348,152.9501 105.2348,152.8401 C109.6748,152.4901 113.9448,151.5901 118.0048,150.2101 C138.7948,143.1301 153.7548,123.4301 153.7548,100.2301 C153.7548,77.4301 139.3048,58.0101 119.0548,50.6301 Z" id="Fill-575" fill="#FFFFFF"></path>
                <path d="M122.1848,93.3201 L122.1748,93.3201 L95.2548,93.0501 L95.4648,72.9101 L122.3848,73.1901 C125.0748,73.2201 127.5948,74.2901 129.4748,76.2101 C131.3548,78.1301 132.3748,80.6701 132.3448,83.3601 C132.2948,88.9101 127.7248,93.3801 122.1848,93.3201 Z M132.0048,116.6301 C131.9848,119.3201 130.9048,121.8301 128.9848,123.7101 C127.0648,125.6001 124.5248,126.6201 121.8348,126.5901 L94.9148,126.3201 L95.1248,106.1801 L122.0448,106.4601 C127.5548,106.5101 132.0048,111.0201 132.0048,116.5201 L132.0048,116.6301 Z M145.4848,83.4901 C145.5448,77.3001 143.1948,71.4501 138.8548,67.0201 C134.5148,62.5901 128.7148,62.1201 122.5148,62.0601 L118.9548,62.0201 L119.0548,50.6301 C115.0048,49.1601 110.7348,48.1701 106.2948,47.7201 L106.1648,61.8901 L95.2448,61.7801 L95.3748,47.7501 C89.9048,48.3301 84.6948,49.7401 79.8548,51.8601 L79.7648,61.0201 L65.8348,60.8701 L64.6248,62.0001 L64.4948,73.2001 L79.6248,73.3601 L79.0848,125.5501 L63.9548,125.3901 L63.8048,137.6901 L63.8048,137.7301 L63.8548,137.7301 L78.9348,137.8901 L78.8448,148.1501 C83.6448,150.3801 88.8348,151.9001 94.2948,152.5901 L94.4248,137.4401 L105.3748,137.5501 L105.2348,152.8401 C109.6748,152.4901 113.9448,151.5901 118.0048,150.2101 L118.1148,137.6801 L121.7048,137.7201 C123.9948,137.7501 126.2348,137.4401 128.3648,136.8301 C132.0248,135.7801 135.3848,135.8301 138.1748,133.0901 C142.6048,128.7601 145.0748,122.9601 145.1348,116.7601 C145.2048,110.2401 142.5548,104.3201 138.2548,100.0601 C142.6448,95.8901 145.4148,90.0201 145.4848,83.4901 Z" id="Fill-576" fill="#001D6D"></path>
                <path d="M132.0046,116.5198 L132.0046,116.6298 C131.9846,119.3198 130.9046,121.8298 128.9846,123.7098 C127.0646,125.5998 124.5246,126.6198 121.8346,126.5898 L94.9146,126.3198 L95.1246,106.1798 L122.0446,106.4598 C127.5546,106.5098 132.0046,111.0198 132.0046,116.5198" id="Fill-577" fill="#FFFFFF"></path>
                <path d="M132.345,83.3602 C132.295,88.9102 127.725,93.3802 122.185,93.3202 L122.175,93.3202 L95.255,93.0502 L95.465,72.9102 L122.385,73.1902 C125.075,73.2202 127.595,74.2902 129.475,76.2102 C131.355,78.1302 132.375,80.6702 132.345,83.3602" id="Fill-578" fill="#FFFFFF"></path>
            </g>
        </g>
    </g>
</svg>