<?xml version="1.0" encoding="UTF-8"?>
<svg width="201px" height="200px" viewBox="0 0 201 200" version="1.1" xmlns="http://www.w3.org/2000/svg" xmlns:xlink="http://www.w3.org/1999/xlink">
    <!-- Generator: Sketch 51.2 (57519) - http://www.bohemiancoding.com/sketch -->
    <title>BTM</title>
    <desc>Created with Sketch.</desc>
    <defs></defs>
    <g id="Page-1" stroke="none" stroke-width="1" fill="none" fill-rule="evenodd">
        <g id="Artboard" transform="translate(-760.000000, -6923.000000)">
            <g id="BTM" transform="translate(760.000000, 6923.000000)">
                <polygon id="Fill-450" fill="#333333" points="143.3279 66.241 123.9949 86.306 78.3919 0.944"></polygon>
                <polygon id="Fill-451" fill="#020100" points="123.9954 86.3065 69.4234 31.7675 40.6364 39.2475 78.3924 0.9445"></polygon>
                <polygon id="Fill-452" fill="#333333" points="78.3924 0.9442 40.6364 39.2482 34.4364 61.3162 17.2924 17.5412"></polygon>
                <polygon id="Fill-453" fill="#555555" points="34.4363 61.3162 1.6043 78.8262 17.2923 17.5412"></polygon>
                <polygon id="Fill-454" fill="#020100" points="34.4363 61.3162 9.6313 85.3922 1.6043 78.8262"></polygon>
                <polygon id="Fill-455" fill="#333333" points="135.2132 142.6678 115.1472 123.3348 200.5102 77.7318"></polygon>
                <polygon id="Fill-456" fill="#020100" points="115.1472 123.3348 169.6862 68.7638 162.2062 39.9758 200.5102 77.7318"></polygon>
                <polygon id="Fill-457" fill="#333333" points="200.51 77.7322 162.206 39.9752 140.138 33.7762 183.913 16.6312"></polygon>
                <polygon id="Fill-458" fill="#555555" points="140.138 33.7762 122.628 0.9442 183.913 16.6312"></polygon>
                <polygon id="Fill-459" fill="#020100" points="140.138 33.7762 116.061 8.9712 122.628 0.9442"></polygon>
                <polygon id="Fill-460" fill="#333333" points="57.6917 134.6453 77.0247 114.5803 122.6277 199.9423"></polygon>
                <polygon id="Fill-461" fill="#020100" points="77.0242 114.5799 131.5962 169.1189 160.3842 161.6389 122.6282 199.9419"></polygon>
                <polygon id="Fill-462" fill="#333333" points="122.6277 199.9422 160.3837 161.6382 166.5837 139.5702 183.7277 183.3462"></polygon>
                <polygon id="Fill-463" fill="#555555" points="166.5837 139.5701 199.4157 122.0601 183.7277 183.3461"></polygon>
                <polygon id="Fill-464" fill="#020100" points="166.5837 139.5701 191.3877 115.4941 199.4157 122.0601"></polygon>
                <polygon id="Fill-465" fill="#333333" points="65.8069 58.2186 85.8719 77.5516 0.5099 123.1546"></polygon>
                <polygon id="Fill-466" fill="#020100" points="85.8723 77.5516 31.3333 132.1226 38.8133 160.9106 0.5103 123.1546"></polygon>
                <polygon id="Fill-467" fill="#333333" points="0.51 123.1541 38.814 160.9111 60.882 167.1111 17.106 184.2551"></polygon>
                <polygon id="Fill-468" fill="#555555" points="60.8821 167.1112 78.3921 199.9422 17.1061 184.2552"></polygon>
                <polygon id="Fill-469" fill="#020100" points="60.8821 167.1112 84.9591 191.9152 78.3921 199.9422"></polygon>
            </g>
        </g>
    </g>
</svg>