<?xml version="1.0" encoding="UTF-8"?>
<svg width="201px" height="231px" viewBox="0 0 201 231" version="1.1" xmlns="http://www.w3.org/2000/svg" xmlns:xlink="http://www.w3.org/1999/xlink">
    <!-- Generator: Sketch 51.2 (57519) - http://www.bohemiancoding.com/sketch -->
    <title>BTS</title>
    <desc>Created with Sketch.</desc>
    <defs></defs>
    <g id="Page-1" stroke="none" stroke-width="1" fill="none" fill-rule="evenodd">
        <g id="Artboard" transform="translate(-1106.000000, -3092.000000)">
            <g id="BTS" transform="translate(1106.000000, 3092.000000)">
                <path d="M100.0618,230.2904 C44.9208,230.2904 0.0618,185.4314 0.0618,130.2904 C0.0618,75.1494 44.9208,30.2904 100.0618,30.2904 C155.2018,30.2904 200.0618,75.1494 200.0618,130.2904 C200.0618,185.4314 155.2018,230.2904 100.0618,230.2904" id="Fill-45" fill="#74C4EE"></path>
                <path d="M100.0618,36.4149 C48.2988,36.4149 6.1858,78.5279 6.1858,130.2899 C6.1858,182.0529 48.2988,224.1659 100.0618,224.1659 C151.8248,224.1659 193.9368,182.0529 193.9368,130.2899 C193.9368,78.5279 151.8248,36.4149 100.0618,36.4149" id="Fill-47" fill="#FFFFFF"></path>
                <path d="M91.2263,152.3519 C93.3093,153.7469 95.6983,154.7599 98.2393,155.2569 L98.2393,200.8329 C83.2193,199.9729 69.5563,193.9729 59.0083,184.5709 L91.2263,152.3519 Z" id="Fill-49" fill="#0D568D"></path>
                <path d="M112.8967,152.3519 L145.1147,184.5709 C134.5667,193.9729 120.9037,199.9729 105.8837,200.8329 L105.8837,155.2569 C108.4247,154.7599 110.8137,153.7469 112.8967,152.3519" id="Fill-51" fill="#1B7EAD"></path>
                <path d="M121.2092,139.931 L166.7852,139.931 C165.9252,154.951 159.9252,168.595 150.5232,179.143 L118.3042,146.925 C119.6992,144.842 120.7122,142.473 121.2092,139.931" id="Fill-53" fill="#1B7EAD"></path>
                <path d="M82.9138,139.931 C83.4108,142.473 84.4238,144.842 85.8188,146.925 L53.5998,179.143 C44.1978,168.595 38.1978,154.951 37.3378,139.931 L82.9138,139.931 Z" id="Fill-55" fill="#0D568D"></path>
                <path d="M145.115,87.6473 L112.897,119.8663 C110.814,118.4523 108.425,117.4583 105.884,116.9613 L105.884,71.3663 C120.904,72.2263 134.567,78.2263 145.115,87.6473" id="Fill-57" fill="#74C4EE"></path>
                <path d="M166.7854,132.2869 L121.2094,132.2869 C120.7124,129.7449 119.6994,127.3759 118.3044,125.2739 L150.5234,93.0549 C159.9254,103.6039 165.9254,117.2479 166.7854,132.2869" id="Fill-59" fill="#4CA1D6"></path>
                <path d="M95.0574,114.8167 L95.0574,114.8817 L95.0144,114.8377 C95.0364,114.8167 95.0574,114.8167 95.0574,114.8167" id="Fill-61" fill="#103D54"></path>
                <path d="M85.8186,125.2738 C84.4236,127.3758 83.4106,129.7458 82.9136,132.2868 L37.3376,132.2868 L37.3376,76.6208 L85.8186,125.2738 Z" id="Fill-63" fill="#024E7B"></path>
                <path d="M98.2395,71.366 L98.2395,116.961 C97.1315,117.171 96.0425,117.496 94.9905,117.897 C94.9905,117.897 94.9715,117.897 94.9525,117.917 C93.6535,118.413 92.4115,119.063 91.2645,119.846 L37.3375,65.92 L37.3375,0.833 L98.2395,71.366 Z" id="Fill-65" fill="#024E7B"></path>
                <path d="M95.0574,114.8167 L95.0574,114.8817 L95.0144,114.8377 C95.0364,114.8167 95.0574,114.8167 95.0574,114.8167" id="Fill-67" fill="#525252"></path>
            </g>
        </g>
    </g>
</svg>