<?xml version="1.0" encoding="UTF-8"?>
<svg width="201px" height="201px" viewBox="0 0 201 201" version="1.1" xmlns="http://www.w3.org/2000/svg" xmlns:xlink="http://www.w3.org/1999/xlink">
    <!-- Generator: Sketch 51.2 (57519) - http://www.bohemiancoding.com/sketch -->
    <title>CNX</title>
    <desc>Created with Sketch.</desc>
    <defs>
        <linearGradient x1="18.7776335%" y1="100%" x2="63.9838921%" y2="83.7766829%" id="linearGradient-1">
            <stop stop-color="#2E6198" offset="0%"></stop>
            <stop stop-color="#1D94CA" offset="100%"></stop>
        </linearGradient>
        <linearGradient x1="72.1445775%" y1="23.7286859%" x2="37.4517923%" y2="60.9497882%" id="linearGradient-2">
            <stop stop-color="#2E6198" offset="0%"></stop>
            <stop stop-color="#1D94CA" offset="100%"></stop>
        </linearGradient>
        <linearGradient x1="27.1444482%" y1="20.220747%" x2="67.4156323%" y2="67.3862478%" id="linearGradient-3">
            <stop stop-color="#2E6198" offset="0%"></stop>
            <stop stop-color="#1D94CA" offset="100%"></stop>
        </linearGradient>
        <linearGradient x1="72.4010022%" y1="75.8633364%" x2="50%" y2="35.9163391%" id="linearGradient-4">
            <stop stop-color="#2E6198" offset="0%"></stop>
            <stop stop-color="#1D94CA" offset="100%"></stop>
        </linearGradient>
    </defs>
    <g id="Page-1" stroke="none" stroke-width="1" fill="none" fill-rule="evenodd">
        <g id="Artboard" transform="translate(-1797.000000, -5360.000000)">
            <g id="CNX" transform="translate(1797.000000, 5360.000000)">
                <path d="M187.9055,99.8856 C187.9055,147.8896 148.9905,186.8046 100.9865,186.8046 C52.9815,186.8046 14.0665,147.8896 14.0665,99.8856 C14.0665,51.8806 52.9815,12.9656 100.9865,12.9656 C148.9905,12.9656 187.9055,51.8806 187.9055,99.8856" id="Fill-391" fill="#2E6198"></path>
                <path d="M150.4583,99.8856 C150.4583,127.2076 128.3093,149.3576 100.9863,149.3576 C73.6633,149.3576 51.5143,127.2076 51.5143,99.8856 C51.5143,72.5626 73.6633,50.4126 100.9863,50.4126 C128.3093,50.4126 150.4583,72.5626 150.4583,99.8856" id="Fill-393" fill="#FFFFFF"></path>
                <path d="M92.259,13.399 C92.259,13.399 64.447,14.524 42.221,35.844 L66.698,64.225 C66.698,64.225 76.549,53.026 95.514,50.684 L96.695,64.225 C96.695,64.225 113.04,36.697 135.405,40.569 C135.405,40.569 126.801,14.762 91.103,0.139 L92.259,13.399 Z" id="Fill-396" fill="url(#linearGradient-1)"></path>
                <path d="M106.196,149.593 L105.016,136.053 C105.016,136.053 88.672,163.579 66.306,159.709 C66.306,159.709 74.908,185.514 110.606,200.139 L109.45,186.877 C109.45,186.877 137.263,185.752 159.49,164.432 L135.011,136.053 C135.011,136.053 125.162,147.25 106.196,149.593" id="Fill-398" fill="url(#linearGradient-2)"></path>
                <path d="M136.768,65.982 C136.768,65.982 147.968,75.831 150.309,94.796 L136.768,95.979 C136.768,95.979 164.297,112.322 160.425,134.688 C160.425,134.688 186.231,126.085 200.855,90.387 L187.595,91.544 C187.595,91.544 186.47,63.731 165.15,41.503 L136.768,65.982 Z" id="Fill-400" fill="url(#linearGradient-3)"></path>
                <path d="M64.941,104.299 L51.402,105.48 C53.7409824,124.444857 64.9408314,134.295852 64.941,134.296 L64.941,104.299 Z" id="Clip-403"></path>
                <path d="M0.855,109.891 L14.117,108.734 C14.117,108.734 15.241,136.547 36.562,158.773 L64.941,134.296 C64.941,134.296 53.741,124.445 51.402,105.48 L64.941,104.299 C64.941,104.299 37.414,87.956 41.285,65.588 C41.285,65.588 15.478,74.191 0.855,109.891" id="Fill-402" fill="url(#linearGradient-4)"></path>
            </g>
        </g>
    </g>
</svg>