<?xml version="1.0" encoding="UTF-8"?>
<svg width="201px" height="201px" viewBox="0 0 201 201" version="1.1" xmlns="http://www.w3.org/2000/svg" xmlns:xlink="http://www.w3.org/1999/xlink">
    <!-- Generator: Sketch 51.2 (57519) - http://www.bohemiancoding.com/sketch -->
    <title>CVC</title>
    <desc>Created with Sketch.</desc>
    <defs></defs>
    <g id="Page-1" stroke="none" stroke-width="1" fill="none" fill-rule="evenodd">
        <g id="Artboard" transform="translate(-1797.000000, -5752.000000)">
            <g id="CVC" transform="translate(1797.000000, 5752.000000)">
                <path d="M100.9866,177.076 C58.5896,177.076 24.2266,142.705 24.2266,100.316 C24.2266,57.919 58.5896,23.548 100.9866,23.548 C135.7066,23.548 165.0436,46.599 174.5186,78.243 L198.5406,78.243 C188.4906,33.635 148.6246,0.316 100.9866,0.316 C45.7556,0.316 0.9866,45.085 0.9866,100.316 C0.9866,155.539 45.7556,200.307 100.9866,200.307 C148.4836,200.307 188.2566,167.187 198.4556,122.776 L174.4056,122.776 C164.7996,154.212 135.5646,177.076 100.9866,177.076" id="Fill-420" fill="#2FA73F"></path>
                <path d="M110.4045,107.1571 L110.4045,137.2101 L91.2755,137.2101 L91.2755,107.0151 C83.7765,103.4121 78.6115,95.7341 78.6115,86.8611 C78.6115,74.4981 88.6225,64.4771 100.9865,64.4771 C113.3405,64.4771 123.3615,74.4981 123.3615,86.8611 C123.3615,95.8471 118.0535,103.6091 110.4045,107.1571 M174.5185,78.2431 C165.0435,46.5991 135.7065,23.5481 100.9865,23.5481 C58.5895,23.5481 24.2265,57.9191 24.2265,100.3161 C24.2265,142.7051 58.5895,177.0761 100.9865,177.0761 C135.5645,177.0761 164.7995,154.2121 174.4055,122.7761 C176.5795,115.6721 177.7455,108.1261 177.7455,100.3161 C177.7455,92.6381 176.6165,85.2331 174.5185,78.2431" id="Fill-421" fill="#FFFFFF"></path>
                <path d="M123.3616,86.8612 C123.3616,95.8472 118.0536,103.6092 110.4046,107.1572 L110.4046,137.2102 L91.2756,137.2102 L91.2756,107.0152 C83.7766,103.4122 78.6116,95.7342 78.6116,86.8612 C78.6116,74.4982 88.6226,64.4772 100.9866,64.4772 C113.3406,64.4772 123.3616,74.4982 123.3616,86.8612" id="Fill-422" fill="#2FA73F"></path>
                <path d="M200.9866,100.3162 C200.9866,108.0412 200.1116,115.5592 198.4556,122.7762 L174.4056,122.7762 C176.5796,115.6712 177.7456,108.1262 177.7456,100.3162 C177.7456,92.6382 176.6166,85.2332 174.5186,78.2432 L198.5406,78.2432 C200.1386,85.3372 200.9866,92.7322 200.9866,100.3162" id="Fill-423" fill="#FFFFFF"></path>
            </g>
        </g>
    </g>
</svg>