<?xml version="1.0" encoding="UTF-8"?>
<svg width="201px" height="201px" viewBox="0 0 201 201" version="1.1" xmlns="http://www.w3.org/2000/svg" xmlns:xlink="http://www.w3.org/1999/xlink">
    <!-- Generator: Sketch 51.2 (57519) - http://www.bohemiancoding.com/sketch -->
    <title>DCR</title>
    <desc>Created with Sketch.</desc>
    <defs></defs>
    <g id="Page-1" stroke="none" stroke-width="1" fill="none" fill-rule="evenodd">
        <g id="Artboard" transform="translate(-1448.000000, -3510.000000)">
            <g id="DCR" transform="translate(1448.000000, 3510.000000)">
                <path d="M200.0593,100.6854 C200.0593,155.9134 155.2883,200.6854 100.0593,200.6854 C44.8303,200.6854 0.0593,155.9134 0.0593,100.6854 C0.0593,45.4564 44.8303,0.6854 100.0593,0.6854 C155.2883,0.6854 200.0593,45.4564 200.0593,100.6854" id="Fill-97" fill="#F4F4F4"></path>
                <path d="M97.2395,142.4637 L105.7715,149.9007 L74.1165,149.9007 C52.2175,149.9007 34.4665,132.1497 34.4665,110.2507 C34.4665,103.5637 36.1205,97.2637 39.0465,91.7367 C41.7205,86.6777 45.4615,82.2677 49.9675,78.8027 C50.2275,78.6017 50.4905,78.4037 50.7565,78.2097 C53.4205,76.2637 56.3355,74.6427 59.4435,73.4037 L56.2295,70.6017 L55.9855,70.3897 L34.2795,51.4687 L62.9175,51.4687 L84.6235,70.3897 L87.1395,72.5837 C87.1105,72.6427 87.0785,72.7017 87.0485,72.7587 C87.2145,72.8147 87.3775,72.8737 87.5405,72.9337 L105.9885,89.0137 L74.1165,89.0137 C70.9835,89.0137 68.0075,89.6927 65.3275,90.9117 C59.6915,93.4767 55.3745,98.4347 53.6705,104.4867 C53.1555,106.3197 52.8795,108.2527 52.8795,110.2507 C52.8795,111.1347 52.9345,112.0067 53.0385,112.8637 C54.3265,123.3607 63.2725,131.4897 74.1165,131.4897 L84.6495,131.4897 L97.2395,142.4637 Z" id="Fill-99" fill="#226DFF"></path>
                <path d="M175.8391,149.9012 L147.2021,149.9012 L126.0801,131.4892 L125.1311,130.6622 L112.6201,119.7562 L104.7131,112.8642 L122.0431,112.8642 C125.2631,112.8642 128.3181,112.1472 131.0521,110.8612 C136.7381,108.1942 141.0481,103.0822 142.6271,96.8772 C143.0531,95.1972 143.2801,93.4382 143.2801,91.6272 C143.2801,90.7422 143.2251,89.8702 143.1211,89.0132 C141.8331,78.5172 132.8871,70.3892 122.0431,70.3892 L112.2381,70.3892 L99.0701,58.9112 L90.5321,51.4692 L122.2021,51.4692 C144.0991,51.4692 161.8511,69.2212 161.8511,91.1172 C161.8511,97.8082 160.1941,104.1112 157.2661,109.6392 C154.5591,114.7562 150.7661,119.2072 146.1931,122.6882 C145.9131,122.9022 145.6291,123.1122 145.3421,123.3182 L146.1931,124.0582 L175.8391,149.9012 Z" id="Fill-101" fill="#1BD9A2"></path>
            </g>
        </g>
    </g>
</svg>