<?xml version="1.0" encoding="UTF-8"?>
<svg width="200px" height="201px" viewBox="0 0 200 201" version="1.1" xmlns="http://www.w3.org/2000/svg" xmlns:xlink="http://www.w3.org/1999/xlink">
    <!-- Generator: Sketch 51.2 (57519) - http://www.bohemiancoding.com/sketch -->
    <title>DGB</title>
    <desc>Created with Sketch.</desc>
    <defs></defs>
    <g id="Page-1" stroke="none" stroke-width="1" fill="none" fill-rule="evenodd">
        <g id="Artboard" transform="translate(-1099.000000, -6146.000000)">
            <g id="DGB" transform="translate(1099.000000, 6146.000000)">
                <path d="M200.0076,100.3612 C200.0076,155.5902 155.2366,200.3612 100.0076,200.3612 C44.7786,200.3612 0.0076,155.5902 0.0076,100.3612 C0.0076,45.1322 44.7786,0.3612 100.0076,0.3612 C155.2366,0.3612 200.0076,45.1322 200.0076,100.3612" id="Fill-416" fill="#003268"></path>
                <path d="M191.7458,101.0164 C191.7458,151.3204 150.9668,192.0994 100.6628,192.0994 C50.3588,192.0994 9.5798,151.3204 9.5798,101.0164 C9.5798,50.7124 50.3588,9.9334 100.6628,9.9334 C150.9668,9.9334 191.7458,50.7124 191.7458,101.0164" id="Fill-417" fill="#FFFFFF"></path>
                <path d="M185.113,101.0164 C185.113,147.6574 147.303,185.4674 100.663,185.4674 C54.022,185.4674 16.212,147.6574 16.212,101.0164 C16.212,54.3754 54.022,16.5664 100.663,16.5664 C147.303,16.5664 185.113,54.3754 185.113,101.0164" id="Fill-418" fill="#0063CF"></path>
                <path d="M143.6365,117.6336 C143.6365,117.6336 133.5455,132.6586 107.7895,138.7386 L103.1065,166.4896 L94.5225,165.0416 L98.6805,140.3816 C95.6615,140.7806 92.4745,141.0546 89.1045,141.1696 L85.3405,163.4926 L76.7565,162.0436 L80.2835,141.1436 C70.8555,140.7706 60.2185,139.2636 48.2645,136.1876 L79.0605,76.5106 L90.8525,78.4886 L99.4365,79.9336 L103.0375,80.5366 L97.5825,90.9326 L84.5685,115.7286 L84.5685,115.7336 L76.9605,130.2346 C76.9605,130.2346 78.9135,130.4646 82.0905,130.4176 C84.4845,130.3916 87.5765,130.2016 91.0525,129.6356 C94.1175,129.1366 97.4775,128.3496 100.9225,127.1146 C104.1195,125.9706 107.3795,124.4476 110.5405,122.4216 C117.1975,118.1636 123.3975,111.6906 127.5395,101.8836 C127.5395,101.8836 137.7825,85.2256 118.2625,76.6676 C115.9215,75.6496 113.1545,74.7366 109.8845,73.9896 C107.9575,73.5436 105.8515,73.1546 103.5625,72.8346 L100.7175,72.3416 L92.1435,70.8566 L51.0625,63.7376 L63.3105,49.5616 L94.7845,55.1906 L99.0895,29.6746 L107.6735,31.1236 L103.3525,56.7176 L112.5245,58.3616 L116.8555,32.6726 L125.4395,34.1216 L121.0925,59.8886 L130.8635,61.6366 C130.8635,61.6366 177.5885,74.4096 143.6365,117.6336" id="Fill-419" fill="#FFFFFF"></path>
            </g>
        </g>
    </g>
</svg>