<?xml version="1.0" encoding="UTF-8"?>
<svg width="201px" height="201px" viewBox="0 0 201 201" version="1.1" xmlns="http://www.w3.org/2000/svg" xmlns:xlink="http://www.w3.org/1999/xlink">
    <!-- Generator: Sketch 51.2 (57519) - http://www.bohemiancoding.com/sketch -->
    <title>DGD</title>
    <desc>Created with Sketch.</desc>
    <defs></defs>
    <g id="Page-1" stroke="none" stroke-width="1" fill="none" fill-rule="evenodd">
        <g id="Artboard" transform="translate(-1451.000000, -4624.000000)">
            <g id="DGD" transform="translate(1451.000000, 4624.000000)">
                <path d="M200.6125,100.3358 C200.6125,155.5648 155.8415,200.3358 100.6125,200.3358 C45.3835,200.3358 0.6125,155.5648 0.6125,100.3358 C0.6125,45.1068 45.3835,0.3358 100.6125,0.3358 C155.8415,0.3358 200.6125,45.1068 200.6125,100.3358" id="Fill-208" fill="#000000"></path>
                <path d="M30.491,87.2244 L30.491,72.2854 C30.491,71.1404 31.419,70.2114 32.564,70.2114 L76.881,70.2114 C78.026,70.2114 78.955,71.1404 78.955,72.2854 L78.955,87.2244 C78.955,88.3704 78.026,89.2984 76.881,89.2984 L32.564,89.2984 C31.419,89.2984 30.491,88.3704 30.491,87.2244" id="Fill-210" fill="#EFCA0C"></path>
                <path d="M45.8103,118.4793 L45.8103,110.5113 C45.8103,109.6663 46.4953,108.9823 47.3393,108.9823 L81.2963,108.9823 C82.1403,108.9823 82.8253,109.6663 82.8253,110.5113 L82.8253,118.4793 C82.8253,119.3243 82.1403,120.0073 81.2963,120.0073 L47.3393,120.0073 C46.4953,120.0073 45.8103,119.3243 45.8103,118.4793 M82.8253,71.5893 L82.8253,92.2853 C82.8253,93.0453 82.2073,93.6633 81.4473,93.6633 L45.8103,93.6633 L31.8683,93.6633 C31.1073,93.6633 30.4913,94.2793 30.4913,95.0403 L30.4913,108.9823 L30.4913,120.0073 L30.4913,133.9503 C30.4913,134.7103 31.1073,135.3283 31.8683,135.3283 L45.8103,135.3283 L82.8253,135.3283 L95.6063,135.3283 L96.7673,135.3283 C97.5273,135.3283 98.1443,134.7103 98.1443,133.9503 L98.1443,71.5893 C98.1443,70.8283 97.5273,70.2113 96.7673,70.2113 L84.2023,70.2113 C83.4413,70.2113 82.8253,70.8283 82.8253,71.5893" id="Fill-212" fill="#FDFDFD"></path>
                <path d="M118.4026,118.5408 L118.4026,86.9978 C118.4026,86.1878 119.0596,85.5308 119.8696,85.5308 L169.2696,85.5308 C170.0796,85.5308 170.7366,84.8748 170.7366,84.0638 L170.7366,71.6788 C170.7366,70.8678 170.0796,70.2118 169.2696,70.2118 L118.4026,70.2118 L104.5496,70.2118 C103.7396,70.2118 103.0836,70.8678 103.0836,71.6788 L103.0836,85.5308 L103.0836,120.0078 L103.0836,133.8598 C103.0836,134.6708 103.7396,135.3278 104.5496,135.3278 L118.4026,135.3278 L155.4176,135.3278 L168.1986,135.3278 L169.2696,135.3278 C170.0796,135.3278 170.7366,134.6708 170.7366,133.8598 L170.7366,108.9818 L170.7366,95.1298 C170.7366,94.3188 170.0796,93.6628 169.2696,93.6628 L155.4176,93.6628 L130.7396,93.6628 C129.9286,93.6628 129.2726,94.3188 129.2726,95.1298 L129.2726,107.5158 C129.2726,108.3258 129.9286,108.9818 130.7396,108.9818 L153.9496,108.9818 C154.7596,108.9818 155.4176,109.6398 155.4176,110.4488 L155.4176,118.5408 C155.4176,119.3518 154.7596,120.0078 153.9496,120.0078 L119.8696,120.0078 C119.0596,120.0078 118.4026,119.3518 118.4026,118.5408" id="Fill-214" fill="#FDFDFD"></path>
            </g>
        </g>
    </g>
</svg>