<?xml version="1.0" encoding="UTF-8"?>
<svg width="183px" height="201px" viewBox="0 0 183 201" version="1.1" xmlns="http://www.w3.org/2000/svg" xmlns:xlink="http://www.w3.org/1999/xlink">
    <!-- Generator: Sketch 51.2 (57519) - http://www.bohemiancoding.com/sketch -->
    <title>EDG</title>
    <desc>Created with Sketch.</desc>
    <defs></defs>
    <g id="Page-1" stroke="none" stroke-width="1" fill="none" fill-rule="evenodd">
        <g id="Artboard" transform="translate(-1107.000000, -6923.000000)">
            <g id="EDG" transform="translate(1107.000000, 6923.000000)">
                <path d="M0.5344,66.8641 L0.5344,134.0221 C0.5344,145.8361 6.8374,156.7531 17.0684,162.6591 L75.2284,196.2381 C85.4594,202.1451 98.0644,202.1451 108.2954,196.2381 L166.4564,162.6591 C176.6874,156.7531 182.9894,145.8361 182.9894,134.0221 L182.9894,66.8641 C182.9894,55.0511 176.6874,44.1351 166.4564,38.2271 L108.2954,4.6481 C98.0644,-1.2579 85.4594,-1.2579 75.2284,4.6481 L17.0684,38.2271 C6.8374,44.1351 0.5344,55.0511 0.5344,66.8641" id="Fill-470" fill="#2C1446"></path>
                <path d="M5.8582,69.9373 L5.8582,130.9493 C5.8582,142.7623 12.1612,153.6783 22.3922,159.5853 L75.2292,190.0903 C85.4602,195.9983 98.0652,195.9983 108.2962,190.0903 L161.1322,159.5853 C171.3632,153.6783 177.6662,142.7623 177.6662,130.9493 L177.6662,69.9373 C177.6662,58.1243 171.3632,47.2083 161.1322,41.3003 L108.2962,10.7953 C98.0652,4.8883 85.4602,4.8883 75.2292,10.7953 L22.3922,41.3003 C12.1612,47.2083 5.8582,58.1243 5.8582,69.9373" id="Fill-471" fill="#FFFFFF"></path>
                <path d="M11.3025,73.0809 L11.3025,127.8059 C11.3025,139.6189 17.6055,150.5349 27.8365,156.4419 L75.2285,183.8049 C85.4595,189.7109 98.0645,189.7109 108.2955,183.8049 L155.6885,156.4419 C165.9195,150.5349 172.2215,139.6189 172.2215,127.8059 L172.2215,73.0809 C172.2215,61.2679 165.9195,50.3519 155.6885,44.4439 L108.2955,17.0819 C98.0645,11.1759 85.4595,11.1759 75.2285,17.0819 L27.8365,44.4439 C17.6055,50.3519 11.3025,61.2679 11.3025,73.0809" id="Fill-472" fill="#29164D"></path>
                <path d="M109.4612,62.9481 C106.0372,59.1291 100.9022,55.5741 97.6102,50.8341 C94.7632,46.7341 92.4172,44.2151 91.8342,43.6071 L91.7622,43.5331 L91.6902,43.6071 C91.1072,44.2151 88.7612,46.7341 85.9142,50.8341 C82.6222,55.5741 77.4872,59.1291 74.0632,62.9481 C70.6402,66.7661 64.5832,76.1151 71.1672,82.9631 C77.7502,89.8091 88.2842,84.8051 88.2842,84.8051 C88.2842,84.8051 87.0992,91.6531 82.8852,96.5251 L82.8852,98.1051 L91.6902,107.0891 L91.7622,107.1621 L91.8342,107.0891 L100.6392,98.1051 L100.6392,96.5251 C96.4252,91.6531 95.2402,84.8051 95.2402,84.8051 C95.2402,84.8051 105.7742,89.8091 112.3572,82.9631 C118.9412,76.1151 112.8842,66.7661 109.4612,62.9481" id="Fill-473" fill="#FFFFFF"></path>
                <path d="M113.5618,135.201 C110.2328,135.201 107.2148,133.858 105.0238,131.687 L96.3228,123.065 L105.0238,114.449 C107.2148,112.273 110.2328,110.935 113.5618,110.935 C120.2668,110.935 125.6968,116.366 125.6968,123.065 C125.6968,129.77 120.2668,135.201 113.5618,135.201 M113.5618,102.261 C107.8528,102.261 102.6798,104.562 98.9188,108.286 L90.1658,116.961 L81.4068,108.286 C77.6508,104.562 72.4738,102.261 66.7638,102.261 C55.2768,102.261 45.9588,111.578 45.9588,123.065 C45.9588,134.558 55.2768,143.87 66.7638,143.87 C72.4738,143.87 77.6508,141.568 81.4068,137.845 L84.5138,134.769 L84.1868,134.442 L78.3568,128.665 L75.3078,131.687 C73.1108,133.858 70.0988,135.201 66.7638,135.201 C60.0648,135.201 54.6338,129.77 54.6338,123.065 C54.6338,116.366 60.0648,110.935 66.7638,110.935 C70.0988,110.935 73.1108,112.273 75.3078,114.449 L84.0028,123.065 L87.3108,126.342 L90.1658,129.17 L98.9188,137.845 C102.6798,141.568 107.8528,143.87 113.5618,143.87 C125.0548,143.87 134.3668,134.558 134.3668,123.065 C134.3668,111.578 125.0548,102.261 113.5618,102.261" id="Fill-474" fill="#FFFFFF"></path>
            </g>
        </g>
    </g>
</svg>