<?xml version="1.0" encoding="UTF-8"?>
<svg width="201px" height="200px" viewBox="0 0 201 200" version="1.1" xmlns="http://www.w3.org/2000/svg" xmlns:xlink="http://www.w3.org/1999/xlink">
    <!-- Generator: Sketch 51.2 (57519) - http://www.bohemiancoding.com/sketch -->
    <title>EOS</title>
    <desc>Created with Sketch.</desc>
    <defs></defs>
    <g id="Page-1" stroke="none" stroke-width="1" fill="none" fill-rule="evenodd">
        <g id="Artboard" transform="translate(-1457.000000, -1974.000000)">
            <g id="EOS" transform="translate(1457.000000, 1973.000000)">
                <path d="M200.802,100.9984 C200.802,156.2274 156.031,200.9984 100.802,200.9984 C45.573,200.9984 0.802,156.2274 0.802,100.9984 C0.802,45.7694 45.573,0.9984 100.802,0.9984 C156.031,0.9984 200.802,45.7694 200.802,100.9984 Z" id="Fill-626" fill="#000000"></path>
                <path d="M62.4924,76.1824 L70.3144,100.3034 L48.4594,138.7294 L62.4924,76.1824 Z M131.2894,100.3034 L139.1124,76.1824 L153.1444,138.7294 L131.2894,100.3034 Z M129.4814,105.8794 L155.5074,151.6394 L104.6544,182.4354 L129.4814,105.8794 Z M96.9504,182.4354 L46.0964,151.6394 L72.1224,105.8794 L96.9504,182.4354 Z M100.8024,55.4544 L126.5834,100.7844 L100.8024,180.2824 L75.0204,100.7844 L100.8024,55.4544 Z M98.6384,50.5044 L73.2124,95.2084 L64.5104,68.3734 L98.6384,21.3634 L98.6384,50.5044 Z M102.9664,21.3634 L137.0944,68.3734 L128.3914,95.2084 L102.9664,50.5044 L102.9664,21.3634 Z M160.5414,151.9254 L141.6044,67.5194 C141.5394,67.2314 141.4174,66.9604 141.2444,66.7224 L102.5544,13.4274 C102.1464,12.8664 101.4954,12.5344 100.8024,12.5344 C100.1094,12.5344 99.4574,12.8664 99.0504,13.4274 L60.3604,66.7224 C60.1874,66.9604 60.0644,67.2314 59.9994,67.5194 L41.0624,151.9254 C40.8594,152.8334 41.2584,153.7694 42.0534,154.2514 L99.6804,189.1504 C99.7064,189.1654 99.7334,189.1764 99.7594,189.1904 C99.7964,189.2104 99.8334,189.2304 99.8724,189.2484 C99.9324,189.2774 99.9924,189.3024 100.0554,189.3254 C100.0934,189.3394 100.1304,189.3534 100.1694,189.3654 C100.2384,189.3864 100.3064,189.4014 100.3764,189.4154 C100.4114,189.4224 100.4464,189.4324 100.4814,189.4374 C100.5874,189.4534 100.6954,189.4624 100.8024,189.4624 C100.9094,189.4624 101.0164,189.4534 101.1224,189.4374 C101.1584,189.4324 101.1924,189.4224 101.2274,189.4154 C101.2974,189.4014 101.3664,189.3864 101.4344,189.3654 C101.4734,189.3534 101.5114,189.3394 101.5504,189.3254 C101.6114,189.3024 101.6724,189.2774 101.7324,189.2484 C101.7704,189.2304 101.8074,189.2104 101.8454,189.1904 C101.8704,189.1764 101.8974,189.1654 101.9234,189.1504 L159.5514,154.2514 C160.3464,153.7694 160.7454,152.8334 160.5414,151.9254 Z" id="Fill-628" fill="#FFFFFF"></path>
            </g>
        </g>
    </g>
</svg>