<?xml version="1.0" encoding="UTF-8"?>
<svg width="201px" height="200px" viewBox="0 0 201 200" version="1.1" xmlns="http://www.w3.org/2000/svg" xmlns:xlink="http://www.w3.org/1999/xlink">
    <!-- Generator: Sketch 51.2 (57519) - http://www.bohemiancoding.com/sketch -->
    <title>ETHOS</title>
    <desc>Created with Sketch.</desc>
    <defs></defs>
    <g id="Page-1" stroke="none" stroke-width="1" fill="none" fill-rule="evenodd">
        <g id="Artboard" transform="translate(-414.000000, -7307.000000)">
            <g id="ETHOS" transform="translate(414.000000, 7307.000000)">
                <path d="M100.9597,19.3426 C94.2877,26.6226 89.4217,35.7186 87.2107,46.0496 C86.8047,47.9426 86.5057,49.8346 86.2927,51.7366 C82.8467,36.5586 67.7837,26.9036 52.5097,30.1566 C45.0557,31.7496 38.6737,36.1526 34.5307,42.5446 C30.3887,48.9366 28.9797,56.5646 30.5727,64.0186 C32.8027,74.4646 40.4987,82.3336 50.0377,85.3176 L50.0477,85.3176 L50.0567,85.3176 C54.5757,86.7176 59.4907,87.0166 64.4337,85.9646 C72.2547,84.2836 79.9497,89.2766 81.6207,97.0966 C83.2997,104.9176 78.3087,112.6136 70.4877,114.2926 C70.3427,114.3216 70.1887,114.3616 70.0437,114.3796 C70.0337,114.3896 70.0237,114.3896 70.0147,114.3896 C66.1427,115.1816 62.2707,115.5676 58.4577,115.5676 C55.7337,115.5676 53.0407,115.3746 50.3947,114.9886 C38.8567,113.3466 28.1587,108.2106 19.6907,100.4866 C11.1367,92.6846 4.8407,82.2376 2.2437,70.0716 C-0.9613,55.0576 1.8677,39.6866 10.2187,26.7966 C18.5707,13.9066 31.4417,5.0336 46.4647,1.8276 C67.1377,-2.5844 87.6357,4.7536 100.9597,19.3426" id="Fill-818" fill="#00FFB8"></path>
                <path d="M199.6663,70.0721 C197.1753,81.7451 191.2663,92.1251 182.7113,100.0901 C174.3113,92.2501 163.6613,86.9981 152.1433,85.2201 C161.5473,82.1891 169.1363,74.3591 171.3473,64.0181 C174.6293,48.6361 164.7913,33.4391 149.4003,30.1571 C134.1353,26.9031 119.0633,36.5581 115.6263,51.7261 C115.5973,51.8521 115.5683,51.9681 115.5393,52.0931 C114.8053,55.5211 114.6993,58.9871 115.2303,62.4051 C116.0313,67.6191 113.9463,72.6211 110.1613,75.7681 C109.8333,76.0291 109.4953,76.2901 109.1473,76.5311 C108.6843,76.8501 108.2013,77.1491 107.6993,77.4101 C106.8303,77.8731 105.9133,78.2501 104.9473,78.5201 C104.7833,78.5681 104.6093,78.6171 104.4453,78.6651 C104.2713,78.7041 104.0883,78.7421 103.9143,78.7811 C103.6533,78.8391 103.3933,78.8871 103.1233,78.9261 C102.9193,78.9551 102.7173,78.9841 102.5143,79.0031 C102.3593,79.0221 102.2053,79.0321 102.0503,79.0511 C101.8673,79.0601 101.6933,79.0701 101.5103,79.0801 C101.1333,79.0991 100.7673,79.0991 100.3993,79.0801 C100.0623,79.0701 99.7333,79.0421 99.3953,79.0031 C99.2023,78.9841 98.9993,78.9551 98.7973,78.9261 L98.7773,78.9261 C98.5553,78.8961 98.3433,78.8581 98.1303,78.8091 C98.1213,78.8091 98.1113,78.8091 98.0923,78.8011 C97.9953,78.7811 97.8893,78.7611 97.7923,78.7321 C97.5613,78.6841 97.3293,78.6271 97.1073,78.5591 C91.7583,77.1301 87.5003,72.6501 86.6023,66.8181 C85.8303,61.8061 85.7243,56.7581 86.2933,51.7361 C86.5053,49.8351 86.8053,47.9421 87.2103,46.0501 C89.4213,35.7181 94.2883,26.6231 100.9593,19.3431 C114.2843,4.7631 134.7823,-2.5839 155.4543,1.8281 C186.4583,8.4521 206.2903,39.0681 199.6663,70.0721" id="Fill-819" fill="#00D0AB"></path>
                <path d="M97.7927,78.7322 C97.6867,78.7132 97.5807,78.6942 97.4747,78.6652 C97.3487,78.6352 97.2327,78.5972 97.1067,78.5592 C97.3297,78.6272 97.5617,78.6842 97.7927,78.7322" id="Fill-820" fill="#00D0AB"></path>
                <path d="M98.0921,78.8006 C97.8801,78.7616 97.6771,78.7236 97.4741,78.6646 C97.3491,78.6356 97.2331,78.5976 97.1071,78.5596 C97.3291,78.6266 97.5611,78.6846 97.7931,78.7326 C97.8891,78.7616 97.9951,78.7806 98.0921,78.8006" id="Fill-821" fill="#00D0AB"></path>
                <path d="M116.2732,150.7518 L116.2732,150.7618 C116.1092,151.8718 115.9062,152.9728 115.6652,154.0728 C113.4052,164.6748 108.3362,173.9628 101.4142,181.3398 C90.7062,192.7418 75.5562,199.5688 59.4512,199.5688 C55.4832,199.5688 51.4572,199.1538 47.4312,198.2938 C32.4072,195.0788 19.5362,186.2158 11.1852,173.3258 C2.8332,160.4358 0.0032,145.0648 3.2092,130.0508 C5.6522,118.5998 11.3872,108.3938 19.6912,100.4858 C28.1592,108.2108 38.8562,113.3468 50.3952,114.9878 C48.1452,115.7408 45.9732,116.7938 43.9262,118.1158 C37.5242,122.2588 33.1312,128.6498 31.5382,136.0948 C29.9452,143.5488 31.3552,151.1768 35.4972,157.5778 C39.6392,163.9698 46.0212,168.3728 53.4752,169.9658 C67.9192,173.0458 82.1902,164.5678 86.6122,150.7798 L86.6122,150.7708 C86.9012,149.8728 87.1432,148.9558 87.3462,148.0198 C88.0702,144.6018 88.1762,141.1248 87.6542,137.7168 C86.4282,129.8098 91.8552,122.4128 99.7522,121.1968 C100.3222,121.1098 100.8822,121.0518 101.4422,121.0318 C108.6842,120.7528 115.1432,125.9668 116.2832,133.3048 C117.1712,139.0978 117.1712,144.9578 116.2732,150.7518" id="Fill-822" fill="#00D0AB"></path>
                <path d="M191.6907,173.326 C183.3487,186.216 170.4787,195.079 155.4547,198.294 C151.4187,199.154 147.3537,199.579 143.3277,199.579 C132.3497,199.579 121.6027,196.421 112.1797,190.319 C108.1817,187.741 104.5807,184.719 101.4137,181.34 C108.3367,173.963 113.4057,164.675 115.6647,154.073 C115.9057,152.972 116.1087,151.872 116.2737,150.762 C120.6667,164.558 134.9567,173.046 149.4007,169.966 C164.7917,166.673 174.6297,151.485 171.3467,136.095 C169.7537,128.65 165.3507,122.259 158.9597,118.116 C156.8357,116.746 154.5757,115.664 152.2297,114.911 C147.5177,113.366 142.4587,113.096 137.4767,114.158 C129.6557,115.818 121.9607,110.847 120.2897,103.015 C120.1347,102.292 120.0387,101.567 119.9907,100.853 C119.9807,100.611 119.9707,100.37 119.9707,100.138 L119.9707,99.974 C119.9707,99.733 119.9807,99.501 119.9907,99.26 C120.3097,92.868 124.8667,87.229 131.4317,85.829 C138.4417,84.333 145.4417,84.188 152.1427,85.221 C163.6617,86.998 174.3117,92.25 182.7117,100.09 C191.0147,107.844 197.1167,118.116 199.6667,130.051 C202.8807,145.064 200.0427,160.435 191.6907,173.326" id="Fill-823" fill="#00FFB8"></path>
            </g>
        </g>
    </g>
</svg>