<?xml version="1.0" encoding="UTF-8"?>
<svg width="201px" height="195px" viewBox="0 0 201 195" version="1.1" xmlns="http://www.w3.org/2000/svg" xmlns:xlink="http://www.w3.org/1999/xlink">
    <!-- Generator: Sketch 51.2 (57519) - http://www.bohemiancoding.com/sketch -->
    <title>ETP</title>
    <desc>Created with Sketch.</desc>
    <defs></defs>
    <g id="Page-1" stroke="none" stroke-width="1" fill="none" fill-rule="evenodd">
        <g id="Artboard" transform="translate(-759.000000, -7701.000000)">
            <g id="ETP" transform="translate(759.000000, 7700.000000)">
                <path d="M6.366,88.284 C6.366,90.141 6.362,91.999 6.366,93.857 C6.398,106.927 6.4,119.997 6.491,133.066 C6.507,135.457 5.671,136.575 3.187,136.522 C0.632,136.469 0.396,134.923 0.4,132.918 C0.433,115.843 0.47,98.766 0.384,81.691 C0.371,79.165 1.29,78.54 3.678,78.325 C7.462,77.985 9.514,79.336 11.226,82.801 C15.738,91.93 20.701,100.839 25.545,109.803 C25.888,110.438 26.676,110.905 27.362,111.23 C27.509,111.3 28.214,110.469 28.486,109.958 C32.581,102.272 36.646,94.57 40.722,86.874 C41.411,85.571 42.305,84.345 42.785,82.971 C44.114,79.173 46.67,77.874 50.586,78.366 C52.387,78.593 53.298,79.058 53.295,80.973 C53.271,98.577 53.273,116.18 53.286,133.782 C53.288,135.796 52.419,136.502 50.373,136.498 C48.234,136.493 47.303,135.854 47.323,133.62 C47.448,119.711 47.507,105.801 47.563,91.89 C47.569,90.597 47.406,89.305 47.262,87.108 C46.211,88.315 45.673,88.745 45.377,89.302 C40.203,99.044 35.08,108.812 29.895,118.549 C28.137,121.85 25.971,121.921 24.209,118.638 C19.141,109.199 14.208,99.686 9.167,90.233 C8.68,89.321 7.805,88.617 7.11,87.816 C6.862,87.972 6.614,88.128 6.366,88.284" id="Fill-853" fill="#00689F"></path>
                <path d="M46.6756,57.9852 C36.3596,58.5312 28.1196,49.1402 28.2976,39.2772 C28.4626,30.1482 36.0856,21.0862 46.8366,21.3162 C57.3176,21.5412 65.3876,29.4642 65.2316,39.7722 C65.0686,50.4752 56.4576,58.5472 46.6756,57.9852" id="Fill-855" fill="#00659B"></path>
                <path d="M103.5828,0.9862 C113.4548,1.0222 121.2278,9.0002 121.1598,19.0262 C121.0938,28.7742 113.1738,36.5412 103.3218,36.5182 C93.6738,36.4972 85.6138,28.4152 85.6208,18.7682 C85.6278,8.9622 93.7208,0.9502 103.5828,0.9862" id="Fill-857" fill="#0099CC"></path>
                <path d="M172.2161,39.8826 C172.3791,50.0736 164.1271,57.1806 154.8321,57.3576 C145.0361,57.5436 136.9961,49.2556 137.0411,39.4416 C137.0841,30.0226 144.9571,22.0776 154.2691,22.0566 C164.7401,22.0316 172.1881,29.4306 172.2161,39.8826" id="Fill-859" fill="#0097FB"></path>
                <path d="M183.1448,58.077 C192.4978,58.121 200.7298,66.169 200.3728,75.43 C200.0058,84.908 193.5428,92.701 182.7978,92.629 C173.1608,92.563 165.4838,84.827 165.7648,75.222 C166.0528,65.372 173.3418,58.286 183.1448,58.077" id="Fill-861" fill="#00CAFF"></path>
                <path d="M183.1316,109.2538 C193.0046,109.1738 200.1716,116.7128 199.9766,126.2348 C199.7826,135.6728 192.9586,143.0778 182.8286,142.9988 C173.7216,142.9278 166.2246,135.7918 166.1826,126.3998 C166.1386,116.3108 173.5416,108.9388 183.1316,109.2538" id="Fill-863" fill="#FFCB00"></path>
                <path d="M150.6043,84.6034 C145.7543,83.8624 141.1603,82.7584 136.5363,82.6144 C133.9813,82.5344 131.0493,83.5524 128.8573,84.9624 C123.3283,88.5194 123.3043,95.7054 128.8443,99.4464 C133.1733,102.3704 137.9793,104.5814 142.5153,107.2074 C146.5543,109.5454 150.1583,112.2814 152.1823,116.7864 C155.3113,123.7494 151.4603,132.9694 144.3073,135.5624 C136.3083,138.4624 128.3903,137.8804 120.4603,135.4504 C118.5003,134.8494 117.0823,130.2404 118.4443,128.7194 C118.7993,128.3244 120.0893,128.2634 120.6033,128.5914 C125.6523,131.8194 131.2173,132.3144 136.9823,131.9334 C141.3593,131.6454 145.1933,129.1294 146.1433,125.8874 C147.5623,121.0414 146.3523,117.1374 141.9723,114.4174 C136.5463,111.0474 130.7513,108.2664 125.3703,104.8334 C115.5183,98.5494 116.9223,86.2974 123.7923,81.5674 C131.6193,76.1754 140.3883,75.8674 149.1773,78.8004 C152.3183,79.8484 150.4273,82.8244 150.6043,84.6034" id="Fill-865" fill="#00689F"></path>
                <path d="M63.2381,79.2938 C67.8421,77.4068 69.5921,77.9328 71.0441,81.9718 C74.5961,91.8528 77.9841,101.7928 81.4121,111.7178 C83.0931,116.5848 84.6991,121.4788 86.3841,126.3438 C86.6061,126.9848 87.1001,127.5338 87.9801,128.9488 C89.1141,125.8228 90.0051,123.3968 90.8761,120.9618 C95.1561,109.0078 99.4361,97.0538 103.7011,85.0948 C104.2301,83.6098 104.4571,81.9708 105.2291,80.6378 C105.7811,79.6838 106.9171,78.7468 107.9631,78.4858 C109.0681,78.2108 110.3751,78.7468 111.5941,78.9278 C111.4161,80.1148 111.4301,81.3708 111.0301,82.4778 C107.4641,92.3438 103.8211,102.1818 100.2071,112.0308 C97.5681,119.2228 94.9781,126.4338 92.2751,133.6018 C91.6361,135.2948 90.6941,136.8178 88.3461,136.4848 C86.1531,136.1738 84.0291,136.7808 82.9251,133.5668 C78.1611,119.6858 73.0311,105.9298 68.0151,92.1358 C66.4521,87.8378 64.8281,83.5628 63.2381,79.2938" id="Fill-867" fill="#00689F"></path>
                <path d="M160.7312,148.8465 C169.1992,148.5065 175.2492,155.1245 175.3372,162.9105 C175.4332,171.4125 169.3092,177.6245 161.0112,177.6385 C152.3982,177.6535 146.4612,171.4635 146.2232,163.0065 C146.0402,156.4465 152.4442,148.0175 160.7312,148.8465" id="Fill-869" fill="#FF9700"></path>
                <path d="M104.4803,181.4657 C104.4773,173.3077 110.3493,167.6807 118.7733,167.7667 C126.1473,167.8427 132.2233,173.8617 132.1683,181.1927 C132.1053,189.6927 126.2033,195.1537 118.7273,195.3617 C110.6483,195.5857 104.2513,189.6157 104.4803,181.4657" id="Fill-871" fill="#FD6800"></path>
                <path d="M79.18,194.3338 C73.197,195.0648 66.201,188.1648 66.229,181.6328 C66.259,174.7338 72.278,168.5098 79.167,168.4438 C86.281,168.3758 92.144,174.4018 92.093,181.5878 C92.042,188.5628 86.191,194.3378 79.18,194.3338" id="Fill-873" fill="#FF0000"></path>
                <path d="M35.7932,163.3221 C35.4802,156.1581 40.9182,152.1341 47.0302,152.1441 C53.7782,152.1571 57.9282,157.5511 58.1032,163.4861 C58.2742,169.3431 52.6152,174.5571 46.5752,174.4171 C40.2982,174.2701 35.7552,169.5951 35.7932,163.3221" id="Fill-875" fill="#F02000"></path>
            </g>
        </g>
    </g>
</svg>