<?xml version="1.0" encoding="UTF-8"?>
<svg width="201px" height="201px" viewBox="0 0 201 201" version="1.1" xmlns="http://www.w3.org/2000/svg" xmlns:xlink="http://www.w3.org/1999/xlink">
    <!-- Generator: Sketch 51.2 (57519) - http://www.bohemiancoding.com/sketch -->
    <title>FCT</title>
    <desc>Created with Sketch.</desc>
    <defs></defs>
    <g id="Page-1" stroke="none" stroke-width="1" fill="none" fill-rule="evenodd">
        <g id="Artboard" transform="translate(-415.000000, -5004.000000)">
            <g id="FCT" transform="translate(415.000000, 5004.000000)">
                <path d="M171.3748,31.452 C176.5628,33.767 180.2868,40.759 179.7838,45.956 C179.1288,52.707 175.7238,58.146 171.8498,63.343 C161.3098,77.48 147.6458,88.234 133.3578,98.231 C118.9258,108.33 103.5848,116.928 87.5178,124.098 C78.6388,128.059 69.4338,131.376 60.1838,134.393 C52.8518,136.786 45.2988,138.675 37.7098,140.057 C30.9338,141.292 23.9518,141.848 17.0878,140.312 C13.0358,139.406 8.9988,138.068 6.5728,134.363 C5.3498,132.496 4.6478,130.258 3.8978,128.122 C3.3758,126.638 3.1738,125.042 2.7158,122.993 C5.1438,125.248 6.7038,127.369 8.7988,128.474 C11.4918,129.895 14.5988,131.245 17.5538,131.306 C24.1828,131.441 30.9898,131.546 37.4318,130.229 C47.0948,128.256 56.7328,125.666 65.9808,122.254 C91.7618,112.741 115.7018,99.659 137.6248,83.05 C147.5018,75.566 156.7568,67.348 164.4488,57.529 C167.9908,53.008 171.1728,48.172 172.5338,42.61 C173.2088,39.848 172.2148,36.671 171.9338,33.685 C171.8748,33.056 171.6288,32.443 171.3748,31.452" id="Fill-222" fill="#3C7CA8"></path>
                <path d="M155.0857,17.949 C161.8587,20.337 168.0307,26.756 165.9997,34.148 C163.2997,43.978 157.1247,51.381 150.3337,58.373 C137.0957,72.005 121.6227,82.742 105.3297,92.375 C93.8467,99.163 81.9237,105.095 69.5727,110.076 C62.4337,112.956 54.9537,114.988 47.6457,117.456 C39.8187,120.098 31.7147,121.334 23.5337,121.911 C18.1527,122.29 12.7987,121.779 7.7217,119.501 C2.8767,117.327 0.5597,113.594 0.2887,108.448 C0.1897,106.58 0.2727,104.704 0.5897,102.706 C2.3017,106.849 5.2767,109.575 9.2577,111.025 C15.1687,113.178 21.2737,114.158 27.5827,113.127 C31.0147,112.565 34.4857,112.193 37.8777,111.453 C41.8847,110.578 45.9097,109.639 49.7727,108.29 C55.4837,106.294 61.0907,103.987 66.6867,101.677 C81.1977,95.685 94.7957,87.973 107.9147,79.407 C120.9577,70.89 133.3787,61.564 144.2087,50.293 C149.4427,44.845 154.4607,39.178 157.1277,31.918 C158.7627,27.464 159.3157,23.062 155.6167,19.203 C155.3937,18.969 155.2107,18.694 155.0267,18.426 C154.9927,18.376 155.0427,18.268 155.0857,17.949" id="Fill-224" fill="#D87E3A"></path>
                <path d="M10.9031,144.3797 C11.5601,144.6897 12.0471,144.7977 12.3681,145.0887 C15.6981,148.0977 19.7281,148.9537 24.0531,149.7077 C29.7221,150.6967 35.2341,149.7177 40.7671,149.3557 C44.9831,149.0787 49.1531,147.7657 53.2881,146.7007 C58.1981,145.4387 63.1161,144.1477 67.9091,142.5107 C74.5551,140.2407 81.1981,137.8977 87.6451,135.1267 C103.0421,128.5127 117.9401,120.8577 131.7961,111.4177 C141.1361,105.0557 150.0151,98.0097 159.0291,91.1767 C161.8741,89.0197 163.9021,88.6057 165.5751,90.3557 C167.6911,92.5687 167.7871,96.0087 165.3781,98.1797 C161.5031,101.6717 157.5011,105.0457 153.3561,108.2117 C135.5891,121.7817 116.3541,132.9197 96.0261,142.1517 C84.3591,147.4507 72.3891,152.0947 59.9221,155.0887 C52.1921,156.9447 44.2491,158.0827 36.3371,158.9557 C30.6961,159.5787 25.0471,158.6427 19.7221,156.3757 C15.0701,154.3967 12.8921,150.3187 10.9271,146.0667 C10.7451,145.6737 10.9031,145.1227 10.9031,144.3797" id="Fill-226" fill="#EAB600"></path>
                <path d="M9.1209,61.3045 C9.1769,62.1375 9.4519,63.0275 9.2519,63.7935 C8.2609,67.5975 10.0529,71.2235 13.7739,72.3255 C19.1359,73.9105 24.5829,73.9175 30.0199,72.7205 C34.5989,71.7125 39.2539,70.9045 43.6959,69.4545 C50.3959,67.2695 57.1099,64.9775 63.5149,62.0645 C76.8869,55.9845 89.5189,48.5675 101.0609,39.4115 C108.8349,33.2455 116.2089,26.7055 121.1339,17.8545 C122.7929,14.8695 123.2869,11.7375 122.7009,8.5015 C122.4909,7.3475 121.4109,6.2735 120.5359,5.3435 C119.8429,4.6075 118.8559,4.1475 117.3799,3.1425 C118.6679,2.8615 119.3919,2.4545 119.9309,2.6265 C122.8939,3.5735 125.9899,4.3285 128.7009,5.7835 C132.3399,7.7345 133.4669,12.3025 132.1789,16.2765 C129.2429,25.3355 122.8559,31.8585 116.1679,38.0815 C104.3179,49.1085 90.9179,57.9995 76.4969,65.2425 C67.8319,69.5925 58.8989,73.4725 49.8659,77.0005 C44.6459,79.0395 39.0339,80.1735 33.5159,81.3195 C28.9099,82.2755 24.1899,83.0795 19.5099,83.1445 C16.3109,83.1885 12.9489,82.2105 9.9189,81.0265 C5.8649,79.4425 3.8679,75.0305 4.9669,70.2185 C5.6769,67.1115 7.1949,64.1885 8.3499,61.1815 L9.1209,61.3045 Z" id="Fill-228" fill="#3C7CA8"></path>
                <path d="M137.7376,7.8485 C140.8316,9.5015 144.3036,10.7025 146.9316,12.9105 C151.1836,16.4825 151.2916,20.6005 149.1766,26.1235 C145.6006,35.4655 138.9086,42.5885 131.7376,49.2295 C117.7976,62.1375 102.1206,72.6155 85.2536,81.2635 C76.9636,85.5135 68.4246,89.3055 59.8646,92.9945 C55.0716,95.0595 50.0136,96.5125 45.0506,98.1715 C44.4856,98.3605 43.6746,98.2755 43.1356,98.0025 C41.1096,96.9785 40.4866,95.1805 40.5646,92.9955 C40.6416,90.8185 41.6776,89.1565 43.6456,88.5775 C57.1436,84.6055 69.9636,79.0395 82.3516,72.4225 C98.2036,63.9525 113.1046,54.1185 126.1236,41.6345 C131.7646,36.2255 136.8806,30.4085 140.0756,23.0995 C142.6986,17.0975 142.4116,14.6825 137.8836,9.8535 C137.5596,9.5085 137.4046,9.0055 137.1726,8.5765 C137.3606,8.3335 137.5496,8.0915 137.7376,7.8485" id="Fill-230" fill="#EAB600"></path>
                <path d="M53.6384,188.8328 C54.4844,188.7848 55.2004,188.6048 55.8574,188.7298 C58.7624,189.2838 61.6364,190.0048 64.5494,190.4978 C65.8474,190.7178 67.2304,190.6848 68.5454,190.5218 C73.3144,189.9328 78.1244,189.4978 82.8154,188.5118 C87.3714,187.5538 91.8454,186.1228 96.2744,184.6568 C102.2444,182.6828 108.3494,180.9278 114.0164,178.2698 C124.5414,173.3308 135.0244,168.2138 145.1004,162.4338 C160.6814,153.4948 175.1624,142.9788 187.2954,129.5478 C191.6524,124.7268 195.2594,119.3858 197.7584,113.3548 C198.3074,112.0298 198.6734,110.6288 199.4174,109.3598 C200.1444,119.0008 196.2594,126.8818 190.2784,133.9338 C178.7274,147.5528 164.6234,158.1348 149.3424,167.0418 C138.7114,173.2388 127.6194,178.7298 116.4044,183.8098 C109.2554,187.0478 101.5224,189.0158 94.0164,191.4448 C86.7204,193.8078 79.1654,194.9248 71.5384,195.1018 C65.2144,195.2488 59.4804,192.8128 54.0224,189.7868 C53.8644,189.6988 53.8444,189.3658 53.6384,188.8328" id="Fill-232" fill="#3C7CA8"></path>
                <path d="M195.0105,68.3885 C196.2845,73.2675 198.6205,77.8815 196.9745,83.3285 C193.6235,94.4145 186.1385,102.5895 178.1775,110.3675 C162.3775,125.8055 144.1005,137.8335 124.7905,148.3705 C123.2185,149.2295 121.5355,150.0215 119.8075,150.4225 C117.6755,150.9165 115.6215,150.1955 114.9145,147.9845 C114.1945,145.7355 114.9485,143.7205 117.2025,142.5025 C119.6495,141.1795 122.1005,139.8615 124.5135,138.4785 C144.3915,127.0885 163.3125,114.3975 179.1395,97.6125 C184.5395,91.8855 189.5505,85.7925 192.2875,78.2525 C193.1165,75.9675 193.4125,73.4855 193.8925,71.0805 C194.0635,70.2285 194.0535,69.3405 194.1265,68.4685 C194.4215,68.4425 194.7165,68.4155 195.0105,68.3885" id="Fill-234" fill="#3C7CA8"></path>
                <path d="M81.6633,17.7547 C82.1483,16.7747 82.5733,15.9607 82.9563,15.1287 C83.7823,13.3387 84.8783,11.6057 85.3243,9.7267 C85.8483,7.5177 84.6583,6.4487 82.2823,6.1357 C74.8903,5.1597 68.0913,7.3997 61.6963,10.4277 C55.1053,13.5477 48.7763,17.2737 42.6253,21.1747 C38.0353,24.0867 33.8323,27.5937 31.4083,32.6907 C29.7663,36.1447 30.9853,38.2807 34.9303,38.5667 C42.1293,39.0897 48.6483,36.6687 55.0773,34.0397 C58.4343,32.6667 61.6133,30.8777 64.8553,29.2447 C66.8843,28.2247 68.1183,28.9027 69.9333,31.3627 C71.4903,33.4737 69.7143,34.2347 68.5503,34.7847 C62.3033,37.7387 55.9943,40.5747 49.6433,43.3137 C44.1993,45.6607 38.3983,46.7817 32.4993,47.1347 C30.5633,47.2497 28.4393,46.6597 26.6233,45.8907 C23.5063,44.5697 22.6713,41.0537 24.3153,37.5637 C26.7353,32.4247 30.8393,28.6487 35.1123,25.0607 C44.0723,17.5327 53.8983,11.3967 65.1573,7.6237 C68.8363,6.3917 72.3913,4.6187 76.1633,3.8817 C80.6213,3.0117 85.3683,2.1997 89.7833,2.8047 C95.6563,3.6087 97.0543,7.6087 93.8963,13.7367 C93.2923,14.9087 92.4243,15.9677 91.5793,17.0017 C89.7433,19.2487 87.7843,19.7037 85.0093,18.6927 C84.1443,18.3787 83.2313,18.1897 81.6633,17.7547" id="Fill-236" fill="#3C7CA8"></path>
                <path d="M195.2669,131.6942 C194.8719,133.1602 194.6229,134.6822 194.0599,136.0802 C190.2669,145.5012 183.6279,152.7652 176.1339,159.3302 C160.8859,172.6892 143.5939,182.7192 124.8689,190.3062 C118.6329,192.8332 112.2989,195.2522 105.8159,196.9982 C100.2589,198.4952 94.4469,199.4552 88.7039,199.7252 C84.1139,199.9412 79.4579,198.7642 74.8299,198.2052 C74.8259,197.8912 74.8209,197.5792 74.8169,197.2652 C75.2759,197.0832 75.7269,196.7722 76.1949,196.7432 C77.5269,196.6612 78.8689,196.6322 80.2019,196.6922 C87.1539,197.0092 93.8219,195.6212 100.5149,193.8542 C120.5069,188.5772 138.7119,179.4372 156.0439,168.4472 C166.8229,161.6112 176.9749,153.8672 185.5169,144.3132 C188.7859,140.6562 191.2319,136.2632 194.0579,132.2092 C194.2319,131.9592 194.4459,131.7372 194.6409,131.5022 C194.8499,131.5662 195.0589,131.6312 195.2669,131.6942" id="Fill-238" fill="#EAB600"></path>
                <path d="M94.3762,0.7147 C98.8872,1.0377 103.6462,0.5677 107.8492,1.8787 C113.6562,3.6917 115.3822,7.9897 111.9972,14.6957 C108.1972,22.2257 102.0302,27.7107 95.7472,33.0267 C92.5352,35.7437 89.0582,38.1727 85.5392,40.4857 C84.4682,41.1907 82.5712,41.6687 81.5632,41.1867 C80.1872,40.5267 78.9522,38.9867 78.3722,37.5377 C78.1342,36.9437 79.6202,35.4347 80.5662,34.6277 C86.0612,29.9437 91.8552,25.5827 97.0722,20.6117 C99.6242,18.1807 101.4522,14.8207 103.0572,11.6067 C105.0282,7.6567 103.6902,3.5097 99.0432,3.0237 C97.4522,2.8567 95.9312,2.0377 94.3772,1.5177 L94.3762,0.7147 Z" id="Fill-240" fill="#D87E3A"></path>
                <path d="M36.4968,177.5281 C39.6298,178.3031 42.5728,178.9451 45.4648,179.7661 C50.0798,181.0771 54.6578,180.7911 59.2998,179.9031 C62.4598,179.2991 65.7038,179.1301 68.8698,178.5451 C72.0918,177.9501 75.3128,177.2441 78.4498,176.3001 C83.2168,174.8661 87.9168,173.2051 92.6328,171.6001 C95.0298,170.7851 97.4178,169.9321 99.7748,169.0071 C102.0398,168.1191 104.9608,168.8761 106.1828,170.8901 C107.3838,172.8721 106.0648,174.2411 104.5758,174.9671 C101.9158,176.2661 99.1118,177.3171 96.2868,178.2151 C90.0058,180.2151 83.7338,182.2941 77.3488,183.9001 C68.9228,186.0201 60.2908,186.8961 51.6178,186.1121 C46.0698,185.6111 41.5898,182.4741 37.3968,179.0191 C36.9818,178.6771 36.8018,178.0491 36.4968,177.5281" id="Fill-242" fill="#D87E3A"></path>
                <path d="M199.0647,89.1824 C199.4077,90.4964 199.9047,91.7914 200.0687,93.1274 C201.0047,100.7304 198.2047,107.2174 193.9017,113.2304 C185.6117,124.8164 174.8687,133.8524 163.6097,142.3474 C162.2637,143.3624 160.8287,143.9694 159.4027,142.3954 C158.1477,141.0084 158.0987,137.9554 159.6847,136.4624 C161.9607,134.3224 164.4887,132.4474 166.9237,130.4764 C177.2647,122.1074 187.1847,113.3294 194.1807,101.7934 C196.2337,98.4084 198.1457,94.9324 198.0017,90.7514 C197.9847,90.2494 198.3047,89.7364 198.4687,89.2284 C198.6677,89.2124 198.8657,89.1984 199.0647,89.1824" id="Fill-244" fill="#D87E3A"></path>
                <path d="M21.0486,40.8104 C20.0546,43.4204 18.9676,45.8624 18.1996,48.4004 C17.3876,51.0874 18.9446,53.4954 21.5806,54.4324 C27.2136,56.4384 32.7626,55.0984 38.2906,54.0504 C40.8696,53.5624 43.3246,52.4044 45.9066,51.9544 C46.6686,51.8214 48.2286,52.9094 48.4656,53.7174 C49.4856,57.1974 47.6426,60.1374 43.9226,61.2084 C36.9936,63.2044 29.9616,64.7094 22.6986,64.2304 C20.7046,64.0984 18.6096,63.5704 16.8186,62.6964 C12.8516,60.7624 11.1286,56.7154 13.1026,52.4714 C14.9866,48.4184 17.8736,44.8314 20.3406,41.0534 C20.4326,40.9134 20.7376,40.9114 21.0486,40.8104" id="Fill-246" fill="#D87E3A"></path>
                <path d="M21.6008,161.8094 C23.5468,162.8394 25.3808,164.0654 27.3928,164.8074 C29.5918,165.6194 31.9358,166.3384 34.2508,166.4664 C38.8278,166.7204 43.4288,166.5644 48.0188,166.5174 C48.9128,166.5074 49.8568,166.3644 50.6878,166.0484 C54.8208,164.4794 58.0508,166.6164 60.1548,169.8964 C61.0268,171.2544 59.9448,173.0624 58.0118,173.1934 C51.7078,173.6214 45.3788,174.3164 39.0878,174.0994 C31.4998,173.8374 26.0418,169.4144 21.8498,163.3324 C21.6638,163.0634 21.5298,162.7474 21.4298,162.4354 C21.3898,162.3094 21.5058,162.1334 21.6008,161.8094" id="Fill-248" fill="#3C7CA8"></path>
                <path d="M98.2898,200.2733 C100.3898,199.7543 102.4648,199.0863 104.5928,198.7413 C125.4288,195.3533 143.4658,185.5603 160.8128,174.2093 C163.5728,172.4033 166.1078,170.2563 168.7988,168.3413 C169.4498,167.8783 170.3088,167.7083 171.4258,167.2613 C171.2258,170.2023 169.6768,171.7733 167.9518,172.9093 C160.0728,178.1003 152.3538,183.6253 144.0678,188.0813 C136.7278,192.0293 128.8398,195.0773 120.9638,197.8763 C113.7258,200.4493 106.1138,201.5633 98.2898,200.2733" id="Fill-250" fill="#3C7CA8"></path>
                <path d="M3.0877,80.4676 C3.2067,81.5976 3.4557,82.7316 3.4177,83.8566 C3.3327,86.4266 4.4757,88.2406 6.5157,89.6706 C9.6357,91.8566 10.4387,96.1006 8.1987,99.2216 C7.8837,99.6606 6.3767,99.7676 5.7977,99.4126 C1.1747,96.5816 -0.4843,91.3756 1.1617,85.4086 C1.6207,83.7456 2.0687,82.0786 2.5217,80.4136 C2.7107,80.4316 2.8997,80.4496 3.0877,80.4676" id="Fill-252" fill="#EAB600"></path>
                <path d="M190.0354,61.7889 C185.7724,58.1699 184.9794,53.5679 184.6144,48.6989 C187.5984,50.0599 190.9624,57.7119 190.0354,61.7889" id="Fill-254" fill="#EAB600"></path>
            </g>
        </g>
    </g>
</svg>