<?xml version="1.0" encoding="UTF-8"?>
<svg width="201px" height="201px" viewBox="0 0 201 201" version="1.1" xmlns="http://www.w3.org/2000/svg" xmlns:xlink="http://www.w3.org/1999/xlink">
    <!-- Generator: Sketch 51.2 (57519) - http://www.bohemiancoding.com/sketch -->
    <title>FUN</title>
    <desc>Created with Sketch.</desc>
    <defs></defs>
    <g id="Page-1" stroke="none" stroke-width="1" fill="none" fill-rule="evenodd">
        <g id="Artboard" transform="translate(-1452.000000, -6531.000000)">
            <g id="FUN" transform="translate(1452.000000, 6531.000000)">
                <path d="M100.9231,0.5809 C97.3671,0.5809 93.8561,0.7679 90.4071,1.1319 L130.0161,50.3679 L129.9101,50.4569 L115.7051,61.8789 L92.0881,80.8829 L118.6471,113.8959 L156.2831,83.6209 C157.9271,88.9899 158.8071,94.6789 158.8071,100.5809 C158.8071,132.3319 133.2341,158.1189 101.5541,158.4569 L131.5811,195.7809 C171.8121,182.8479 200.9231,145.1139 200.9231,100.5809 C200.9231,84.5989 197.1721,69.4969 190.4961,56.0919 C184.1141,43.2479 175.0481,31.9769 164.0251,23.0079 C146.8161,8.9809 124.8521,0.5809 100.9231,0.5809 M108.7991,9.8129 C126.9121,11.3929 144.2851,18.3859 158.4151,29.9019 C168.4561,38.0719 176.7971,48.4969 182.5391,60.0549 C188.8401,72.7049 192.0341,86.3409 192.0341,100.5809 C192.0341,120.2549 185.8651,138.9829 174.1951,154.7399 C163.9561,168.5659 150.3341,179.0379 134.5441,185.2839 L118.2901,165.0789 C129.5901,162.0559 139.9371,156.0789 148.3781,147.5529 C160.8361,134.9689 167.6961,118.2879 167.6961,100.5809 C167.6961,93.9129 166.7161,87.3309 164.7821,81.0179 L162.6001,73.8939 C161.8041,71.2949 158.6351,70.3209 156.5171,72.0239 L150.7111,76.6949 L120.0021,101.3989 L104.5851,82.2359 L121.2761,68.8059 L135.4801,57.3839 L135.5431,57.3329 L135.6051,57.2809 L135.7111,57.1919 L139.5171,54.0179 C141.1261,52.6749 141.3621,50.2909 140.0491,48.6579 L136.9421,44.7959 L108.7991,9.8129" id="Fill-440" fill="#E62584"></path>
                <path d="M101.554,158.4569 L131.581,195.7809 C125.128,197.8699 118.39,199.3099 111.43,200.0299 L111.421,200.0299 L72.203,151.2659 L72.505,151.0169 L86.505,139.7549 L110.158,120.7319 L83.598,87.7189 L45.759,118.1629 C43.981,112.6259 43.03,106.7149 43.03,100.5809 C43.03,68.8209 68.603,43.0429 100.274,42.6959 L70.256,5.3809 C76.71,3.2919 83.448,1.8529 90.408,1.1319 L130.016,50.3679 L129.91,50.4569 L115.705,61.8789 L92.088,80.8829 L118.647,113.8959 L156.283,83.6209 C157.928,88.9899 158.807,94.6789 158.807,100.5809 C158.807,132.3319 133.234,158.1189 101.554,158.4569" id="Fill-441" fill="#FFFFFF"></path>
                <path d="M111.4207,200.0301 C107.9717,200.3941 104.4697,200.5811 100.9227,200.5811 C77.2167,200.5811 55.4387,192.3321 38.3007,178.5461 C27.2257,169.6381 18.0877,158.4211 11.6257,145.6211 C4.7717,132.0831 0.9227,116.7761 0.9227,100.5811 C0.9227,56.0481 30.0337,18.3141 70.2557,5.3811 L100.2747,42.6961 C68.6027,43.0431 43.0297,68.8211 43.0297,100.5811 C43.0297,106.7151 43.9807,112.6261 45.7587,118.1631 L83.5987,87.7181 L110.1587,120.7321 L86.5047,139.7551 L72.5047,151.0161 L72.2027,151.2651 L111.4207,200.0301 Z" id="Fill-442" fill="#E62584"></path>
            </g>
        </g>
    </g>
</svg>