<?xml version="1.0" encoding="UTF-8"?>
<svg width="201px" height="201px" viewBox="0 0 201 201" version="1.1" xmlns="http://www.w3.org/2000/svg" xmlns:xlink="http://www.w3.org/1999/xlink">
    <!-- Generator: Sketch 51.2 (57519) - http://www.bohemiancoding.com/sketch -->
    <title>GAME</title>
    <desc>Created with Sketch.</desc>
    <defs></defs>
    <g id="Page-1" stroke="none" stroke-width="1" fill="none" fill-rule="evenodd">
        <g id="Artboard" transform="translate(-1451.000000, -6143.000000)">
            <g id="GAME" transform="translate(1451.000000, 6143.000000)">
                <path d="M200.6125,100.368 C200.6125,155.597 155.8415,200.368 100.6125,200.368 C45.3835,200.368 0.6125,155.597 0.6125,100.368 C0.6125,45.139 45.3835,0.368 100.6125,0.368 C155.8415,0.368 200.6125,45.139 200.6125,100.368 Z" id="Fill-405" fill="#F4F4F4"></path>
                <polygon id="Fill-407" fill="#2C475C" points="83.248 94.479 153.91 94.479 153.91 79.125 83.248 79.125"></polygon>
                <path d="M153.9099,106.1326 L153.9099,146.7376 C148.1049,151.1956 142.0679,154.5116 136.4989,156.9586 C136.4989,156.9586 127.1659,160.5876 122.0909,161.9456 C121.9759,161.9786 121.8579,162.0076 121.7429,162.0366 C121.5479,162.0846 121.3529,162.1346 121.1639,162.1826 C119.8349,162.5066 118.6579,162.7666 117.6619,162.9646 C117.4499,163.0086 117.2429,163.0466 117.0479,163.0856 C116.9179,163.1116 116.7909,163.1356 116.6669,163.1556 C116.6469,163.1616 116.6259,163.1646 116.6049,163.1676 C116.5429,163.1796 116.4809,163.1926 116.4229,163.2006 C116.3569,163.2156 116.2919,163.2276 116.2299,163.2366 C116.1419,163.2536 116.0589,163.2686 115.9759,163.2796 C115.6989,163.3276 115.4189,163.3716 115.1379,163.4186 C115.0759,163.4276 115.0199,163.4366 114.9639,163.4456 C114.7219,163.4816 114.4799,163.5166 114.2349,163.5516 C114.2109,163.5546 114.1899,163.5576 114.1699,163.5606 C114.1549,163.5646 114.1399,163.5676 114.1279,163.5676 C114.0869,163.5726 114.0659,163.5756 114.0659,163.5756 C111.0159,164.0006 107.8989,164.2226 104.7279,164.2226 C68.6009,164.2226 39.3159,135.6336 39.3159,100.3656 C39.3159,65.1016 68.6009,36.5126 104.7279,36.5126 C122.8769,36.5126 139.2979,43.7296 151.1459,55.3826 L139.6529,67.0446 C130.9839,58.6746 119.0619,53.5076 105.9089,53.5076 C79.3949,53.5076 57.9049,74.4876 57.9049,100.3656 C57.9049,126.2476 79.3949,147.2276 105.9089,147.2276 C117.5329,147.2276 128.1939,143.1956 136.4989,136.4806 L136.4989,121.4856 L83.2479,121.4856 L83.2479,106.1326 L153.9099,106.1326 Z" id="Fill-409" fill="#2C475C"></path>
            </g>
        </g>
    </g>
</svg>