<?xml version="1.0" encoding="UTF-8"?>
<svg width="173px" height="201px" viewBox="0 0 173 201" version="1.1" xmlns="http://www.w3.org/2000/svg" xmlns:xlink="http://www.w3.org/1999/xlink">
    <!-- Generator: Sketch 51.2 (57519) - http://www.bohemiancoding.com/sketch -->
    <title>GAS</title>
    <desc>Created with Sketch.</desc>
    <defs></defs>
    <g id="Page-1" stroke="none" stroke-width="1" fill="none" fill-rule="evenodd">
        <g id="Artboard" transform="translate(-774.000000, -5383.000000)" fill="#7ABE25">
            <g id="GAS" transform="translate(774.000000, 5383.000000)">
                <path d="M92.15,0.564 L6.906,31.465 C5.515,31.968 4.563,33.259 4.492,34.736 C4.42,36.214 5.243,37.592 6.577,38.227 L80.04,73.232 C80.537,73.468 81.078,73.588 81.618,73.588 C82.037,73.588 82.457,73.516 82.858,73.373 L168.723,42.571 C170.12,42.071 171.077,40.779 171.149,39.297 C171.222,37.816 170.396,36.437 169.055,35.801 L94.972,0.698 C94.476,0.463 93.94,0.344 93.401,0.344 C92.979,0.344 92.556,0.417 92.15,0.564 Z M17.655,35.376 L93.213,7.985 L157.925,38.649 L81.818,65.948 L17.655,35.376 Z" id="Fill-341"></path>
                <path d="M2.502,43.247 C1.436,43.92 0.788,45.092 0.788,46.353 L0.788,161.14 C0.788,162.56 1.607,163.854 2.893,164.46 L78.269,199.994 C78.767,200.227 79.3,200.343 79.833,200.343 C80.518,200.343 81.201,200.153 81.798,199.773 C82.859,199.1 83.504,197.931 83.504,196.674 L83.504,82.533 C83.504,81.122 82.693,79.835 81.42,79.226 L6.046,43.046 C5.542,42.803 4.999,42.683 4.457,42.683 C3.776,42.683 3.098,42.872 2.502,43.247 Z M8.128,158.813 L8.128,52.185 L76.164,84.842 L76.164,190.886 L8.128,158.813 Z" id="Fill-343"></path>
                <path d="M167.337,48.493 L90.669,75.628 C89.203,76.147 88.223,77.533 88.223,79.088 L88.223,130.559 C88.223,131.979 89.043,133.271 90.328,133.877 L166.995,170.057 C167.493,170.294 168.028,170.41 168.561,170.41 C169.246,170.41 169.929,170.218 170.526,169.84 C171.587,169.165 172.232,167.996 172.232,166.739 L172.232,51.953 C172.232,50.76 171.653,49.644 170.68,48.955 C170.052,48.512 169.309,48.284 168.56,48.284 C168.149,48.284 167.735,48.353 167.337,48.493 Z M95.563,128.232 L95.563,81.682 L164.892,57.145 L164.892,160.95 L95.563,128.232 Z" id="Fill-345"></path>
            </g>
        </g>
    </g>
</svg>