<?xml version="1.0" encoding="UTF-8"?>
<svg width="201px" height="201px" viewBox="0 0 201 201" version="1.1" xmlns="http://www.w3.org/2000/svg" xmlns:xlink="http://www.w3.org/1999/xlink">
    <!-- Generator: Sketch 51.2 (57519) - http://www.bohemiancoding.com/sketch -->
    <title>GBYTE</title>
    <desc>Created with Sketch.</desc>
    <defs></defs>
    <g id="Page-1" stroke="none" stroke-width="1" fill="none" fill-rule="evenodd">
        <g id="Artboard" transform="translate(-1451.000000, -5382.000000)">
            <g id="GBYTE" transform="translate(1451.000000, 5382.000000)">
                <path d="M200.6814,100.1492 C200.6814,155.3782 155.9104,200.1492 100.6814,200.1492 C45.4524,200.1492 0.6814,155.3782 0.6814,100.1492 C0.6814,44.9202 45.4524,0.1492 100.6814,0.1492 C155.9104,0.1492 200.6814,44.9202 200.6814,100.1492" id="Fill-355" fill="#FFFFFF"></path>
                <path d="M100.6814,0.1492 C45.4524,0.1492 0.6814,44.9202 0.6814,100.1492 C0.6814,155.3782 45.4524,200.1492 100.6814,200.1492 C155.9104,200.1492 200.6814,155.3782 200.6814,100.1492 C200.6814,44.9202 155.9104,0.1492 100.6814,0.1492 M100.6814,8.1492 C151.4104,8.1492 192.6814,49.4202 192.6814,100.1492 C192.6814,150.8782 151.4104,192.1492 100.6814,192.1492 C49.9524,192.1492 8.6814,150.8782 8.6814,100.1492 C8.6814,49.4202 49.9524,8.1492 100.6814,8.1492" id="Fill-357" fill="#333333"></path>
            </g>
        </g>
    </g>
</svg>