<?xml version="1.0" encoding="UTF-8"?>
<svg width="194px" height="201px" viewBox="0 0 194 201" version="1.1" xmlns="http://www.w3.org/2000/svg" xmlns:xlink="http://www.w3.org/1999/xlink">
    <!-- Generator: Sketch 51.2 (57519) - http://www.bohemiancoding.com/sketch -->
    <title>GNO</title>
    <desc>Created with Sketch.</desc>
    <defs></defs>
    <g id="Page-1" stroke="none" stroke-width="1" fill="none" fill-rule="evenodd">
        <g id="Artboard" transform="translate(-1102.000000, -5762.000000)" fill="#00A6C4">
            <g id="GNO" transform="translate(1102.000000, 5762.000000)">
                <path d="M16.0935,50.6024 C16.3935,50.8794 16.6395,51.0894 16.8675,51.3184 C19.3025,53.7554 21.7165,56.2144 24.1825,58.6204 C24.7355,59.1594 24.7385,59.5294 24.3425,60.1494 C19.1755,68.2214 17.2965,77.0654 19.0205,86.4394 C21.3315,99.0134 28.4165,108.1754 39.9915,113.6974 C46.8285,116.9574 54.0805,117.7944 61.5355,116.6534 C66.5455,115.8864 71.2375,114.1434 75.5195,111.4014 C76.2295,110.9464 76.6185,110.9984 77.1975,111.5864 C83.4895,117.9734 89.8205,124.3214 96.1055,130.7144 C96.7995,131.4214 97.1585,131.5014 97.9055,130.7484 C105.0905,123.4984 112.3335,116.3044 119.5185,109.0544 C120.3085,108.2564 120.8035,108.1194 121.8395,108.7424 C128.1225,112.5234 134.9685,114.0394 142.2875,113.6974 C156.8165,113.0184 170.0855,102.8654 174.5875,88.9274 C177.9965,78.3704 176.7315,68.3544 171.1765,58.8274 C170.8135,58.2054 170.7805,57.8204 171.3375,57.2834 C173.3625,55.3334 175.3305,53.3264 177.3235,51.3434 C177.5095,51.1594 177.7165,50.9974 177.9175,50.8214 C199.2065,82.1104 202.2085,132.4444 167.9565,169.5054 C132.4815,207.8904 73.9375,210.8784 34.8485,177.9304 C-4.8475,144.4694 -9.5675,89.5344 16.0935,50.6024" id="Fill-377"></path>
                <path d="M163.6194,38.1893 C125.5234,-0.7637 63.5824,2.5393 30.5324,36.6343 C30.7244,36.8513 30.9114,37.0813 31.1194,37.2893 C52.9534,59.1703 74.7914,81.0473 96.6124,102.9423 C97.2264,103.5583 97.5744,103.4833 98.1354,102.9143 C100.9534,100.0553 103.8004,97.2253 106.6484,94.3963 C125.0614,76.1003 143.4764,57.8053 161.9014,39.5213 C162.3954,39.0303 163.0074,38.6583 163.6194,38.1893 M97.3254,116.7573 C70.6914,90.0283 44.1284,63.3713 17.4984,36.6463 C17.6904,36.3903 17.8444,36.1463 18.0354,35.9353 C27.6414,25.2763 38.7904,16.6643 51.8044,10.5363 C58.9074,7.1913 66.2894,4.6703 73.9694,3.0163 C82.8134,1.1123 91.7544,0.3383 100.7864,0.7443 C113.9574,1.3343 126.5604,4.3503 138.6054,9.7253 C153.0884,16.1873 165.3154,25.6353 175.6924,37.5653 C176.2924,38.2553 175.9474,38.5643 175.4854,39.0233 C162.5774,51.8563 149.6754,64.6943 136.7754,77.5353 C123.9034,90.3483 111.0344,103.1653 98.1614,115.9793 C97.9284,116.2113 97.6784,116.4293 97.3254,116.7573" id="Fill-378"></path>
                <path d="M63.0042,98.0223 C57.5972,102.9713 45.5782,104.1163 37.6222,96.1673 C29.6392,88.1933 30.7322,76.3983 35.9742,70.2663 C44.9972,79.5313 54.0072,88.7833 63.0042,98.0223" id="Fill-379"></path>
                <path d="M132.9211,96.1082 C141.9731,87.0322 150.9841,77.9982 159.9931,68.9642 C163.8011,73.2272 165.5691,84.1102 158.9751,92.1322 C151.6421,101.0522 139.5441,101.0012 132.9211,96.1082" id="Fill-380"></path>
            </g>
        </g>
    </g>
</svg>