<?xml version="1.0" encoding="UTF-8"?>
<svg width="201px" height="201px" viewBox="0 0 201 201" version="1.1" xmlns="http://www.w3.org/2000/svg" xmlns:xlink="http://www.w3.org/1999/xlink">
    <!-- Generator: Sketch 51.2 (57519) - http://www.bohemiancoding.com/sketch -->
    <title>GNT</title>
    <desc>Created with Sketch.</desc>
    <defs></defs>
    <g id="Page-1" stroke="none" stroke-width="1" fill="none" fill-rule="evenodd">
        <g id="Artboard" transform="translate(-1445.000000, -3893.000000)">
            <g id="GNT" transform="translate(1445.000000, 3893.000000)">
                <path d="M200.071,100.2664 C200.071,155.4954 155.299,200.2664 100.071,200.2664 C44.842,200.2664 0.071,155.4954 0.071,100.2664 C0.071,45.0374 44.842,0.2664 100.071,0.2664 C155.299,0.2664 200.071,45.0374 200.071,100.2664" id="Fill-130" fill="#002E64"></path>
                <path d="M77.0012,144.0086 C77.0382,156.8516 87.4312,167.2266 100.2172,167.1836 C113.0212,167.1416 123.3622,156.8006 123.3462,144.0566 C123.3302,131.1656 112.9312,120.7686 100.1372,120.8206 C86.8882,120.8746 76.9662,131.6426 77.0012,144.0086 M77.0012,66.5866 C77.0292,79.4026 87.3722,89.7226 100.1532,89.7716 C113.3432,89.8226 123.3792,78.9236 123.3532,66.6616 C123.3252,53.7366 113.0542,43.4426 100.1892,43.4136 C87.1542,43.3836 76.9842,54.0146 77.0012,66.5866 M97.4892,115.6466 L97.4892,94.8376 C89.9232,94.0276 83.6262,90.7596 78.6532,85.0346 C75.2892,81.1626 73.1532,76.6556 72.2462,71.5996 C70.1162,59.7286 75.4902,48.5496 84.4922,42.8906 C96.0552,35.6226 107.3932,36.6476 118.4152,44.6196 C123.8242,39.1896 129.3032,33.6906 134.8782,28.0936 C136.0482,29.3836 137.1802,30.6326 138.3602,31.9346 C132.9872,37.2846 127.4852,42.7626 122.0242,48.1996 C122.8832,49.4606 123.7452,50.6076 124.4842,51.8296 C127.4672,56.7606 128.8202,62.1306 128.5502,67.8806 C127.9952,79.6966 120.1282,89.9906 108.8422,93.6136 C107.0782,94.1796 105.2032,94.4096 103.3712,94.7456 C102.9582,94.8216 102.8372,94.9396 102.8372,95.3496 C102.8492,101.9566 102.8472,108.5646 102.8402,115.1726 C102.8402,115.5256 102.8802,115.7216 103.3162,115.7696 C109.6072,116.4536 115.0442,119.0046 119.6452,123.3346 C123.6862,127.1366 126.3992,131.7296 127.7362,137.1196 C130.8832,149.7986 125.1102,162.8896 113.6422,169.0566 C108.9792,171.5646 103.9762,172.6566 98.7002,172.4036 C86.2352,171.8056 75.5112,162.9246 72.5972,150.8406 C69.5442,138.1806 75.2882,125.1726 86.7222,118.9226 C89.9392,117.1636 93.3842,116.0946 97.0462,115.7576 C97.1362,115.7486 97.2272,115.7406 97.3152,115.7226 C97.3672,115.7126 97.4142,115.6806 97.4892,115.6466" id="Fill-132" fill="#FFFFFF"></path>
            </g>
        </g>
    </g>
</svg>