<?xml version="1.0" encoding="UTF-8"?>
<svg width="201px" height="201px" viewBox="0 0 201 201" version="1.1" xmlns="http://www.w3.org/2000/svg" xmlns:xlink="http://www.w3.org/1999/xlink">
    <!-- Generator: Sketch 51.2 (57519) - http://www.bohemiancoding.com/sketch -->
    <title>GRS</title>
    <desc>Created with Sketch.</desc>
    <defs></defs>
    <g id="Page-1" stroke="none" stroke-width="1" fill="none" fill-rule="evenodd">
        <g id="Artboard" transform="translate(-1799.000000, -8082.000000)">
            <g id="GRS" transform="translate(1799.000000, 8082.000000)">
                <path d="M200.4436,100.7332 C200.4436,155.9622 155.6726,200.7332 100.4436,200.7332 C45.2146,200.7332 0.4436,155.9622 0.4436,100.7332 C0.4436,45.5042 45.2146,0.7332 100.4436,0.7332 C155.6726,0.7332 200.4436,45.5042 200.4436,100.7332" id="Fill-1015" fill="#5791A3"></path>
                <path d="M194.4973,100.7352 C194.4973,133.5252 177.7073,162.4062 152.2573,179.2252 C147.0473,182.6852 141.4673,185.6262 135.5873,187.9852 C124.7373,192.3762 112.8673,194.7862 100.4473,194.7862 C87.0873,194.7862 74.3773,191.9962 62.8673,186.9752 C58.9473,185.2652 55.1573,183.2962 51.5373,181.0862 C24.4673,164.5762 6.3883,134.7652 6.3883,100.7352 C6.3883,48.7862 48.4973,6.6752 100.4473,6.6752 C152.3883,6.6752 194.4973,48.7862 194.4973,100.7352" id="Fill-1017" fill="#337D97"></path>
                <path d="M67.9377,95.1053 C67.9377,81.8953 70.1267,72.0153 74.4977,65.4563 C78.8677,58.8953 85.4267,55.6163 94.1667,55.6163 C101.1077,55.6163 107.3367,58.2863 112.8477,63.6053 C118.3577,68.9253 121.1177,78.6163 121.1177,92.6853 C121.1177,106.6563 118.5177,116.4653 113.3477,122.1263 C108.1667,127.7753 101.9577,130.6053 94.7377,130.6053 C86.9477,130.6053 80.5277,127.7553 75.4977,122.0553 C70.4577,116.3453 67.9377,107.3663 67.9377,95.1053 M150.9077,177.3663 C145.8677,170.8953 139.1177,166.5953 130.6667,164.4653 C122.2077,162.3263 110.1377,160.8763 94.4577,160.1163 C80.1077,159.3553 70.6977,158.2153 66.2277,156.6953 C61.6667,155.2653 59.3877,152.7953 59.3877,149.2753 C59.3877,141.7753 69.4577,137.6853 89.6077,137.0153 C108.9977,136.3553 122.7777,131.6053 130.9477,122.7653 C139.1177,114.0153 143.2077,103.9453 143.2077,92.5453 C143.2077,83.7953 140.7377,75.5253 135.7967,67.7353 C135.7407,67.6633 135.6897,67.6063 135.6327,67.5363 L143.8737,67.5363 C143.8737,67.5363 148.6667,55.6173 147.5007,55.6173 C146.3347,55.6173 146.9827,55.0993 144.8447,57.2373 C142.7077,59.3753 139.7927,58.8563 139.7927,58.8563 L126.2357,58.8563 C125.9647,58.6543 125.6847,58.4653 125.4107,58.2703 C127.2987,56.3563 133.6337,49.8633 139.9877,42.5333 C147.5657,33.7883 148.3427,17.6593 132.9917,17.0763 C117.6397,16.4933 118.4167,30.8733 118.4167,30.8733 L119.2587,30.7443 C119.2587,30.7443 120.2307,22.1283 130.0767,22.2583 C139.9217,22.3873 138.1087,34.8893 138.1087,34.8893 C137.3447,41.6333 128.8317,51.0163 123.0457,56.6903 C114.9177,51.6183 105.2067,49.0653 93.8877,49.0653 C81.0577,49.0653 69.9577,53.2153 60.5977,61.5363 C51.2377,69.8553 46.5577,79.9453 46.5577,91.8263 C46.5577,100.2863 48.8367,107.9353 53.3977,114.7753 C57.9577,121.6263 64.7567,127.7063 73.7877,133.0253 C56.3977,136.2553 47.6977,144.0953 47.6977,156.5453 C47.6977,163.0153 50.7377,168.2863 56.8177,172.3763 C57.4167,172.7863 58.0777,173.1753 58.8177,173.5553 C56.8977,174.4753 55.2477,175.7753 53.8577,177.4653 C52.9377,178.5853 52.1667,179.7863 51.5377,181.0853 C55.1577,183.2953 58.9477,185.2653 62.8677,186.9753 C63.7277,183.4253 65.3477,179.9753 67.7277,176.6353 C74.8077,178.3263 84.4267,179.4163 96.5977,179.9253 C114.3677,180.6853 126.7167,182.9653 133.6577,186.7653 C134.3367,187.1453 134.9777,187.5553 135.5867,187.9853 C141.4667,185.6263 147.0467,182.6853 152.2567,179.2253 C151.8367,178.5953 151.3877,177.9753 150.9077,177.3663" id="Fill-1019" fill="#FFFFFF"></path>
            </g>
        </g>
    </g>
</svg>