<?xml version="1.0" encoding="UTF-8"?>
<svg width="201px" height="201px" viewBox="0 0 201 201" version="1.1" xmlns="http://www.w3.org/2000/svg" xmlns:xlink="http://www.w3.org/1999/xlink">
    <!-- Generator: Sketch 51.2 (57519) - http://www.bohemiancoding.com/sketch -->
    <title>GXS</title>
    <desc>Created with Sketch.</desc>
    <defs></defs>
    <g id="Page-1" stroke="none" stroke-width="1" fill="none" fill-rule="evenodd">
        <g id="Artboard" transform="translate(-760.000000, -7308.000000)" fill="#2067B0">
            <g id="GXS" transform="translate(760.000000, 7308.000000)">
                <path d="M100.5105,131.1502 L84.9775,146.6752 L59.9355,171.7172 C51.3705,180.2822 37.4415,180.2822 28.8765,171.7172 C20.3195,163.1602 20.3195,149.2232 28.8765,140.6662 L46.3425,123.2002 L30.8095,107.6742 L13.3505,125.1322 C4.7865,133.6972 0.5115,144.9482 0.5115,156.1912 C0.5115,167.4352 4.7865,178.6862 13.3505,187.2512 C21.9155,195.8072 33.1585,200.0892 44.4095,200.0892 C55.6535,200.0892 66.9045,195.8072 75.4615,187.2512 L116.0365,146.6752 L139.5265,123.1782 L124.0005,107.6522 L100.5105,131.1502 Z M187.6625,12.9312 C170.5415,-4.1908 142.6805,-4.1908 125.5525,12.9312 L100.5105,37.9802 L84.9775,53.5062 L53.9255,84.5652 L38.3925,100.0902 L38.2025,100.2812 L53.7355,115.8072 L53.9255,115.6172 L69.4515,100.0902 L100.5105,69.0322 L116.0365,53.5062 L141.0775,28.4572 C149.6425,19.9002 163.5725,19.9002 172.1365,28.4572 C176.2875,32.6072 178.5715,38.1202 178.5715,43.9902 C178.5715,49.8532 176.2875,55.3652 172.1365,59.5162 L147.0945,84.5652 L131.5625,100.0902 L131.3935,100.2592 L146.9195,115.7852 L147.0875,115.6172 L162.6205,100.0902 L187.6625,75.0422 C204.7915,57.9202 204.7915,30.0522 187.6625,12.9312 Z" id="Fill-824"></path>
                <path d="M187.6628,125.1326 L123.6348,61.1046 L108.1088,76.6306 L131.5618,100.0906 L147.0878,115.6166 L172.1368,140.6656 C180.7018,149.2236 180.7018,163.1596 172.1368,171.7176 C163.5728,180.2816 149.6428,180.2816 141.0778,171.7176 L116.0368,146.6756 L100.5108,131.1506 L53.9258,84.5656 L28.8768,59.5166 C24.7338,55.3646 22.4498,49.8536 22.4498,43.9896 C22.4498,38.1196 24.7338,32.6076 28.8768,28.4566 C33.1588,24.1746 38.7808,22.0366 44.4098,22.0366 C50.0318,22.0366 55.6528,24.1826 59.9348,28.4566 L84.9768,53.5066 L100.5108,69.0316 L100.7158,69.2366 L116.2418,53.7106 L75.4608,12.9316 C58.3398,-4.1904 30.4728,-4.1904 13.3508,12.9316 C-3.7712,30.0526 -3.7712,57.9196 13.3508,75.0416 L38.3928,100.0906 L53.9258,115.6166 L84.9768,146.6756 L100.5108,162.2006 L125.5528,187.2506 C134.1168,195.8076 145.3608,200.0896 156.6108,200.0896 C162.2328,200.0896 167.8548,199.0216 173.1468,196.8766 C178.4328,194.7386 183.3808,191.5326 187.6628,187.2506 C204.7918,170.1216 204.7918,142.2616 187.6628,125.1326" id="Fill-825"></path>
            </g>
        </g>
    </g>
</svg>