<?xml version="1.0" encoding="UTF-8"?>
<svg width="201px" height="201px" viewBox="0 0 201 201" version="1.1" xmlns="http://www.w3.org/2000/svg" xmlns:xlink="http://www.w3.org/1999/xlink">
    <!-- Generator: Sketch 51.2 (57519) - http://www.bohemiancoding.com/sketch -->
    <title>HSR</title>
    <desc>Created with Sketch.</desc>
    <defs></defs>
    <g id="Page-1" stroke="none" stroke-width="1" fill="none" fill-rule="evenodd">
        <g id="Artboard" transform="translate(-1448.000000, -2738.000000)">
            <g id="HSR" transform="translate(1448.000000, 2738.000000)">
                <path d="M200.0593,100.7303 C200.0593,155.9593 155.2883,200.7303 100.0593,200.7303 C44.8303,200.7303 0.0593,155.9593 0.0593,100.7303 C0.0593,45.5013 44.8303,0.7303 100.0593,0.7303 C155.2883,0.7303 200.0593,45.5013 200.0593,100.7303" id="Fill-15" fill="#573F8F"></path>
                <path d="M102.5505,108.9539 C98.5885,108.9539 94.6245,109.0049 90.6635,108.9299 C89.0185,108.8989 88.3375,109.4549 88.3685,111.1589 C88.4465,115.2819 88.4395,119.4069 88.3755,123.5299 C88.3495,125.1989 88.9975,125.8029 90.6615,125.7919 C98.4235,125.7389 106.1865,125.7399 113.9495,125.7919 C115.6795,125.8029 116.4355,125.2459 116.3945,123.4169 C116.3035,119.3759 116.3005,115.3299 116.3965,111.2889 C116.4405,109.4459 115.6775,108.8959 113.9515,108.9309 C110.1525,109.0059 106.3505,108.9539 102.5505,108.9539 M59.9575,161.5669 C59.3375,159.1119 59.5715,157.7199 62.3425,157.2909 C65.5135,156.7999 67.5975,153.9229 67.8855,150.4669 C68.0205,148.8579 68.0345,147.2369 68.0345,145.6209 C68.0445,124.2759 68.0395,102.9309 68.0425,81.5849 C68.0425,78.4389 68.0505,78.4339 71.2745,78.4319 C76.1255,78.4279 80.9795,78.5189 85.8265,78.3909 C87.9005,78.3349 88.4925,79.1149 88.4175,81.0659 C88.3005,84.1339 88.4445,87.2109 88.3725,90.2819 C88.3345,91.9629 88.8105,92.7839 90.6875,92.7669 C98.4485,92.6939 106.2105,92.7069 113.9725,92.7549 C115.7215,92.7659 116.4325,92.1439 116.3935,90.3429 C116.3055,86.3029 116.3115,82.2579 116.3915,78.2169 C116.4255,76.5199 115.7545,75.9479 114.1095,75.9509 C96.1605,75.9819 78.2105,75.9399 60.2615,76.0509 C59.2445,76.0569 57.8275,76.9769 57.2865,77.8839 C53.1065,84.8939 49.0505,91.9809 45.0945,99.1209 C44.6255,99.9689 44.5815,101.5129 45.0435,102.3449 C49.1245,109.6919 53.3225,116.9749 57.6185,124.1999 C58.0805,124.9759 59.3255,125.4699 60.3025,125.7079 C61.3725,125.9689 62.6105,125.5709 63.6635,125.8649 C64.3425,126.0539 65.2905,126.9529 65.3105,127.5609 C65.4555,131.7609 65.3585,135.9679 65.4035,140.1709 C65.4185,141.5879 64.7345,141.9639 63.4625,141.9579 C57.5595,141.9289 51.6565,141.9949 45.7565,141.8829 C44.9885,141.8679 43.9205,141.2029 43.5255,140.5269 C36.1395,127.9009 28.8025,115.2459 21.5795,102.5259 C21.0695,101.6279 21.0805,99.9329 21.5925,99.0309 C28.8195,86.3129 36.1485,73.6539 43.5625,61.0439 C44.0025,60.2959 45.3625,59.7159 46.3065,59.6979 C52.5295,59.5789 58.7595,59.5229 64.9805,59.6879 C67.5005,59.7549 68.3175,58.8799 68.0625,56.4799 C67.7655,53.6779 67.9515,50.7829 67.3035,48.0779 C66.9445,46.5759 65.1935,45.4529 64.2945,44.0169 C63.5925,42.8929 63.2365,41.5519 62.5815,39.9519 C64.0235,39.8349 64.7295,39.7279 65.4355,39.7269 C73.8445,39.7159 82.2535,39.6859 90.6615,39.7729 C91.4885,39.7809 92.8235,40.3569 93.0205,40.9629 C93.3805,42.0689 93.5025,43.4009 91.8965,44.2419 C90.8545,44.7879 89.6185,45.9699 89.4595,47.0159 C88.8965,50.7419 88.7025,54.5289 88.5345,58.2999 C88.5155,58.7159 89.5545,59.5579 90.1105,59.5629 C98.2755,59.6449 106.4425,59.6569 114.6065,59.5429 C115.1965,59.5349 116.2465,58.4489 116.2685,57.8349 C116.3705,55.0179 116.3105,52.1789 116.0605,49.3709 C115.8515,47.0289 114.7395,45.2269 112.5805,43.8739 C111.7235,43.3369 111.6775,41.5069 111.1465,39.9159 C112.5825,39.8219 113.3655,39.7269 114.1505,39.7259 C122.3965,39.7159 130.6445,39.6879 138.8905,39.7669 C139.7535,39.7749 141.1735,40.2609 141.3525,40.8329 C141.7245,42.0199 141.8385,43.3309 140.1845,44.3149 C138.9455,45.0519 137.8955,46.6159 137.4385,48.0299 C136.8565,49.8289 136.7945,51.8489 136.7905,53.7729 C136.7505,76.7359 136.7955,99.6979 136.7145,122.6599 C136.7065,125.0809 137.3745,125.8909 139.8585,125.8489 C146.4075,125.7359 146.4865,125.8849 149.5795,120.0209 C150.8145,117.6789 151.6265,115.1149 152.6315,112.6519 C152.4295,112.4979 152.2265,112.3449 152.0245,112.1909 C152.6365,112.1149 153.2495,111.9739 153.8635,111.9729 C161.3825,111.9609 168.9025,111.9329 176.4205,112.0289 C177.2295,112.0389 178.5815,112.6619 178.7195,113.2329 C179.0055,114.4159 179.2395,115.7359 177.4405,116.6279 C175.7345,117.4749 174.0515,118.9259 173.0505,120.5399 C169.3895,126.4449 165.8985,132.4639 162.5935,138.5749 C161.2375,141.0829 159.6785,142.0449 156.7485,142.0259 C135.0815,141.8899 113.4125,141.9509 91.7435,141.9539 C88.4025,141.9539 88.3455,141.9639 88.4075,145.2679 C88.4475,147.4419 88.5005,149.6429 88.8675,151.7779 C89.3995,154.8739 91.4025,156.8499 94.4795,157.3979 C96.2465,157.7119 96.7565,158.5099 96.6395,160.1669 C96.5025,162.1169 95.0915,161.7049 93.9655,161.7079 C83.3735,161.7319 72.7815,161.7249 62.1905,161.7159 C61.4775,161.7149 60.7635,161.6229 59.9575,161.5669" id="Fill-17" fill="#FFFFFF"></path>
                <path d="M165.2234,89.5985 C161.5054,89.5985 157.7864,89.5405 154.0704,89.6245 C152.4134,89.6615 151.8704,89.1085 151.8164,87.4075 C151.6764,83.0385 148.5724,79.9825 146.4824,76.5135 C146.1404,75.9455 144.5554,76.0075 143.5404,75.9855 C138.6984,75.8825 139.3664,76.4775 139.3214,71.6575 C139.2904,68.3445 139.3794,65.0285 139.2904,61.7175 C139.2474,60.1085 139.8834,59.6025 141.4224,59.6175 C147.1604,59.6695 152.9004,59.6885 158.6374,59.6065 C160.3094,59.5825 161.0764,60.4575 161.8024,61.7305 C165.4084,68.0435 168.9374,74.4075 172.7714,80.5815 C173.8994,82.3975 175.7564,83.9465 177.6124,85.0675 C179.1884,86.0205 178.9774,87.2265 178.7164,88.3465 C178.5874,88.8965 177.3634,89.5195 176.6174,89.5425 C172.8224,89.6635 169.0214,89.5985 165.2234,89.5985" id="Fill-19" fill="#FFFFFF"></path>
                <path d="M126.5857,161.7205 C121.0917,161.7185 115.5957,161.7675 110.1047,161.6535 C109.4507,161.6395 108.4237,160.8425 108.2587,160.2245 C107.9677,159.1335 107.8787,157.9145 109.6707,157.4945 C114.3727,156.3915 116.2307,153.9325 116.3627,149.0945 C116.4887,144.5115 116.4887,144.5115 121.0377,144.5115 C125.2397,144.5115 129.4467,144.6385 133.6407,144.4615 C136.0107,144.3615 137.1087,144.9355 136.8097,147.5125 C136.6547,148.8485 136.8527,150.2635 137.1117,151.6005 C137.7277,154.7695 139.6637,156.8555 142.8507,157.3985 C144.6497,157.7045 145.0697,158.5295 144.9807,160.1665 C144.8717,162.1555 143.4557,161.7005 142.3417,161.7075 C137.0897,161.7415 131.8377,161.7225 126.5857,161.7205" id="Fill-21" fill="#FFFFFF"></path>
            </g>
        </g>
    </g>
</svg>