<?xml version="1.0" encoding="UTF-8"?>
<svg width="201px" height="201px" viewBox="0 0 201 201" version="1.1" xmlns="http://www.w3.org/2000/svg" xmlns:xlink="http://www.w3.org/1999/xlink">
    <!-- Generator: Sketch 51.2 (57519) - http://www.bohemiancoding.com/sketch -->
    <title>ICN</title>
    <desc>Created with Sketch.</desc>
    <defs></defs>
    <g id="Page-1" stroke="none" stroke-width="1" fill="none" fill-rule="evenodd">
        <g id="Artboard" transform="translate(-414.000000, -5763.000000)">
            <g id="ICN" transform="translate(414.000000, 5763.000000)">
                <path d="M200.9573,100.8153 C200.9573,156.0443 156.1863,200.8153 100.9573,200.8153 C45.7283,200.8153 0.9573,156.0443 0.9573,100.8153 C0.9573,45.5863 45.7283,0.8153 100.9573,0.8153 C156.1863,0.8153 200.9573,45.5863 200.9573,100.8153" id="Fill-365" fill="#4B6C8D"></path>
                <polygon id="Fill-367" fill="#FFFFFF" points="34.957 146.897 56.957 146.897 56.957 112.548 34.957 112.548"></polygon>
                <polygon id="Fill-369" fill="#FFFFFF" points="71.624 146.897 93.624 146.897 93.624 70.897 71.624 70.897"></polygon>
                <polygon id="Fill-370" fill="#FFFFFF" points="108.291 146.897 130.291 146.897 130.291 91.897 108.291 91.897"></polygon>
                <polygon id="Fill-371" fill="#FFFFFF" points="144.957 146.897 166.957 146.897 166.957 54.733 144.957 54.733"></polygon>
            </g>
        </g>
    </g>
</svg>