<?xml version="1.0" encoding="UTF-8"?>
<svg width="201px" height="193px" viewBox="0 0 201 193" version="1.1" xmlns="http://www.w3.org/2000/svg" xmlns:xlink="http://www.w3.org/1999/xlink">
    <!-- Generator: Sketch 51.2 (57519) - http://www.bohemiancoding.com/sketch -->
    <title>IOT</title>
    <desc>Created with Sketch.</desc>
    <defs></defs>
    <g id="Page-1" stroke="none" stroke-width="1" fill="none" fill-rule="evenodd">
        <g id="Artboard" transform="translate(-1801.000000, -1257.000000)" fill="#000000">
            <g id="IOT" transform="translate(1801.000000, 1257.000000)">
                <path d="M123.5481,49.262 C125.6421,49.262 127.3391,47.565 127.3391,45.471 C127.3391,43.378 125.6421,41.681 123.5481,41.681 C121.4551,41.681 119.7581,43.378 119.7581,45.471 C119.7581,47.565 121.4551,49.262 123.5481,49.262" id="Fill-516"></path>
                <path d="M114.9788,42.6697 C117.6188,42.6697 119.7578,40.5297 119.7578,37.8907 C119.7578,35.2517 117.6188,33.1107 114.9788,33.1107 C112.3388,33.1107 110.1998,35.2517 110.1998,37.8907 C110.1998,40.5297 112.3388,42.6697 114.9788,42.6697" id="Fill-517"></path>
                <path d="M118.5129,55.0584 C116.0149,55.0584 113.9899,57.0834 113.9899,59.5814 C113.9899,62.0794 116.0149,64.1054 118.5129,64.1054 C121.0109,64.1054 123.0359,62.0794 123.0359,59.5814 C123.0359,57.0834 121.0109,55.0584 118.5129,55.0584" id="Fill-518"></path>
                <path d="M103.0305,36.5579 C105.9345,36.5579 108.2895,34.2039 108.2895,31.2989 C108.2895,28.3939 105.9345,26.0389 103.0305,26.0389 C100.1255,26.0389 97.7705,28.3939 97.7705,31.2989 C97.7705,34.2039 100.1255,36.5579 103.0305,36.5579" id="Fill-519"></path>
                <path d="M101.217,53.0526 C101.217,55.9576 103.572,58.3126 106.477,58.3126 C109.382,58.3126 111.737,55.9576 111.737,53.0526 C111.737,50.1476 109.382,47.7926 106.477,47.7926 C103.572,47.7926 101.217,50.1476 101.217,53.0526" id="Fill-520"></path>
                <path d="M116.2542,82.2088 C119.1592,82.2088 121.5142,79.8538 121.5142,76.9488 C121.5142,74.0438 119.1592,71.6898 116.2542,71.6898 C113.3502,71.6898 110.9952,74.0438 110.9952,76.9488 C110.9952,79.8538 113.3502,82.2088 116.2542,82.2088" id="Fill-521"></path>
                <path d="M87.7034,33.1112 C91.0714,33.1112 93.8014,30.3812 93.8014,27.0132 C93.8014,23.6462 91.0714,20.9162 87.7034,20.9162 C84.3364,20.9162 81.6054,23.6462 81.6054,27.0132 C81.6054,30.3812 84.3364,33.1112 87.7034,33.1112" id="Fill-522"></path>
                <path d="M106.8206,72.6644 C106.8206,69.2964 104.0916,66.5664 100.7226,66.5664 C97.3546,66.5664 94.6256,69.2964 94.6256,72.6644 C94.6256,76.0324 97.3546,78.7624 100.7226,78.7624 C104.0916,78.7624 106.8206,76.0324 106.8206,72.6644" id="Fill-523"></path>
                <path d="M84.9846,48.617 C84.9846,51.985 87.7136,54.715 91.0826,54.715 C94.4496,54.715 97.1796,51.985 97.1796,48.617 C97.1796,45.249 94.4496,42.519 91.0826,42.519 C87.7136,42.519 84.9846,45.249 84.9846,48.617" id="Fill-524"></path>
                <path d="M68.9163,33.1112 C72.8213,33.1112 75.9883,29.9442 75.9883,26.0392 C75.9883,22.1332 72.8213,18.9662 68.9163,18.9662 C65.0103,18.9662 61.8433,22.1332 61.8433,26.0392 C61.8433,29.9442 65.0103,33.1112 68.9163,33.1112" id="Fill-525"></path>
                <path d="M65.1399,47.5457 C65.1399,51.4517 68.3059,54.6177 72.2119,54.6177 C76.1179,54.6177 79.2849,51.4517 79.2849,47.5457 C79.2849,43.6397 76.1179,40.4737 72.2119,40.4737 C68.3059,40.4737 65.1399,43.6397 65.1399,47.5457" id="Fill-526"></path>
                <path d="M82.1516,64.617 C78.2456,64.617 75.0796,67.784 75.0796,71.69 C75.0796,75.596 78.2456,78.762 82.1516,78.762 C86.0576,78.762 89.2236,75.596 89.2236,71.69 C89.2236,67.784 86.0576,64.617 82.1516,64.617" id="Fill-527"></path>
                <path d="M46.9973,37.8904 C51.5023,37.8904 55.1543,34.2384 55.1543,29.7324 C55.1543,25.2274 51.5023,21.5754 46.9973,21.5754 C42.4913,21.5754 38.8393,25.2274 38.8393,29.7324 C38.8393,34.2384 42.4913,37.8904 46.9973,37.8904" id="Fill-528"></path>
                <path d="M42.3,51.4241 C42.3,55.9291 45.952,59.5821 50.457,59.5821 C54.963,59.5821 58.615,55.9291 58.615,51.4241 C58.615,46.9191 54.963,43.2661 50.457,43.2661 C45.952,43.2661 42.3,46.9191 42.3,51.4241" id="Fill-529"></path>
                <path d="M52.1057,75.6502 C52.1057,80.1552 55.7577,83.8082 60.2637,83.8082 C64.7687,83.8082 68.4207,80.1552 68.4207,75.6502 C68.4207,71.1452 64.7687,67.4922 60.2637,67.4922 C55.7577,67.4922 52.1057,71.1452 52.1057,75.6502" id="Fill-530"></path>
                <path d="M26.4788,71.4422 C31.8458,71.4422 36.1968,67.0912 36.1968,61.7242 C36.1968,56.3572 31.8458,52.0062 26.4788,52.0062 C21.1118,52.0062 16.7608,56.3572 16.7608,61.7242 C16.7608,67.0912 21.1118,71.4422 26.4788,71.4422" id="Fill-531"></path>
                <path d="M36.1965,75.8973 C30.8295,75.8973 26.4785,80.2483 26.4785,85.6153 C26.4785,90.9823 30.8295,95.3343 36.1965,95.3343 C41.5635,95.3343 45.9155,90.9823 45.9155,85.6153 C45.9155,80.2483 41.5635,75.8973 36.1965,75.8973" id="Fill-532"></path>
                <path d="M11.6409,92.4813 C5.3289,92.4813 0.2129,97.5973 0.2129,103.9083 C0.2129,110.2203 5.3289,115.3363 11.6409,115.3363 C17.9529,115.3363 23.0689,110.2203 23.0689,103.9083 C23.0689,97.5973 17.9529,92.4813 11.6409,92.4813" id="Fill-533"></path>
                <path d="M55.5901,104.2337 C54.5541,102.4147 52.2381,101.7797 50.4201,102.8167 C48.6011,103.8527 47.9661,106.1667 49.0021,107.9857 C50.0381,109.8047 52.3531,110.4397 54.1721,109.4027 C55.9911,108.3667 56.6261,106.0527 55.5901,104.2337" id="Fill-534"></path>
                <path d="M47.5852,113.1556 C45.2912,114.4626 44.4912,117.3806 45.7982,119.6746 C47.1052,121.9676 50.0232,122.7676 52.3162,121.4616 C54.6092,120.1546 55.4102,117.2366 54.1042,114.9426 C52.7972,112.6496 49.8782,111.8486 47.5852,113.1556" id="Fill-535"></path>
                <path d="M69.2874,107.4315 C71.4584,106.1945 72.2164,103.4325 70.9794,101.2625 C69.7424,99.0915 66.9804,98.3345 64.8094,99.5705 C62.6404,100.8065 61.8824,103.5695 63.1184,105.7405 C64.3544,107.9105 67.1174,108.6675 69.2874,107.4315" id="Fill-536"></path>
                <path d="M52.7395,135.5233 C55.2635,134.0863 56.1445,130.8743 54.7065,128.3503 C53.2685,125.8263 50.0565,124.9453 47.5335,126.3833 C45.0095,127.8213 44.1295,131.0323 45.5665,133.5563 C47.0045,136.0813 50.2165,136.9613 52.7395,135.5233" id="Fill-537"></path>
                <path d="M62.7629,119.7943 C64.1999,122.3183 67.4119,123.1993 69.9369,121.7613 C72.4599,120.3233 73.3409,117.1113 71.9039,114.5873 C70.4649,112.0643 67.2539,111.1833 64.7299,112.6213 C62.2049,114.0583 61.3259,117.2703 62.7629,119.7943" id="Fill-538"></path>
                <path d="M80.6545,92.2972 C78.1305,93.7342 77.2495,96.9462 78.6875,99.4702 C80.1255,101.9942 83.3375,102.8752 85.8605,101.4372 C88.3845,99.9992 89.2655,96.7882 87.8275,94.2642 C86.3895,91.7402 83.1775,90.8592 80.6545,92.2972" id="Fill-539"></path>
                <path d="M59.2981,143.3738 C57.6311,140.4478 53.9071,139.4268 50.9821,141.0938 C48.0551,142.7608 47.0341,146.4838 48.7011,149.4098 C50.3681,152.3358 54.0921,153.3568 57.0181,151.6898 C59.9441,150.0228 60.9651,146.2998 59.2981,143.3738" id="Fill-540"></path>
                <path d="M90.2405,117.7821 C93.1665,116.1151 94.1865,112.3911 92.5205,109.4651 C90.8535,106.5391 87.1305,105.5181 84.2035,107.1851 C81.2775,108.8521 80.2575,112.5751 81.9235,115.5021 C83.5905,118.4281 87.3135,119.4491 90.2405,117.7821" id="Fill-541"></path>
                <path d="M74.1174,138.0618 C77.0434,136.3948 78.0644,132.6708 76.3974,129.7448 C74.7304,126.8188 71.0074,125.7978 68.0804,127.4648 C65.1544,129.1318 64.1344,132.8548 65.8014,135.7818 C67.4674,138.7078 71.1904,139.7288 74.1174,138.0618" id="Fill-542"></path>
                <path d="M68.5969,159.6986 C66.6639,156.3046 62.3449,155.1206 58.9509,157.0536 C55.5579,158.9876 54.3729,163.3056 56.3069,166.6996 C58.2399,170.0936 62.5589,171.2776 65.9519,169.3446 C69.3469,167.4106 70.5309,163.0926 68.5969,159.6986" id="Fill-543"></path>
                <path d="M83.009,155.8353 C86.403,153.9013 87.587,149.5833 85.654,146.1893 C83.72,142.7953 79.402,141.6113 76.008,143.5443 C72.613,145.4783 71.43,149.7963 73.363,153.1903 C75.296,156.5843 79.614,157.7683 83.009,155.8353" id="Fill-544"></path>
                <path d="M99.0676,135.2479 C102.4626,133.3149 103.6456,128.9959 101.7126,125.6019 C99.7796,122.2079 95.4606,121.0239 92.0666,122.9569 C88.6716,124.8909 87.4886,129.2089 89.4216,132.6029 C91.3546,135.9979 95.6736,137.1819 99.0676,135.2479" id="Fill-545"></path>
                <path d="M72.4729,173.3279 C68.5579,175.5579 67.1929,180.5389 69.4219,184.4539 C71.6529,188.3689 76.6339,189.7349 80.5489,187.5049 C84.4629,185.2749 85.8289,180.2929 83.5989,176.3789 C81.3689,172.4639 76.3879,171.0979 72.4729,173.3279" id="Fill-546"></path>
                <path d="M89.6077,159.5843 C85.6927,161.8143 84.3277,166.7953 86.5567,170.7103 C88.7877,174.6253 93.7687,175.9913 97.6827,173.7613 C101.5977,171.5313 102.9637,166.5493 100.7337,162.6353 C98.5037,158.7203 93.5227,157.3543 89.6077,159.5843" id="Fill-547"></path>
                <path d="M113.8801,153.2498 C117.7951,151.0198 119.1601,146.0388 116.9311,142.1238 C114.7001,138.2088 109.7191,136.8428 105.8051,139.0728 C101.8901,141.3028 100.5241,146.2848 102.7541,150.1988 C104.9841,154.1138 109.9651,155.4798 113.8801,153.2498" id="Fill-548"></path>
                <path d="M109.6545,173.9661 C104.9905,176.6221 103.3635,182.5571 106.0195,187.2201 C108.6765,191.8841 114.6105,193.5111 119.2745,190.8541 C123.9375,188.1981 125.5645,182.2631 122.9085,177.6001 C120.2525,172.9361 114.3175,171.3091 109.6545,173.9661" id="Fill-549"></path>
                <path d="M125.6038,153.6966 C120.9398,156.3526 119.3128,162.2866 121.9688,166.9506 C124.6258,171.6146 130.5598,173.2416 135.2238,170.5846 C139.8868,167.9286 141.5138,161.9936 138.8578,157.3306 C136.2018,152.6666 130.2668,151.0396 125.6038,153.6966" id="Fill-550"></path>
                <path d="M152.8069,164.4935 C147.3229,167.6175 145.4099,174.5955 148.5339,180.0795 C151.6579,185.5635 158.6349,187.4765 164.1199,184.3525 C169.6029,181.2285 171.5169,174.2505 168.3929,168.7665 C165.2689,163.2835 158.2899,161.3695 152.8069,164.4935" id="Fill-551"></path>
                <path d="M142.217,134.6785 C140.401,133.6375 138.084,134.2655 137.043,136.0825 C136.002,137.8985 136.631,140.2145 138.447,141.2555 C140.264,142.2965 142.58,141.6685 143.621,139.8515 C144.662,138.0355 144.033,135.7195 142.217,134.6785" id="Fill-552"></path>
                <path d="M148.7942,138.4486 C151.0842,139.7606 154.0052,138.9686 155.3172,136.6786 C156.6302,134.3886 155.8382,131.4686 153.5482,130.1556 C151.2582,128.8426 148.3372,129.6356 147.0242,131.9256 C145.7122,134.2156 146.5042,137.1356 148.7942,138.4486" id="Fill-553"></path>
                <path d="M132.844,122.6575 C130.676,121.4155 127.912,122.1645 126.67,124.3325 C125.428,126.4995 126.178,129.2635 128.345,130.5065 C130.512,131.7485 133.277,130.9985 134.519,128.8305 C135.761,126.6635 135.011,123.8995 132.844,122.6575" id="Fill-554"></path>
                <path d="M160.2161,131.7767 C162.7371,133.2217 165.9501,132.3497 167.3951,129.8297 C168.8391,127.3087 167.9681,124.0947 165.4471,122.6507 C162.9271,121.2067 159.7131,122.0777 158.2691,124.5987 C156.8241,127.1187 157.6961,130.3327 160.2161,131.7767" id="Fill-555"></path>
                <path d="M144.8596,114.8231 C142.3386,113.3791 139.1256,114.2511 137.6806,116.7711 C136.2366,119.2911 137.1086,122.5051 139.6296,123.9491 C142.1486,125.3941 145.3626,124.5221 146.8076,122.0021 C148.2526,119.4821 147.3806,116.2671 144.8596,114.8231" id="Fill-556"></path>
                <path d="M114.0344,120.5491 C116.5544,121.9931 119.7684,121.1211 121.2134,118.6011 C122.6574,116.0811 121.7854,112.8671 119.2644,111.4231 C116.7454,109.9781 113.5304,110.8501 112.0864,113.3701 C110.6414,115.8901 111.5134,119.1051 114.0344,120.5491" id="Fill-557"></path>
                <path d="M177.2034,110.7567 C174.2814,109.0827 170.5564,110.0927 168.8814,113.0147 C167.2064,115.9367 168.2174,119.6627 171.1394,121.3377 C174.0604,123.0117 177.7864,122.0017 179.4614,119.0797 C181.1364,116.1577 180.1254,112.4317 177.2034,110.7567" id="Fill-558"></path>
                <path d="M122.8,101.6097 C121.125,104.5307 122.137,108.2577 125.059,109.9317 C127.98,111.6067 131.706,110.5957 133.381,107.6737 C135.056,104.7527 134.045,101.0267 131.123,99.3517 C128.201,97.6767 124.475,98.6877 122.8,101.6097" id="Fill-559"></path>
                <path d="M150.7161,113.5257 C153.6381,115.2007 157.3631,114.1897 159.0381,111.2677 C160.7131,108.3457 159.7021,104.6197 156.7801,102.9447 C153.8591,101.2707 150.1321,102.2817 148.4571,105.2027 C146.7831,108.1247 147.7941,111.8507 150.7161,113.5257" id="Fill-560"></path>
                <path d="M187.8762,94.096 C184.4872,92.154 180.1662,93.326 178.2242,96.715 C176.2812,100.104 177.4532,104.426 180.8422,106.368 C184.2312,108.31 188.5532,107.138 190.4952,103.749 C192.4382,100.36 191.2652,96.038 187.8762,94.096" id="Fill-561"></path>
                <path d="M160.5442,98.5325 C163.9332,100.4745 168.2552,99.3025 170.1972,95.9135 C172.1402,92.5245 170.9672,88.2025 167.5782,86.2605 C164.1902,84.3185 159.8672,85.4905 157.9252,88.8795 C155.9822,92.2685 157.1552,96.5905 160.5442,98.5325" id="Fill-562"></path>
                <path d="M134.6545,95.1502 C138.0435,97.0922 142.3645,95.9202 144.3065,92.5312 C146.2495,89.1422 145.0775,84.8202 141.6885,82.8782 C138.2995,80.9362 133.9775,82.1082 132.0355,85.4972 C130.0925,88.8862 131.2655,93.2082 134.6545,95.1502" id="Fill-563"></path>
                <path d="M196.1106,72.3006 C192.2026,70.0606 187.2166,71.4126 184.9766,75.3216 C182.7366,79.2306 184.0896,84.2156 187.9976,86.4556 C191.9066,88.6966 196.8916,87.3436 199.1316,83.4346 C201.3726,79.5266 200.0196,74.5406 196.1106,72.3006" id="Fill-564"></path>
                <path d="M167.4573,78.6722 C171.3663,80.9122 176.3523,79.5602 178.5923,75.6512 C180.8323,71.7422 179.4793,66.7572 175.5703,64.5162 C171.6623,62.2762 166.6773,63.6292 164.4363,67.5372 C162.1963,71.4462 163.5493,76.4312 167.4573,78.6722" id="Fill-565"></path>
                <path d="M152.6975,72.1112 C154.9375,68.2022 153.5855,63.2172 149.6765,60.9772 C145.7675,58.7362 140.7825,60.0892 138.5425,63.9982 C136.3015,67.9072 137.6535,72.8922 141.5625,75.1322 C145.4715,77.3732 150.4575,76.0202 152.6975,72.1112" id="Fill-566"></path>
                <path d="M169.6692,54.0994 C174.3262,56.7684 180.2652,55.1574 182.9342,50.5004 C185.6032,45.8444 183.9912,39.9064 179.3342,37.2374 C174.6782,34.5674 168.7392,36.1794 166.0702,40.8354 C163.4012,45.4924 165.0132,51.4304 169.6692,54.0994" id="Fill-567"></path>
                <path d="M153.7747,33.7879 C149.1177,31.1189 143.1787,32.7299 140.5097,37.3869 C137.8407,42.0429 139.4527,47.9809 144.1087,50.6499 C148.7657,53.3199 154.7047,51.7079 157.3737,47.0519 C160.0427,42.3949 158.4307,36.4569 153.7747,33.7879" id="Fill-568"></path>
                <path d="M139.5989,21.7322 C145.0749,24.8712 152.0579,22.9762 155.1959,17.5002 C158.3339,12.0242 156.4399,5.0422 150.9639,1.9032 C145.4889,-1.2348 138.5049,0.6592 135.3679,6.1352 C132.2289,11.6102 134.1229,18.5942 139.5989,21.7322" id="Fill-569"></path>
            </g>
        </g>
    </g>
</svg>