<?xml version="1.0" encoding="UTF-8"?>
<svg width="201px" height="201px" viewBox="0 0 201 201" version="1.1" xmlns="http://www.w3.org/2000/svg" xmlns:xlink="http://www.w3.org/1999/xlink">
    <!-- Generator: Sketch 51.2 (57519) - http://www.bohemiancoding.com/sketch -->
    <title>KMD</title>
    <desc>Created with Sketch.</desc>
    <defs></defs>
    <g id="Page-1" stroke="none" stroke-width="1" fill="none" fill-rule="evenodd">
        <g id="Artboard" transform="translate(-1789.000000, -3510.000000)">
            <g id="KMD" transform="translate(1789.000000, 3510.000000)">
                <path d="M170.7922,29.9735 L145.1272,55.6335 C144.4312,54.9365 143.5922,54.3705 142.6632,53.9875 L102.9862,37.5525 C101.1232,36.7845 99.0322,36.7845 97.1692,37.5525 L57.4922,53.9875 C56.5632,54.3705 55.7262,54.9365 55.0282,55.6335 L29.3632,29.9735 C30.4642,28.8775 31.7712,27.9945 33.2362,27.3885 L95.5142,1.5915 C98.4372,0.3795 101.7192,0.3795 104.6432,1.5915 L166.9192,27.3885 C168.3842,27.9945 169.6912,28.8775 170.7922,29.9735" id="Fill-118" fill="#FCB000"></path>
                <path d="M199.1692,105.2523 L173.3772,167.5243 C172.7722,168.9883 171.8882,170.2963 170.7922,171.3973 C169.6912,172.4933 168.3842,173.3763 166.9192,173.9823 L104.6432,199.7793 C101.7192,200.9903 98.4372,200.9903 95.5142,199.7793 L33.2362,173.9823 C31.7722,173.3763 30.4642,172.4933 29.3632,171.3973 C28.2682,170.2963 27.3842,168.9883 26.7782,167.5243 L0.9862,105.2523 C-0.2248,102.3293 -0.2248,99.0413 0.9862,96.1183 L26.7782,33.8463 C27.3842,32.3863 28.2682,31.0743 29.3632,29.9733 L55.0282,55.6333 C55.7262,54.9373 56.5642,54.3713 57.4922,53.9873 L97.1692,37.5523 C99.0322,36.7843 101.1232,36.7843 102.9862,37.5523 L142.6632,53.9873 C143.5922,54.3713 144.4312,54.9373 145.1272,55.6333 L170.7922,29.9733 C171.8882,31.0743 172.7722,32.3863 173.3772,33.8463 L199.1692,96.1183 C200.3812,99.0413 200.3812,102.3293 199.1692,105.2523" id="Fill-120" fill="#3D6E6E"></path>
                <path d="M163.2083,103.596 L146.7733,143.268 C146.3903,144.197 145.8293,145.035 145.1273,145.732 C144.4313,146.434 143.5923,146.994 142.6633,147.383 L102.9863,163.818 C101.1233,164.586 99.0323,164.586 97.1693,163.818 L57.4923,147.383 C56.5633,146.994 55.7263,146.434 55.0283,145.732 C54.3273,145.035 53.7673,144.197 53.3833,143.268 L36.9473,103.596 C36.1753,101.733 36.1753,99.638 36.9473,97.774 L53.3833,58.102 C53.7673,57.168 54.3273,56.335 55.0283,55.634 C55.7263,54.937 56.5633,54.371 57.4923,53.987 L97.1693,37.552 C99.0323,36.784 101.1233,36.784 102.9863,37.552 L142.6633,53.987 C143.5923,54.371 144.4313,54.937 145.1273,55.634 C145.8293,56.335 146.3903,57.168 146.7733,58.102 L163.2083,97.774 C163.9803,99.638 163.9803,101.733 163.2083,103.596" id="Fill-122" fill="#FFFFFF"></path>
                <path d="M129.8997,67.9818 L102.1157,56.4728 C100.8107,55.9328 99.3447,55.9328 98.0417,56.4728 L70.2557,67.9818 C68.9517,68.5218 67.9157,69.5588 67.3757,70.8628 L55.8667,98.6478 C55.3257,99.9518 55.3257,101.4178 55.8667,102.7218 L67.3757,130.5068 C67.9157,131.8108 68.9517,132.8478 70.2557,133.3878 L98.0417,144.8968 C99.3447,145.4368 100.8107,145.4368 102.1157,144.8968 L129.8997,133.3878 C131.2047,132.8478 132.2407,131.8108 132.7807,130.5068 L144.2897,102.7218 C144.8307,101.4178 144.8307,99.9518 144.2897,98.6478 L132.7807,70.8628 C132.2407,69.5588 131.2047,68.5218 129.8997,67.9818" id="Fill-124" fill="#3F7070"></path>
            </g>
        </g>
    </g>
</svg>