<?xml version="1.0" encoding="UTF-8"?>
<svg width="201px" height="201px" viewBox="0 0 201 201" version="1.1" xmlns="http://www.w3.org/2000/svg" xmlns:xlink="http://www.w3.org/1999/xlink">
    <!-- Generator: Sketch 51.2 (57519) - http://www.bohemiancoding.com/sketch -->
    <title>KNC</title>
    <desc>Created with Sketch.</desc>
    <defs>
        <linearGradient x1="50%" y1="0%" x2="50%" y2="100%" id="linearGradient-1">
            <stop stop-color="#6EBF9E" offset="0%"></stop>
            <stop stop-color="#3998AC" offset="100%"></stop>
        </linearGradient>
    </defs>
    <g id="Page-1" stroke="none" stroke-width="1" fill="none" fill-rule="evenodd">
        <g id="Artboard" transform="translate(-1451.000000, -5000.000000)">
            <g id="KNC" transform="translate(1451.000000, 5000.000000)">
                <path d="M200.6125,100.2518 C200.6125,155.4808 155.8415,200.2518 100.6125,200.2518 C45.3835,200.2518 0.6125,155.4808 0.6125,100.2518 C0.6125,45.0228 45.3835,0.2518 100.6125,0.2518 C155.8415,0.2518 200.6125,45.0228 200.6125,100.2518" id="Fill-281" fill="#EBF6F0"></path>
                <polygon id="Fill-284" fill="url(#linearGradient-1)" points="56.809 59.341 64.368 138.548 94.07 181.48 92.809 85.737 92.802 85.395 91.927 19.122"></polygon>
                <polygon id="Fill-286" fill="#EBF6F0" points="144.5974 59.3406 144.5974 59.3466 93.0234 85.6266 92.8034 85.3946 91.9274 19.1216"></polygon>
                <polygon id="Fill-288" fill="#BBDBD6" points="144.5974 59.3465 142.3804 138.7745 93.0234 85.6265"></polygon>
                <polygon id="Fill-290" fill="#0A8C90" points="142.3806 138.7742 142.3806 138.7812 142.3496 139.9752 94.1686 181.6212 94.0706 181.4802 92.8096 85.7372 93.0236 85.6272"></polygon>
                <polygon id="Fill-292" fill="#4AA7AC" points="93.0237 85.6268 92.8097 85.7368 92.8027 85.3948"></polygon>
                <path d="M65.5564,138.0428 L94.3994,179.7318 L141.1394,139.3318 L141.1554,138.6798 L143.3554,59.8628 L92.0954,20.7208 L58.0794,59.6788 L65.5564,138.0428 Z M93.9414,183.3668 L93.0654,182.1098 L63.1784,138.9118 L63.1484,138.5938 L55.5404,58.8608 L91.7594,17.3818 L145.8224,58.6638 L145.8224,59.2708 L143.5604,140.4778 L93.9414,183.3668 Z" id="Fill-294" fill="#FFFFFF"></path>
                <path d="M94.9875,19.1219 C94.9875,20.7569 93.6625,22.0819 92.0275,22.0819 C90.3925,22.0819 89.0675,20.7569 89.0675,19.1219 C89.0675,17.4859 90.3925,16.1609 92.0275,16.1609 C93.6625,16.1609 94.9875,17.4859 94.9875,19.1219" id="Fill-296" fill="#2A2A2A"></path>
                <path d="M59.7717,59.4403 C59.7717,61.0763 58.4467,62.4013 56.8117,62.4013 C55.1767,62.4013 53.8517,61.0763 53.8517,59.4403 C53.8517,57.8053 55.1767,56.4803 56.8117,56.4803 C58.4467,56.4803 59.7717,57.8053 59.7717,59.4403" id="Fill-298" fill="#2A2A2A"></path>
                <path d="M67.4275,138.5477 C67.4275,140.1827 66.1025,141.5087 64.4675,141.5087 C62.8325,141.5087 61.5075,140.1827 61.5075,138.5477 C61.5075,136.9127 62.8325,135.5877 64.4675,135.5877 C66.1025,135.5877 67.4275,136.9127 67.4275,138.5477" id="Fill-300" fill="#2A2A2A"></path>
                <path d="M97.6414,181.3826 C97.6414,183.0176 96.3164,184.3426 94.6814,184.3426 C93.0464,184.3426 91.7214,183.0176 91.7214,181.3826 C91.7214,179.7476 93.0464,178.4216 94.6814,178.4216 C96.3164,178.4216 97.6414,179.7476 97.6414,181.3826" id="Fill-302" fill="#2A2A2A"></path>
                <path d="M145.0042,139.2254 C145.0042,140.8604 143.6782,142.1864 142.0442,142.1864 C140.4092,142.1864 139.0842,140.8604 139.0842,139.2254 C139.0842,137.5904 140.4092,136.2654 142.0442,136.2654 C143.6782,136.2654 145.0042,137.5904 145.0042,139.2254" id="Fill-304" fill="#2A2A2A"></path>
                <path d="M147.3738,59.4403 C147.3738,61.0763 146.0488,62.4013 144.4138,62.4013 C142.7788,62.4013 141.4538,61.0763 141.4538,59.4403 C141.4538,57.8053 142.7788,56.4803 144.4138,56.4803 C146.0488,56.4803 147.3738,57.8053 147.3738,59.4403" id="Fill-306" fill="#2A2A2A"></path>
                <path d="M95.9827,85.6287 C95.9827,87.2637 94.6577,88.5897 93.0227,88.5897 C91.3877,88.5897 90.0627,87.2637 90.0627,85.6287 C90.0627,83.9937 91.3877,82.6687 93.0227,82.6687 C94.6577,82.6687 95.9827,83.9937 95.9827,85.6287" id="Fill-308" fill="#2A2A2A"></path>
            </g>
        </g>
    </g>
</svg>