<?xml version="1.0" encoding="UTF-8"?>
<svg width="201px" height="200px" viewBox="0 0 201 200" version="1.1" xmlns="http://www.w3.org/2000/svg" xmlns:xlink="http://www.w3.org/1999/xlink">
    <!-- Generator: Sketch 51.2 (57519) - http://www.bohemiancoding.com/sketch -->
    <title>LSK</title>
    <desc>Created with Sketch.</desc>
    <defs></defs>
    <g id="Page-1" stroke="none" stroke-width="1" fill="none" fill-rule="evenodd">
        <g id="Artboard" transform="translate(-1804.000000, -1974.000000)">
            <g id="LSK" transform="translate(1804.000000, 1973.000000)">
                <path d="M100.3557,0.9984 C45.1267,0.9984 0.3557,45.7694 0.3557,100.9984 C0.3557,156.2274 45.1267,200.9984 100.3557,200.9984 C155.5847,200.9984 200.3557,156.2274 200.3557,100.9984 C200.3557,45.7694 155.5847,0.9984 100.3557,0.9984" id="Fill-656" fill="#136798"></path>
                <path d="M100.3557,192.9984 C49.5447,192.9984 8.3557,151.8084 8.3557,100.9984 C8.3557,50.1884 49.5447,8.9984 100.3557,8.9984 C151.1657,8.9984 192.3557,50.1884 192.3557,100.9984 C192.3557,151.8084 151.1657,192.9984 100.3557,192.9984" id="Fill-658" fill="#FFFFFF"></path>
                <polygon id="Fill-660" fill="#136798" points="99.7708 16.6678 97.2748 16.6678 94.7788 17.9808 41.7078 67.5068 87.5538 83.0078 105.5508 70.1338 106.8648 62.6458 99.6398 44.3858"></polygon>
                <polygon id="Fill-662" fill="#136798" points="107.0549 24.2147 107.0549 48.2547 114.2809 66.6457 112.8349 76.1047 93.9179 89.5037 95.6259 111.9677 109.5509 147.1737 117.6959 133.1177 115.1999 128.7827 122.9509 109.8657 122.9509 100.1447 137.4009 80.5707 128.3359 72.9517 129.7819 61.5227 117.5649 49.6997 107.8429 25.0027"></polygon>
                <polygon id="Fill-664" fill="#136798" points="40.5247 74.7908 86.7657 89.7668 88.3417 111.5738 76.5187 134.4318 52.6107 145.0718 50.2457 138.3728 51.4277 130.4898"></polygon>
                <polygon id="Fill-666" fill="#136798" points="54.1868 151.9622 79.0148 140.9272 89.9178 120.0402 103.7118 154.7212 95.3048 178.1042 94.3848 178.1042 89.2618 180.6002 86.5028 174.6882 80.1978 171.6672 77.8328 172.1922 76.5188 174.6882 73.4578 174.0312 68.3748 176.7902 65.8778 172.4552 54.7118 167.2002"></polygon>
                <polygon id="Fill-668" fill="#136798" points="117.886 26.783 124.586 44.386 137.198 56.603 135.752 66.981 144.029 74.469 158.61 69.608 148.626 60.938 144.029 51.217"></polygon>
                <polygon id="Fill-670" fill="#136798" points="144.6848 81.7532 160.1868 76.3672 156.7708 108.6832 156.9028 128.7822 155.3258 130.4902 152.8298 133.1172 124.4548 131.0162 122.8778 128.3882 130.2348 110.9172 130.3668 101.7212"></polygon>
                <polygon id="Fill-672" fill="#136798" points="120.717 138.5628 147.253 140.2708 144.626 167.8568 136.613 169.1708 135.824 171.7988 127.417 171.7988 123.87 177.4468 113.886 178.7608 110.864 182.1768 105.741 179.9428 103.076 185.3298 101.537 181.5198 110.864 155.3778"></polygon>
            </g>
        </g>
    </g>
</svg>