<?xml version="1.0" encoding="UTF-8"?>
<svg width="201px" height="201px" viewBox="0 0 201 201" version="1.1" xmlns="http://www.w3.org/2000/svg" xmlns:xlink="http://www.w3.org/1999/xlink">
    <!-- Generator: Sketch 51.2 (57519) - http://www.bohemiancoding.com/sketch -->
    <title>MAID</title>
    <desc>Created with Sketch.</desc>
    <defs></defs>
    <g id="Page-1" stroke="none" stroke-width="1" fill="none" fill-rule="evenodd">
        <g id="Artboard" transform="translate(-1445.000000, -4267.000000)">
            <g id="MAID" transform="translate(1445.000000, 4267.000000)">
                <path d="M200.6814,100.1395 C200.6814,155.3685 155.9104,200.1395 100.6814,200.1395 C45.4524,200.1395 0.6814,155.3685 0.6814,100.1395 C0.6814,44.9105 45.4524,0.1395 100.6814,0.1395 C155.9104,0.1395 200.6814,44.9105 200.6814,100.1395" id="Fill-150" fill="#E1F0FF"></path>
                <path d="M74.8479,87.306 L151.6809,42.639 L151.6809,134.149 C151.6809,146.594 144.9469,158.064 134.0789,164.128 L128.6809,167.139 L128.6809,76.973 L92.2649,97.806 L74.8479,87.306 Z" id="Fill-152" fill="#25558B"></path>
                <path d="M121.5149,114.1395 L74.8479,87.3065 L151.6819,42.6395 L144.2699,38.8305 C133.9249,33.5145 121.5919,33.7975 111.5019,39.5835 L33.5079,84.3065 L120.8479,135.1395 L121.5149,114.1395 Z" id="Fill-154" fill="#5191D9"></path>
                <path d="M33.5076,84.306 L33.5076,94.221 C33.5076,106.627 40.2016,118.069 51.0166,124.147 L128.8476,167.893 L128.8476,76.973 L109.6256,87.874 L109.6256,128.441 L33.5076,84.306 Z" id="Fill-156" fill="#97BDE8"></path>
            </g>
        </g>
    </g>
</svg>