<?xml version="1.0" encoding="UTF-8"?>
<svg width="174px" height="201px" viewBox="0 0 174 201" version="1.1" xmlns="http://www.w3.org/2000/svg" xmlns:xlink="http://www.w3.org/1999/xlink">
    <!-- Generator: Sketch 51.2 (57519) - http://www.bohemiancoding.com/sketch -->
    <title>MCO</title>
    <desc>Created with Sketch.</desc>
    <defs></defs>
    <g id="Page-1" stroke="none" stroke-width="1" fill="none" fill-rule="evenodd">
        <g id="Artboard" transform="translate(-773.000000, -6534.000000)">
            <g id="MCO" transform="translate(773.000000, 6534.000000)">
                <polygon id="Fill-428" fill="#001F45" points="0.1975 50.575 0.1975 150.575 86.8005 200.575 173.4025 150.575 173.4025 50.575 86.8005 0.575"></polygon>
                <polygon id="Fill-429" fill="#FFFFFF" points="7.6219 54.8612 7.6219 146.2892 86.7999 192.0022 165.9779 146.2892 165.9779 54.8612 86.7999 9.1472"></polygon>
                <polygon id="Fill-430" fill="#001F45" points="15.1297 59.1961 15.1297 141.9541 86.7997 183.3331 158.4707 141.9541 158.4707 59.1961 86.7997 17.8171"></polygon>
                <polygon id="Fill-431" fill="#FFFFFF" points="112.3001 53.575 58.3001 53.575 52.3001 80.825 119.3001 80.825"></polygon>
                <polygon id="Fill-432" fill="#FFFFFF" points="68.8001 100.325 52.3001 90.325 34.5501 104.075 59.0501 147.575 68.5501 147.575 81.0501 137.075 81.0501 131.075 68.8001 119.825"></polygon>
                <polygon id="Fill-433" fill="#FFFFFF" points="121.3001 90.325 104.8001 100.325 104.8001 119.825 92.5501 131.075 92.5501 137.075 105.0501 147.575 114.5501 147.575 139.0501 104.075"></polygon>
                <polygon id="Fill-434" fill="#FFFFFF" points="68.6336 85.241 74.6336 100.741 72.6336 118.241 100.1336 118.241 98.1336 100.741 104.1336 85.241"></polygon>
            </g>
        </g>
    </g>
</svg>