<?xml version="1.0" encoding="UTF-8"?>
<svg width="201px" height="201px" viewBox="0 0 201 201" version="1.1" xmlns="http://www.w3.org/2000/svg" xmlns:xlink="http://www.w3.org/1999/xlink">
    <!-- Generator: Sketch 51.2 (57519) - http://www.bohemiancoding.com/sketch -->
    <title>MONA</title>
    <desc>Created with Sketch.</desc>
    <defs></defs>
    <g id="Page-1" stroke="none" stroke-width="1" fill="none" fill-rule="evenodd">
        <g id="Artboard" transform="translate(-1789.000000, -2744.000000)">
            <g id="MONA" transform="translate(1789.000000, 2744.000000)">
                <path d="M200.8635,100.9598 C200.8635,156.1888 156.0925,200.9598 100.8635,200.9598 C45.6345,200.9598 0.8635,156.1888 0.8635,100.9598 C0.8635,45.7308 45.6345,0.9598 100.8635,0.9598 C156.0925,0.9598 200.8635,45.7308 200.8635,100.9598" id="Fill-41" fill="#B3A88C"></path>
                <polygon id="Fill-43" fill="#FFFFFF" points="162.5442 149.6663 145.5652 52.2613 145.5662 52.2563 145.5652 52.2563 145.5642 52.2533 125.9022 52.2533 125.9022 52.2563 125.8982 52.2563 104.4552 115.4373 83.0022 52.2563 81.7982 52.2563 81.9152 51.5853 61.9842 51.5853 50.5752 117.0403 31.1832 117.0403 31.1832 127.2323 48.7992 127.2323 48.0092 131.7613 31.1832 131.7613 31.1832 141.9533 46.2322 141.9533 44.7722 150.3333 64.7022 150.3333 66.1632 141.9533 78.0652 141.9533 78.0652 131.7613 67.9402 131.7613 68.7302 127.2323 78.0652 127.2323 78.0652 117.0403 70.5062 117.0403 75.5382 88.1723 94.6262 144.3903 96.4102 149.6633 112.5002 149.6633 114.2842 144.4083 132.5742 90.5293 142.8832 149.6663"></polygon>
            </g>
        </g>
    </g>
</svg>