<?xml version="1.0" encoding="UTF-8"?>
<svg width="201px" height="201px" viewBox="0 0 201 201" version="1.1" xmlns="http://www.w3.org/2000/svg" xmlns:xlink="http://www.w3.org/1999/xlink">
    <!-- Generator: Sketch 51.2 (57519) - http://www.bohemiancoding.com/sketch -->
    <title>MTL</title>
    <desc>Created with Sketch.</desc>
    <defs></defs>
    <g id="Page-1" stroke="none" stroke-width="1" fill="none" fill-rule="evenodd">
        <g id="Artboard" transform="translate(-1797.000000, -6139.000000)">
            <g id="MTL" transform="translate(1797.000000, 6139.000000)">
                <path d="M200.9866,100.2254 C200.9866,155.4544 156.2156,200.2254 100.9866,200.2254 C45.7576,200.2254 0.9866,155.4544 0.9866,100.2254 C0.9866,44.9964 45.7576,0.2254 100.9866,0.2254 C156.2156,0.2254 200.9866,44.9964 200.9866,100.2254" id="Fill-443" fill="#F4F4F4"></path>
                <polygon id="Fill-444" fill="#211F20" points="53.527 152.149 65.413 152.149 65.413 48.302 53.527 48.302"></polygon>
                <polygon id="Fill-445" fill="#211F20" points="136.559 152.149 148.445 152.149 148.445 48.302 136.559 48.302"></polygon>
                <polygon id="Fill-446" fill="#211F20" points="81.114 128.322 93 128.322 93 66.793 81.114 66.793"></polygon>
                <polygon id="Fill-447" fill="#211F20" points="108.583 110.777 120.469 110.777 120.469 80.52 108.583 80.52"></polygon>
            </g>
        </g>
    </g>
</svg>