<?xml version="1.0" encoding="UTF-8"?>
<svg width="201px" height="201px" viewBox="0 0 201 201" version="1.1" xmlns="http://www.w3.org/2000/svg" xmlns:xlink="http://www.w3.org/1999/xlink">
    <!-- Generator: Sketch 51.2 (57519) - http://www.bohemiancoding.com/sketch -->
    <title>NXS</title>
    <desc>Created with Sketch.</desc>
    <defs>
        <linearGradient x1="27.1846175%" y1="31.5783556%" x2="-5.37574878%" y2="118.654013%" id="linearGradient-1">
            <stop stop-color="#1D93C9" offset="0%"></stop>
            <stop stop-color="#316296" offset="100%"></stop>
        </linearGradient>
        <linearGradient x1="34.928814%" y1="78.1416047%" x2="82.8743622%" y2="40.8670266%" id="linearGradient-2">
            <stop stop-color="#1D93C9" offset="0%"></stop>
            <stop stop-color="#316296" offset="100%"></stop>
        </linearGradient>
        <linearGradient x1="0%" y1="66.686366%" x2="87.4147845%" y2="50%" id="linearGradient-3">
            <stop stop-color="#1D93C9" offset="0%"></stop>
            <stop stop-color="#316296" offset="100%"></stop>
        </linearGradient>
    </defs>
    <g id="Page-1" stroke="none" stroke-width="1" fill="none" fill-rule="evenodd">
        <g id="Artboard" transform="translate(-1101.000000, -7307.000000)">
            <g id="NXS" transform="translate(1101.000000, 7307.000000)">
                <path d="M0.133,100.088 C0.133,118.338 5.022,135.446 13.563,150.175 C19.411,135.989 27.09,123.556 35.895,112.7 C34.749,111.088 34.075,109.114 34.075,106.987 C34.075,101.525 38.505,97.099 43.964,97.099 C45.781,97.099 47.485,97.588 48.949,98.446 C76.189,72.007 109.638,57.379 133.503,50.756 C154.157,45.023 173.924,48.587 188.773,53.755 C172.065,21.853 138.641,0.09 100.135,0.09 C44.905,0.09 0.133,44.862 0.133,100.088" id="Fill-827" fill="url(#linearGradient-1)"></path>
                <path d="M135.798,160.799 C114.031,174.647 91.66,186.113 66.469,194.281 C76.987,198.042 88.323,200.09 100.135,200.09 C155.362,200.09 200.133,155.318 200.133,100.088 C200.133,93.944 199.579,87.926 198.516,82.089 C189.575,102.52 169.776,139.182 135.798,160.799" id="Fill-829" fill="url(#linearGradient-2)"></path>
                <path d="M56.403,97.874 C54.95,98.972 53.506,100.127 52.081,101.338 C53.197,102.938 53.852,104.887 53.852,106.987 C53.852,112.448 49.425,116.874 43.964,116.874 C41.907,116.874 39.998,116.246 38.416,115.172 C24.266,132.048 15.334,151.898 21.034,161.275 C21.53,161.92 22.038,162.559 22.554,163.191 L22.561,163.198 C34.129,174.474 62.783,176.416 100.645,151.414 C138.505,126.412 157.516,94.147 142.38,76.441 C137.846,71.137 131.189,68.934 123.383,68.935 C103.08,68.936 75.015,83.843 56.403,97.874" id="Fill-831" fill="url(#linearGradient-3)"></path>
            </g>
        </g>
    </g>
</svg>