<?xml version="1.0" encoding="UTF-8"?>
<svg width="201px" height="201px" viewBox="0 0 201 201" version="1.1" xmlns="http://www.w3.org/2000/svg" xmlns:xlink="http://www.w3.org/1999/xlink">
    <!-- Generator: Sketch 51.2 (57519) - http://www.bohemiancoding.com/sketch -->
    <title>NXT</title>
    <desc>Created with Sketch.</desc>
    <defs></defs>
    <g id="Page-1" stroke="none" stroke-width="1" fill="none" fill-rule="evenodd">
        <g id="Artboard" transform="translate(-1785.000000, -3115.000000)">
            <g id="NXT" transform="translate(1785.000000, 3115.000000)">
                <path d="M200.8635,100.533 C200.8635,155.762 156.0925,200.533 100.8635,200.533 C45.6345,200.533 0.8635,155.762 0.8635,100.533 C0.8635,45.304 45.6345,0.533 100.8635,0.533 C156.0925,0.533 200.8635,45.304 200.8635,100.533" id="Fill-69" fill="#008EBD"></path>
                <path d="M141.6301,105.6614 L127.0631,105.6614 L96.6871,85.4844 C96.4841,85.3494 96.2681,85.2544 96.0551,85.1504 C96.0271,85.1354 95.9991,85.1204 95.9721,85.1064 C95.8611,85.0544 95.7551,84.9924 95.6431,84.9484 C94.9631,84.6444 94.2111,84.4724 93.4191,84.4724 L84.8561,84.4724 C81.8371,84.4724 79.3901,86.9194 79.3901,89.9384 C79.3901,92.9564 81.8371,95.4044 84.8561,95.4044 L91.8631,95.4044 L122.3531,115.6574 C123.3771,116.3374 124.5441,116.6084 125.6841,116.5434 C125.9151,116.5734 126.1511,116.5944 126.3911,116.5944 L141.6301,116.5944 C144.6501,116.5944 147.0971,114.1464 147.0971,111.1274 C147.0971,108.1084 144.6501,105.6614 141.6301,105.6614" id="Fill-71" fill="#FFFFFF"></path>
                <path d="M95.137,105.6614 L86.175,105.6614 L56.393,85.8784 C55.425,85.0064 54.148,84.4724 52.742,84.4724 L44.179,84.4724 C41.16,84.4724 38.713,86.9194 38.713,89.9384 C38.713,92.9564 41.16,95.4044 44.179,95.4044 L50.976,95.4044 L80.762,115.1894 C81.73,116.0594 83.006,116.5944 84.41,116.5944 L95.137,116.5944 C98.156,116.5944 100.603,114.1464 100.603,111.1274 C100.603,108.1084 98.156,105.6614 95.137,105.6614" id="Fill-73" fill="#FFFFFF"></path>
                <path d="M162.3538,87.3328 C161.4278,85.6288 159.6238,84.4718 157.5468,84.4718 L126.5478,84.4718 C123.5298,84.4718 121.0828,86.9188 121.0828,89.9378 C121.0828,92.9568 123.5298,95.4038 126.5478,95.4038 L152.0818,95.4038 L152.0818,99.9768 C152.0818,102.9958 154.5288,105.4428 157.5468,105.4428 C160.5668,105.4428 163.0138,102.9958 163.0138,99.9768 L163.0138,89.9378 C163.0138,88.9948 162.7748,88.1068 162.3538,87.3328" id="Fill-75" fill="#FFFFFF"></path>
                <path d="M53.5579,105.6614 L44.1789,105.6614 C41.1609,105.6614 38.7129,108.1084 38.7129,111.1274 C38.7129,114.1464 41.1609,116.5944 44.1789,116.5944 L53.5579,116.5944 C56.5769,116.5944 59.0239,114.1464 59.0239,111.1274 C59.0239,108.1084 56.5769,105.6614 53.5579,105.6614" id="Fill-77" fill="#FFFFFF"></path>
            </g>
        </g>
    </g>
</svg>