<?xml version="1.0" encoding="UTF-8"?>
<svg width="201px" height="201px" viewBox="0 0 201 201" version="1.1" xmlns="http://www.w3.org/2000/svg" xmlns:xlink="http://www.w3.org/1999/xlink">
    <!-- Generator: Sketch 51.2 (57519) - http://www.bohemiancoding.com/sketch -->
    <title>OMG</title>
    <desc>Created with Sketch.</desc>
    <defs></defs>
    <g id="Page-1" stroke="none" stroke-width="1" fill="none" fill-rule="evenodd">
        <g id="Artboard" transform="translate(-767.000000, -2358.000000)">
            <g id="OMG" transform="translate(767.000000, 2358.000000)">
                <path d="M200.0647,100.3104 C200.0647,155.5394 155.2937,200.3104 100.0647,200.3104 C44.8367,200.3104 0.0647,155.5394 0.0647,100.3104 C0.0647,45.0814 44.8367,0.3104 100.0647,0.3104 C155.2937,0.3104 200.0647,45.0814 200.0647,100.3104" id="Fill-678" fill="#0666FF"></path>
                <path d="M82.2869,96.9876 C72.2419,96.9876 64.0699,88.8156 64.0699,78.7706 C64.0699,68.7256 72.2419,60.5536 82.2869,60.5536 C92.3319,60.5536 100.5039,68.7256 100.5039,78.7706 C100.5039,88.8156 92.3319,96.9876 82.2869,96.9876 M98.8999,60.5536 L103.7429,60.5536 L103.7429,54.0756 L82.2869,54.0756 C68.6709,54.0756 57.5929,65.1536 57.5929,78.7706 C57.5929,92.3876 68.6709,103.4656 82.2869,103.4656 C95.9029,103.4656 106.9809,92.3876 106.9809,78.7706 C106.9809,71.5546 103.8509,65.0726 98.8999,60.5536" id="Fill-680" fill="#FFFFFF"></path>
                <path d="M134.5096,96.9876 C124.4646,96.9876 116.2926,88.8156 116.2926,78.7706 C116.2926,68.7256 124.4646,60.5536 134.5096,60.5536 C144.5546,60.5536 152.7266,68.7256 152.7266,78.7706 C152.7266,88.8156 144.5546,96.9876 134.5096,96.9876 M134.5096,54.0756 C120.8926,54.0756 109.8156,65.1536 109.8156,78.7706 C109.8156,92.3876 120.8926,103.4656 134.5096,103.4656 C148.1266,103.4656 159.2036,92.3876 159.2036,78.7706 C159.2036,65.1536 148.1266,54.0756 134.5096,54.0756" id="Fill-682" fill="#FFFFFF"></path>
                <path d="M82.2869,148.4007 C72.2419,148.4007 64.0699,140.2287 64.0699,130.1837 C64.0699,120.1387 72.2419,111.9667 82.2869,111.9667 C92.3319,111.9667 100.5039,120.1387 100.5039,130.1837 C100.5039,140.2287 92.3319,148.4007 82.2869,148.4007 M82.2869,105.4887 C68.6709,105.4887 57.5929,116.5667 57.5929,130.1837 C57.5929,143.8007 68.6709,154.8787 82.2869,154.8787 C95.9029,154.8787 106.9809,143.8007 106.9809,130.1837 C106.9809,116.5667 95.9029,105.4887 82.2869,105.4887" id="Fill-684" fill="#FFFFFF"></path>
            </g>
        </g>
    </g>
</svg>