<?xml version="1.0" encoding="UTF-8"?>
<svg width="201px" height="201px" viewBox="0 0 201 201" version="1.1" xmlns="http://www.w3.org/2000/svg" xmlns:xlink="http://www.w3.org/1999/xlink">
    <!-- Generator: Sketch 51.2 (57519) - http://www.bohemiancoding.com/sketch -->
    <title>PAY</title>
    <desc>Created with Sketch.</desc>
    <defs></defs>
    <g id="Page-1" stroke="none" stroke-width="1" fill="none" fill-rule="evenodd">
        <g id="Artboard" transform="translate(-1105.000000, -4266.000000)">
            <g id="PAY" transform="translate(1105.000000, 4266.000000)">
                <path d="M200.5291,100.0696 C200.5291,155.2986 155.7581,200.0696 100.5291,200.0696 C45.3011,200.0696 0.5291,155.2986 0.5291,100.0696 C0.5291,44.8406 45.3011,0.0696 100.5291,0.0696 C155.7581,0.0696 200.5291,44.8406 200.5291,100.0696" id="Fill-9" fill="#D8D8D8"></path>
                <path d="M43.9153,101.1385 L66.4413,123.6665 L88.9673,101.1385 L66.4413,78.6125 L43.9153,101.1385 Z M66.4413,147.2385 L20.3433,101.1385 L66.4413,55.0405 L112.5393,101.1385 L66.4413,147.2385 Z" id="Fill-11" fill="#093047"></path>
                <path d="M112.0916,101.1385 L134.6176,123.6665 L157.1436,101.1385 L134.6176,78.6125 L112.0916,101.1385 Z M134.6176,147.2385 L88.5196,101.1385 L134.6176,55.0405 L180.7156,101.1385 L134.6176,147.2385 Z" id="Fill-13" fill="#103D54"></path>
            </g>
        </g>
    </g>
</svg>