<?xml version="1.0" encoding="UTF-8"?>
<svg width="165px" height="201px" viewBox="0 0 165 201" version="1.1" xmlns="http://www.w3.org/2000/svg" xmlns:xlink="http://www.w3.org/1999/xlink">
    <!-- Generator: Sketch 51.2 (57519) - http://www.bohemiancoding.com/sketch -->
    <title>PIVX</title>
    <desc>Created with Sketch.</desc>
    <defs></defs>
    <g id="Page-1" stroke="none" stroke-width="1" fill="none" fill-rule="evenodd">
        <g id="Artboard" transform="translate(-1816.000000, -3905.000000)">
            <g id="PIVX" transform="translate(1816.000000, 3905.000000)">
                <path d="M7.0227,24.0872 C10.1027,23.5872 13.0837,23.1072 16.0627,22.6272 C21.4937,21.7572 26.9327,20.8872 32.3627,20.0172 C37.5127,19.1872 42.6637,18.3572 47.8127,17.5372 C53.2727,16.6572 58.7327,15.7772 64.1927,14.8972 C69.2627,14.0772 74.3627,13.3772 79.4027,12.3972 C80.3827,12.2072 81.3427,12.1472 82.2937,12.1772 L82.2937,0.8372 L81.9137,0.8372 C81.7727,0.8972 81.6427,0.9972 81.5027,1.0272 C77.9827,1.7672 74.4627,2.5172 70.9427,3.2472 C59.8827,5.5472 48.8127,7.8372 37.7527,10.1472 C25.6637,12.6672 13.5737,15.2072 1.4727,17.7072 C0.6727,17.8772 0.4137,18.1272 0.4137,18.9672 C0.4327,56.4172 0.4227,93.8672 0.4627,131.3172 C0.4627,133.2072 0.7527,135.1272 1.1527,136.9772 C2.1527,141.7172 4.3827,145.9272 7.1327,149.8672 C11.5837,156.2572 17.1637,161.5672 23.1727,166.4672 C30.2727,172.2572 37.9327,177.2572 45.7837,181.9772 C56.8527,188.6572 68.2437,194.7572 79.9537,200.2672 C80.7837,200.6572 81.5437,200.8472 82.2937,200.837575 L82.2937,190.6872 C82.0737,190.6872 81.8427,190.6372 81.6027,190.5372 C65.4937,183.9672 50.0227,176.1672 35.5527,166.4772 C29.2727,162.2872 23.3127,157.6972 18.0227,152.2872 C14.3427,148.5272 11.0737,144.4772 8.9227,139.6272 C7.6637,136.7872 7.0127,133.8272 7.0127,130.6972 C7.0337,95.5572 7.0227,60.4172 7.0227,25.2772 L7.0227,24.0872 Z" id="Fill-134" fill="#372E44"></path>
                <path d="M164.0735,18.0174 L164.0735,18.9574 C164.0735,56.5674 164.0735,94.1774 164.0625,131.7874 C164.0625,136.5974 162.5435,141.0074 160.3335,145.1974 C157.1335,151.2774 152.7035,156.4074 147.7935,161.1274 C139.1025,169.4874 129.2625,176.3074 118.9825,182.5274 C107.9135,189.2274 96.4135,195.1074 84.5525,200.2974 C83.7535,200.6474 83.0335,200.8274 82.2935,200.8374 L82.2935,190.6874 C82.5835,190.6874 82.8735,190.6174 83.1825,190.4874 C93.2435,186.4274 103.0035,181.7774 112.5035,176.5474 C122.8335,170.8574 132.8025,164.6274 141.7435,156.8674 C146.2035,152.9974 150.3235,148.7974 153.4935,143.7674 C155.9325,139.8974 157.6235,135.7774 157.6235,131.1074 C157.6125,95.7574 157.6125,60.3974 157.6125,25.0474 L157.6125,24.0874 C157.1925,24.0074 156.8625,23.9374 156.5225,23.8874 C152.7325,23.2774 148.9535,22.6674 145.1635,22.0574 C140.3835,21.2874 135.6025,20.5174 130.8235,19.7474 C126.0225,18.9774 121.2135,18.2174 116.4025,17.4374 C111.3125,16.6174 106.2225,15.7974 101.1235,14.9774 C96.6125,14.2474 92.0935,13.5174 87.5735,12.8074 C85.8125,12.5274 84.0735,12.2074 82.2935,12.1774 L82.2935,0.8374 L82.5525,0.8374 C83.9535,1.1674 85.3525,1.5374 86.7625,1.8274 C99.1635,4.4274 111.5525,7.0174 123.9535,9.5974 C134.5225,11.7974 145.0835,13.9874 155.6425,16.1774 C158.2325,16.7174 160.8235,17.2574 163.4135,17.7974 C163.6125,17.8374 163.8025,17.9274 164.0735,18.0174" id="Fill-136" fill="#5C4C7C"></path>
                <path d="M138.9729,149.3172 C138.4529,149.8072 137.9329,150.2872 137.4029,150.7572 C129.4029,157.9372 120.3829,163.6472 111.0429,168.8772 C101.9729,173.9472 92.6129,178.4272 82.9629,182.2872 C82.5929,182.4372 82.0629,182.4672 81.7029,182.3172 C66.1229,175.9672 51.1929,168.4172 37.3529,158.7972 C32.8629,155.6672 28.5829,152.2772 24.6829,148.4272 C20.8429,144.6172 17.3929,140.4972 15.2929,135.4272 C14.2929,133.0272 13.8029,130.5272 13.8029,127.9172 C13.8239,112.0972 13.8129,96.2772 13.8129,80.4572 C13.8129,64.3972 13.8239,48.3372 13.7929,32.2872 C13.7929,31.4572 13.9829,31.1772 14.8429,31.0472 C17.3529,30.6772 19.8629,30.2872 22.3829,29.8872 C30.2839,91.1972 78.1329,139.9872 138.9729,149.3172" id="Fill-138" fill="#372E44"></path>
                <path d="M150.7532,33.4573 C150.7632,64.8373 150.7432,96.2073 150.7732,127.5873 C150.7732,131.3173 149.8132,134.7373 148.0632,137.9973 C145.7132,142.3373 142.5132,145.9773 138.9732,149.3173 C78.1332,139.9873 30.2832,91.1973 22.3832,29.8873 C25.1232,29.4573 27.8622,29.0173 30.6122,28.5873 C35.4132,27.8173 40.2232,27.0373 45.0232,26.2673 C49.8332,25.4973 54.6432,24.7373 59.4532,23.9673 C63.9422,23.2573 68.4332,22.5273 72.9232,21.8073 C75.9822,21.3173 79.0232,20.7273 82.1032,20.3873 C83.2732,20.2473 84.5032,20.6573 85.7032,20.8473 C90.9332,21.6773 96.1522,22.5073 101.3832,23.3473 C106.5332,24.1773 111.6732,25.0173 116.8232,25.8373 C121.9632,26.6573 127.1122,27.4673 132.2632,28.2873 C137.7232,29.1573 143.1732,30.0473 148.6332,30.9273 C149.3032,31.0373 150.2432,30.9873 150.5632,31.3873 C150.9232,31.8573 150.7532,32.7573 150.7532,33.4573" id="Fill-140" fill="#5C4C7C"></path>
                <path d="M56.0422,53.2806 L56.0422,50.8196 C56.0422,48.7756 56.0802,46.7306 56.0232,44.6886 C56.0012,43.8856 56.2212,43.6556 57.0372,43.6576 C67.0442,43.6856 77.0502,43.6666 87.0572,43.6816 C90.3982,43.6866 93.7522,43.5896 97.0792,43.8286 C108.2872,44.6346 117.3732,49.1656 123.1072,59.2356 C125.3952,63.2526 126.5292,67.6426 126.9002,72.2426 C127.4032,78.4746 126.7032,84.5316 124.0732,90.2476 C119.9622,99.1866 112.9062,104.5616 103.4572,106.9416 C100.2772,107.7426 97.0322,108.0076 93.7682,108.0156 C85.6462,108.0366 77.5242,108.0226 69.4022,108.0226 L68.2672,108.0226 L68.2672,149.4066 L57.8602,149.4066 L57.8602,148.4046 C57.8602,133.7266 57.8612,119.0486 57.8592,104.3706 C57.8592,102.7786 57.8812,101.1846 57.8122,99.5946 C57.7762,98.7956 57.9992,98.5686 58.8202,98.5706 C70.2072,98.5986 81.5942,98.5866 92.9802,98.5906 C96.4522,98.5926 99.8422,98.1156 103.0942,96.8556 C108.9972,94.5676 113.0002,90.4106 114.9652,84.4096 C116.7592,78.9316 116.8542,73.3436 115.2302,67.8186 C113.0152,60.2776 107.8452,55.7346 100.2852,53.9526 C98.0132,53.4166 95.6262,53.1906 93.2862,53.1476 C87.7152,53.0436 82.1402,53.1206 76.5652,53.1476 C70.0652,53.1786 63.5652,53.2356 57.0642,53.2806 C56.7552,53.2816 56.4442,53.2806 56.0422,53.2806" id="Fill-142" fill="#FFFFFF"></path>
                <path d="M89.1213,80.1839 L88.1023,80.1839 C75.4993,80.1789 62.8943,80.1739 50.2913,80.1679 C49.2103,80.1679 49.2093,80.1659 49.2093,79.0959 L49.2093,72.7269 L49.2093,71.8099 C49.5783,71.7879 49.8643,71.7569 50.1513,71.7569 C62.8603,71.7379 75.5703,71.7269 88.2803,71.6939 C88.9593,71.6919 89.2183,71.8639 89.2053,72.5799 C89.1673,74.8339 89.1923,77.0899 89.1883,79.3459 C89.1873,79.5809 89.1513,79.8159 89.1213,80.1839" id="Fill-144" fill="#FFFFFF"></path>
            </g>
        </g>
    </g>
</svg>