<?xml version="1.0" encoding="UTF-8"?>
<svg width="201px" height="201px" viewBox="0 0 201 201" version="1.1" xmlns="http://www.w3.org/2000/svg" xmlns:xlink="http://www.w3.org/1999/xlink">
    <!-- Generator: Sketch 51.2 (57519) - http://www.bohemiancoding.com/sketch -->
    <title>POT</title>
    <desc>Created with Sketch.</desc>
    <defs></defs>
    <g id="Page-1" stroke="none" stroke-width="1" fill="none" fill-rule="evenodd">
        <g id="Artboard" transform="translate(-1799.000000, -7692.000000)">
            <g id="POT" transform="translate(1799.000000, 7692.000000)">
                <path d="M200.4436,100.4637 C200.4436,155.6927 155.6726,200.4637 100.4436,200.4637 C45.2146,200.4637 0.4436,155.6927 0.4436,100.4637 C0.4436,45.2347 45.2146,0.4637 100.4436,0.4637 C155.6726,0.4637 200.4436,45.2347 200.4436,100.4637" id="Fill-490" fill="#095C2D"></path>
                <path d="M82.6125,96.0135 L103.3375,96.0135 C106.4055,96.0135 109.5135,95.7665 112.6635,95.2735 C115.8095,94.7795 118.7385,93.8745 121.4495,92.5595 C124.1585,91.2425 126.5565,89.3525 128.6445,86.8845 C130.7295,84.4175 132.3025,81.2095 133.3615,77.2635 C134.4185,73.3155 134.5635,70.1085 133.8005,67.6415 C133.0355,65.1735 131.6505,63.2835 129.6465,61.9665 C127.6395,60.6515 125.1965,59.7455 122.3145,59.2525 C119.4295,58.7595 116.4535,58.5125 113.3845,58.5125 L92.6605,58.5125 L82.6125,96.0135 Z M80.5735,44.6975 L121.5265,44.6975 C128.9825,44.6975 134.8495,45.7125 139.1335,47.7405 C143.4135,49.7705 146.5345,52.3445 148.4935,55.4705 C150.4515,58.5955 151.4565,62.1065 151.5105,65.9955 C151.5625,69.8905 151.1065,73.6445 150.1365,77.2635 C149.1675,80.8815 147.6115,84.6385 145.4735,88.5295 C143.3335,92.4225 140.4475,95.9305 136.8145,99.0555 C133.1805,102.1815 128.6785,104.7585 123.3115,106.7855 C117.9415,108.8175 111.5315,109.8285 104.0755,109.8285 L78.9115,109.8285 L65.1605,161.1445 L49.3715,161.1445 L80.5735,44.6975 Z" id="Fill-911" fill="#FEFEFE"></path>
                <polygon id="Fill-913" fill="#FEFEFE" points="110.8088 81.5506 59.7378 81.5506 63.1128 68.9526 114.1848 68.9526"></polygon>
            </g>
        </g>
    </g>
</svg>