<?xml version="1.0" encoding="UTF-8"?>
<svg width="205px" height="205px" viewBox="0 0 205 205" version="1.1" xmlns="http://www.w3.org/2000/svg" xmlns:xlink="http://www.w3.org/1999/xlink">
    <!-- Generator: Sketch 51.2 (57519) - http://www.bohemiancoding.com/sketch -->
    <title>POWER</title>
    <desc>Created with Sketch.</desc>
    <defs></defs>
    <g id="Page-1" stroke="none" stroke-width="1" fill="none" fill-rule="evenodd">
        <g id="Artboard" transform="translate(-1097.000000, -4624.000000)" fill="#00C0AC">
            <g id="POWER" transform="translate(1097.000000, 4624.000000)">
                <path d="M5.0579,102.7694 L102.2289,199.9404 L199.4009,102.7694 L102.2289,5.5974 L5.0579,102.7694 Z M102.2289,204.7694 C101.7179,204.7694 101.2049,204.5744 100.8149,204.1834 L0.8149,104.1834 C0.0339,103.4024 0.0339,102.1354 0.8149,101.3554 L100.8149,1.3554 C101.5959,0.5744 102.8629,0.5744 103.6429,1.3554 L203.6429,101.3554 C204.4249,102.1354 204.4249,103.4024 203.6429,104.1834 L103.6429,204.1834 C103.2529,204.5744 102.7409,204.7694 102.2289,204.7694 Z" id="Fill-176"></path>
                <path d="M11.3958,100.7694 L70.9918,100.7694 L92.3548,63.6744 L11.3958,100.7694 Z M72.1478,104.7694 L2.2288,104.7694 C1.2888,104.7694 0.4758,104.1144 0.2748,103.1954 C0.0748,102.2774 0.5418,101.3424 1.3958,100.9514 L96.3778,57.4314 C97.1678,57.0704 98.1038,57.2594 98.6898,57.9034 C99.2758,58.5454 99.3788,59.4944 98.9438,60.2484 L73.8808,103.7674 C73.5238,104.3874 72.8638,104.7694 72.1478,104.7694 Z" id="Fill-178"></path>
                <path d="M133.2034,104.7694 L111.8404,141.8634 L192.7994,104.7694 L133.2034,104.7694 Z M106.9844,148.2884 C106.4344,148.2884 105.8934,148.0614 105.5054,147.6354 C104.9194,146.9924 104.8164,146.0434 105.2514,145.2904 L130.3144,101.7714 C130.6714,101.1514 131.3314,100.7694 132.0474,100.7694 L201.9654,100.7694 C202.9064,100.7694 203.7194,101.4234 203.9194,102.3424 C204.1204,103.2614 203.6534,104.1964 202.7984,104.5874 L107.8174,148.1064 C107.5504,148.2294 107.2664,148.2884 106.9844,148.2884 Z" id="Fill-180"></path>
                <path d="M17.9719,54.3651 L53.8249,187.0261 L186.4869,151.1741 L150.6339,18.5111 L17.9719,54.3651 Z M52.4149,191.4791 C51.5339,191.4791 50.7259,190.8921 50.4859,190.0011 L13.5889,53.4781 C13.3009,52.4121 13.9309,51.3131 14.9969,51.0251 L151.5209,14.1281 C152.0329,13.9891 152.5779,14.0601 153.0389,14.3241 C153.4989,14.5891 153.8349,15.0251 153.9729,15.5371 L190.8699,152.0601 C191.1589,153.1271 190.5279,154.2241 189.4619,154.5121 L52.9379,191.4101 C52.7639,191.4571 52.5879,191.4791 52.4149,191.4791 Z" id="Fill-182"></path>
                <path d="M38.7146,68.283 C38.3766,68.283 38.0346,68.197 37.7206,68.016 L14.5236,54.69 C13.5656,54.14 13.2346,52.918 13.7846,51.96 C14.3356,51.002 15.5576,50.673 16.5156,51.221 L39.7126,64.548 C40.6706,65.098 41.0016,66.321 40.4506,67.278 C40.0806,67.923 39.4076,68.283 38.7146,68.283" id="Fill-184"></path>
                <path d="M188.7087,154.451 C188.3707,154.451 188.0287,154.365 187.7147,154.185 L164.7087,140.969 C163.7507,140.418 163.4197,139.195 163.9697,138.238 C164.5207,137.28 165.7417,136.95 166.7007,137.5 L189.7067,150.717 C190.6647,151.266 190.9947,152.489 190.4447,153.447 C190.0747,154.091 189.4017,154.451 188.7087,154.451" id="Fill-186"></path>
                <path d="M165.447,68.1639 C164.756,68.1639 164.083,67.8049 163.713,67.1629 C163.161,66.2059 163.489,64.9829 164.446,64.4309 L187.618,51.0609 C188.574,50.5089 189.798,50.8369 190.35,51.7939 C190.902,52.7509 190.573,53.9739 189.617,54.5259 L166.445,67.8949 C166.13,68.0769 165.786,68.1639 165.447,68.1639" id="Fill-188"></path>
                <path d="M15.615,154.6141 C14.924,154.6141 14.251,154.2551 13.881,153.6131 C13.329,152.6561 13.657,151.4331 14.614,150.8811 L37.595,137.6211 C38.552,137.0681 39.775,137.3961 40.327,138.3531 C40.879,139.3101 40.551,140.5331 39.594,141.0861 L16.613,154.3451 C16.298,154.5271 15.954,154.6141 15.615,154.6141" id="Fill-190"></path>
                <path d="M102.2727,31.5877 L102.2687,31.5877 C101.1637,31.5857 100.2707,30.6887 100.2727,29.5837 L100.3307,2.8307 C100.3327,1.7287 101.2277,0.8357 102.3307,0.8357 L102.3347,0.8357 C103.4397,0.8377 104.3327,1.7347 104.3307,2.8397 L104.2727,29.5927 C104.2707,30.6947 103.3757,31.5877 102.2727,31.5877" id="Fill-192"></path>
                <path d="M101.8997,204.5711 L101.8957,204.5711 C100.7907,204.5691 99.8977,203.6721 99.8997,202.5671 L99.9567,176.0341 C99.9597,174.9301 100.8547,174.0381 101.9567,174.0381 L101.9617,174.0381 C103.0657,174.0411 103.9597,174.9381 103.9567,176.0431 L103.8997,202.5761 C103.8977,203.6781 103.0027,204.5711 101.8997,204.5711" id="Fill-194"></path>
                <path d="M18.1799,151.534 L150.9949,186.818 L186.2789,54.004 L53.4639,18.72 L18.1799,151.534 Z M152.4159,191.265 C152.2449,191.265 152.0729,191.243 151.9009,191.198 L15.2199,154.887 C14.7069,154.751 14.2699,154.416 14.0039,153.958 C13.7379,153.499 13.6639,152.953 13.8009,152.44 L50.1119,15.76 C50.3959,14.691 51.4909,14.06 52.5579,14.341 L189.2389,50.651 C189.7519,50.788 190.1889,51.122 190.4549,51.581 C190.7219,52.04 190.7949,52.586 190.6589,53.098 L154.3469,189.778 C154.1089,190.674 153.2999,191.265 152.4159,191.265 Z" id="Fill-196"></path>
                <path d="M58.3748,23.1981 L88.2828,74.7461 L131.0878,74.6081 L58.3748,23.1981 Z M87.1328,78.7501 C86.4198,78.7501 85.7608,78.3711 85.4028,77.7541 L50.3148,17.2771 C49.8428,16.4641 50.0008,15.4311 50.6948,14.7981 C51.3898,14.1631 52.4308,14.0981 53.1998,14.6401 L138.5078,74.9551 C139.2178,75.4581 139.5218,76.3611 139.2598,77.1911 C138.9978,78.0201 138.2288,78.5861 137.3588,78.5891 L87.1398,78.7501 L87.1328,78.7501 Z" id="Fill-198"></path>
                <path d="M73.238,130.701 L145.951,182.112 L116.043,130.564 L73.238,130.701 Z M152.281,191.037 C151.879,191.037 151.475,190.916 151.127,190.67 L65.819,130.354 C65.108,129.852 64.804,128.948 65.066,128.119 C65.328,127.289 66.097,126.724 66.967,126.722 L117.187,126.56 L117.193,126.56 C117.906,126.56 118.565,126.939 118.923,127.556 L154.011,188.033 C154.483,188.847 154.325,189.879 153.631,190.513 C153.251,190.86 152.767,191.037 152.281,191.037 Z" id="Fill-200"></path>
                <path d="M18.3513,53.7108 L53.1703,186.6478 L186.1073,151.8278 L151.2883,18.8908 L18.3513,53.7108 Z M51.7433,191.0888 C51.3913,191.0888 51.0423,190.9958 50.7333,190.8148 C50.2753,190.5478 49.9423,190.1088 49.8083,189.5958 L13.9753,52.7888 C13.6953,51.7208 14.3343,50.6278 15.4033,50.3478 L152.2093,14.5148 C153.2763,14.2368 154.3713,14.8738 154.6503,15.9418 L190.4833,152.7488 C190.7633,153.8168 190.1243,154.9098 189.0563,155.1898 L52.2493,191.0228 C52.0823,191.0668 51.9123,191.0888 51.7433,191.0888 Z" id="Fill-202"></path>
                <path d="M119.7268,76.8143 L140.9608,113.9823 L149.8148,25.3723 L119.7268,76.8143 Z M142.3278,122.4083 C141.6208,122.4083 140.9528,122.0323 140.5918,121.4003 L115.6798,77.7943 C115.3258,77.1733 115.3298,76.4113 115.6898,75.7933 L150.9898,15.4393 C151.4648,14.6273 152.4428,14.2573 153.3348,14.5473 C154.2288,14.8373 154.7998,15.7123 154.7058,16.6483 L144.3188,120.6073 C144.2318,121.4723 143.5958,122.1833 142.7448,122.3643 C142.6058,122.3943 142.4658,122.4083 142.3278,122.4083 Z" id="Fill-204"></path>
                <path d="M63.6316,91.3279 L54.7776,179.9379 L84.8656,128.4959 L63.6316,91.3279 Z M51.8766,190.8609 C51.6706,190.8609 51.4616,190.8289 51.2576,190.7629 C50.3636,190.4729 49.7926,189.5979 49.8856,188.6619 L60.2736,84.7029 C60.3606,83.8379 60.9966,83.1269 61.8476,82.9459 C62.6986,82.7619 63.5686,83.1539 64.0006,83.9099 L88.9126,127.5159 C89.2666,128.1369 89.2626,128.8989 88.9026,129.5169 L53.6026,189.8709 C53.2356,190.4969 52.5716,190.8609 51.8766,190.8609 Z" id="Fill-206"></path>
            </g>
        </g>
    </g>
</svg>