<?xml version="1.0" encoding="UTF-8"?>
<svg width="201px" height="201px" viewBox="0 0 201 201" version="1.1" xmlns="http://www.w3.org/2000/svg" xmlns:xlink="http://www.w3.org/1999/xlink">
    <!-- Generator: Sketch 51.2 (57519) - http://www.bohemiancoding.com/sketch -->
    <title>PPC</title>
    <desc>Created with Sketch.</desc>
    <defs></defs>
    <g id="Page-1" stroke="none" stroke-width="1" fill="none" fill-rule="evenodd">
        <g id="Artboard" transform="translate(-758.000000, -8088.000000)">
            <g id="PPC" transform="translate(758.000000, 8088.000000)">
                <path d="M200.8,100.2635 C200.8,155.4925 156.029,200.2635 100.8,200.2635 C45.572,200.2635 0.8,155.4925 0.8,100.2635 C0.8,45.0345 45.572,0.2635 100.8,0.2635 C156.029,0.2635 200.8,45.0345 200.8,100.2635" id="Fill-923" fill="#35B14F"></path>
                <path d="M57.6130666,48.0233 L57.6131,106.5643 C57.6131,106.5643 57.3141,161.3733 113.3171,158.3853 C113.3171,158.3853 146.1721,110.2983 76.5791,65.1973 C76.5791,65.1973 143.9321,85.4443 131.8361,158.5033 C131.8361,158.5033 171.2611,131.9533 143.3351,84.0143 C143.3351,84.0143 124.2191,49.6663 57.6130666,48.0233" id="Fill-925" fill="#FFFFFF"></path>
            </g>
        </g>
    </g>
</svg>