<?xml version="1.0" encoding="UTF-8"?>
<svg width="201px" height="201px" viewBox="0 0 201 201" version="1.1" xmlns="http://www.w3.org/2000/svg" xmlns:xlink="http://www.w3.org/1999/xlink">
    <!-- Generator: Sketch 51.2 (57519) - http://www.bohemiancoding.com/sketch -->
    <title>PPT</title>
    <desc>Created with Sketch.</desc>
    <defs></defs>
    <g id="Page-1" stroke="none" stroke-width="1" fill="none" fill-rule="evenodd">
        <g id="Artboard" transform="translate(-770.000000, -3117.000000)">
            <g id="PPT" transform="translate(770.000000, 3117.000000)">
                <path d="M200.3582,100.9207 C200.3582,150.8307 163.7982,192.2007 115.9982,199.7007 C110.9082,200.5007 105.6782,200.9207 100.3582,200.9207 C96.1382,200.9207 91.9882,200.6607 87.9082,200.1507 C38.5582,194.0307 0.3582,151.9307 0.3582,100.9207 C0.3582,45.6907 45.1282,0.9207 100.3582,0.9207 C155.5882,0.9207 200.3582,45.6907 200.3582,100.9207" id="Fill-33" fill="#4076BF"></path>
                <path d="M120.158,156.6107 C115.648,157.2607 115.048,156.8707 114.948,152.3107 C114.518,132.8807 114.088,113.4507 113.678,94.0207 C113.648,92.9507 113.738,91.8907 113.768,90.8907 C120.058,89.8007 122.028,91.3007 122.168,97.1607 C122.578,115.1707 122.968,133.1807 123.348,151.1907 C123.398,153.5907 123.638,156.1107 120.158,156.6107 M149.768,92.6007 C149.508,84.8007 145.418,80.5907 137.708,79.5007 C132.868,78.8107 127.938,78.4007 123.058,78.4107 C111.378,78.4607 99.698,78.8307 88.018,79.0807 C87.078,79.1007 86.148,79.2607 85.268,79.3507 C86.158,119.7507 87.038,159.9307 87.908,200.1507 C91.988,200.6607 96.138,200.9207 100.358,200.9207 C105.678,200.9207 110.908,200.5007 115.998,199.7007 C115.798,190.7907 115.598,181.8707 115.348,172.9507 C115.268,170.2007 116.148,169.5107 118.808,169.3407 C125.968,168.8907 133.198,168.5207 140.238,167.2407 C147.678,165.8807 151.198,161.4707 151.118,153.8307 C150.888,133.4207 150.428,113.0107 149.768,92.6007" id="Fill-35" fill="#FFFFFF"></path>
                <path d="M80.5491,78.9866 L80.5491,170.2246 C75.3661,170.2246 70.3721,170.3826 65.3961,170.1576 C62.8651,170.0436 62.1441,168.0376 62.1581,165.6816 C62.2011,158.4836 62.1741,151.2846 62.1741,144.0856 C62.1741,124.2356 62.1721,104.3836 62.1791,84.5326 C62.1801,80.0616 63.2391,79.0136 67.7871,78.9906 C72.0061,78.9696 76.2241,78.9866 80.5491,78.9866" id="Fill-37" fill="#FFFFFF"></path>
                <path d="M98.8826,32.5076 C110.5236,32.6076 119.9866,42.1576 119.8036,53.6216 C119.6146,65.4116 110.0936,74.7536 98.3596,74.6616 C86.6806,74.5706 77.1826,64.9286 77.2786,53.2626 C77.3746,41.5586 86.9026,32.4056 98.8826,32.5076" id="Fill-39" fill="#FFFFFF"></path>
            </g>
        </g>
    </g>
</svg>