<?xml version="1.0" encoding="UTF-8"?>
<svg width="201px" height="201px" viewBox="0 0 201 201" version="1.1" xmlns="http://www.w3.org/2000/svg" xmlns:xlink="http://www.w3.org/1999/xlink">
    <!-- Generator: Sketch 51.2 (57519) - http://www.bohemiancoding.com/sketch -->
    <title>PURA</title>
    <desc>Created with Sketch.</desc>
    <defs></defs>
    <g id="Page-1" stroke="none" stroke-width="1" fill="none" fill-rule="evenodd">
        <g id="Artboard" transform="translate(-1452.000000, -7307.000000)">
            <g id="PURA" transform="translate(1452.000000, 7307.000000)">
                <path d="M200.9495,100.4862 C200.9495,155.7152 156.1785,200.4862 100.9495,200.4862 C45.7205,200.4862 0.9495,155.7152 0.9495,100.4862 C0.9495,45.2572 45.7205,0.4862 100.9495,0.4862 C156.1785,0.4862 200.9495,45.2572 200.9495,100.4862" id="Fill-833" fill="#F4F4F4"></path>
                <path d="M97.8499,92.6414 C97.8499,92.8744 97.8529,93.1064 97.8609,93.3384 L97.8609,91.9454 C97.8529,92.1764 97.8499,92.4084 97.8499,92.6414" id="Fill-835" fill="#020204"></path>
                <path d="M153.0388,70.1199 C145.8808,59.7569 133.9188,52.9659 120.3708,52.9659 L69.6518,52.9659 C69.6518,62.4389 77.3318,70.1199 86.8058,70.1199 L120.1958,70.1199 C132.6278,70.1199 142.9368,80.2919 142.8928,92.7239 C142.8488,105.1239 132.7818,115.1629 120.3708,115.1629 L88.7268,115.1629 L87.7038,115.1629 L82.4928,115.1629 C75.4008,115.1629 69.6518,120.9119 69.6518,128.0039 L69.6518,167.0359 L71.5738,167.0359 C81.0468,167.0359 88.7268,159.3559 88.7268,149.8829 L88.7268,132.3159 L120.3708,132.3159 C133.9188,132.3159 145.8818,125.5259 153.0388,115.1629 C157.4588,108.7649 160.0468,101.0059 160.0468,92.6409 C160.0468,84.2779 157.4578,76.5169 153.0388,70.1199" id="Fill-837" fill="#020204"></path>
                <path d="M97.8611,102.1795 L60.2131,102.1795 C49.6781,102.1795 41.1381,93.6395 41.1381,83.1045 L81.3461,83.1045 C90.4671,83.1045 97.8611,90.4975 97.8611,99.6185 L97.8611,102.1795 Z" id="Fill-839" fill="#020204"></path>
            </g>
        </g>
    </g>
</svg>