<?xml version="1.0" encoding="UTF-8"?>
<svg width="201px" height="201px" viewBox="0 0 201 201" version="1.1" xmlns="http://www.w3.org/2000/svg" xmlns:xlink="http://www.w3.org/1999/xlink">
    <!-- Generator: Sketch 51.2 (57519) - http://www.bohemiancoding.com/sketch -->
    <title>QASH</title>
    <desc>Created with Sketch.</desc>
    <defs></defs>
    <g id="Page-1" stroke="none" stroke-width="1" fill="none" fill-rule="evenodd">
        <g id="Artboard" transform="translate(-756.000000, -3899.000000)">
            <g id="QASH" transform="translate(756.000000, 3899.000000)">
                <path d="M200.1404,100.1287 C200.1404,155.3577 155.3694,200.1287 100.1404,200.1287 C44.9124,200.1287 0.1404,155.3577 0.1404,100.1287 C0.1404,44.8997 44.9124,0.1287 100.1404,0.1287 C155.3694,0.1287 200.1404,44.8997 200.1404,100.1287" id="Fill-774" fill="#0740EC"></path>
                <path d="M188.6799,100.1287 C188.6799,149.0277 149.0399,188.6687 100.1399,188.6687 C51.2419,188.6687 11.6009,149.0277 11.6009,100.1287 C11.6009,51.2297 51.2419,11.5887 100.1399,11.5887 C149.0399,11.5887 188.6799,51.2297 188.6799,100.1287" id="Fill-775" fill="#FAFDFC"></path>
                <path d="M176.3352,100.1287 C176.3352,142.2097 142.2212,176.3227 100.1402,176.3227 C58.0592,176.3227 23.9462,142.2097 23.9462,100.1287 C23.9462,58.0477 58.0592,23.9347 100.1402,23.9347 C142.2212,23.9347 176.3352,58.0477 176.3352,100.1287" id="Fill-776" fill="#0740EC"></path>
                <path d="M92.0393,71.1986 C86.3453,71.1986 81.7123,75.8306 81.7123,81.5256 L81.7123,118.7326 C81.7123,124.4266 86.3453,129.0586 92.0393,129.0586 L108.2423,129.0586 C113.9363,129.0586 118.5683,124.4266 118.5683,118.7326 L118.5683,81.5256 C118.5683,75.8306 113.9363,71.1986 108.2423,71.1986 L92.0393,71.1986 Z M108.2423,139.0586 L92.0393,139.0586 C80.8313,139.0586 71.7123,129.9406 71.7123,118.7326 L71.7123,81.5256 C71.7123,70.3176 80.8313,61.1986 92.0393,61.1986 L108.2423,61.1986 C119.4503,61.1986 128.5683,70.3176 128.5683,81.5256 L128.5683,118.7326 C128.5683,129.9406 119.4503,139.0586 108.2423,139.0586 Z" id="Fill-777" fill="#FFFFFF"></path>
                <path d="M127.5794,148.4505 C126.1704,148.4505 124.7694,147.8585 123.7804,146.7045 L107.9024,128.1815 C106.1054,126.0855 106.3484,122.9285 108.4454,121.1315 C110.5414,119.3335 113.6974,119.5765 115.4954,121.6735 L131.3734,140.1965 C133.1704,142.2925 132.9274,145.4495 130.8304,147.2465 C129.8884,148.0545 128.7304,148.4505 127.5794,148.4505" id="Fill-778" fill="#FFFFFF"></path>
                <polygon id="Fill-779" fill="#0740EC" points="99.14 22.178 101.14 22.178 101.14 14.178 99.14 14.178"></polygon>
                <polygon id="Fill-780" fill="#0740EC" points="99.14 186.678 101.14 186.678 101.14 178.678 99.14 178.678"></polygon>
                <polygon id="Fill-781" fill="#0740EC" points="87.5374 23.1927 85.5674 23.5397 84.1784 15.6617 86.1484 15.3147"></polygon>
                <polygon id="Fill-782" fill="#0740EC" points="116.1023 185.1937 114.1333 185.5407 112.7443 177.6627 114.7133 177.3157"></polygon>
                <polygon id="Fill-783" fill="#0740EC" points="74.3172 26.5545 72.4382 27.2385 69.7012 19.7215 71.5812 19.0365"></polygon>
                <polygon id="Fill-784" fill="#0740EC" points="130.5794 181.1341 128.7004 181.8181 125.9644 174.3011 127.8434 173.6161"></polygon>
                <polygon id="Fill-785" fill="#0740EC" points="61.8816 32.161 60.1496 33.161 56.1496 26.233 57.8816 25.233"></polygon>
                <polygon id="Fill-786" fill="#0740EC" points="144.1316 174.6224 142.3996 175.6224 138.3996 168.6944 140.1316 167.6944"></polygon>
                <polygon id="Fill-787" fill="#0740EC" points="50.6087 39.8416 49.0767 41.1276 43.9337 34.9986 45.4657 33.7136"></polygon>
                <polygon id="Fill-788" fill="#0740EC" points="156.347 165.8563 154.815 167.1423 149.673 161.0133 151.205 159.7283"></polygon>
                <polygon id="Fill-789" fill="#0740EC" points="40.8406 49.3636 39.5546 50.8956 33.4266 45.7536 34.7126 44.2206"></polygon>
                <polygon id="Fill-790" fill="#0740EC" points="166.8547 155.1019 165.5687 156.6339 159.4407 151.4919 160.7267 149.9599"></polygon>
                <polygon id="Fill-791" fill="#0740EC" points="32.8743 60.4363 31.8743 62.1683 24.9463 58.1683 25.9463 56.4363"></polygon>
                <polygon id="Fill-792" fill="#0740EC" points="175.3352 142.6863 174.3352 144.4183 167.4072 140.4183 168.4072 138.6863"></polygon>
                <polygon id="Fill-793" fill="#0740EC" points="26.9514 72.7249 26.2674 74.6039 18.7504 71.8679 19.4334 69.9889"></polygon>
                <polygon id="Fill-794" fill="#0740EC" points="181.531 128.9871 180.847 130.8661 173.329 128.1301 174.013 126.2511"></polygon>
                <polygon id="Fill-795" fill="#0740EC" points="23.2532 85.8548 22.9052 87.8248 15.0272 86.4358 15.3752 84.4658"></polygon>
                <polygon id="Fill-796" fill="#0740EC" points="185.2537 114.4197 184.9067 116.3897 177.0277 115.0007 177.3757 113.0307"></polygon>
                <polygon id="Fill-797" fill="#0740EC" points="13.89 101.428 21.89 101.428 21.89 99.428 13.89 99.428"></polygon>
                <polygon id="Fill-798" fill="#0740EC" points="178.39 101.428 186.39 101.428 186.39 99.428 178.39 99.428"></polygon>
                <polygon id="Fill-799" fill="#0740EC" points="22.9055 113.0306 23.2535 115.0006 15.3745 116.3896 15.0275 114.4196"></polygon>
                <polygon id="Fill-800" fill="#0740EC" points="184.9065 84.4656 185.2535 86.4356 177.3755 87.8246 177.0285 85.8546"></polygon>
                <polygon id="Fill-801" fill="#0740EC" points="26.2674 126.2508 26.9514 128.1298 19.4344 130.8668 18.7504 128.9868"></polygon>
                <polygon id="Fill-802" fill="#0740EC" points="180.8469 69.9886 181.5309 71.8676 174.0139 74.6046 173.3289 72.7246"></polygon>
                <polygon id="Fill-803" fill="#0740EC" points="31.8743 138.6863 32.8743 140.4183 25.9463 144.4183 24.9463 142.6863"></polygon>
                <polygon id="Fill-804" fill="#0740EC" points="174.3352 56.4363 175.3352 58.1683 168.4072 62.1683 167.4072 60.4363"></polygon>
                <polygon id="Fill-805" fill="#0740EC" points="39.555 149.9598 40.841 151.4918 34.712 156.6338 33.427 155.1018"></polygon>
                <polygon id="Fill-806" fill="#0740EC" points="165.5691 44.221 166.8551 45.753 160.7261 50.895 159.4411 49.364"></polygon>
                <polygon id="Fill-807" fill="#0740EC" points="49.0764 159.7279 50.6084 161.0139 45.4664 167.1419 43.9334 165.8559"></polygon>
                <polygon id="Fill-808" fill="#0740EC" points="154.8147 33.7132 156.3467 34.9992 151.2047 41.1272 149.6727 39.8412"></polygon>
                <polygon id="Fill-809" fill="#0740EC" points="60.1497 167.6942 61.8817 168.6942 57.8817 175.6222 56.1497 174.6222"></polygon>
                <polygon id="Fill-810" fill="#0740EC" points="142.3997 25.2327 144.1317 26.2327 140.1317 33.1607 138.3997 32.1607"></polygon>
                <polygon id="Fill-811" fill="#0740EC" points="72.4378 173.6165 74.3168 174.3005 71.5808 181.8185 69.7018 181.1345"></polygon>
                <polygon id="Fill-812" fill="#0740EC" points="128.7 19.0369 130.579 19.7209 127.844 27.2389 125.964 26.5549"></polygon>
                <polygon id="Fill-813" fill="#0740EC" points="85.5677 177.3153 87.5377 177.6623 86.1487 185.5413 84.1787 185.1933"></polygon>
                <polygon id="Fill-814" fill="#0740EC" points="114.1331 15.3143 116.1021 15.6613 114.7131 23.5403 112.7441 23.1923"></polygon>
            </g>
        </g>
    </g>
</svg>