<?xml version="1.0" encoding="UTF-8"?>
<svg width="215px" height="180px" viewBox="0 0 215 180" version="1.1" xmlns="http://www.w3.org/2000/svg" xmlns:xlink="http://www.w3.org/1999/xlink">
    <!-- Generator: Sketch 51.2 (57519) - http://www.bohemiancoding.com/sketch -->
    <title>QTUM</title>
    <desc>Created with Sketch.</desc>
    <defs></defs>
    <g id="Page-1" stroke="none" stroke-width="1" fill="none" fill-rule="evenodd">
        <g id="Artboard" transform="translate(-1117.000000, -2366.000000)" fill="#2EA6DF">
            <g id="QTUM" transform="translate(1117.000000, 2365.000000)">
                <path d="M68.4763,174.0618 L122.1403,174.0618 L165.5533,142.5198 L182.1363,91.4818 L165.5533,40.4438 L122.1403,8.9018 L68.4763,8.9018 L25.0623,40.4438 L8.4793,91.4818 L25.0623,142.5198 L68.4763,174.0618 Z M123.0963,177.0068 L67.5193,177.0068 L67.1323,176.7268 L22.5563,144.3388 L5.3813,91.4818 L22.5563,38.6248 L67.5193,5.9568 L123.0963,5.9568 L168.0593,38.6248 L185.2343,91.4818 L168.0593,144.3388 L123.0963,177.0068 Z" id="Fill-706"></path>
                <path d="M73.6663,7.43 C73.6663,10.982 70.7873,13.861 67.2343,13.861 C63.6833,13.861 60.8033,10.982 60.8033,7.43 C60.8033,3.878 63.6833,0.998 67.2343,0.998 C70.7873,0.998 73.6663,3.878 73.6663,7.43" id="Fill-708"></path>
                <path d="M128.9016,7.43 C128.9016,10.982 126.0216,13.861 122.4696,13.861 C118.9186,13.861 116.0386,10.982 116.0386,7.43 C116.0386,3.878 118.9186,0.998 122.4696,0.998 C126.0216,0.998 128.9016,3.878 128.9016,7.43" id="Fill-710"></path>
                <path d="M74.1218,174.5672 C74.1218,178.1192 71.2428,180.9982 67.6898,180.9982 C64.1388,180.9982 61.2588,178.1192 61.2588,174.5672 C61.2588,171.0152 64.1388,168.1352 67.6898,168.1352 C71.2428,168.1352 74.1218,171.0152 74.1218,174.5672" id="Fill-712"></path>
                <path d="M29.9333,143.4974 C29.9333,147.0494 27.0543,149.9284 23.5023,149.9284 C19.9503,149.9284 17.0703,147.0494 17.0703,143.4974 C17.0703,139.9454 19.9503,137.0654 23.5023,137.0654 C27.0543,137.0654 29.9333,139.9454 29.9333,143.4974" id="Fill-714"></path>
                <path d="M13.3621,91.4818 C13.3621,95.0338 10.4821,97.9128 6.9301,97.9128 C3.3791,97.9128 0.4991,95.0338 0.4991,91.4818 C0.4991,87.9298 3.3791,85.0498 6.9301,85.0498 C10.4821,85.0498 13.3621,87.9298 13.3621,91.4818" id="Fill-716"></path>
                <path d="M29.9333,39.6986 C29.9333,43.2506 27.0543,46.1306 23.5023,46.1306 C19.9503,46.1306 17.0703,43.2506 17.0703,39.6986 C17.0703,36.1466 19.9503,33.2676 23.5023,33.2676 C27.0543,33.2676 29.9333,36.1466 29.9333,39.6986" id="Fill-718"></path>
                <path d="M177.2395,91.3655 C177.2395,94.9175 180.1185,97.7965 183.6705,97.7965 C187.2225,97.7965 190.1025,94.9175 190.1025,91.3655 C190.1025,87.8135 187.2225,84.9335 183.6705,84.9335 C180.1185,84.9335 177.2395,87.8135 177.2395,91.3655" id="Fill-720"></path>
                <path d="M160.6677,39.5823 C160.6677,43.1343 163.5467,46.0133 167.0997,46.0133 C170.6507,46.0133 173.5307,43.1343 173.5307,39.5823 C173.5307,36.0303 170.6507,33.1513 167.0997,33.1513 C163.5467,33.1513 160.6677,36.0303 160.6677,39.5823" id="Fill-722"></path>
                <path d="M129.3567,174.5672 C129.3567,178.1192 126.4777,180.9982 122.9257,180.9982 C119.3737,180.9982 116.4937,178.1192 116.4937,174.5672 C116.4937,171.0152 119.3737,168.1352 122.9257,168.1352 C126.4777,168.1352 129.3567,171.0152 129.3567,174.5672" id="Fill-724"></path>
                <path d="M61.2678,129.3577 L61.7268,129.5107 L97.6258,141.5607 L138.1928,129.3427 L165.6268,140.9977 L165.6268,41.8087 L138.1928,53.4627 L97.6258,41.2457 L61.2678,53.4487 L60.8058,53.3017 L24.9748,41.7237 L24.9748,141.0827 L61.2678,129.3577 Z M168.5718,145.4497 L138.0218,132.4717 L97.5778,144.6537 L61.2498,132.4577 L22.0298,145.1317 L22.0298,37.6747 L61.2498,50.3487 L97.5778,38.1527 L98.0258,38.2897 L138.0218,50.3347 L168.5718,37.3567 L168.5718,145.4497 Z" id="Fill-726"></path>
                <polygon id="Fill-728" points="6.9309 92.9549 6.9289 90.0099 183.6699 89.8929 183.6719 92.8379"></polygon>
                <path d="M99.304,39.9046 L120.398,87.4006 L136.521,51.8286 L121.981,10.4776 L99.304,39.9046 Z M62.77,51.7136 L76.971,87.4966 L95.886,40.0246 L68.282,10.6926 L62.77,51.7136 Z M25.539,91.4806 L60.739,128.2336 L75.384,91.4806 L60.738,54.5796 L25.539,91.4806 Z M78.554,91.4806 L97.662,139.2896 L118.774,91.0026 L97.675,43.4936 L78.554,91.4806 Z M62.774,131.0856 L68.707,171.3616 L95.884,142.7766 L76.97,95.4556 L62.774,131.0856 Z M99.309,142.8786 L122.407,171.5736 L136.525,130.9736 L120.394,94.6506 L99.309,142.8786 Z M66.674,177.7726 L59.87,131.5876 L21.465,91.4846 L59.863,51.2286 L66.187,4.1666 L97.49,37.4316 L122.959,4.3806 L139.693,51.9686 L121.998,91.0046 L139.69,130.8416 L123.445,177.5606 L97.51,145.3426 L66.674,177.7726 Z" id="Fill-730"></path>
                <polygon id="Fill-732" points="139.2937 131.7796 136.9207 130.0356 165.2727 91.4806 136.9187 52.7696 139.2957 51.0286 168.9257 91.4846"></polygon>
                <path d="M54.3723,51.8988 C54.3723,55.4508 57.2513,58.3308 60.8033,58.3308 C64.3553,58.3308 67.2343,55.4508 67.2343,51.8988 C67.2343,48.3468 64.3553,45.4678 60.8033,45.4678 C57.2513,45.4678 54.3723,48.3468 54.3723,51.8988" id="Fill-734"></path>
                <path d="M91.1702,39.6986 C91.1702,43.2506 94.0492,46.1306 97.6012,46.1306 C101.1532,46.1306 104.0332,43.2506 104.0332,39.6986 C104.0332,36.1466 101.1532,33.2676 97.6012,33.2676 C94.0492,33.2676 91.1702,36.1466 91.1702,39.6986" id="Fill-736"></path>
                <path d="M142.655,47.3514 C140.143,44.8394 136.071,44.8394 133.56,47.3514 C131.048,49.8634 131.048,53.9344 133.56,56.4464 C136.071,58.9584 140.143,58.9584 142.655,56.4464 C145.166,53.9344 145.166,49.8634 142.655,47.3514" id="Fill-738"></path>
                <path d="M29.9333,90.9984 C29.9333,87.4464 27.0543,84.5674 23.5023,84.5674 C19.9503,84.5674 17.0703,87.4464 17.0703,90.9984 C17.0703,94.5504 19.9503,97.4304 23.5023,97.4304 C27.0543,97.4304 29.9333,94.5504 29.9333,90.9984" id="Fill-740"></path>
                <path d="M82.1658,90.9984 C82.1658,87.4464 79.2868,84.5674 75.7348,84.5674 C72.1828,84.5674 69.3028,87.4464 69.3028,90.9984 C69.3028,94.5504 72.1828,97.4304 75.7348,97.4304 C79.2868,97.4304 82.1658,94.5504 82.1658,90.9984" id="Fill-742"></path>
                <path d="M125.8938,90.9984 C125.8938,87.4464 123.0148,84.5674 119.4618,84.5674 C115.9108,84.5674 113.0308,87.4464 113.0308,90.9984 C113.0308,94.5504 115.9108,97.4304 119.4618,97.4304 C123.0148,97.4304 125.8938,94.5504 125.8938,90.9984" id="Fill-744"></path>
                <path d="M173.5305,91.4818 C173.5305,87.9298 170.6515,85.0498 167.0995,85.0498 C163.5475,85.0498 160.6675,87.9298 160.6675,91.4818 C160.6675,95.0338 163.5475,97.9128 167.0995,97.9128 C170.6515,97.9128 173.5305,95.0338 173.5305,91.4818" id="Fill-746"></path>
                <path d="M144.5388,130.9075 C144.5388,127.3555 141.6588,124.4765 138.1068,124.4765 C134.5558,124.4765 131.6758,127.3555 131.6758,130.9075 C131.6758,134.4595 134.5558,137.3395 138.1068,137.3395 C141.6588,137.3395 144.5388,134.4595 144.5388,130.9075" id="Fill-748"></path>
                <path d="M214.4207,163.2957 C214.4207,158.2707 210.3467,154.1967 205.3217,154.1967 C200.2957,154.1967 196.2227,158.2707 196.2227,163.2957 C196.2227,168.3207 200.2957,172.3947 205.3217,172.3947 C210.3467,172.3947 214.4207,168.3207 214.4207,163.2957" id="Fill-750"></path>
                <path d="M95.0984,137.3402 C91.8264,138.7222 90.2944,142.4962 91.6774,145.7682 C93.0594,149.0392 96.8324,150.5712 100.1044,149.1892 C103.3764,147.8062 104.9084,144.0332 103.5254,140.7612 C102.1434,137.4892 98.3704,135.9582 95.0984,137.3402" id="Fill-752"></path>
                <path d="M58.3005,124.9832 C55.0285,126.3652 53.4965,130.1392 54.8795,133.4102 C56.2615,136.6822 60.0345,138.2142 63.3065,136.8322 C66.5785,135.4492 68.1105,131.6762 66.7275,128.4042 C65.3455,125.1322 61.5725,123.6012 58.3005,124.9832" id="Fill-754"></path>
                <polygon id="Fill-756" points="204.635 164.5989 166.131 144.7379 167.482 142.1199 205.985 161.9809"></polygon>
            </g>
        </g>
    </g>
</svg>