<?xml version="1.0" encoding="UTF-8"?>
<svg width="201px" height="201px" viewBox="0 0 201 201" version="1.1" xmlns="http://www.w3.org/2000/svg" xmlns:xlink="http://www.w3.org/1999/xlink">
    <!-- Generator: Sketch 51.2 (57519) - http://www.bohemiancoding.com/sketch -->
    <title>SAN</title>
    <desc>Created with Sketch.</desc>
    <defs></defs>
    <g id="Page-1" stroke="none" stroke-width="1" fill="none" fill-rule="evenodd">
        <g id="Artboard" transform="translate(-762.000000, -5763.000000)">
            <g id="SAN" transform="translate(762.000000, 5763.000000)">
                <path d="M200.3679,100.8153 C200.3679,156.0443 155.5969,200.8153 100.3679,200.8153 C45.1399,200.8153 0.3679,156.0443 0.3679,100.8153 C0.3679,45.5863 45.1399,0.8153 100.3679,0.8153 C155.5969,0.8153 200.3679,45.5863 200.3679,100.8153" id="Fill-372" fill="#000000"></path>
                <path d="M190.6711,100.8153 C190.6711,150.6883 150.2411,191.1183 100.3681,191.1183 C50.4951,191.1183 10.0651,150.6883 10.0651,100.8153 C10.0651,50.9423 50.4951,10.5113 100.3681,10.5113 C150.2411,10.5113 190.6711,50.9423 190.6711,100.8153" id="Fill-373" fill="#FFFFFF"></path>
                <path d="M123.4319,64.9217 C120.0199,63.0117 113.4689,60.2817 104.8709,60.2817 C92.4529,60.2817 87.2659,67.5147 87.2659,74.2017 C87.2659,83.0727 93.1349,87.4407 106.3719,93.1717 C123.1589,100.5417 131.2109,109.6857 131.2109,124.0157 C131.2109,141.4847 118.2459,154.5857 94.7719,154.5857 C84.9459,154.5857 74.5739,151.7197 69.5249,148.3077 L73.0729,135.0697 C78.6679,138.4817 87.1299,141.2107 95.7279,141.2107 C108.1469,141.2107 115.1069,134.7967 115.1069,125.3797 C115.1069,116.5097 109.7849,111.0507 97.3659,105.8637 C81.8069,99.5867 71.2989,90.1697 71.2989,75.9767 C71.2989,59.4627 84.5359,47.0437 105.2809,47.0437 C115.2439,47.0437 122.7489,49.4997 127.2529,51.8197 L123.4319,64.9217 Z" id="Fill-374" fill="#000000"></path>
                <path d="M169.9373,99.6395 C169.9373,106.8575 164.0863,112.7085 156.8683,112.7085 C149.6493,112.7085 143.7983,106.8575 143.7983,99.6395 C143.7983,92.4205 149.6493,86.5695 156.8683,86.5695 C164.0863,86.5695 169.9373,92.4205 169.9373,99.6395" id="Fill-375" fill="#000000"></path>
                <path d="M56.9373,99.6395 C56.9373,106.8575 51.0863,112.7085 43.8683,112.7085 C36.6493,112.7085 30.7983,106.8575 30.7983,99.6395 C30.7983,92.4205 36.6493,86.5695 43.8683,86.5695 C51.0863,86.5695 56.9373,92.4205 56.9373,99.6395" id="Fill-376" fill="#000000"></path>
            </g>
        </g>
    </g>
</svg>