<?xml version="1.0" encoding="UTF-8"?>
<svg width="201px" height="201px" viewBox="0 0 201 201" version="1.1" xmlns="http://www.w3.org/2000/svg" xmlns:xlink="http://www.w3.org/1999/xlink">
    <!-- Generator: Sketch 51.2 (57519) - http://www.bohemiancoding.com/sketch -->
    <title>SC</title>
    <desc>Created with Sketch.</desc>
    <defs></defs>
    <g id="Page-1" stroke="none" stroke-width="1" fill="none" fill-rule="evenodd">
        <g id="Artboard" transform="translate(-750.000000, -4266.000000)">
            <g id="SC" transform="translate(750.000000, 4266.000000)">
                <path d="M100.5491,200.0696 C45.4091,200.0696 0.5491,155.2096 0.5491,100.0696 C0.5491,79.4426 6.7781,59.6376 18.5641,42.7966 L24.2321,46.7636 C13.2641,62.4346 7.4671,80.8676 7.4671,100.0696 C7.4671,151.3956 49.2231,193.1516 100.5491,193.1516 C151.8751,193.1516 193.6311,151.3956 193.6311,100.0696 C193.6311,48.7436 151.8751,6.9876 100.5491,6.9876 C82.8971,6.9876 65.7201,11.9486 50.8751,21.3356 L47.1781,15.4876 C63.1311,5.4016 81.5861,0.0696 100.5491,0.0696 C155.6891,0.0696 200.5491,44.9296 200.5491,100.0696 C200.5491,155.2096 155.6891,200.0696 100.5491,200.0696" id="Fill-126" fill="#333333"></path>
                <path d="M120.0852,125.3201 L100.2722,125.3201 C86.4092,125.3201 74.6732,114.6051 73.9552,100.7611 C73.1782,85.8071 85.0702,73.4351 99.8552,73.4351 C114.1762,73.4351 125.7862,85.0391 125.7972,99.3601 L125.7972,119.6081 C125.7972,122.7621 123.2402,125.3201 120.0852,125.3201 M99.8552,49.5691 C91.8342,49.5691 84.2612,51.4621 77.5512,54.8281 C75.3122,55.9521 72.8322,56.5281 70.3262,56.4951 C65.4782,56.4321 59.9522,55.6931 56.9982,53.0281 C51.0012,47.6111 41.4332,38.0361 41.4332,38.0361 C41.4332,38.0361 39.9432,36.6061 39.0982,32.9001 C39.0932,31.9391 39.0872,31.0081 39.0822,30.0481 C39.2042,29.4041 39.2682,28.7401 39.2682,28.0611 C39.2682,22.0221 34.2292,17.1531 28.1212,17.4321 C22.7012,17.6801 18.2402,22.1401 17.9932,27.5611 C17.7132,33.6681 22.5822,38.7071 28.6212,38.7071 C29.9902,38.7071 31.3052,38.4451 32.5092,37.9741 L32.5162,37.9741 C34.8612,37.8081 37.8772,39.7241 40.1672,41.9591 C44.1062,45.8101 50.2362,52.4301 52.5822,54.9801 C53.3522,55.8171 54.0072,56.7501 54.5112,57.7701 C55.2802,59.3261 56.3492,61.8971 57.1242,65.3721 C57.9462,69.0621 57.4572,72.9521 55.7032,76.3011 C52.0872,83.1991 50.0452,91.0531 50.0452,99.3781 C50.0452,125.5481 70.2392,147.0071 95.8912,149.0281 C97.1982,149.1321 98.5202,149.1871 99.8552,149.1871 L144.5442,149.1871 C147.3602,149.1871 149.6642,146.8831 149.6642,144.0601 L149.6642,99.3501 C149.6502,71.8581 127.3602,49.5691 99.8552,49.5691" id="Fill-128" fill="#00DFA8"></path>
            </g>
        </g>
    </g>
</svg>