<?xml version="1.0" encoding="UTF-8"?>
<svg width="201px" height="200px" viewBox="0 0 201 200" version="1.1" xmlns="http://www.w3.org/2000/svg" xmlns:xlink="http://www.w3.org/1999/xlink">
    <!-- Generator: Sketch 51.2 (57519) - http://www.bohemiancoding.com/sketch -->
    <title>SNGLS</title>
    <desc>Created with Sketch.</desc>
    <defs></defs>
    <g id="Page-1" stroke="none" stroke-width="1" fill="none" fill-rule="evenodd">
        <g id="Artboard" transform="translate(-414.000000, -7697.000000)">
            <g id="SNGLS" transform="translate(414.000000, 7697.000000)">
                <path d="M200.9573,99.9999 C200.9573,155.2289 156.1853,199.9999 100.9573,199.9999 C45.7283,199.9999 0.9573,155.2289 0.9573,99.9999 C0.9573,44.7709 45.7283,-9.99999997e-05 100.9573,-9.99999997e-05 C156.1853,-9.99999997e-05 200.9573,44.7709 200.9573,99.9999" id="Fill-849" fill="#F4F4F4"></path>
                <path d="M29.3143,101.0612 C29.3143,101.0612 52.1473,80.9852 87.3793,76.5782 L82.7173,84.2172 L86.5433,92.4672 L96.9923,75.8002 C98.3003,75.7542 99.6223,75.7282 100.9573,75.7282 C102.5433,75.7282 104.1103,75.7642 105.6573,75.8312 L115.3573,92.4672 L119.3033,84.3372 L114.5613,76.5812 C149.7783,80.9952 172.5993,101.0612 172.5993,101.0612 C172.5993,101.0612 147.1823,121.7932 112.1273,125.6792 L127.4343,98.4462 L123.0103,90.7942 L105.0093,126.2202 C103.6693,126.2752 102.3193,126.3032 100.9573,126.3032 C99.5863,126.3032 98.2273,126.2742 96.8803,126.2182 L78.7713,90.7942 L74.3473,98.3262 L89.6753,125.6672 C54.6783,121.7492 29.3143,101.0612 29.3143,101.0612 Z M107.4693,133.9672 C149.4783,131.0562 180.6393,101.0762 180.6393,101.0762 C180.6393,101.0762 152.3573,71.7402 109.4313,68.1892 L100.9573,54.3272 L92.4993,68.1872 C49.5643,71.7332 21.2743,101.0762 21.2743,101.0762 C21.2743,101.0762 52.3753,130.9992 94.3233,133.9592 L100.8903,145.6732 L107.4693,133.9672 Z" id="Fill-851" fill="#B0191A"></path>
            </g>
        </g>
    </g>
</svg>