<?xml version="1.0" encoding="UTF-8"?>
<svg width="201px" height="201px" viewBox="0 0 201 201" version="1.1" xmlns="http://www.w3.org/2000/svg" xmlns:xlink="http://www.w3.org/1999/xlink">
    <!-- Generator: Sketch 51.2 (57519) - http://www.bohemiancoding.com/sketch -->
    <title>SNT</title>
    <desc>Created with Sketch.</desc>
    <defs></defs>
    <g id="Page-1" stroke="none" stroke-width="1" fill="none" fill-rule="evenodd">
        <g id="Artboard" transform="translate(-762.000000, -4630.000000)">
            <g id="SNT" transform="translate(762.000000, 4630.000000)">
                <path d="M200.3679,100.8367 C200.3679,156.0657 155.5969,200.8367 100.3679,200.8367 C45.1399,200.8367 0.3679,156.0657 0.3679,100.8367 C0.3679,45.6077 45.1399,0.8367 100.3679,0.8367 C155.5969,0.8367 200.3679,45.6077 200.3679,100.8367" id="Fill-170" fill="#F4F4F4"></path>
                <path d="M63.9134,94.3279 C63.9134,94.3279 73.7264,46.9359 114.2584,39.2519 C154.7904,31.5659 163.3244,55.4749 163.7504,65.2959 C164.1774,75.1149 156.4974,99.4519 121.0854,96.4629 C84.8194,90.0579 63.9134,94.3279 63.9134,94.3279" id="Fill-172" fill="#4957B8"></path>
                <path d="M136.8225,107.3446 C136.8225,107.3446 127.0095,154.7366 86.4775,162.4216 C45.9445,170.1066 37.4115,146.1976 36.9855,136.3776 C36.5585,126.5576 44.2385,102.2216 79.6505,105.2096 C115.9165,111.6146 136.8225,107.3446 136.8225,107.3446" id="Fill-174" fill="#4957B8"></path>
            </g>
        </g>
    </g>
</svg>