<?xml version="1.0" encoding="UTF-8"?>
<svg width="201px" height="201px" viewBox="0 0 201 201" version="1.1" xmlns="http://www.w3.org/2000/svg" xmlns:xlink="http://www.w3.org/1999/xlink">
    <!-- Generator: Sketch 51.2 (57519) - http://www.bohemiancoding.com/sketch -->
    <title>START</title>
    <desc>Created with Sketch.</desc>
    <defs></defs>
    <g id="Page-1" stroke="none" stroke-width="1" fill="none" fill-rule="evenodd">
        <g id="Artboard" transform="translate(-758.000000, -2738.000000)">
            <g id="START" transform="translate(758.000000, 2738.000000)">
                <path d="M100.5716,0.9197 C45.3426,0.9197 0.5716,45.6907 0.5716,100.9197 C0.5716,156.1487 45.3426,200.9197 100.5716,200.9197 C155.8006,200.9197 200.5716,156.1487 200.5716,100.9197 C200.5716,45.6907 155.8006,0.9197 100.5716,0.9197" id="Fill-698" fill="#0E86CB"></path>
                <path d="M100.5716,8.9197 C151.3006,8.9197 192.5716,50.1907 192.5716,100.9197 C192.5716,151.6487 151.3006,192.9197 100.5716,192.9197 C49.8426,192.9197 8.5716,151.6487 8.5716,100.9197 C8.5716,50.1907 49.8426,8.9197 100.5716,8.9197" id="Fill-700" fill="#FFFFFF"></path>
                <path d="M100.5721,161.7039 C99.8821,161.7039 99.1911,161.5249 98.5721,161.1679 L31.6391,122.5239 C29.7261,121.4199 29.0711,118.9739 30.1761,117.0599 C31.2791,115.1469 33.7261,114.4899 35.6391,115.5969 L100.5721,153.0849 L163.5051,116.7509 L163.5051,108.0389 L102.5721,143.2189 C101.3341,143.9329 99.8101,143.9329 98.5721,143.2189 L31.6391,104.5749 C30.4021,103.8609 29.6391,102.5399 29.6391,101.1109 L29.6391,82.7789 C29.6391,80.5699 31.4301,78.7789 33.6391,78.7789 C35.8481,78.7789 37.6391,80.5699 37.6391,82.7789 L37.6391,98.8019 L100.5721,135.1359 L165.5051,97.6469 C166.7431,96.9329 168.2661,96.9329 169.5051,97.6469 C170.7421,98.3609 171.5051,99.6829 171.5051,101.1109 L171.5051,119.0599 C171.5051,120.4889 170.7421,121.8099 169.5051,122.5239 L102.5721,161.1679 C101.9531,161.5249 101.2621,161.7039 100.5721,161.7039" id="Fill-702" fill="#0E86CB"></path>
                <path d="M41.6394,82.7791 L100.5724,116.8041 L159.5044,82.7801 L100.5724,48.7551 L41.6394,82.7791 Z M100.5724,125.4241 C99.8814,125.4241 99.1914,125.2451 98.5724,124.8871 L31.6394,86.2431 C30.4024,85.5291 29.6394,84.2081 29.6394,82.7791 C29.6394,81.3501 30.4024,80.0291 31.6394,79.3151 L98.5724,40.6721 C99.8104,39.9571 101.3334,39.9571 102.5724,40.6721 L169.5044,79.3161 C170.7424,80.0301 171.5044,81.3511 171.5044,82.7801 C171.5044,84.2091 170.7424,85.5301 169.5044,86.2441 L102.5724,124.8871 C101.9524,125.2451 101.2624,125.4241 100.5724,125.4241 Z" id="Fill-704" fill="#0E86CB"></path>
            </g>
        </g>
    </g>
</svg>