<?xml version="1.0" encoding="UTF-8"?>
<svg width="200px" height="201px" viewBox="0 0 200 201" version="1.1" xmlns="http://www.w3.org/2000/svg" xmlns:xlink="http://www.w3.org/1999/xlink">
    <!-- Generator: Sketch 51.2 (57519) - http://www.bohemiancoding.com/sketch -->
    <title>STEEM</title>
    <desc>Created with Sketch.</desc>
    <defs></defs>
    <g id="Page-1" stroke="none" stroke-width="1" fill="none" fill-rule="evenodd">
        <g id="Artboard" transform="translate(-405.000000, -3906.000000)">
            <g id="STEEM" transform="translate(405.000000, 3906.000000)">
                <path d="M199.9998,100.8675 C199.9998,156.0965 155.2288,200.8675 99.9998,200.8675 C44.7718,200.8675 -0.0002,156.0965 -0.0002,100.8675 C-0.0002,45.6385 44.7718,0.8675 99.9998,0.8675 C155.2288,0.8675 199.9998,45.6385 199.9998,100.8675" id="Fill-103" fill="#174F9B"></path>
                <path d="M191.7957,100.8675 C191.7957,151.5645 150.6977,192.6635 99.9997,192.6635 C49.3027,192.6635 8.2047,151.5645 8.2047,100.8675 C8.2047,50.1695 49.3027,9.0715 99.9997,9.0715 C150.6977,9.0715 191.7957,50.1695 191.7957,100.8675" id="Fill-106" fill="#FFFFFF"></path>
                <path d="M58.5501,150.9407 C58.6481,150.3007 58.6971,149.6487 58.8511,149.0217 C59.7941,145.1707 60.8231,141.3407 61.7021,137.4757 C62.7761,132.7547 61.8741,128.2527 59.8641,123.9377 C55.5041,114.5717 51.0921,105.2297 46.7451,95.8577 C43.9261,89.7797 41.3861,83.5957 39.8391,77.0447 C38.8901,73.0247 39.4381,69.2517 41.5201,65.7087 C44.8181,60.0967 49.1791,55.4347 54.3651,51.5347 C55.0081,51.0517 55.8171,50.7887 56.5481,50.4227 C56.6791,50.5187 56.8111,50.6147 56.9421,50.7107 C56.7751,52.5967 56.7351,54.5047 56.4171,56.3647 C54.9841,64.7427 56.5161,72.5757 60.2081,80.1717 C65.0991,90.2357 69.8441,100.3737 74.4661,110.5647 C76.4961,115.0407 78.1801,119.6967 78.7261,124.6487 C78.9891,127.0397 78.5481,129.3417 77.3211,131.4247 C73.0931,138.5977 67.6921,144.7687 61.2341,150.0097 C60.5671,150.5507 59.7311,150.8827 58.9741,151.3117 C58.8321,151.1877 58.6911,151.0647 58.5501,150.9407" id="Fill-108" fill="#174F9B"></path>
                <path d="M99.2757,166.5965 C99.4037,165.7565 99.4697,164.9005 99.6717,164.0775 C100.9087,159.0235 102.2597,153.9945 103.4137,148.9215 C104.8227,142.7245 103.6387,136.8145 101.0017,131.1505 C95.2767,118.8565 89.4857,106.5935 83.7797,94.2905 C80.0797,86.3135 76.7457,78.1965 74.7147,69.5965 C73.4687,64.3205 74.1887,59.3665 76.9217,54.7155 C81.2507,47.3495 86.9757,41.2295 93.7827,36.1115 C94.6267,35.4765 95.6877,35.1315 96.6487,34.6515 C96.8207,34.7775 96.9927,34.9035 97.1657,35.0285 C96.9447,37.5045 96.8937,40.0095 96.4757,42.4515 C94.5937,53.4485 96.6067,63.7295 101.4527,73.7015 C107.8737,86.9115 114.1007,100.2195 120.1677,113.5965 C122.8327,119.4715 125.0437,125.5835 125.7597,132.0845 C126.1057,135.2215 125.5257,138.2445 123.9147,140.9785 C118.3657,150.3935 111.2767,158.4945 102.7977,165.3755 C101.9237,166.0845 100.8257,166.5205 99.8317,167.0835 C99.6467,166.9215 99.4617,166.7595 99.2757,166.5965" id="Fill-110" fill="#47A0F4"></path>
                <path d="M160.6111,125.6658 C160.5661,128.3458 159.8571,130.5468 158.5891,132.5828 C154.4761,139.1878 149.4261,144.9768 143.4411,149.9458 C142.9641,150.3428 142.4601,150.7288 141.9111,151.0098 C141.5211,151.2088 141.0351,151.2218 140.5921,151.3168 C140.5361,150.8268 140.3381,150.3008 140.4471,149.8508 C140.9921,147.6228 141.6641,145.4258 142.2031,143.1968 C142.7761,140.8298 143.3721,138.4568 143.7401,136.0528 C144.3851,131.8398 143.3421,127.8668 141.5801,124.0748 C137.2031,114.6598 132.7471,105.2808 128.3891,95.8568 C125.5571,89.7328 122.9611,83.5108 121.5321,76.8738 C120.7461,73.2218 121.1871,69.7308 123.0291,66.4618 C126.3541,60.5668 130.8811,55.7428 136.2701,51.6958 C136.3841,51.6098 136.4991,51.4998 136.6311,51.4638 C137.2381,51.2988 137.8531,51.1568 138.4641,51.0068 C138.5211,51.6018 138.6871,52.2098 138.6171,52.7898 C137.9011,58.7758 136.7701,64.7878 138.5031,70.7458 C139.4861,74.1258 140.7261,77.4628 142.1821,80.6688 C147.0691,91.4258 152.2341,102.0568 157.0101,112.8608 C158.5981,116.4538 159.3441,120.4218 160.4441,124.2268 C160.6001,124.7688 160.5791,125.3628 160.6111,125.6658" id="Fill-112" fill="#174F9B"></path>
            </g>
        </g>
    </g>
</svg>