<?xml version="1.0" encoding="UTF-8"?>
<svg width="178px" height="201px" viewBox="0 0 178 201" version="1.1" xmlns="http://www.w3.org/2000/svg" xmlns:xlink="http://www.w3.org/1999/xlink">
    <!-- Generator: Sketch 51.2 (57519) - http://www.bohemiancoding.com/sketch -->
    <title>STORJ</title>
    <desc>Created with Sketch.</desc>
    <defs></defs>
    <g id="Page-1" stroke="none" stroke-width="1" fill="none" fill-rule="evenodd">
        <g id="Artboard" transform="translate(-1809.000000, -6532.000000)" fill="#2583FF">
            <g id="STORJ" transform="translate(1809.000000, 6532.000000)">
                <path d="M50.3088,116.8162 C49.5968,117.3082 49.1138,117.6972 48.5818,118.0022 C41.3618,122.1472 34.1158,126.2502 26.9228,130.4442 C25.4438,131.3072 24.2118,131.4502 22.6888,130.5542 C19.7588,128.8312 16.5988,128.4682 13.2518,129.2292 C6.4698,130.7712 1.8268,138.3452 3.5908,145.1292 C5.5158,152.5262 12.9818,156.8902 19.9868,154.7062 C26.0048,152.8292 29.0678,148.6062 29.4748,142.4382 C29.5988,140.5642 30.3168,139.4382 31.9538,138.5112 C39.9838,133.9662 47.9648,129.3352 55.9298,124.6742 C57.4478,123.7872 58.7658,123.6592 60.4098,124.4272 C64.1398,126.1722 68.2078,126.9512 72.1818,126.0502 C75.7648,125.2382 78.7608,125.7672 81.9258,127.4052 C83.6348,128.2882 84.1968,129.2342 84.1868,131.0662 C84.1198,143.4292 84.0868,155.7942 84.1968,168.1562 C84.2168,170.4832 83.5808,171.8792 81.5578,173.1852 C75.5518,177.0632 74.0718,185.2122 78.0318,191.1802 C82.0438,197.2302 90.1768,198.9232 96.1958,194.9632 C104.3748,189.5812 104.1578,177.8132 95.7608,172.6862 C94.6518,172.0082 93.7658,171.4172 93.7728,169.8562 C93.8298,157.1462 93.8228,144.4352 93.7828,131.7252 C93.7778,130.3352 94.3258,129.7142 95.6278,129.4802 C97.8098,129.0882 100.0068,128.7292 102.1408,128.1492 C104.0888,127.6192 105.8708,127.5692 107.8078,128.3322 C112.8138,130.3012 117.7548,129.9332 122.4208,127.2442 C123.9408,126.3692 125.1168,126.4482 126.6118,127.3322 C132.9418,131.0782 139.3178,134.7482 145.7398,138.3332 C147.6438,139.3962 148.4988,140.6722 148.5318,142.9372 C148.6138,148.8482 153.6938,154.2992 159.5018,155.0472 C165.5038,155.8192 170.9828,152.8702 173.5238,147.5002 C175.9138,142.4462 174.7178,136.3912 170.5428,132.4092 C166.4288,128.4842 160.3968,127.7222 155.1358,130.6322 C153.6568,131.4512 152.5208,131.3932 151.1068,130.5582 C145.0728,126.9972 139.0158,123.4682 132.8948,120.0582 C131.2278,119.1292 130.6428,118.2342 131.1658,116.2692 C132.7038,110.4922 131.6108,105.1912 127.9938,100.3402 C125.5118,97.0122 123.3188,93.4702 120.9648,90.0462 C119.9538,88.5752 120.2138,87.5882 121.7878,86.6882 C131.6628,81.0372 141.5158,75.3452 151.3548,69.6302 C152.6198,68.8962 153.6658,68.8152 154.9808,69.6172 C158.2988,71.6422 161.8688,71.9512 165.5918,70.8072 C171.5098,68.9892 175.5468,62.6272 174.5988,56.5362 C173.5788,49.9772 167.8408,44.9122 161.5468,45.0132 C154.2908,45.1292 148.6768,50.6692 148.4838,58.0032 C148.4438,59.5332 148.0328,60.5862 146.6248,61.3902 C136.5068,67.1822 126.4158,73.0242 116.3438,78.8952 C115.1348,79.6002 114.3078,79.5502 113.2538,78.5652 C108.4408,74.0652 102.7158,71.4462 96.1588,70.7532 C94.3288,70.5602 93.7798,69.7492 93.7898,67.9222 C93.8588,55.9072 93.8518,43.8902 93.7708,31.8762 C93.7568,29.7662 94.4518,28.3872 96.2338,27.2422 C101.2678,24.0082 103.3348,18.1592 101.6038,12.5342 C99.9088,7.0242 94.8868,3.2992 89.1238,3.2772 C83.1198,3.2532 78.1598,6.8352 76.4078,12.4582 C74.5578,18.3962 76.7338,24.1882 82.1348,27.5882 C83.2188,28.2712 84.1798,28.8492 84.1748,30.4112 C84.1328,43.6072 84.1818,56.8042 84.0938,70.0012 C84.0888,70.8292 83.3588,71.9492 82.6318,72.4232 C79.4508,74.5032 76.1548,76.4092 72.8838,78.3502 C69.6628,80.2622 65.9868,81.1112 62.7468,79.3502 C52.2008,73.6212 41.8678,67.4972 31.4588,61.5142 C30.1688,60.7732 29.5668,59.7402 29.5278,58.1272 C29.2988,48.7452 20.6778,43.8352 14.0868,45.3652 C8.6088,46.6362 4.9258,49.7122 3.5978,55.1252 C2.2738,60.5242 3.9078,65.2462 8.3218,68.6492 C12.7278,72.0452 17.6508,72.4212 22.5878,69.7962 C24.2138,68.9332 25.4378,68.9452 26.9908,69.8692 C32.1758,72.9572 37.4398,75.9112 42.6648,78.9312 C46.3088,81.0372 49.9378,83.1662 53.8678,85.4572 C44.6898,95.1042 43.7448,105.5942 50.3088,116.8162 M177.6918,58.2092 C177.6908,63.9972 175.3318,68.5672 170.4698,71.7112 C168.9448,72.6972 168.3888,73.8132 168.3968,75.6252 C168.4628,91.9472 168.4668,108.2692 168.4008,124.5912 C168.3928,126.4722 168.9518,127.5962 170.5608,128.6452 C177.7368,133.3222 179.9568,142.9512 175.6628,150.1292 C171.1438,157.6842 161.8328,160.4602 154.1628,156.4042 C152.5988,155.5772 151.3938,155.6252 149.9268,156.4742 C135.5788,164.7912 121.2138,173.0812 106.8268,181.3312 C105.3548,182.1752 105.2368,183.4152 105.1428,184.8412 C104.6558,192.2732 99.4148,198.3652 92.2988,199.8342 C82.8838,201.7762 73.8328,195.2292 72.9818,185.6762 C72.7538,183.1342 71.7948,181.6452 69.5448,180.3702 C55.7218,172.5382 41.9768,164.5662 28.2468,156.5702 C26.6338,155.6312 25.3858,155.5482 23.6728,156.4232 C15.8748,160.4102 6.6808,157.6572 2.3548,150.2042 C-1.9802,142.7332 0.1638,133.4152 7.4578,128.5792 C9.1058,127.4862 9.7188,126.2552 9.7108,124.3022 C9.6458,108.1892 9.6438,92.0762 9.7068,75.9622 C9.7148,74.0042 9.1138,72.7662 7.4428,71.6962 C1.6918,68.0122 -0.7972,61.8162 0.5038,54.9072 C1.6888,48.6202 6.5788,43.8512 13.0208,42.4592 C16.9418,41.6112 20.6108,42.0972 24.0648,44.0422 C25.3648,44.7732 26.4158,44.7792 27.7218,44.0232 C41.8908,35.8172 56.0708,27.6282 70.3028,19.5312 C72.2228,18.4392 72.7828,16.9532 72.8908,14.9782 C73.3688,6.2142 81.5548,-0.6868 90.9508,0.2622 C98.0968,0.9852 104.5428,7.3982 105.0618,14.7372 C105.2468,17.3722 106.4378,18.8062 108.6328,20.0562 C122.3788,27.8812 136.0738,35.7952 149.7448,43.7512 C151.3828,44.7052 152.6758,44.7002 154.3708,43.8572 C165.2528,38.4462 177.6248,46.1002 177.6918,58.2092" id="Fill-482"></path>
                <path d="M54.2551,102.5682 C54.2991,93.4412 61.5941,85.7772 70.7751,85.5862 C73.6281,85.5262 75.7371,84.6722 77.8161,82.7962 C88.3131,73.3072 102.8531,76.9272 110.0651,85.1442 C112.6931,88.1392 114.2241,91.7082 114.9931,95.5522 C115.3871,97.5142 116.3901,98.7482 117.9811,99.7902 C121.9461,102.3842 124.1501,106.1682 123.7271,110.8432 C123.2371,116.2372 120.5481,120.4452 115.0801,122.2052 C111.8821,123.2342 108.6211,123.2292 105.5991,121.5542 C104.1131,120.7322 102.7691,120.7212 101.2431,121.3262 C94.2271,124.1082 87.4041,123.7302 80.9041,119.7982 C79.3331,118.8472 77.8601,118.7822 76.1571,119.2702 C65.0291,122.4542 54.1981,114.1742 54.2551,102.5682" id="Fill-483"></path>
                <path d="M161.6487,138.3153 C163.7907,138.3683 165.5667,140.1503 165.4877,142.1653 C165.4097,144.1343 163.4607,145.9003 161.4197,145.8493 C159.3377,145.7963 157.7667,144.1633 157.7837,142.0683 C157.8007,139.8433 159.4307,138.2613 161.6487,138.3153" id="Fill-484"></path>
                <path d="M85.1526,16.119 C85.3216,14.003 87.1466,12.482 89.3066,12.659 C91.4856,12.836 92.9686,14.619 92.7446,16.792 C92.5356,18.806 90.6976,20.388 88.7516,20.228 C86.6966,20.06 84.9936,18.115 85.1526,16.119" id="Fill-485"></path>
                <path d="M161.5071,61.9959 C159.4011,61.9899 157.8431,60.4469 157.8121,58.3359 C157.7791,56.0979 159.3291,54.5409 161.5821,54.5479 C163.6951,54.5549 165.5001,56.2959 165.4881,58.3149 C165.4771,60.3679 163.7091,62.0019 161.5071,61.9959" id="Fill-486"></path>
                <path d="M20.1252,58.3026 C20.0942,60.4776 18.6102,61.9876 16.4902,62.0006 C14.1652,62.0156 12.4642,60.3506 12.5432,58.1376 C12.6192,56.0256 14.3342,54.4916 16.5562,54.5516 C18.6762,54.6086 20.1562,56.1636 20.1252,58.3026" id="Fill-487"></path>
                <path d="M88.8967,180.1922 C91.0097,180.1642 92.8167,181.8842 92.7967,183.9072 C92.7757,186.0732 91.1587,187.6302 88.9437,187.6202 C86.7317,187.6092 85.1627,186.0382 85.1707,183.8432 C85.1787,181.8362 86.8287,180.2192 88.8967,180.1922" id="Fill-488"></path>
                <path d="M16.4417,138.3299 C18.5247,138.3239 20.0877,139.8749 20.1237,141.9809 C20.1607,144.1789 18.5297,145.8729 16.3957,145.8529 C14.2617,145.8349 12.5447,144.1299 12.5527,142.0409 C12.5617,139.9069 14.2087,138.3359 16.4417,138.3299" id="Fill-489"></path>
            </g>
        </g>
    </g>
</svg>