<?xml version="1.0" encoding="UTF-8"?>
<svg width="201px" height="201px" viewBox="0 0 201 201" version="1.1" xmlns="http://www.w3.org/2000/svg" xmlns:xlink="http://www.w3.org/1999/xlink">
    <!-- Generator: Sketch 51.2 (57519) - http://www.bohemiancoding.com/sketch -->
    <title>SYS</title>
    <desc>Created with Sketch.</desc>
    <defs></defs>
    <g id="Page-1" stroke="none" stroke-width="1" fill="none" fill-rule="evenodd">
        <g id="Artboard" transform="translate(-1098.000000, -5001.000000)">
            <g id="SYS" transform="translate(1098.000000, 5001.000000)">
                <path d="M200.9285,100.451 C200.9285,155.68 156.1575,200.451 100.9285,200.451 C45.6995,200.451 0.9285,155.68 0.9285,100.451 C0.9285,45.222 45.6995,0.451 100.9285,0.451 C156.1575,0.451 200.9285,45.222 200.9285,100.451" id="Fill-271" fill="#F4F4F4"></path>
                <path d="M18.7761,117.7781 C22.0321,120.0211 25.1861,122.4351 28.5641,124.4791 C42.1001,132.6691 56.8331,137.3951 72.5001,139.3201 C82.0311,140.4911 91.5401,140.5331 100.9641,138.4981 C108.1781,136.9401 115.0871,134.5411 121.1851,130.2331 C124.6421,127.7911 127.5241,124.8111 129.0211,120.7651 C130.9641,115.5131 129.9351,110.5401 127.3201,105.7851 C124.8681,101.3271 121.4261,97.7001 117.6311,94.3781 C116.8061,93.6551 115.9621,92.9531 115.1261,92.2421 L115.1961,91.6821 C117.6721,91.9021 120.2111,91.8461 122.6121,92.3931 C129.4981,93.9621 135.2181,97.5531 139.7961,102.9621 C144.1011,108.0491 144.5851,113.5881 141.9041,119.5521 C139.5391,124.8141 135.7891,128.9571 131.3551,132.5201 C122.0781,139.9741 111.3881,143.8171 99.6331,145.1941 C83.6771,147.0641 68.1641,145.3931 53.0661,139.9511 C40.5871,135.4521 29.4911,128.7041 20.0311,119.3431 C19.5551,118.8721 18.9501,118.5301 18.4051,118.1281 C18.5291,118.0111 18.6521,117.8941 18.7761,117.7781" id="Fill-273" fill="#2885C4"></path>
                <path d="M85.3796,97.6121 C79.5116,96.0571 73.7066,94.2381 69.2736,89.6861 C65.4836,85.7941 65.0206,80.9441 67.8536,75.8441 C71.0836,70.0271 76.1736,66.1641 81.8006,62.9171 C89.0306,58.7451 96.9816,56.9111 105.1596,55.9091 C118.4846,54.2771 131.7596,54.8841 145.0046,56.8911 C157.6856,58.8131 170.0046,61.9861 181.7396,67.2461 C182.3476,67.5181 182.9406,67.8251 183.4506,68.3361 C180.3366,67.1891 177.2416,65.9871 174.1046,64.9081 C157.0896,59.0541 139.5816,56.5071 121.6156,57.4131 C111.5046,57.9231 101.5386,59.4001 92.1876,63.5811 C90.0826,64.5221 88.0306,65.6901 86.1696,67.0481 C78.8206,72.4031 76.6996,79.8651 80.2896,88.2391 C81.6726,91.4641 83.6356,94.4391 85.3796,97.6121" id="Fill-275" fill="#2885C4"></path>
                <path d="M143.8699,133.2694 C145.9919,131.7504 148.1659,130.3784 150.1299,128.7524 C154.9119,124.7934 158.2449,119.9494 158.6439,113.5264 C158.9809,108.1184 157.1489,103.2854 154.3399,98.8134 C148.7429,89.9034 140.3489,84.8624 130.4829,81.9674 C125.9279,80.6304 121.2679,80.0644 116.5229,80.4554 C115.3749,80.5494 114.2149,80.7444 113.1089,81.0624 C109.2139,82.1824 108.4029,83.8024 109.7899,87.4984 C109.6829,87.4764 109.5489,87.4894 109.4809,87.4274 C107.6639,85.7794 105.4739,84.1314 106.0709,81.3664 C106.6589,78.6454 109.2619,78.0354 111.6049,77.5174 C118.7599,75.9384 125.8579,76.7044 132.8429,78.4744 C143.5819,81.1964 152.7209,86.5964 159.5819,95.4444 C162.9489,99.7864 165.1029,104.6444 165.0619,110.2954 C165.0249,115.3274 163.0509,119.5624 159.7719,123.2324 C155.5609,127.9454 150.1839,130.9324 144.4269,133.3144 C144.2849,133.3734 144.0839,133.2904 143.8699,133.2694" id="Fill-277" fill="#2885C4"></path>
                <path d="M91.4524,103.2645 C92.2444,105.0415 93.3064,106.7525 93.7604,108.6135 C94.3484,111.0215 93.1984,112.8355 90.7044,113.4455 C88.5414,113.9745 86.2124,114.3685 84.0234,114.1535 C73.2224,113.0895 63.6304,109.2225 56.1304,101.0945 C48.5084,92.8325 48.2814,83.5025 55.4224,74.8115 C59.5674,69.7655 64.8724,66.2785 70.9424,63.8745 C70.3754,64.2445 69.8094,64.6185 69.2404,64.9865 C64.8184,67.8475 60.9894,71.3095 58.3664,75.9435 C54.5024,82.7695 54.6344,89.5575 59.1694,95.9595 C65.6274,105.0765 74.7014,109.2105 85.7714,109.1535 C86.5504,109.1495 87.3564,108.9755 88.1014,108.7335 C90.3924,107.9885 91.0904,106.8935 90.9304,104.4895 C90.9074,104.1515 90.8934,103.8135 90.8754,103.4755 L91.4524,103.2645 Z" id="Fill-279" fill="#2885C4"></path>
            </g>
        </g>
    </g>
</svg>