<?xml version="1.0" encoding="UTF-8"?>
<svg width="201px" height="201px" viewBox="0 0 201 201" version="1.1" xmlns="http://www.w3.org/2000/svg" xmlns:xlink="http://www.w3.org/1999/xlink">
    <!-- Generator: Sketch 51.2 (57519) - http://www.bohemiancoding.com/sketch -->
    <title>TRX</title>
    <desc>Created with Sketch.</desc>
    <defs></defs>
    <g id="Page-1" stroke="none" stroke-width="1" fill="none" fill-rule="evenodd">
        <g id="Artboard" transform="translate(-1099.000000, -6533.000000)">
            <g id="TRX" transform="translate(1099.000000, 6533.000000)">
                <path d="M200.6628,100.7332 C200.6628,155.9622 155.8918,200.7332 100.6628,200.7332 C45.4338,200.7332 0.6628,155.9622 0.6628,100.7332 C0.6628,45.5042 45.4338,0.7332 100.6628,0.7332 C155.8918,0.7332 200.6628,45.5042 200.6628,100.7332" id="Fill-435" fill="#020100"></path>
                <path d="M43.1331,38.6258 L139.3241,60.7958 C139.5951,60.8578 139.8511,60.9708 140.0801,61.1288 L159.9421,74.8148 C160.9501,75.5098 161.2001,76.8928 160.4981,77.8958 L93.4391,173.7438 C92.4201,175.1998 90.1851,174.9148 89.5651,173.2488 L40.5711,41.5438 C39.9591,39.8978 41.4221,38.2308 43.1331,38.6258" id="Fill-436" fill="#FFFFFF"></path>
                <polygon id="Fill-437" fill="#020100" points="46.679 46.7205 133.766 66.7915 152.846 79.9395 91.6 167.4775"></polygon>
                <path d="M91.6121,174.8983 C91.5451,174.8983 91.4771,174.8953 91.4091,174.8883 C90.3101,174.7773 89.5091,173.7963 89.6201,172.6983 L96.3111,106.2983 L41.4051,43.3083 C40.6801,42.4753 40.7661,41.2123 41.5991,40.4863 C42.4321,39.7603 43.6951,39.8473 44.4211,40.6803 L99.8961,104.3233 C100.2581,104.7403 100.4331,105.2883 100.3781,105.8373 L93.5991,173.0983 C93.4961,174.1293 92.6261,174.8983 91.6121,174.8983" id="Fill-438" fill="#FFFFFF"></path>
                <path d="M98.3889,107.6375 C97.7639,107.6375 97.1559,107.3445 96.7689,106.8125 C96.2079,106.0385 96.2719,104.9765 96.9229,104.2765 L135.8539,62.3905 C136.6059,61.5815 137.8709,61.5335 138.6809,62.2865 C139.4899,63.0385 139.5359,64.3045 138.7839,65.1135 L106.7849,99.5405 L157.1599,76.1895 C158.1639,75.7265 159.3519,76.1595 159.8159,77.1625 C160.2809,78.1645 159.8449,79.3535 158.8429,79.8185 L99.2289,107.4515 C98.9589,107.5775 98.6719,107.6375 98.3889,107.6375" id="Fill-439" fill="#FFFFFF"></path>
            </g>
        </g>
    </g>
</svg>