<?xml version="1.0" encoding="UTF-8"?>
<svg width="201px" height="201px" viewBox="0 0 201 201" version="1.1" xmlns="http://www.w3.org/2000/svg" xmlns:xlink="http://www.w3.org/1999/xlink">
    <!-- Generator: Sketch 51.2 (57519) - http://www.bohemiancoding.com/sketch -->
    <title>USDT</title>
    <desc>Created with Sketch.</desc>
    <defs></defs>
    <g id="Page-1" stroke="none" stroke-width="1" fill="none" fill-rule="evenodd">
        <g id="Artboard" transform="translate(-1807.000000, -2361.000000)">
            <g id="USDT" transform="translate(1807.000000, 2361.000000)">
                <path d="M200.8206,100.4652 C200.8206,155.6942 156.0496,200.4652 100.8206,200.4652 C45.5916,200.4652 0.8206,155.6942 0.8206,100.4652 C0.8206,45.2362 45.5916,0.4652 100.8206,0.4652 C156.0496,0.4652 200.8206,45.2362 200.8206,100.4652" id="Fill-692" fill="#1BA27A"></path>
                <polygon id="Fill-694" fill="#FFFFFF" points="147.7532 50.8914 53.0622 50.8914 53.0622 73.7504 88.9782 73.7504 88.9782 107.3504 111.8372 107.3504 111.8372 73.7504 147.7532 73.7504"></polygon>
                <path d="M100.6252,110.9305 C70.9142,110.9305 46.8282,106.2285 46.8282,100.4275 C46.8282,94.6275 70.9142,89.9245 100.6252,89.9245 C130.3352,89.9245 154.4212,94.6275 154.4212,100.4275 C154.4212,106.2285 130.3352,110.9305 100.6252,110.9305 M161.0302,102.1785 C161.0302,94.6985 133.9862,88.6345 100.6252,88.6345 C67.2642,88.6345 40.2192,94.6985 40.2192,102.1785 C40.2192,108.7645 61.1902,114.2525 88.9782,115.4695 L88.9782,163.7035 L111.8372,163.7035 L111.8372,115.4885 C139.8402,114.3095 161.0302,108.7995 161.0302,102.1785" id="Fill-696" fill="#FFFFFF"></path>
            </g>
        </g>
    </g>
</svg>