<?xml version="1.0" encoding="UTF-8"?>
<svg width="201px" height="201px" viewBox="0 0 201 201" version="1.1" xmlns="http://www.w3.org/2000/svg" xmlns:xlink="http://www.w3.org/1999/xlink">
    <!-- Generator: Sketch 51.2 (57519) - http://www.bohemiancoding.com/sketch -->
    <title>VEN</title>
    <desc>Created with Sketch.</desc>
    <defs>
        <linearGradient x1="12.3059075%" y1="5.86975897%" x2="85.8469904%" y2="59.8879541%" id="linearGradient-1">
            <stop stop-color="#B290D8" offset="0%"></stop>
            <stop stop-color="#26BFE2" offset="100%"></stop>
        </linearGradient>
    </defs>
    <g id="Page-1" stroke="none" stroke-width="1" fill="none" fill-rule="evenodd">
        <g id="Artboard" transform="translate(-1451.000000, -5760.000000)">
            <g id="VEN" transform="translate(1451.000000, 5760.000000)">
                <path d="M200.6125,100.9412 C200.6125,156.1702 155.8415,200.9412 100.6125,200.9412 C45.3835,200.9412 0.6125,156.1702 0.6125,100.9412 C0.6125,45.7122 45.3835,0.9412 100.6125,0.9412 C155.8415,0.9412 200.6125,45.7122 200.6125,100.9412" id="Fill-381" fill="#F4F4F4"></path>
                <path d="M162.23,37.099 C161.834,37.099 161.474,37.326 161.301,37.68 L118.862,124.761 C115.223,132.226 104.586,132.235 100.937,124.774 L58.564,38.154 C58.25,37.509 57.595,37.099 56.876,37.099 L34.852,37.099 C33.458,37.099 32.549,38.56 33.165,39.81 L91.695,158.778 C95.663,166.844 107.187,166.768 111.047,158.649 L168.156,38.576 C168.48,37.89 167.983,37.099 167.223,37.099 L162.23,37.099 Z" id="Fill-383" fill="url(#linearGradient-1)"></path>
                <polygon id="Fill-385" fill="#FFFFFF" opacity="0.200000003" points="86.516 148.253 35.468 44.488 72.106 86.985"></polygon>
                <polygon id="Fill-387" fill="#FFFFFF" opacity="0.200000003" points="96.021 114.723 72.106 86.985 62.526 46.253"></polygon>
                <path d="M72.106,86.985 L35.468,44.488 L33.165,39.808 C32.551,38.56 33.458,37.098 34.85,37.098 L56.877,37.098 C57.594,37.098 58.249,37.51 58.565,38.155 L62.526,46.253 L72.106,86.985 Z" id="Fill-389" fill="#FFFFFF" opacity="0.100000001"></path>
            </g>
        </g>
    </g>
</svg>