<?xml version="1.0" encoding="UTF-8"?>
<svg width="201px" height="201px" viewBox="0 0 201 201" version="1.1" xmlns="http://www.w3.org/2000/svg" xmlns:xlink="http://www.w3.org/1999/xlink">
    <!-- Generator: Sketch 51.2 (57519) - http://www.bohemiancoding.com/sketch -->
    <title>WAVES</title>
    <desc>Created with Sketch.</desc>
    <defs></defs>
    <g id="Page-1" stroke="none" stroke-width="1" fill="none" fill-rule="evenodd">
        <g id="Artboard" transform="translate(-421.000000, -2744.000000)">
            <g id="WAVES" transform="translate(421.000000, 2744.000000)">
                <path d="M100.1463,200.9598 C45.0053,200.9598 0.1463,156.1008 0.1463,100.9598 C0.1463,45.8188 45.0053,0.9598 100.1463,0.9598 C155.2873,0.9598 200.1463,45.8188 200.1463,100.9598 C200.1463,156.1008 155.2873,200.9598 100.1463,200.9598" id="Fill-1" fill="#C9C9C9"></path>
                <path d="M100.1463,7.0843 C48.3833,7.0843 6.2713,49.1973 6.2713,100.9593 C6.2713,152.7223 48.3833,194.8353 100.1463,194.8353 C151.9093,194.8353 194.0213,152.7223 194.0213,100.9593 C194.0213,49.1973 151.9093,7.0843 100.1463,7.0843" id="Fill-3" fill="#FFFFFF"></path>
                <path d="M65.6917,93.0125 L49.9007,77.2215 C47.2237,74.5435 47.2237,70.2025 49.9007,67.5255 L91.8567,25.5695 C96.4347,20.9915 103.8567,20.9915 108.4347,25.5695 L151.0907,68.2445 C153.7687,70.9235 153.7667,75.2655 151.0877,77.9425 L135.3617,93.6515 C133.6707,95.3425 130.9087,95.3425 129.1967,93.6515 L106.2077,70.6615 C102.9087,67.3635 97.5267,67.3425 94.2277,70.6615 L71.8567,93.0125 C70.1667,94.7235 67.4027,94.7235 65.6917,93.0125" id="Fill-5" fill="#2FAFD7"></path>
                <path d="M173.0525,110.889 L108.4345,175.528 C103.8565,180.105 96.4345,180.105 91.8565,175.528 L27.2385,110.889 C22.6605,106.311 22.6605,98.91 27.2385,94.332 L37.4135,84.157 C40.0275,81.543 44.2635,81.543 46.8775,84.157 L62.7845,100.064 C66.0835,103.363 71.4655,103.363 74.7845,100.064 L97.1355,77.693 C98.8255,76.002 101.5885,76.002 103.3005,77.693 L126.2895,100.682 C127.9395,102.353 130.1045,103.178 132.2895,103.178 C134.4545,103.178 136.6405,102.353 138.2895,100.682 L154.1145,84.858 C156.7275,82.244 160.9655,82.244 163.5785,84.858 L173.0525,94.332 C177.6305,98.91 177.6305,106.311 173.0525,110.889" id="Fill-7" fill="#D8D8D8"></path>
            </g>
        </g>
    </g>
</svg>