<?xml version="1.0" encoding="UTF-8"?>
<svg width="201px" height="201px" viewBox="0 0 201 201" version="1.1" xmlns="http://www.w3.org/2000/svg" xmlns:xlink="http://www.w3.org/1999/xlink">
    <!-- Generator: Sketch 51.2 (57519) - http://www.bohemiancoding.com/sketch -->
    <title>WTC</title>
    <desc>Created with Sketch.</desc>
    <defs></defs>
    <g id="Page-1" stroke="none" stroke-width="1" fill="none" fill-rule="evenodd">
        <g id="Artboard" transform="translate(-1797.000000, -4268.000000)">
            <g id="WTC" transform="translate(1797.000000, 4268.000000)">
                <path d="M200.1653,100.5018 C200.1653,155.7308 155.3943,200.5018 100.1653,200.5018 C44.9363,200.5018 0.1653,155.7308 0.1653,100.5018 C0.1653,45.2728 44.9363,0.5018 100.1653,0.5018 C155.3943,0.5018 200.1653,45.2728 200.1653,100.5018" id="Fill-216" fill="#0C2A92"></path>
                <path d="M151.9592,87.8626 C136.1302,87.8626 116.6452,90.0336 96.3922,94.0856 C73.8732,98.5906 53.1232,104.8746 37.9642,111.7826 C23.4012,118.4186 15.5942,124.9426 16.5412,129.6826 C17.4892,134.4226 27.2072,137.4406 43.2012,137.9636 C59.8512,138.5076 81.4222,136.3276 103.9402,131.8226 C126.4592,127.3176 147.2092,121.0326 162.3672,114.1256 C176.9302,107.4896 184.7382,100.9656 183.7902,96.2256 C182.8422,91.4856 173.1252,88.4676 157.1302,87.9446 C155.4552,87.8896 153.7292,87.8626 151.9592,87.8626 M48.3652,139.9686 C46.5742,139.9696 44.8332,139.9416 43.1392,139.8866 C30.9622,139.4876 16.1362,137.4606 14.6552,130.0596 C13.8382,125.9746 17.0802,119.1846 37.1662,110.0316 C52.4562,103.0656 73.3552,96.7326 96.0142,92.1986 C118.6732,87.6666 140.4022,85.4716 157.1932,86.0216 C169.3702,86.4196 184.1962,88.4476 185.6762,95.8486 C186.4932,99.9336 183.2512,106.7236 163.1652,115.8766 C147.8762,122.8426 126.9772,129.1756 104.3172,133.7086 C83.9442,137.7846 64.3222,139.9686 48.3652,139.9686" id="Fill-218" fill="#FFFFFF"></path>
                <path d="M169.5754,71.5223 L154.3974,79.0013 L151.4264,87.0143 L137.5824,124.3353 C129.5484,126.8303 120.7624,129.1643 111.4694,131.2313 L99.7194,97.8123 L97.3304,97.5973 L83.8714,136.2743 L82.1554,141.1993 L68.2634,146.5433 L65.2694,138.3653 L52.9484,104.7273 L38.1274,64.2543 L56.9334,64.2543 L70.2324,99.3283 L74.0354,109.3533 L78.8114,97.0613 L91.5584,64.2543 L106.5214,64.2543 L116.0794,89.7803 L123.4084,109.3533 L131.2984,88.0043 L140.0794,64.2543 L158.8864,55.4923 L169.5754,71.5223 Z" id="Fill-220" fill="#FFFFFF"></path>
            </g>
        </g>
    </g>
</svg>