<?xml version="1.0" encoding="UTF-8"?>
<svg width="200px" height="201px" viewBox="0 0 200 201" version="1.1" xmlns="http://www.w3.org/2000/svg" xmlns:xlink="http://www.w3.org/1999/xlink">
    <!-- Generator: Sketch 51.2 (57519) - http://www.bohemiancoding.com/sketch -->
    <title>XEM</title>
    <desc>Created with Sketch.</desc>
    <defs></defs>
    <g id="Page-1" stroke="none" stroke-width="1" fill="none" fill-rule="evenodd">
        <g id="Artboard" transform="translate(-1112.000000, -1974.000000)">
            <g id="XEM" transform="translate(1112.000000, 1974.000000)">
                <path d="M155.7551,152.8861 C157.2901,117.8711 137.0411,100.8301 126.0861,94.2121 C118.8101,89.8131 112.8151,83.5271 109.1841,75.8431 C96.3201,48.6711 114.9311,26.9071 114.9311,26.9071 C126.1901,12.7781 140.2891,5.3461 160.1191,9.5891 C160.1261,9.5911 160.1261,9.5891 160.1331,9.5961 C174.1171,14.0501 187.4301,20.0111 199.8711,27.3011 C199.8791,27.6391 199.8791,27.9781 199.8791,28.3171 C199.8791,75.5251 183.3491,118.8741 155.7551,152.8861" id="Fill-630" fill="#67AFE2"></path>
                <path d="M134.196,175.5628 C123.74,184.9618 112.275,193.2628 99.986,200.2808 C60.703,177.8458 29.852,142.3388 13.364,99.6888 C28.711,107.5728 47.363,114.3988 60.524,110.1248 C86.804,101.5978 105.94,87.5378 131.3,110.3598 C145.552,123.1888 148.641,139.6588 145.186,156.5368 C143.68,163.8898 139.779,170.5448 134.196,175.5628" id="Fill-632" fill="#1EBBAD"></path>
                <path d="M133.8596,3.1712 C118.1676,9.2432 97.6896,22.1482 96.0026,48.3732 C95.9746,48.7952 95.9956,49.2172 95.9816,49.6462 C95.7466,56.1682 96.1476,89.0112 62.7156,100.2772 C62.7156,100.2772 38.8136,108.5882 18.8606,91.6042 C10.6776,84.6392 5.3146,74.9212 3.3706,64.3532 C1.1636,52.3502 0.0396,39.9662 0.1026,27.3082 C0.1036,27.3062 0.1056,27.3032 0.1066,27.3002 C29.4226,10.1292 63.5596,0.2802 99.9856,0.2802 C111.5356,0.2802 122.8566,1.2692 133.8596,3.1712" id="Fill-634" fill="#F7A800"></path>
            </g>
        </g>
    </g>
</svg>