<?xml version="1.0" encoding="UTF-8"?>
<svg width="201px" height="201px" viewBox="0 0 201 201" version="1.1" xmlns="http://www.w3.org/2000/svg" xmlns:xlink="http://www.w3.org/1999/xlink">
    <!-- Generator: Sketch 51.2 (57519) - http://www.bohemiancoding.com/sketch -->
    <title>XLM</title>
    <desc>Created with Sketch.</desc>
    <defs></defs>
    <g id="Page-1" stroke="none" stroke-width="1" fill="none" fill-rule="evenodd">
        <g id="Artboard" transform="translate(-1106.000000, -2738.000000)">
            <g id="XLM" transform="translate(1106.000000, 2738.000000)">
                <path d="M100.2546,0.1937 C45.0256,0.1937 0.2546,44.9647 0.2546,100.1937 C0.2546,155.4227 45.0256,200.1937 100.2546,200.1937 C155.4836,200.1937 200.2546,155.4227 200.2546,100.1937 C200.2546,44.9647 155.4836,0.1937 100.2546,0.1937" id="Fill-636" fill="#5B7373"></path>
                <path d="M100.2546,5.1937 C152.6376,5.1937 195.2546,47.8107 195.2546,100.1937 C195.2546,152.5767 152.6376,195.1937 100.2546,195.1937 C47.8716,195.1937 5.2546,152.5767 5.2546,100.1937 C5.2546,47.8107 47.8716,5.1937 100.2546,5.1937" id="Fill-638" fill="#FFFFFF"></path>
                <path d="M92.0056,110.2239 L82.1306,103.5259 C82.1306,103.5259 60.7806,120.2699 69.0796,138.8289 C69.9786,140.8369 71.9336,142.1659 74.1316,142.2699 C80.4206,142.5679 93.7196,140.1659 101.8806,116.9219 L92.0056,110.2239 Z" id="Fill-640" fill="#FF8B00"></path>
                <path d="M119.4148,91.2889 C119.4148,91.2889 145.0998,109.5899 123.6348,143.1339 C123.5078,143.3319 123.2018,143.2799 123.1528,143.0489 C122.4028,139.5569 118.0928,122.5459 103.8618,114.2179 L119.4148,91.2889 Z" id="Fill-642" fill="#5B7373"></path>
                <path d="M99.5291,77.8011 C99.5291,77.8011 73.0281,60.7041 49.7991,93.0511 C49.6611,93.2431 49.8241,93.5081 50.0561,93.4681 C53.5781,92.8741 70.9771,90.5881 83.9771,100.7301 L99.5291,77.8011 Z" id="Fill-644" fill="#5B7373"></path>
                <path d="M149.2791,73.0306 C160.2591,52.0366 146.4951,29.9616 146.4951,29.9616 C146.4951,29.9616 120.8951,25.3366 105.4501,43.3016 C94.5041,56.0336 81.3841,80.0886 74.6701,93.0226 C72.0931,97.9846 73.6431,104.0906 78.2701,107.2296 L89.1021,114.5756 L99.9341,121.9236 C104.5611,125.0616 110.8071,124.2436 114.4661,120.0156 C124.0001,108.9936 141.4971,87.9086 149.2791,73.0306" id="Fill-646" fill="#E6FFFF"></path>
                <path d="M139.0271,29.4271 C130.2661,29.4271 115.6461,31.4421 105.4501,43.3021 C94.5041,56.0341 81.3841,80.0881 74.6701,93.0221 C72.0931,97.9851 73.6431,104.0901 78.2701,107.2291 L89.1021,114.5761 L99.9341,121.9231 C101.8221,123.2041 103.9811,123.8261 106.1231,123.8261 C109.2291,123.8261 112.3001,122.5181 114.4651,120.0151 C123.9991,108.9931 141.4971,87.9091 149.2791,73.0311 C160.2591,52.0371 146.4951,29.9611 146.4951,29.9611 C146.4951,29.9611 143.5371,29.4271 139.0271,29.4271 M139.0271,33.4271 C141.0881,33.4271 142.7981,33.5491 143.9831,33.6681 C146.6481,38.7971 153.9461,55.4781 145.7351,71.1771 C138.1651,85.6491 120.9991,106.3481 111.4401,117.3981 C110.1061,118.9411 108.1671,119.8261 106.1231,119.8261 C104.7131,119.8261 103.3491,119.4061 102.1791,118.6131 L91.3471,111.2661 L80.5161,103.9191 C77.5661,101.9181 76.5791,98.0261 78.2191,94.8651 C84.9521,81.8981 97.8351,58.2951 108.4831,45.9091 C117.8201,35.0491 131.6281,33.4271 139.0271,33.4271" id="Fill-648" fill="#5B7373"></path>
                <path d="M120.5012,65.8421 C115.4202,62.3961 114.0962,55.4841 117.5422,50.4041 C120.9872,45.3231 127.8992,43.9991 132.9802,47.4451 C138.0602,50.8901 139.3852,57.8021 135.9392,62.8831 C132.4932,67.9631 125.5812,69.2881 120.5012,65.8421 M135.1822,44.1981 C128.3092,39.5361 118.9572,41.3281 114.2952,48.2021 C109.6332,55.0751 111.4252,64.4261 118.2992,69.0891 C125.1722,73.7511 134.5232,71.9581 139.1862,65.0851 C143.8482,58.2111 142.0552,48.8601 135.1822,44.1981" id="Fill-650" fill="#5B7373"></path>
                <polygon id="Fill-652" fill="#5B7373" points="42.323 171.2684 40.686 170.1204 60.686 141.6204 62.323 142.7684"></polygon>
                <polygon id="Fill-654" fill="#5B7373" points="54.3289 168.7606 52.6809 167.6276 63.6809 151.6276 65.3289 152.7606"></polygon>
            </g>
        </g>
    </g>
</svg>