<?xml version="1.0" encoding="UTF-8"?>
<svg width="201px" height="201px" viewBox="0 0 201 201" version="1.1" xmlns="http://www.w3.org/2000/svg" xmlns:xlink="http://www.w3.org/1999/xlink">
    <!-- Generator: Sketch 51.2 (57519) - http://www.bohemiancoding.com/sketch -->
    <title>XMR</title>
    <desc>Created with Sketch.</desc>
    <defs></defs>
    <g id="Page-1" stroke="none" stroke-width="1" fill="none" fill-rule="evenodd">
        <g id="Artboard" transform="translate(-1802.000000, -1613.000000)">
            <g id="XMR" transform="translate(1802.000000, 1613.000000)">
                <path d="M200.8206,100.2322 C200.8206,155.4612 156.0496,200.2322 100.8206,200.2322 C45.5916,200.2322 0.8206,155.4612 0.8206,100.2322 C0.8206,45.0032 45.5916,0.2322 100.8206,0.2322 C156.0496,0.2322 200.8206,45.0032 200.8206,100.2322" id="Fill-609" fill="#FFFFFF"></path>
                <path d="M185.9143,152.7747 C180.4903,161.5547 173.7353,169.4267 165.9393,176.1227 C165.4903,176.5117 165.0413,176.8937 164.5833,177.2667 C159.1013,181.8167 153.1173,185.7827 146.7363,189.0797 C145.7103,189.6227 144.6773,190.1387 143.6263,190.6217 C130.6513,196.7917 116.1343,200.2327 100.8203,200.2327 C85.1773,200.2327 70.3713,196.6387 57.1853,190.2237 C56.4983,189.9017 55.8203,189.5627 55.1433,189.2067 C48.7533,185.9267 42.7613,181.9697 37.2613,177.4267 C36.6433,176.9267 36.0323,176.4107 35.4313,175.8937 C27.7443,169.2497 21.0923,161.4527 15.7273,152.7747 L57.1853,152.7747 L57.1853,99.5287 L86.1773,128.5207 L90.4813,132.8257 L101.0073,143.3507 L111.5243,132.8257 L115.8373,128.5207 L143.6263,100.7237 L143.6263,152.7747 L185.9143,152.7747 Z" id="Fill-610" fill="#4C4C4C"></path>
                <path d="M200.8206,100.2322 C200.8206,111.6482 198.9056,122.6132 195.3806,132.8252 L165.9396,132.8252 L165.9396,48.7492 L143.6266,71.0632 L101.0076,113.6902 L35.4306,48.1132 L35.4306,132.8252 L6.2616,132.8252 C2.7356,122.6132 0.8206,111.6482 0.8206,100.2322 C0.8206,83.6812 4.8456,68.0712 11.9726,54.3172 C15.2696,47.9362 19.2366,41.9522 23.7876,36.4692 C27.3296,32.1902 31.2276,28.2072 35.4306,24.5712 C41.9906,18.9012 49.2956,14.0632 57.1846,10.2412 C70.3716,3.8252 85.1766,0.2322 100.8206,0.2322 C116.1336,0.2322 130.6516,3.6732 143.6266,9.8422 C151.7186,13.6732 159.2186,18.5712 165.9396,24.3422 C170.3116,28.0972 174.3636,32.2242 178.0156,36.6732 C182.5576,42.1732 186.5156,48.1642 189.7956,54.5542 C196.8456,68.2492 200.8206,83.7742 200.8206,100.2322" id="Fill-611" fill="#FF6600"></path>
            </g>
        </g>
    </g>
</svg>