<?xml version="1.0" encoding="UTF-8"?>
<svg width="201px" height="200px" viewBox="0 0 201 200" version="1.1" xmlns="http://www.w3.org/2000/svg" xmlns:xlink="http://www.w3.org/1999/xlink">
    <!-- Generator: Sketch 51.2 (57519) - http://www.bohemiancoding.com/sketch -->
    <title>XRP</title>
    <desc>Created with Sketch.</desc>
    <defs></defs>
    <g id="Page-1" stroke="none" stroke-width="1" fill="none" fill-rule="evenodd">
        <g id="Artboard" transform="translate(-1456.000000, -1254.000000)">
            <g id="XRP" transform="translate(1456.000000, 1253.000000)">
                <path d="M100.4465,0.9964 C45.2175,0.9964 0.4465,45.7674 0.4465,100.9964 C0.4465,156.2254 45.2175,200.9964 100.4465,200.9964 C155.6755,200.9964 200.4465,156.2254 200.4465,100.9964 C200.4465,45.7674 155.6755,0.9964 100.4465,0.9964" id="Fill-513" fill="#266BA6"></path>
                <path d="M100.4465,192.5755 C49.8685,192.5755 8.8675,151.5745 8.8675,100.9965 C8.8675,50.4185 49.8685,9.4175 100.4465,9.4175 C151.0245,9.4175 192.0255,50.4185 192.0255,100.9965 C192.0255,151.5745 151.0245,192.5755 100.4465,192.5755" id="Fill-514" fill="#FFFFFF"></path>
                <path d="M122.0457,111.993 C120.6717,111.993 119.3217,112.097 118.0037,112.296 C114.0607,108.939 111.0167,104.769 111.2837,99.98 C111.4917,96.248 113.2337,93.139 115.7347,90.568 C117.5427,90.951 119.4157,91.156 121.3377,91.156 C136.2087,91.156 148.2637,79.1 148.2637,64.229 C148.2637,49.358 136.2087,37.302 121.3377,37.302 C106.4657,37.302 94.4107,49.358 94.4107,64.229 C94.4107,71.143 97.0187,77.447 101.3017,82.215 C100.7087,85.776 99.4097,88.922 96.8907,90.565 C94.2057,92.316 88.8847,92.591 83.0877,92.205 C79.1507,82.217 69.4217,75.146 58.0357,75.146 C43.1647,75.146 31.1087,87.201 31.1087,102.073 C31.1087,116.944 43.1647,129 58.0357,129 C70.2817,129 80.6107,120.822 83.8787,109.631 C88.6017,108.91 92.8617,108.974 95.1187,110.761 C97.9857,113.03 99.4417,117.879 100.1137,123.307 C96.9727,127.712 95.1187,133.098 95.1187,138.92 C95.1187,153.791 107.1747,165.847 122.0457,165.847 C136.9177,165.847 148.9727,153.791 148.9727,138.92 C148.9727,124.049 136.9177,111.993 122.0457,111.993" id="Fill-515" fill="#2C71AE"></path>
            </g>
        </g>
    </g>
</svg>