<?xml version="1.0" encoding="UTF-8"?>
<svg width="201px" height="201px" viewBox="0 0 201 201" version="1.1" xmlns="http://www.w3.org/2000/svg" xmlns:xlink="http://www.w3.org/1999/xlink">
    <!-- Generator: Sketch 51.2 (57519) - http://www.bohemiancoding.com/sketch -->
    <title>XUC</title>
    <desc>Created with Sketch.</desc>
    <defs>
        <linearGradient x1="100%" y1="50%" x2="0%" y2="50%" id="linearGradient-1">
            <stop stop-color="#82BFD8" offset="0%"></stop>
            <stop stop-color="#2C9BCD" offset="100%"></stop>
        </linearGradient>
        <linearGradient x1="100%" y1="50%" x2="0%" y2="50%" id="linearGradient-2">
            <stop stop-color="#2B99CB" offset="0%"></stop>
            <stop stop-color="#17467F" offset="100%"></stop>
        </linearGradient>
    </defs>
    <g id="Page-1" stroke="none" stroke-width="1" fill="none" fill-rule="evenodd">
        <g id="Artboard" transform="translate(-1098.000000, -5381.000000)">
            <g id="XUC" transform="translate(1098.000000, 5381.000000)">
                <path d="M96.166,5.673 C96.166,5.982 96.198,6.284 96.254,6.577 L37.53,30.901 C36.676,29.637 35.228,28.805 33.584,28.805 C30.955,28.805 28.824,30.938 28.824,33.567 C28.824,35.209 29.655,36.657 30.92,37.513 L6.596,96.238 C6.303,96.181 5.999,96.149 5.69,96.149 C3.061,96.149 0.928,98.28 0.928,100.911 C0.928,103.54 3.061,105.673 5.69,105.673 C5.999,105.673 6.303,105.64 6.596,105.583 L30.92,164.307 C29.655,165.164 28.824,166.612 28.824,168.253 C28.824,170.884 30.955,173.017 33.584,173.017 C35.228,173.017 36.676,172.184 37.53,170.92 L96.254,195.243 C96.198,195.537 96.166,195.838 96.166,196.149 C96.166,198.778 98.299,200.911 100.928,200.911 C103.559,200.911 105.69,198.778 105.69,196.149 C105.69,195.838 105.658,195.537 105.602,195.243 L164.326,170.92 C165.18,172.184 166.63,173.017 168.272,173.017 C170.901,173.017 173.034,170.884 173.034,168.253 C173.034,166.612 172.203,165.164 170.937,164.307 L195.262,105.583 C195.555,105.64 195.857,105.673 196.166,105.673 C198.797,105.673 200.928,103.54 200.928,100.911 C200.928,98.28 198.797,96.149 196.166,96.149 C195.857,96.149 195.555,96.181 195.262,96.238 L170.937,37.513 C172.203,36.657 173.034,35.209 173.034,33.567 C173.034,30.938 170.901,28.805 168.272,28.805 C166.63,28.805 165.18,29.637 164.326,30.901 L105.602,6.577 C105.658,6.284 105.69,5.982 105.69,5.673 C105.69,3.042 103.559,0.911 100.928,0.911 C98.299,0.911 96.166,3.042 96.166,5.673 Z M104.987,8.385 L163.484,32.616 L133.21,32.616 C132.549,30.777 130.798,29.46 128.732,29.46 C127.957,29.46 127.228,29.651 126.581,29.979 L104.987,8.385 Z M96.869,8.385 L75.803,29.451 C75.1,29.044 74.286,28.805 73.416,28.805 C71.113,28.805 69.19,30.442 68.749,32.616 L38.372,32.616 L96.869,8.385 Z M103.554,9.644 L125.079,31.171 C124.724,31.595 124.445,32.084 124.256,32.616 L78.082,32.616 C77.941,31.914 77.641,31.272 77.228,30.721 L98.304,9.644 C99.056,10.142 99.957,10.435 100.928,10.435 C101.899,10.435 102.8,10.142 103.554,9.644 Z M132.977,36.375 C133.263,35.811 133.437,35.184 133.48,34.519 L163.606,34.519 C163.983,36.385 165.454,37.854 167.319,38.234 L167.319,68.331 C166.708,68.457 166.137,68.699 165.636,69.034 L132.977,36.375 Z M77.394,36.182 C77.722,35.686 77.96,35.125 78.082,34.519 L123.986,34.519 C124.037,35.365 124.307,36.149 124.743,36.818 L103.969,57.292 C103.144,56.607 102.085,56.194 100.928,56.194 C99.953,56.194 99.049,56.487 98.294,56.99 L77.394,36.182 Z M34.537,68.331 L34.537,38.234 C36.404,37.854 37.873,36.385 38.251,34.519 L68.749,34.519 C68.855,35.033 69.045,35.515 69.3,35.954 L36.22,69.034 C35.719,68.699 35.15,68.457 34.537,68.331 Z M37.564,70.385 L70.569,37.378 C71.364,37.972 72.347,38.329 73.416,38.329 C74.39,38.329 75.296,38.034 76.05,37.533 L96.952,58.339 C96.477,59.06 96.194,59.916 96.171,60.84 L38.007,71.239 C37.887,70.939 37.739,70.653 37.564,70.385 Z M131.785,37.875 L164.292,70.385 C164.118,70.653 163.969,70.939 163.849,71.239 L105.685,60.84 C105.667,60.1 105.482,59.406 105.164,58.788 L126.078,38.177 C126.836,38.686 127.748,38.986 128.732,38.986 C129.894,38.986 130.958,38.567 131.785,37.875 Z M172.236,75.634 C172.739,74.878 173.034,73.972 173.034,72.998 C173.034,70.694 171.397,68.773 169.224,68.331 L169.224,38.356 L193.454,96.852 L172.236,75.634 Z M32.632,38.356 L32.632,68.331 C30.459,68.773 28.824,70.694 28.824,72.998 C28.824,73.972 29.117,74.878 29.62,75.634 L8.402,96.852 L32.632,38.356 Z M104.906,63.571 C105.083,63.305 105.231,63.017 105.351,62.715 L163.515,73.114 C163.538,74.043 163.824,74.907 164.305,75.63 L143.126,96.9 C142.386,96.427 141.508,96.149 140.565,96.149 C139.72,96.149 138.929,96.372 138.24,96.757 L104.906,63.571 Z M37.555,75.625 C38.033,74.903 38.318,74.041 38.341,73.114 L96.505,62.715 C96.683,63.16 96.925,63.575 97.222,63.942 L63.572,97.106 C62.776,96.508 61.79,96.149 60.717,96.149 C59.943,96.149 59.216,96.338 58.57,96.665 L37.555,75.625 Z M103.562,64.922 L136.797,98.007 C136.176,98.812 135.803,99.816 135.803,100.911 C135.803,101.861 136.084,102.746 136.564,103.489 L103.608,136.586 C102.844,136.065 101.922,135.76 100.928,135.76 C99.985,135.76 99.109,136.037 98.37,136.511 L64.962,103.064 C65.29,102.416 65.479,101.686 65.479,100.911 C65.479,100.043 65.244,99.232 64.838,98.531 L98.696,65.162 C99.364,65.515 100.121,65.718 100.928,65.718 C101.903,65.718 102.808,65.423 103.562,64.922 Z M34.537,123.33 L34.537,77.665 C35.143,77.541 35.708,77.301 36.208,76.971 L57.067,97.855 C56.375,98.683 55.957,99.748 55.957,100.911 C55.957,101.958 56.297,102.924 56.871,103.71 L36.24,124.043 C35.733,123.702 35.157,123.455 34.537,123.33 Z M144.731,103.217 C145.108,102.534 145.327,101.748 145.327,100.911 C145.327,99.914 145.018,98.988 144.496,98.224 L165.655,76.974 C166.153,77.303 166.715,77.541 167.319,77.665 L167.319,123.33 C166.708,123.453 166.139,123.695 165.638,124.031 L144.731,103.217 Z M169.224,123.33 L169.224,77.665 C169.828,77.543 170.387,77.304 170.885,76.976 L192.195,98.286 C191.697,99.04 191.404,99.94 191.404,100.911 C191.404,101.881 191.697,102.783 192.195,103.535 L171.357,124.373 C170.756,123.861 170.027,123.492 169.224,123.33 Z M9.661,103.535 C10.161,102.783 10.452,101.881 10.452,100.911 C10.452,99.94 10.161,99.04 9.661,98.286 L30.971,76.976 C31.469,77.304 32.028,77.543 32.632,77.665 L32.632,123.33 C31.829,123.492 31.101,123.861 30.499,124.373 L9.661,103.535 Z M63.77,104.565 L96.999,137.833 C96.811,138.107 96.652,138.403 96.523,138.716 L38.342,127.912 C38.327,126.987 38.046,126.127 37.574,125.401 L58.28,104.995 C58.994,105.422 59.825,105.673 60.717,105.673 C61.88,105.673 62.943,105.257 63.77,104.565 Z M143.486,104.667 L164.294,125.382 C163.814,126.111 163.53,126.98 163.514,127.914 L105.346,138.749 C105.233,138.471 105.095,138.204 104.934,137.953 L137.894,104.854 C138.657,105.369 139.575,105.673 140.565,105.673 C141.667,105.673 142.679,105.295 143.486,104.667 Z M169.224,132.663 C171.397,132.222 173.034,130.301 173.034,127.996 C173.034,127.239 172.852,126.524 172.536,125.888 L193.454,104.971 L169.224,163.467 L169.224,132.663 Z M8.402,104.971 L29.32,125.888 C29.004,126.524 28.824,127.239 28.824,127.996 C28.824,130.301 30.459,132.222 32.632,132.663 L32.632,163.467 L8.402,104.971 Z M37.209,131.081 C37.536,130.698 37.804,130.26 37.996,129.785 L96.17,140.587 C96.182,141.564 96.487,142.468 97.005,143.217 L76.032,164.277 C75.282,163.783 74.383,163.492 73.416,163.492 C72.347,163.492 71.364,163.848 70.569,164.443 L37.209,131.081 Z M104.938,143.084 C105.395,142.371 105.665,141.529 105.685,140.625 L163.862,129.787 C164.054,130.262 164.321,130.698 164.649,131.081 L131.412,164.318 C130.648,163.797 129.726,163.492 128.732,163.492 C127.763,163.492 126.862,163.785 126.11,164.281 L104.938,143.084 Z M132.738,165.686 L166.162,132.262 C166.526,132.441 166.913,132.58 167.319,132.663 L167.319,163.587 C165.454,163.967 163.983,165.436 163.606,167.302 L133.399,167.302 C133.28,166.717 133.051,166.172 132.738,165.686 Z M34.537,163.587 L34.537,132.663 C34.945,132.58 35.332,132.441 35.694,132.262 L69.3,165.867 C69.045,166.306 68.855,166.788 68.749,167.302 L38.251,167.302 C37.873,165.436 36.404,163.967 34.537,163.587 Z M103.614,144.454 L124.763,165.626 C124.431,166.128 124.189,166.693 124.065,167.302 L78.082,167.302 C77.959,166.691 77.717,166.122 77.383,165.621 L98.377,144.537 C99.115,145.007 99.989,145.284 100.928,145.284 C101.924,145.284 102.849,144.977 103.614,144.454 Z M133.399,169.207 L163.484,169.207 L104.987,193.437 L126.165,172.26 C126.906,172.737 127.786,173.017 128.732,173.017 C131.036,173.017 132.957,171.381 133.399,169.207 Z M77.228,171.1 C77.641,170.549 77.941,169.908 78.082,169.207 L124.065,169.207 C124.194,169.837 124.447,170.42 124.796,170.934 L103.554,192.178 C102.8,191.679 101.899,191.387 100.928,191.387 C99.957,191.387 99.056,191.679 98.304,192.178 L77.228,171.1 Z M38.372,169.207 L68.749,169.207 C69.19,171.381 71.113,173.017 73.416,173.017 C74.286,173.017 75.1,172.779 75.803,172.369 L96.869,193.437 L38.372,169.207 Z" id="Fill-347" fill="url(#linearGradient-1)"></path>
                <path d="M60.479,100.911 C60.479,123.295 78.624,141.44 101.008,141.44 C123.391,141.44 141.536,123.295 141.536,100.911 C141.536,78.528 123.391,60.382 101.008,60.382 C78.624,60.382 60.479,78.528 60.479,100.911" id="Fill-349" fill="url(#linearGradient-2)"></path>
                <path d="M87.2805,96.9442 L117.4325,96.9442 C115.7765,91.8582 111.6135,87.9012 106.4045,86.5302 C105.1135,86.1872 103.7575,86.0062 102.3565,86.0062 C101.0135,86.0062 99.7095,86.1732 98.4665,86.4872 C93.1805,87.8202 88.9525,91.8052 87.2805,96.9442 Z M126.9615,101.8632 C126.9615,102.8812 126.8995,103.8862 126.7765,104.8782 L86.7855,104.8782 C87.9475,110.9202 92.5475,115.7442 98.4665,117.2392 C99.7095,117.5532 101.0135,117.7202 102.3565,117.7202 C103.7575,117.7202 105.1135,117.5392 106.4045,117.1962 C110.5565,116.1012 114.0475,113.3682 116.1335,109.7202 L125.6805,109.7202 C122.8185,118.2152 115.4425,124.6392 106.4045,126.1342 L106.4045,131.5442 L98.4665,134.4012 L98.4665,126.1582 C87.7045,124.4542 79.2665,115.7582 77.9375,104.8782 L71.3235,104.8782 L71.3235,96.9442 L78.2425,96.9442 C80.2715,86.9632 88.3425,79.1732 98.4665,77.5682 L98.4665,71.7062 L106.4045,69.8012 L106.4045,77.5912 C116.4565,79.2542 124.4515,87.0152 126.4705,96.9442 C126.7905,98.5352 126.9615,100.1772 126.9615,101.8632 Z" id="Fill-351" fill="#14417E"></path>
                <path d="M85.8523,95.992 C87.5233,90.853 91.7523,86.868 97.0383,85.534 C98.2803,85.221 99.5853,85.054 100.9283,85.054 C102.3283,85.054 103.6853,85.234 104.9763,85.577 C110.1853,86.949 114.3473,90.906 116.0043,95.992 L85.8523,95.992 Z M125.5333,100.911 C125.5333,99.225 125.3613,97.582 125.0423,95.992 C123.0233,86.063 115.0283,78.302 104.9763,76.639 L104.9763,68.848 L97.0383,70.754 L97.0383,76.615 C86.9143,78.221 78.8423,86.011 76.8143,95.992 L69.8943,95.992 L69.8943,103.925 L76.5093,103.925 C77.8373,114.805 86.2763,123.501 97.0383,125.206 L97.0383,133.449 L104.9763,130.592 L104.9763,125.182 C114.0143,123.687 121.3903,117.263 124.2523,108.767 L114.7043,108.767 C112.6193,112.416 109.1283,115.149 104.9763,116.244 C103.6853,116.587 102.3283,116.767 100.9283,116.767 C99.5853,116.767 98.2803,116.601 97.0383,116.287 C91.1193,114.792 86.5193,109.968 85.3563,103.925 L125.3473,103.925 C125.4713,102.934 125.5333,101.929 125.5333,100.911 Z" id="Fill-353" fill="#FFFFFF"></path>
            </g>
        </g>
    </g>
</svg>