<?xml version="1.0" encoding="UTF-8"?>
<svg width="201px" height="201px" viewBox="0 0 201 201" version="1.1" xmlns="http://www.w3.org/2000/svg" xmlns:xlink="http://www.w3.org/1999/xlink">
    <!-- Generator: Sketch 51.2 (57519) - http://www.bohemiancoding.com/sketch -->
    <title>XZC</title>
    <desc>Created with Sketch.</desc>
    <defs></defs>
    <g id="Page-1" stroke="none" stroke-width="1" fill="none" fill-rule="evenodd">
        <g id="Artboard" transform="translate(-414.000000, -6146.000000)">
            <g id="XZC" transform="translate(414.000000, 6146.000000)">
                <path d="M200.9573,100.3612 C200.9573,155.5902 156.1863,200.3612 100.9573,200.3612 C45.7283,200.3612 0.9573,155.5902 0.9573,100.3612 C0.9573,45.1322 45.7283,0.3612 100.9573,0.3612 C156.1863,0.3612 200.9573,45.1322 200.9573,100.3612" id="Fill-410" fill="#38AE50"></path>
                <path d="M186.7112,100.3612 C186.7112,147.7222 148.3172,186.1152 100.9572,186.1152 C53.5962,186.1152 15.2032,147.7222 15.2032,100.3612 C15.2032,53.0012 53.5962,14.6072 100.9572,14.6072 C148.3172,14.6072 186.7112,53.0012 186.7112,100.3612" id="Fill-411" fill="#FFFFFF"></path>
                <path d="M134.3889,117.6375 L134.3889,134.1415 L78.6929,134.1415 L146.8409,65.9935 C148.4519,65.1205 149.6959,63.6665 150.3119,61.9165 C151.2839,59.8895 151.2839,57.5185 150.3119,55.4915 C149.5659,53.3705 147.8889,51.6945 145.7679,50.9485 C144.0959,50.1465 142.1879,49.9985 140.4319,50.5205 L58.9709,50.5205 C54.8629,50.5205 51.5329,53.8505 51.5329,57.9585 L51.5329,58.7035 L51.5329,59.4495 L51.5329,83.3915 L51.5329,117.4245 L85.5659,83.3915 L67.8999,83.3915 L67.8999,66.8875 L122.7999,66.8875 L53.0479,136.6405 C50.4439,139.2425 50.1819,143.2915 52.2439,146.1965 C53.4259,148.7405 55.9969,150.5085 58.9869,150.5085 L143.3189,150.5085 C147.4259,150.5085 150.7559,147.1785 150.7559,143.0705 L150.7559,142.3245 L150.7559,141.5785 L150.7559,117.6375 L150.7559,83.6045 L116.7229,117.6375 L134.3889,117.6375 Z" id="Fill-412" fill="#38AE50"></path>
            </g>
        </g>
    </g>
</svg>