<?xml version="1.0" encoding="UTF-8"?>
<svg width="201px" height="201px" viewBox="0 0 201 201" version="1.1" xmlns="http://www.w3.org/2000/svg" xmlns:xlink="http://www.w3.org/1999/xlink">
    <!-- Generator: Sketch 51.2 (57519) - http://www.bohemiancoding.com/sketch -->
    <title>ZEC</title>
    <desc>Created with Sketch.</desc>
    <defs></defs>
    <g id="Page-1" stroke="none" stroke-width="1" fill="none" fill-rule="evenodd">
        <g id="Artboard" transform="translate(-1454.000000, -2362.000000)">
            <g id="ZEC" transform="translate(1454.000000, 2362.000000)">
                <path d="M100.6868,0.7967 C45.4578,0.7967 0.6868,45.5677 0.6868,100.7967 C0.6868,156.0257 45.4578,200.7967 100.6868,200.7967 C155.9158,200.7967 200.6868,156.0257 200.6868,100.7967 C200.6868,45.5677 155.9158,0.7967 100.6868,0.7967" id="Fill-686" fill="#208ABE"></path>
                <path d="M100.6868,10.4857 C150.4848,10.4857 190.9988,50.9987 190.9988,100.7967 C190.9988,150.5947 150.4848,191.1077 100.6868,191.1077 C50.8888,191.1077 10.3758,150.5947 10.3758,100.7967 C10.3758,50.9987 50.8888,10.4857 100.6868,10.4857" id="Fill-688" fill="#FFFFFF"></path>
                <path d="M144.9211,118.1917 L144.8241,118.1537 C143.0331,117.6137 141.0681,118.3267 140.2011,119.8677 C135.7711,127.8627 130.8001,133.4487 125.3101,136.6657 C120.3791,139.5167 113.6751,141.2507 105.1601,141.7897 C103.1181,141.9437 100.9801,142.0017 98.7261,142.0017 L96.5111,142.0017 L80.7921,142.0017 C77.6321,142.0017 75.8211,138.7077 77.7291,136.4157 L96.5111,113.8967 L105.1601,103.5127 L142.0121,59.3217 C142.5131,58.7057 142.7821,57.9737 142.7821,57.2217 L142.7821,56.0087 C142.7821,54.1017 141.0681,52.5407 138.9491,52.5407 L105.1601,52.5407 L105.1601,36.7257 L96.5111,36.7257 L96.5111,52.5407 L78.2301,52.5407 L78.2301,43.8527 C78.2301,43.1597 77.6511,42.6007 76.9581,42.6007 L72.0461,42.6007 C71.5451,42.6007 71.1021,42.8707 70.9091,43.3137 L65.6701,54.4287 C65.6501,54.4867 65.5921,54.5057 65.5731,54.5637 L55.2291,75.0027 C54.3621,76.7167 55.1711,78.7587 57.0391,79.5877 C58.8311,80.3777 60.9881,79.7797 62.0091,78.2197 C64.9381,73.7317 67.7691,70.3217 70.5051,68.0097 C73.7601,65.2547 77.5741,63.2127 81.9091,61.9217 C85.2221,60.9207 91.3671,60.3047 96.5111,60.0917 C98.0901,60.0157 99.7471,59.9767 101.5001,59.9767 L105.1601,59.9767 L115.9861,59.9767 C119.1461,59.9767 120.9371,63.2517 119.0301,65.5437 L105.1601,82.1687 L96.5111,92.5137 L54.6121,142.7147 C54.1111,143.3117 53.8421,144.0637 53.8421,144.8147 L53.8421,145.9507 C53.8421,147.8777 55.5561,149.4187 57.6751,149.4187 L96.5111,149.4187 L96.5111,164.8677 L105.1601,164.8677 L105.1601,149.4187 L133.6901,149.4187 C135.2891,149.4187 136.7331,148.5127 137.2921,147.1647 L147.2901,122.6807 C148.0421,120.8507 146.9821,118.8087 144.9211,118.1917" id="Fill-690" fill="#208ABE"></path>
            </g>
        </g>
    </g>
</svg>