<?xml version="1.0" encoding="UTF-8"?>
<svg width="46px" height="30px" viewBox="0 0 46 30" version="1.1" xmlns="http://www.w3.org/2000/svg" xmlns:xlink="http://www.w3.org/1999/xlink">
    <!-- Generator: Sketch 51.2 (57519) - http://www.bohemiancoding.com/sketch -->
    <title>034-china</title>
    <desc>Created with Sketch.</desc>
    <defs></defs>
    <g id="Symbols" stroke="none" stroke-width="1" fill="none" fill-rule="evenodd">
        <g id="03---elements" transform="translate(-650.000000, -8593.000000)" fill-rule="nonzero">
            <g id="others">
                <g transform="translate(64.000000, 5809.000000)">
                    <g id="flags" transform="translate(512.000000, 2715.000000)">
                        <g id="Group-5" transform="translate(2.000000, 69.000000)">
                            <g id="034-china" transform="translate(72.000000, 0.000000)">
                                <path d="M42.5549414,0.0245535714 L3.44505859,0.0245535714 C1.54234766,0.0245535714 0,1.55732143 0,3.44821429 L0,26.5517857 C0,28.4425893 1.54234766,29.9754464 3.44505859,29.9754464 L42.5549414,29.9754464 C44.4575625,29.9754464 46,28.4426786 46,26.5517857 L46,3.44821429 C46,1.55732143 44.4576523,0.0245535714 42.5549414,0.0245535714 Z" id="Shape" fill="#FF4B55"></path>
                                <g id="Group" transform="translate(3.503906, 2.232143)" fill="#FFE15A">
                                    <path d="M4.13344141,2.47598214 L4.88956641,4.72901786 L7.27941016,4.74741071 C7.58883203,4.74973214 7.71712891,5.14223214 7.46817187,5.32482143 L5.54569531,6.735625 L6.26651172,9.00008929 C6.35976953,9.29330357 6.02393359,9.53571429 5.77219141,9.35696429 L3.82797266,7.97580357 L1.88375391,9.356875 C1.63201172,9.53571429 1.29617578,9.293125 1.38943359,9 L2.11025,6.73553571 L0.187773437,5.32482143 C-0.0611835938,5.14214286 0.0671132812,4.74973214 0.376535156,4.74741071 L2.76637891,4.72901786 L3.52250391,2.47598214 C3.62043359,2.18428571 4.03560156,2.18428571 4.13344141,2.47598214 Z" id="Shape"></path>
                                    <path d="M12.8116289,3.03116071 L13.3538359,3.76580357 L14.2288242,3.49383929 C14.3421172,3.45866071 14.4352852,3.58705357 14.3659258,3.68267857 L13.8302773,4.42205357 L14.3608945,5.165 C14.429625,5.26116071 14.3355586,5.38892857 14.2225352,5.35294643 L13.3493438,5.07517857 L12.8022852,5.80633929 C12.7314883,5.90098214 12.5801016,5.85151786 12.5796523,5.73366071 L12.5756094,4.8225 L11.7068203,4.53133929 C11.5943359,4.49357143 11.594875,4.33535714 11.7076289,4.29839286 L12.5782148,4.01303571 L12.588457,3.10196429 C12.5897148,2.984375 12.7414609,2.93607143 12.8116289,3.03116071 Z" id="Shape"></path>
                                    <path d="M9.51058984,0.840982143 L10.4219648,0.939375 L10.8108086,0.114285714 C10.8612109,0.0075 11.0194258,0.0258035714 11.0435938,0.14125 L11.2310078,1.03303571 L12.1407656,1.14553571 C12.2585508,1.16008929 12.2899063,1.31526786 12.1868555,1.37392857 L11.3912891,1.82660714 L11.5647773,2.72125 C11.5872383,2.83714286 11.4484297,2.91464286 11.3604727,2.83544643 L10.6813438,2.22339286 L9.87885938,2.66375 C9.775,2.72080357 9.65775391,2.61348214 9.70644922,2.50589286 L10.0822656,1.67482143 L9.41275,1.05232143 C9.32623047,0.972142857 9.392625,0.828303571 9.51058984,0.840982143 Z" id="Shape"></path>
                                    <path d="M10.9515039,9.67080357 L10.4093867,10.405625 L9.53439844,10.1336607 C9.42110547,10.0984821 9.3279375,10.2267857 9.39729687,10.3225 L9.93294531,11.061875 L9.40232812,11.8048214 C9.33359766,11.9009821 9.42766406,12.02875 9.5406875,11.9927679 L10.4137891,11.715 L10.9608477,12.4461607 C11.0316445,12.5408036 11.1830312,12.4913393 11.1834805,12.3734821 L11.1875234,11.4623214 L12.0563125,11.1711607 C12.1687969,11.1333929 12.1682578,10.9751786 12.0555039,10.9382143 L11.184918,10.6528571 L11.1746758,9.74178571 C11.1732383,9.62401786 11.0216719,9.575625 10.9515039,9.67080357 Z" id="Shape"></path>
                                    <path d="M14.2523633,7.61258929 L13.3408984,7.71098214 L12.9520547,6.88589286 C12.9016523,6.77910714 12.7435273,6.79741071 12.7192695,6.91285714 L12.5317656,7.80464286 L11.6220078,7.91714286 C11.5042227,7.93169643 11.4728672,8.086875 11.575918,8.14553571 L12.3714844,8.59821429 L12.1979961,9.49285714 C12.1755352,9.60875 12.3143437,9.68625 12.4023008,9.60705357 L13.0814297,8.995 L13.8839141,9.43535714 C13.9877734,9.49241071 14.1050195,9.38508929 14.0563242,9.2775 L13.6805078,8.44642857 L14.3500234,7.82392857 C14.4369023,7.74375 14.3705078,7.59991071 14.2523633,7.61258929 Z" id="Shape"></path>
                                </g>
                            </g>
                        </g>
                    </g>
                </g>
            </g>
        </g>
    </g>
</svg>