<?xml version="1.0" encoding="UTF-8"?>
<svg width="85px" height="71px" viewBox="0 0 85 71" version="1.1" xmlns="http://www.w3.org/2000/svg" xmlns:xlink="http://www.w3.org/1999/xlink">
    <!-- Generator: Sketch 51.2 (57519) - http://www.bohemiancoding.com/sketch -->
    <title>Drink</title>
    <desc>Created with Sketch.</desc>
    <defs></defs>
    <g id="Symbols" stroke="none" stroke-width="1" fill="none" fill-rule="evenodd">
        <g id="03---elements" transform="translate(-1403.000000, -5021.000000)">
            <g id="icons">
                <g transform="translate(72.000000, 4681.000000)">
                    <g id="Drink" transform="translate(1332.000000, 341.000000)">
                        <g>
                            <g>
                                <polygon id="Path-12" fill="#05C0A5" points="9 23 18.3145021 38 32 26.7937588 26.7672988 25.3204861 24.0348293 23.9554302 19.2236104 25.3204861 16.4191178 23"></polygon>
                                <polygon id="Path-12" fill="#05C0A5" transform="translate(62.500000, 30.500000) scale(-1, 1) translate(-62.500000, -30.500000) " points="51 23 60.3145021 38 74 26.7937588 68.7672988 25.3204861 66.0348293 23.9554302 61.2236104 25.3204861 58.4191178 23"></polygon>
                                <polygon id="Path-2" fill="#FFFFFF" fill-rule="nonzero" points="4.67420511 14.320989 10.0906101 24.59415 15.207335 23.2624439 20.0973375 26.4601084 25.4019974 24.59415 29.47977 27.7447153 40.0872427 19.686139 43.9285959 21.0328522 52.6082349 28.456744 56.2662707 25.745771 61.7163839 25.745771 67.5469846 24.59415 73.6689537 23.2624439 80.3745831 14.320989 70.6786179 14.320989 41.5 17.8386508 4.67420511 12.8387503"></polygon>
                                <g id="Layer_1" fill="#003945" fill-rule="nonzero" stroke="#003945" stroke-width="1.2">
                                    <path d="M82.7207612,13.7745336 C83.0687928,13.2217345 83.0649713,12.5172947 82.7109626,11.9683056 C82.3506621,11.4246718 81.7110795,11.13524 81.0649625,11.2234372 L41.348803,16.9920277 C41.2958941,17.0129269 41.2441703,17.0367112 41.1938645,17.0632734 L2.48846714,11.0797083 C1.84381953,10.9863707 1.20272684,11.2707924 0.83922318,11.8113979 C0.480150888,12.3560374 0.469945636,13.0596537 0.813071246,13.6144817 L16.7443144,39.2922201 L13.0084003,63.474937 L4.74515832,62.1967297 C3.83482889,62.0656017 2.98696143,62.6871502 2.83790647,63.5948839 C2.77022441,64.0332755 2.87950159,64.4805994 3.14168095,64.8383785 C3.40386031,65.1961576 3.79744828,65.435061 4.23579757,65.5024948 L24.0628094,68.5697375 C24.1481961,68.5827579 24.2344439,68.5893102 24.3208173,68.5893384 C25.1939383,68.5873859 25.918576,67.9138571 25.9844338,67.0430572 C26.0502915,66.1722574 25.4351963,65.3973677 24.5723039,65.2640727 L16.313376,63.9863337 L20.0491229,39.8034161 L41.8548529,21.1012298 L63.2472352,39.7895349 L66.763132,64.0000142 L58.4882521,65.2018582 C57.6209791,65.3281641 56.9982306,66.102606 57.0608564,66.9769488 C57.1234822,67.8512916 57.8502452,68.5290368 58.7266628,68.5304019 C58.8085589,68.5298433 58.8903485,68.5243926 58.9715947,68.5140789 L78.8312797,65.6298004 C79.7443059,65.4938973 80.3761452,64.6459359 80.2453904,63.73199 C80.0959673,62.8269538 79.2577273,62.2021341 78.3479037,62.3176131 L70.0750972,63.5190558 L66.5592004,39.3085765 L82.7207612,13.7745336 Z M55.1156893,28.2431556 C56.1680389,27.8216935 57.1233334,27.1898817 57.9231095,26.3863867 C61.1779387,28.2072562 65.2496765,27.6151364 67.8513133,24.9426085 C68.8469058,25.4852358 69.9427874,25.8188312 71.0718136,25.9229554 L64.4449737,36.3915852 L55.1156893,28.2431556 Z M18.8830543,36.3979405 L12.350522,25.8680327 C13.4796366,25.7745879 14.5778569,25.4519182 15.578112,24.9197296 C18.1557804,27.6156237 22.2223848,28.2439394 25.4932399,26.4516785 C26.2863633,27.2624927 27.2365566,27.9029184 28.2856779,28.3337681 L18.8830543,36.3979405 Z M31.4094628,25.6542288 C31.1726665,25.6505684 30.9363807,25.6310576 30.7021901,25.5958275 C29.2741027,25.3734189 28.015021,24.5366559 27.256723,23.3060321 C26.998539,22.8982733 26.5768162,22.6219573 26.0999402,22.5480992 C25.6230643,22.4742412 25.1375371,22.6100431 24.7681424,22.9206031 C23.6739087,23.8668834 22.2195048,24.285009 20.7899018,24.064305 C19.3602987,23.8436011 18.0996333,23.0063195 17.3415951,21.7740832 C17.0825751,21.366372 16.6603142,21.0902205 16.1830208,21.0163949 C15.7057273,20.9425694 15.2197909,21.0782452 14.8497372,21.3886542 C13.7465745,22.3226524 12.2955031,22.7378304 10.8653797,22.5286517 C10.6239203,22.4809797 10.3865584,22.4144929 10.1554651,22.3297993 L5.57141897,14.9406544 L38.0471046,19.9612993 L31.4094628,25.6542288 Z M77.9493375,15.058193 L73.2722213,22.4468028 L73.270382,22.4468028 C73.0443137,22.5137139 72.8136612,22.5640207 72.5802652,22.5973218 C71.1474048,22.8093834 69.6940388,22.377833 68.6089837,21.4181225 C68.2386757,21.1105636 67.7571425,20.9709331 67.2797832,21.0326935 C66.8028637,21.103596 66.379395,21.3760408 66.1171257,21.780706 C65.3425603,23.0001311 64.0772455,23.8235686 62.648784,24.037822 C61.2176095,24.2481296 59.7664003,23.8180626 58.6807798,22.8619007 C58.3117588,22.5519228 57.829145,22.4119791 57.3515794,22.4764717 C56.8746599,22.5473743 56.4511911,22.819819 56.1889219,23.2244843 C55.3250228,24.7155257 53.6976394,25.595556 51.9771897,25.5020374 L45.4279362,19.781613 L77.9493375,15.058193 Z" id="Shape"></path>
                                    <path d="M41.5840366,7.14032508 C42.0275889,7.14058261 42.4530484,6.96446302 42.7666873,6.65076509 C43.0803262,6.33706716 43.2564126,5.91152755 43.2561552,5.46789176 L43.2561552,2.12302512 C43.2561552,1.1993657 42.5075222,0.450591795 41.5840366,0.450591795 C40.660551,0.450591795 39.9119181,1.1993657 39.9119181,2.12302512 L39.9119181,5.46789176 C39.9116606,5.91152755 40.087747,6.33706716 40.4013859,6.65076509 C40.7150248,6.96446302 41.1404843,7.14058261 41.5840366,7.14032508 Z" id="Shape"></path>
                                    <path d="M49.9152335,10.4851917 C50.3587769,10.4857476 50.7842476,10.309453 51.0974547,9.995336 L53.4618303,7.63051529 C54.1035278,6.97559803 54.0982275,5.92597922 53.4499487,5.27757839 C52.80167,4.62917756 51.7522487,4.62387632 51.0974547,5.26569457 L48.7330791,7.63051529 C48.255131,8.10883294 48.1122153,8.82796438 48.3709418,9.45273924 C48.6296682,10.0775141 49.2391151,10.4849662 49.9152335,10.4851917 Z" id="Shape"></path>
                                    <path d="M31.0320322,9.995336 C31.6868262,10.6371542 32.7362475,10.631853 33.3845263,9.98345218 C34.0328051,9.33505135 34.0381053,8.28543254 33.3964079,7.63051529 L31.0320322,5.26569457 C30.3772383,4.62387632 29.327817,4.62917756 28.6795382,5.27757839 C28.0312594,5.92597922 28.0259592,6.97559803 28.6676566,7.63051529 L31.0320322,9.995336 Z" id="Shape"></path>
                                </g>
                            </g>
                        </g>
                    </g>
                </g>
            </g>
        </g>
    </g>
</svg>