<?xml version="1.0" encoding="UTF-8"?>
<svg width="70px" height="70px" viewBox="0 0 70 70" version="1.1" xmlns="http://www.w3.org/2000/svg" xmlns:xlink="http://www.w3.org/1999/xlink">
    <!-- Generator: Sketch 51.2 (57519) - http://www.bohemiancoding.com/sketch -->
    <title>Driving Deeper</title>
    <desc>Created with Sketch.</desc>
    <defs></defs>
    <g id="Symbols" stroke="none" stroke-width="1" fill="none" fill-rule="evenodd">
        <g id="03---elements" transform="translate(-1411.000000, -5595.000000)">
            <g id="icons">
                <g transform="translate(72.000000, 4681.000000)">
                    <g id="Driving-Deeper" transform="translate(1339.000000, 914.000000)">
                        <g>
                            <g>
                                <polygon id="Path-3" fill="#FFFFFF" points="7.74254713 26.7596258 34.6172016 32.9415242 62.4474954 26.2801004 62.4474954 36.8543004 57.6029614 40.1802739 57.6029614 49.9140724 61.8440135 53.3101742 62.4474954 57.5948196 62.4474954 61.8487602 35.0950213 67.1432521 7.17014913 61.3256415 7.17014913 52.2453623 11.2482005 51.1949551 12.8945082 46.7116762 12.3994408 39.2792209 7.74254713 37.6784019 7.17014913 31.0294874"></polygon>
                                <polygon id="Path" fill="#FFFFFF" points="22.4304313 16.9754108 23.7052488 9.0403067 27.2715537 4.7530078 31.1164761 2.91830165 36.2290137 2.91830165 42.3055302 4.7530078 45.198225 6.71356571 47.4146561 11.4955529 47.4146561 15.5948323 47.874849 29.346789 35.3173467 32.6196925 22.4304313 29.346789"></polygon>
                                <rect id="Rectangle-7" fill="#05C0A5" x="3.58974359" y="37.6923077" width="8.97435897" height="14.3589744"></rect>
                                <rect id="Rectangle-7" fill="#05C0A5" x="57.4358974" y="37.6923077" width="8.97435897" height="14.3589744"></rect>
                                <path d="M65.625,35.8480924 L65.625,23.5530584 L50.3125,27.0938002 L50.3125,15.3468685 C50.3125,6.87101228 43.456875,0 35,0 C26.543125,0 19.6875,6.87101228 19.6875,15.3468685 L19.6875,27.0938002 L4.375,23.5530584 L4.375,35.8480924 C1.71253906,37.113798 0.0112109375,39.7986779 0,42.7519909 L0,47.1368104 C0.0112109375,50.0901234 1.71253906,52.7750033 4.375,54.0407089 L4.375,63.1984045 L26.613125,67.4845657 L27.6493738,63.1984045 L8.75,59.5765436 L8.75,54.6984318 C12.5073047,54.1606063 15.3016992,50.9407784 15.3125,47.1368104 L15.3125,42.7519909 C15.3016992,38.9480229 12.5073047,35.728195 8.75,35.1903695 L8.75,29.0647766 L32.8125,34.6400746 L32.8125,58.931427 L37.1875,58.931427 L37.1875,34.6400746 L61.25,29.0735462 L61.25,35.1991391 C57.4959766,35.7364166 54.7025391,38.9513115 54.6875,42.7519909 L54.6875,47.1368104 C54.6983008,50.9407784 57.4926953,54.1606063 61.25,54.6984318 L61.25,59.5765436 L37.1875,64.2134903 L37.1875,54.8102447 L32.8125,54.8102447 L32.8125,64.2134903 L27.4378125,63.1786729 L26.613125,67.4845657 L35,69.1025641 L65.625,63.1984045 L65.625,54.0407089 C68.2874609,52.7750033 69.9887891,50.0901234 70,47.1368104 L70,42.7519909 C69.9887891,39.7986779 68.2874609,37.113798 65.625,35.8480924 Z M10.9375,42.7519909 L10.9375,47.1368104 C10.9375,48.9530849 9.46845703,50.4254251 7.65625,50.4254251 C5.84404297,50.4254251 4.375,48.9530849 4.375,47.1368104 L4.375,42.7519909 C4.375,40.9357164 5.84404297,39.4633762 7.65625,39.4633762 C9.46845703,39.4633762 10.9375,40.9357164 10.9375,42.7519909 Z M35,4.38481958 C40.4739453,4.40194778 45.0890234,8.47900783 45.793125,13.9196097 L39.62875,10.8305044 L24.1259375,14.7154545 C24.4513281,8.93023317 29.2185742,4.40112562 35,4.38481958 Z M45.9375,28.1066935 L35,30.6367344 L24.0625,28.1066935 L24.0625,19.2515503 L39.12125,15.4784131 L45.9375,18.8941876 L45.9375,28.1066935 Z M65.625,47.1368104 C65.625,48.9530849 64.155957,50.4254251 62.34375,50.4254251 C60.531543,50.4254251 59.0625,48.9530849 59.0625,47.1368104 L59.0625,42.7519909 C59.0625,40.9357164 60.531543,39.4633762 62.34375,39.4633762 C64.155957,39.4633762 65.625,40.9357164 65.625,42.7519909 L65.625,47.1368104 Z" id="Shape" fill="#003945" fill-rule="nonzero"></path>
                            </g>
                        </g>
                    </g>
                </g>
            </g>
        </g>
    </g>
</svg>