<?xml version="1.0" encoding="UTF-8"?>
<svg width="69px" height="69px" viewBox="0 0 69 69" version="1.1" xmlns="http://www.w3.org/2000/svg" xmlns:xlink="http://www.w3.org/1999/xlink">
    <!-- Generator: Sketch 51.2 (57519) - http://www.bohemiancoding.com/sketch -->
    <title>ENS</title>
    <desc>Created with Sketch.</desc>
    <defs></defs>
    <g id="Symbols" stroke="none" stroke-width="1" fill="none" fill-rule="evenodd">
        <g id="03---elements" transform="translate(-1161.000000, -5218.000000)">
            <g id="icons">
                <g transform="translate(72.000000, 4681.000000)">
                    <g id="ENS" transform="translate(1090.000000, 538.000000)">
                        <g>
                            <rect id="Rectangle-3" fill="#FFFFFF" x="1.97058824" y="17.7352941" width="62.0735294" height="46.3088235"></rect>
                            <g id="Group-13">
                                <rect id="Rectangle" fill="#05C0A5" x="2.95588235" y="2.95588235" width="62.0735294" height="14.7794118"></rect>
                                <g id="browser" fill="#003945" fill-rule="nonzero" stroke="#003945" stroke-width="0.5">
                                    <path d="M61.1113281,0 L5.88867187,0 C2.6416582,0 0,2.6416582 0,5.88867187 L0,61.1113281 C0,64.3583418 2.6416582,67 5.88867187,67 L61.1113281,67 C64.3583418,67 67,64.3583418 67,61.1113281 L67,5.88867187 C67,2.6416582 64.3584727,0 61.1113281,0 Z M63.0742187,61.1113281 C63.0742187,62.193666 62.1937969,63.0742188 61.1113281,63.0742188 L5.88867187,63.0742188 C4.80633398,63.0742188 3.92578125,62.193666 3.92578125,61.1113281 L3.92578125,19.6289063 L63.0742187,19.6289063 L63.0742187,61.1113281 Z M63.0742187,15.703125 L3.92578125,15.703125 L3.92578125,5.88867187 C3.92578125,4.80633398 4.80633398,3.92578125 5.88867187,3.92578125 L61.1113281,3.92578125 C62.193666,3.92578125 63.0742187,4.80633398 63.0742187,5.88867187 L63.0742187,15.703125 Z" id="Shape"></path>
                                    <path d="M56.4537037,7.44444444 L52.7314815,7.44444444 C51.7036519,7.44444444 50.8703704,8.27772593 50.8703704,9.30555556 C50.8703704,10.3333852 51.7036519,11.1666667 52.7314815,11.1666667 L56.4537037,11.1666667 C57.4815333,11.1666667 58.3148148,10.3333852 58.3148148,9.30555556 C58.3148148,8.27772593 57.4815333,7.44444444 56.4537037,7.44444444 Z" id="Shape"></path>
                                    <path d="M45.287037,7.44444444 L41.5648148,7.44444444 C40.5369852,7.44444444 39.7037037,8.27772593 39.7037037,9.30555556 C39.7037037,10.3333852 40.5369852,11.1666667 41.5648148,11.1666667 L45.287037,11.1666667 C46.3148667,11.1666667 47.1481481,10.3333852 47.1481481,9.30555556 C47.1481481,8.27772593 46.3148667,7.44444444 45.287037,7.44444444 Z" id="Shape"></path>
                                    <path d="M34.1203704,7.44444444 L30.3981481,7.44444444 C29.3703185,7.44444444 28.537037,8.27772593 28.537037,9.30555556 C28.537037,10.3333852 29.3703185,11.1666667 30.3981481,11.1666667 L34.1203704,11.1666667 C35.1482,11.1666667 35.9814815,10.3333852 35.9814815,9.30555556 C35.9814815,8.27772593 35.1482,7.44444444 34.1203704,7.44444444 Z" id="Shape"></path>
                                    <path d="M34.1203704,23.5740741 C24.2002759,23.5740741 16.1296296,31.6447204 16.1296296,41.5648148 C16.1296296,51.4849093 24.2002759,59.5555556 34.1203704,59.5555556 C44.0405981,59.5555556 52.1111111,51.4849093 52.1111111,41.5648148 C52.1111111,31.6447204 44.0405981,23.5740741 34.1203704,23.5740741 Z M47.9697759,39.5658436 L42.0701455,39.5658436 C41.9024985,35.809377 41.2658928,32.310511 40.232558,29.5549959 C40.139939,29.307923 40.045321,29.0733771 39.9496369,28.8454944 C44.1834579,30.7936917 47.2843953,34.7946992 47.9697759,39.5658436 Z M20.2709649,43.563786 L26.1705952,43.563786 C26.3382422,47.3202527 26.9748479,50.8191186 28.0081828,53.5746337 C28.1008018,53.8217066 28.1954198,54.0562525 28.2911038,54.2841353 C24.0574161,52.3359379 20.9564787,48.3349305 20.2709649,43.563786 Z M28.0081828,29.5551291 C26.9748479,32.3106443 26.3382422,35.8095102 26.1705952,39.5659769 L20.2709649,39.5659769 C20.9564787,34.7948324 24.0574161,30.7936917 28.2911038,28.8456276 C28.1954198,29.0735104 28.1008018,29.3080563 28.0081828,29.5551291 Z M36.4891512,52.1708229 C35.4524848,54.9354001 34.4054237,55.5576132 34.1203704,55.5576132 C33.8353171,55.5576132 32.7883892,54.9354001 31.7515895,52.1708229 C30.8767064,49.8378903 30.3305875,46.8346359 30.1718692,43.563786 L38.0688715,43.563786 C37.9101532,46.8345027 37.3640343,49.8378903 36.4891512,52.1708229 Z M30.1718692,39.5658436 C30.3305875,36.295127 30.8767064,33.2917394 31.7515895,30.9588067 C32.7883892,28.1942296 33.8353171,27.5720165 34.1203704,27.5720165 C34.4054237,27.5720165 35.4524848,28.1942296 36.4891512,30.9588067 C37.3640343,33.2917394 37.9101532,36.2949937 38.0688715,39.5658436 L30.1718692,39.5658436 Z M39.9496369,54.2841353 C40.045321,54.0562525 40.139939,53.8215733 40.232558,53.5746337 C41.2658928,50.8191186 41.9024985,47.3202527 42.0701455,43.563786 L47.9697759,43.563786 C47.2843953,48.3349305 44.1834579,52.3360712 39.9496369,54.2841353 Z" id="Shape"></path>
                                </g>
                            </g>
                        </g>
                    </g>
                </g>
            </g>
        </g>
    </g>
</svg>