<?xml version="1.0" encoding="UTF-8"?>
<svg width="87px" height="65px" viewBox="0 0 87 65" version="1.1" xmlns="http://www.w3.org/2000/svg" xmlns:xlink="http://www.w3.org/1999/xlink">
    <!-- Generator: Sketch 51.2 (57519) - http://www.bohemiancoding.com/sketch -->
    <title>Eye</title>
    <desc>Created with Sketch.</desc>
    <defs></defs>
    <g id="Symbols" stroke="none" stroke-width="1" fill="none" fill-rule="evenodd">
        <g id="03---elements" transform="translate(-890.000000, -4735.000000)">
            <g id="Eye" transform="translate(890.000000, 4735.000000)">
                <polygon id="Path-11" fill="#FFFFFF" points="7 33.1196656 19.2383162 14.8231978 38.1234016 7 51.4098676 7 72.258289 14.8231978 79.5246124 30.8131213 82 38.5035268 65.7883331 53.1193388 51.4098676 60 34.847403 60 19.2383162 53.1193388 9.16843952 42.2982107"></polygon>
                <circle id="Oval" fill="#05C0A5" cx="42" cy="33" r="11"></circle>
                <path d="M43.5,0 C14.5,0 0,32.6498611 0,32.6498611 C0,32.6498611 14.5,65 43.5,65 C72.5,65 87,32.5 87,32.5 C87,32.5 72.5,0 43.5,0 Z M43.5,57.7777778 C24.3364375,57.7777778 12.2370937,39.82875 8.15896875,32.6336111 C12.234375,25.3698611 24.3364375,7.22222222 43.5,7.22222222 C62.6671875,7.22222222 74.7674375,25.2759722 78.8419375,32.5 C74.7601875,39.7366667 62.6626562,57.7777778 43.5,57.7777778 Z M43.5,18.0555556 C35.492375,18.0555556 29,24.5230556 29,32.5 C29,40.4778472 35.492375,46.9444444 43.5,46.9444444 C51.5085312,46.9444444 58,40.4778472 58,32.5 C58,24.5230556 51.5085312,18.0555556 43.5,18.0555556 Z M43.5,39.7222222 C39.5025312,39.7222222 36.25,36.4821528 36.25,32.5 C36.25,28.5178472 39.5025312,25.2777778 43.5,25.2777778 C47.4974688,25.2777778 50.75,28.5178472 50.75,32.5 C50.75,36.4821528 47.4974688,39.7222222 43.5,39.7222222 Z" id="Shape" fill="#003945" fill-rule="nonzero"></path>
            </g>
        </g>
    </g>
</svg>