<?xml version="1.0" encoding="UTF-8"?>
<svg width="80px" height="80px" viewBox="0 0 80 80" version="1.1" xmlns="http://www.w3.org/2000/svg" xmlns:xlink="http://www.w3.org/1999/xlink">
    <!-- Generator: Sketch 51.2 (57519) - http://www.bohemiancoding.com/sketch -->
    <title>Github</title>
    <desc>Created with Sketch.</desc>
    <defs></defs>
    <g id="Symbols" stroke="none" stroke-width="1" fill="none" fill-rule="evenodd">
        <g id="03---elements" transform="translate(-1322.000000, -6950.000000)" fill="#3E75C3" fill-rule="nonzero">
            <g id="others">
                <g transform="translate(64.000000, 5809.000000)">
                    <g id="Community-icons" transform="translate(876.000000, 1077.000000)">
                        <g id="Group-25" transform="translate(0.000000, 64.000000)">
                            <g id="github" transform="translate(382.000000, 0.000000)">
                                <g id="Github">
                                    <g id="Github-color">
                                        <g id="Icons">
                                            <g id="Color-">
                                                <path d="M39.9983333,0 C17.9083333,0 0,18.3608511 0,41.0161702 C0,59.133617 11.46,74.5055319 27.3566667,79.9285106 C29.3566667,80.306383 30.0883333,79.04 30.0883333,77.9540426 C30.0883333,76.9787234 30.0533333,74.4 30.0316667,70.9787234 C18.905,73.4570213 16.5566667,65.4808511 16.5566667,65.4808511 C14.74,60.7421277 12.1183333,59.4808511 12.1183333,59.4808511 C8.485,56.9361702 12.3933333,56.987234 12.3933333,56.987234 C16.405,57.2765957 18.5166667,61.213617 18.5166667,61.213617 C22.0883333,67.4825532 27.88,65.6731915 30.16,64.6212766 C30.5216667,61.9710638 31.5566667,60.1634043 32.7,59.1387234 C23.8166667,58.1021277 14.48,54.5855319 14.48,38.8697872 C14.48,34.3931915 16.0366667,30.7319149 18.5966667,27.8638298 C18.185,26.8255319 16.8133333,22.6570213 18.9883333,17.0093617 C18.9883333,17.0093617 22.3466667,15.9080851 29.9883333,21.213617 C33.18,20.3046809 36.6,19.8502128 40.0016667,19.8331915 C43.4,19.8502128 46.8216667,20.3046809 50.0183333,21.213617 C57.6516667,15.9080851 61.005,17.0093617 61.005,17.0093617 C63.1883333,22.6570213 61.815,26.8255319 61.4033333,27.8638298 C63.9666667,30.7319149 65.515,34.3914894 65.515,38.8697872 C65.515,54.6246809 56.1633333,58.0919149 47.2533333,59.1080851 C48.6866667,60.3744681 49.9683333,62.8748936 49.9683333,66.7029787 C49.9683333,72.1838298 49.9183333,76.6076596 49.9183333,77.9540426 C49.9183333,79.0502128 50.6383333,80.3268085 52.6683333,79.9234043 C68.55,74.4902128 80,59.1285106 80,41.0161702 C80,18.3608511 62.09,0 39.9983333,0" id="Github"></path>
                                            </g>
                                        </g>
                                    </g>
                                </g>
                            </g>
                        </g>
                    </g>
                </g>
            </g>
        </g>
    </g>
</svg>