<?xml version="1.0" encoding="UTF-8"?>
<svg width="76px" height="76px" viewBox="0 0 76 76" version="1.1" xmlns="http://www.w3.org/2000/svg" xmlns:xlink="http://www.w3.org/1999/xlink">
    <!-- Generator: Sketch 51.2 (57519) - http://www.bohemiancoding.com/sketch -->
    <title>hardware icon</title>
    <desc>Created with Sketch.</desc>
    <defs></defs>
    <g id="Symbols" stroke="none" stroke-width="1" fill="none" fill-rule="evenodd">
        <g id="03---elements" transform="translate(-373.000000, -4821.000000)">
            <g id="icons">
                <g transform="translate(72.000000, 4681.000000)">
                    <g id="hardware-icon" transform="translate(302.000000, 141.000000)">
                        <g>
                            <g>
                                <polygon id="Path-3" fill="#FFFFFF" points="35.1345944 15.5100448 57.991076 38.3497103 25.1710995 72.0644395 19.9840564 70.7457829 5.40736521 56.5411462 3.49874635 48.9942543 5.40736521 44.619285"></polygon>
                                <polygon id="Path-4" fill="#FFFFFF" points="40.0028337 17.5623005 56.7557988 35.4433406 70.7123991 20.0755956 52.7430748 3.05077142"></polygon>
                                <path d="M73.3513154,18.6893597 L54.9543877,0.621306477 C54.1121256,-0.206137547 52.7625117,-0.207149268 51.9188042,0.618560374 L38.1208554,14.1207125 L36.5713362,12.5713326 C35.7134633,11.7136814 34.3346513,11.7329041 33.4968702,12.5797154 L3.17789486,43.2298319 C-1.05032695,47.4576734 -1.06449233,54.3051521 3.16662038,58.5478803 L15.087367,70.801423 C15.0943052,70.8086496 15.1013879,70.8157316 15.1084706,70.8226691 C19.345076,75.0588935 26.2021324,75.0593271 30.4390269,70.8226691 L61.1004287,40.1638808 C61.9471716,39.317214 61.9471716,37.9447409 61.1004287,37.0980742 L59.5673875,35.5651709 L73.3651917,21.7687523 C74.2169937,20.9174605 74.2107783,19.5331358 73.3513154,18.6893597 Z M27.3729445,67.7568626 C24.828524,70.3010542 20.7217198,70.2935386 18.1840929,67.7664017 L6.26522529,55.5147379 C6.25828715,55.5075113 6.25120446,55.5004293 6.24412177,55.4933472 C3.71314392,52.9627416 3.68755951,48.8519707 6.25236081,46.2872556 L35.0466786,17.1782807 L56.5013051,38.6309775 L27.3729445,67.7568626 Z M56.5013051,32.4993643 C54.2850011,30.2832597 41.4208111,17.4202268 41.1872269,17.1866636 L53.4324764,5.20397332 L68.7521919,20.249724 L56.5013051,32.4993643 Z" id="Shape" stroke="#003945" fill="#003945" fill-rule="nonzero"></path>
                                <path d="M18.7399786,36.4371596 L43.3795866,36.4371596 C43.9318714,36.4371596 44.3795866,36.8848749 44.3795866,37.4371596 L44.3795866,50.729576 C44.3795866,51.2818608 43.9318714,51.729576 43.3795866,51.729576 L18.7399786,51.729576 C16.5308396,51.729576 14.7399786,49.938715 14.7399786,47.729576 L14.7399786,40.4371596 C14.7399786,38.2280206 16.5308396,36.4371596 18.7399786,36.4371596 Z" id="Rectangle" stroke="#003945" stroke-width="3.8" fill="#05C0A5" transform="translate(29.559783, 44.083368) rotate(-45.000000) translate(-29.559783, -44.083368) "></path>
                                <g id="Group" transform="translate(24.130435, 38.608696)" stroke="#003945" stroke-linecap="round" stroke-width="3.8">
                                    <path d="M0,10.7447286 L1.09751447,9.56856379" id="Line"></path>
                                    <path d="M5.63043478,5.11429383 L10.0204927,0.409634536" id="Line"></path>
                                </g>
                                <path d="M55.6143044,12.7552844 C54.6945606,11.8351951 53.2029611,11.8351951 52.2827461,12.7552844 L48.9510308,16.0869565 C48.0308158,17.0070459 48.0308158,18.4986964 48.9510308,19.4186286 C49.8709316,20.338718 51.3625312,20.338718 52.2825891,19.4186286 L55.6143044,16.0869565 C56.5343623,15.1668672 56.5343623,13.6752167 55.6143044,12.7552844 Z" id="Shape" fill="#003945" fill-rule="nonzero"></path>
                                <path d="M61.2447257,18.3857192 C60.3248069,17.4656298 58.8331783,17.4656298 57.9131024,18.3857192 L54.5814791,21.7173913 C53.6612461,22.6374807 53.6612461,24.1289741 54.5814791,25.0490634 C55.5013979,25.9691528 56.9930265,25.9691528 57.9131024,25.0490634 L61.2447257,21.7173913 C62.1648016,20.797459 62.1648016,19.3058085 61.2447257,18.3857192 Z" id="Shape" fill="#003945" fill-rule="nonzero"></path>
                            </g>
                        </g>
                    </g>
                </g>
            </g>
        </g>
    </g>
</svg>