<?xml version="1.0" encoding="UTF-8"?>
<svg width="82px" height="76px" viewBox="0 0 82 76" version="1.1" xmlns="http://www.w3.org/2000/svg" xmlns:xlink="http://www.w3.org/1999/xlink">
    <!-- Generator: Sketch 51.2 (57519) - http://www.bohemiancoding.com/sketch -->
    <title>reception</title>
    <desc>Created with Sketch.</desc>
    <defs></defs>
    <g id="Symbols" stroke="none" stroke-width="1" fill="none" fill-rule="evenodd">
        <g id="03---elements" transform="translate(-113.000000, -5016.000000)">
            <g id="icons">
                <g transform="translate(72.000000, 4681.000000)">
                    <g id="reception" transform="translate(41.000000, 335.000000)">
                        <g>
                            <rect id="Rectangle-path" fill="#FFFFFF" fill-rule="nonzero" x="18" y="55" width="41" height="9"></rect>
                            <path d="M58.7454494,68 L19.2545506,68 C18.0095325,68 17,66.9906421 17,65.7454946 L17,56.2545054 C17,55.0093579 18.0095325,54 19.2545506,54 L58.7454494,54 C59.9904675,54 61,55.0093579 61,56.2545054 L61,65.7454946 C61,66.9906421 59.9904675,68 58.7454494,68 Z M21.5091011,63.4908349 L56.4908989,63.4908349 L56.4908989,58.5090107 L21.5091011,58.5090107 L21.5091011,63.4908349 Z" id="Shape" fill="#003945" fill-rule="nonzero"></path>
                            <path d="M67.2094228,73 L11.7905772,73 C9.14487881,73 7,70.985221 7,68.5 C7,66.014779 9.14487881,64 11.7905772,64 L67.2094228,64 C69.8551212,64 72,66.014779 72,68.5 C72.0001558,70.985221 69.855277,73 67.2094228,73 Z" id="Shape" fill="#05C0A5" fill-rule="nonzero"></path>
                            <g id="Group" fill="#003945" fill-rule="nonzero">
                                <path d="M66.8915462,75.9964191 L12.16407,75.9964191 C8.31627749,75.9964191 5.18595606,72.7550695 5.18595606,68.7708011 C5.18595606,64.7865327 8.31627749,61.5450238 12.16407,61.5450238 L66.8915462,61.5450238 C70.7393387,61.5450238 73.8696601,64.786692 73.8696601,68.7708011 C73.8696601,72.7550695 70.7393387,75.9964191 66.8915462,75.9964191 Z M12.16407,66.1994164 C10.794814,66.1994164 9.6810724,67.3529794 9.6810724,68.7708011 C9.6810724,70.1886227 10.7949678,71.3418672 12.16407,71.3418672 L66.8915462,71.3418672 C68.2608022,71.3418672 69.3745438,70.1884634 69.3745438,68.7708011 C69.3745438,67.3531387 68.2606484,66.1994164 66.8915462,66.1994164 L12.16407,66.1994164 Z" id="Shape"></path>
                                <path d="M40.5278081,9.32105037 C39.2505539,9.32105037 38.2148824,8.27914818 38.2148824,6.99385407 L38.2148824,2.47039613 C38.2148824,1.18510202 39.2505539,0.143199827 40.5278081,0.143199827 C41.8050623,0.143199827 42.8407337,1.18510202 42.8407337,2.47039613 L42.8407337,6.99385407 C42.8407337,8.27914818 41.8050623,9.32105037 40.5278081,9.32105037 Z" id="Shape"></path>
                                <path d="M78.7423739,40.9207444 L74.2463378,40.9207444 C72.9690835,40.9207444 71.9334121,39.8788422 71.9334121,38.5935481 C71.9334121,37.308254 72.9690835,36.2663518 74.2463378,36.2663518 L78.7422156,36.2663518 C80.0194698,36.2663518 81.0551412,37.308254 81.0551412,38.5935481 C81.0552995,39.8788422 80.0197864,40.9207444 78.7423739,40.9207444 Z" id="Shape"></path>
                                <path d="M6.80896178,40.9207444 L2.31292564,40.9207444 C1.03567142,40.9207444 0,39.8788422 0,38.5935481 C0,37.308254 1.03567142,36.2663518 2.31292564,36.2663518 L6.80896178,36.2663518 C8.086216,36.2663518 9.12188742,37.308254 9.12188742,38.5935481 C9.12188742,39.8788422 8.08605768,40.9207444 6.80896178,40.9207444 Z" id="Shape"></path>
                                <path d="M62.7347438,18.5764741 C62.1426602,18.5764741 61.5508932,18.3493296 61.0992315,17.8948812 C60.1960665,16.9861437 60.1960665,15.512412 61.0992315,14.6036745 L64.278119,11.4051733 C65.1820756,10.4965951 66.6461369,10.4964358 67.5493019,11.4051733 C68.4524669,12.3139108 68.4524669,13.7876425 67.5493019,14.69638 L64.3704144,17.8948812 C63.9187528,18.3491703 63.3266691,18.5764741 62.7347438,18.5764741 Z" id="Shape"></path>
                                <path d="M18.3205557,18.5764741 C17.7284721,18.5764741 17.1367051,18.3493296 16.6850434,17.8948812 L13.5061559,14.69638 C12.6029909,13.7876425 12.6029909,12.3139108 13.5061559,11.4051733 C14.4096375,10.4964358 15.8736989,10.4961173 16.7773388,11.4051733 L19.9562264,14.6036745 C20.8593914,15.512412 20.8593914,16.9861437 19.9562264,17.8948812 C19.5042481,18.3491703 18.9126394,18.5764741 18.3205557,18.5764741 Z" id="Shape"></path>
                            </g>
                            <g id="Group-2" transform="translate(1.000000, 51.000000)"></g>
                            <g id="Group" transform="translate(9.000000, 15.000000)">
                                <path d="M57.1008617,42.0172573 C57.1006741,42.0189766 57.1005168,42.0205806 57.1003862,42.0220738 C57.1007413,42.0180136 57.1010684,42.0135531 57.1013685,42.0085277 Z M57.0872356,40.6562958 C56.5750437,23.0493117 44.4098811,10.5360465 29.3202712,10.5360465 C14.2498081,10.5360465 2.66136039,23.1322025 2.35617187,40.6562958 C4.78482742,40.6562958 5.71572853,40.6562958 11.7364671,40.6562958 C19.9717271,40.6562958 19.9717271,40.6562958 29.320351,40.6562958 C37.8336579,40.6562958 37.8336579,40.6562958 45.506172,40.6562958 C51.0326241,40.6562958 51.0326241,40.6562958 55.0564211,40.6562958 C55.9757042,40.6562958 56.618635,40.6562958 57.0872356,40.6562958 Z" id="Oval" stroke="#003945" stroke-width="4.7" fill="#FFFFFF"></path>
                                <path d="M29.704966,11.779682 C28.4502099,11.779682 27.4327813,10.7482384 27.4327813,9.47584605 L27.4327813,2.94831082 C27.4327813,1.67591846 28.4502099,0.644474852 29.704966,0.644474852 C30.9597221,0.644474852 31.9771507,1.67591846 31.9771507,2.94831082 L31.9771507,9.47584605 C31.9771507,10.7482384 30.9597221,11.779682 29.704966,11.779682 Z" id="Shape" fill="#003945" fill-rule="nonzero"></path>
                                <path d="M35.2718963,4.71426968 L24.1380357,4.71426968 C22.8832796,4.71426968 21.865851,3.68282608 21.865851,2.41043371 C21.865851,1.13804135 22.8832796,0.106597749 24.1380357,0.106597749 L35.2718963,0.106597749 C36.5266524,0.106597749 37.5440811,1.13804135 37.5440811,2.41043371 C37.5440811,3.68282608 36.5266524,4.71426968 35.2718963,4.71426968 Z" id="Shape" fill="#003945" fill-rule="nonzero"></path>
                            </g>
                        </g>
                    </g>
                </g>
            </g>
        </g>
    </g>
</svg>