<?xml version="1.0" encoding="UTF-8"?>
<svg width="62px" height="62px" viewBox="0 0 62 62" version="1.1" xmlns="http://www.w3.org/2000/svg" xmlns:xlink="http://www.w3.org/1999/xlink">
    <!-- Generator: Sketch 51.2 (57519) - http://www.bohemiancoding.com/sketch -->
    <title>key</title>
    <desc>Created with Sketch.</desc>
    <defs></defs>
    <g id="Symbols" stroke="none" stroke-width="1" fill="none" fill-rule="evenodd">
        <g id="03---elements" transform="translate(-1165.000000, -5599.000000)" stroke="#003945">
            <g id="icons">
                <g transform="translate(72.000000, 4681.000000)">
                    <g id="key" transform="translate(1094.000000, 919.000000)">
                        <g>
                            <circle id="Oval-5" fill="#05C0A5" fill-rule="nonzero" cx="17" cy="18" r="14"></circle>
                            <path d="M59.3294998,44.3961735 C58.3866441,43.3796893 56.8070548,43.3307021 55.8029747,44.2737055 L50.5009421,49.209165 L44.843808,43.1470002 L50.1458406,38.2115407 C51.1621655,37.2685373 51.2111451,35.6887004 50.2682894,34.6722162 C49.3254337,33.6557319 47.7458443,33.6067448 46.7295194,34.5497482 L41.4274868,39.4974544 L31.2030128,28.5365705 C36.749943,21.6538702 36.3336171,11.5502621 29.9295454,5.14518691 C23.0846581,-1.7130198 11.9785529,-1.7130198 5.13366551,5.13294011 C-1.71122184,11.9789 -1.71122184,23.0867455 5.13366551,29.9327054 C11.2316152,36.0316107 20.7091516,36.7051846 27.541794,31.9289335 L52.9744076,59.2025519 C53.9172633,60.2190361 55.4968527,60.2680233 56.5131777,59.3250199 C57.5172577,58.3820165 57.5784821,56.8021796 56.6356264,55.7856954 L53.9050184,52.8587107 L59.207051,47.9232513 C60.2111311,46.9924946 60.2723555,45.4126577 59.3294998,44.3961735 Z M8.67243553,26.4056277 C3.77448394,21.5069086 3.77448394,13.5709837 8.67243553,8.67226464 C13.5703871,3.77354557 21.5050687,3.77354557 26.4030203,8.67226464 C31.3009719,13.5709837 31.3009719,21.5069086 26.4030203,26.4056277 C21.5050687,31.3043468 13.5703871,31.3043468 8.67243553,26.4056277 Z" id="Shape" fill="#003945" fill-rule="nonzero"></path>
                        </g>
                    </g>
                </g>
            </g>
        </g>
    </g>
</svg>