<?xml version="1.0" encoding="UTF-8"?>
<svg width="71px" height="71px" viewBox="0 0 71 71" version="1.1" xmlns="http://www.w3.org/2000/svg" xmlns:xlink="http://www.w3.org/1999/xlink">
    <!-- Generator: Sketch 51.2 (57519) - http://www.bohemiancoding.com/sketch -->
    <title>MEW group</title>
    <desc>Created with Sketch.</desc>
    <defs></defs>
    <g id="Symbols" stroke="none" stroke-width="1" fill="none" fill-rule="evenodd">
        <g id="03---elements" transform="translate(-119.000000, -5594.000000)">
            <g id="icons">
                <g transform="translate(72.000000, 4681.000000)">
                    <g id="MEW-group" transform="translate(47.000000, 913.000000)">
                        <g>
                            <g id="Group-13" transform="translate(6.000000, 11.000000)" fill="#05C0A5">
                                <ellipse id="Oval-4" cx="45.9852941" cy="27.7014925" rx="4.33823529" ry="4.32835821"></ellipse>
                                <ellipse id="Oval-4" cx="51.1911765" cy="29.4328358" rx="4.33823529" ry="4.32835821"></ellipse>
                                <ellipse id="Oval-4" cx="54.6617647" cy="33.761194" rx="4.33823529" ry="4.32835821"></ellipse>
                                <ellipse id="Oval-4" cx="51.1911765" cy="33.761194" rx="4.33823529" ry="4.32835821"></ellipse>
                                <ellipse id="Oval-4" cx="46.4191176" cy="37.6567164" rx="3.03676471" ry="3.02985075"></ellipse>
                                <ellipse id="Oval-4" cx="42.0808824" cy="50.641791" rx="6.50735294" ry="6.49253731"></ellipse>
                                <ellipse id="Oval-4" cx="35.5735294" cy="49.3432836" rx="4.33823529" ry="4.32835821"></ellipse>
                                <ellipse id="Oval-4" cx="43.8161765" cy="42.8507463" rx="2.16911765" ry="2.1641791"></ellipse>
                                <ellipse id="Oval-4" cx="6.07352941" cy="32.0298507" rx="6.07352941" ry="6.05970149"></ellipse>
                                <ellipse id="Oval-4" cx="12.1470588" cy="26.8358209" rx="4.33823529" ry="4.32835821"></ellipse>
                                <ellipse id="Oval-4" cx="23.4264706" cy="50.2089552" rx="4.33823529" ry="4.32835821"></ellipse>
                                <ellipse id="Oval-4" cx="16.4852941" cy="51.9402985" rx="6.07352941" ry="6.05970149"></ellipse>
                                <ellipse id="Oval-4" cx="14.75" cy="43.2835821" rx="4.33823529" ry="4.32835821"></ellipse>
                                <ellipse id="Oval-4" cx="10.8455882" cy="36.7910448" rx="3.90441176" ry="3.89552239"></ellipse>
                                <ellipse id="Oval-4" cx="17.3529412" cy="12.119403" rx="6.07352941" ry="6.05970149"></ellipse>
                                <ellipse id="Oval-4" cx="41.6470588" cy="12.119403" rx="6.07352941" ry="6.05970149"></ellipse>
                                <ellipse id="Oval-4" cx="40.7794118" cy="6.05970149" rx="6.07352941" ry="6.05970149"></ellipse>
                                <ellipse id="Oval-4" cx="18.2205882" cy="6.05970149" rx="6.07352941" ry="6.05970149"></ellipse>
                                <ellipse id="Oval-4" cx="25.5955882" cy="8.2238806" rx="3.03676471" ry="3.02985075"></ellipse>
                                <ellipse id="Oval-4" cx="33.4044118" cy="8.2238806" rx="3.03676471" ry="3.02985075"></ellipse>
                            </g>
                            <g id="meeting" fill="#003945" fill-rule="nonzero">
                                <path d="M66.5277566,47.9716698 C67.746765,43.2784515 65.528683,38.1345488 60.8467747,35.9528207 L53.3009944,32.4363737 C52.8644548,32.2329418 52.415843,32.0863653 51.9636235,31.9899882 C53.3490055,30.8444181 54.2333243,29.1137903 54.2333243,27.1807013 L54.2333243,18.8600983 C54.2333243,13.7765179 50.5639493,9.53606395 45.7337063,8.63746878 C44.8541053,3.80654901 40.6371825,0 35.5000019,0 C30.3671229,0 26.1467311,3.80280486 25.2662975,8.63746878 C20.4360546,9.53592528 16.7666795,13.7763793 16.7666795,18.8600983 L16.7666795,27.1807013 C16.7666795,29.1137903 17.6508596,30.8444181 19.0363803,31.9899882 C18.584022,32.0863653 18.135549,32.2328031 17.6988706,32.436235 L10.1530903,35.952682 C5.47034946,38.1349648 3.2532388,43.2791448 4.4721085,47.9715312 C0.403797856,50.8421822 -1.18819805,56.2427669 0.953288294,60.8321199 C3.09685604,65.4259104 8.29758878,67.8645979 13.1165922,66.6417873 C15.9724161,70.6449734 21.3756,72.1750813 25.9872956,70.0260798 L33.5330759,66.5096328 C34.2995873,66.1524135 34.960641,65.6466764 35.5001407,65.0409567 C36.0395016,65.6466764 36.7005553,66.1524135 37.4670667,66.5096328 L45.012847,70.0260798 C49.6263465,72.176052 55.0288366,70.643032 57.8834117,66.6417873 C62.6489924,67.8512854 67.8791423,65.4777738 70.0467155,60.8321199 C72.1882019,56.2429056 70.596206,50.8421822 66.5277566,47.9716698 Z M51.5419312,36.2071453 L59.0875728,39.723315 C61.6367366,40.9111801 63.0067162,43.6112645 62.630121,46.2603175 C58.0594984,45.284898 53.1652869,47.5065636 51.0482224,52.0311567 L54.562186,44.5002913 C55.0479855,43.4591412 54.5971536,42.2213541 53.5554807,41.7358631 L49.7825905,39.9776396 C48.742444,39.4929806 48.2907795,38.2528361 48.7758852,37.2132114 C49.2618234,36.1715066 50.499287,35.720961 51.5419312,36.2071453 Z M35.5000019,4.16030152 C38.8849185,4.16030152 41.744489,7.08156787 41.744489,10.5394952 C41.744489,13.9805046 38.9431978,16.7800168 35.5000019,16.7800168 C32.056806,16.7800168 29.2555149,13.9805046 29.2555149,10.5394952 C29.2556536,7.08156787 32.1152241,4.16030152 35.5000019,4.16030152 Z M20.9297634,18.8600983 C20.9297634,16.0482442 22.8008061,13.6657189 25.3635685,12.8881845 C26.4321608,17.4951488 30.5697128,20.9403184 35.5001407,20.9403184 C40.4305685,20.9403184 44.5679817,17.4951488 45.6367129,12.8881845 C48.199614,13.6657189 50.0705179,16.0483829 50.0705179,18.8600983 L50.0705179,27.1807013 C50.0705179,28.3276582 49.1368005,29.2609214 47.9891148,29.2609214 C46.8414291,29.2609214 45.9075728,28.3277969 45.9075728,27.1807013 L45.9075728,23.0203998 C45.9075728,21.8716402 44.9756592,20.9401797 43.8261697,20.9401797 L35.5000019,20.9401797 L27.1741117,20.9401797 C26.0246221,20.9401797 25.0927085,21.8715015 25.0927085,23.0203998 L25.0927085,27.1807013 C25.0927085,28.3276582 24.1589911,29.2609214 23.0111666,29.2609214 C21.8633421,29.2609214 20.9296246,28.3277969 20.9296246,27.1807013 L20.9296246,18.8600983 L20.9297634,18.8600983 Z M11.9124311,39.723315 L19.4582114,36.206868 C20.5008556,35.7210996 21.7381804,36.1709519 22.2243962,37.212934 C22.710612,38.2547775 22.2603351,39.4915939 21.2176908,39.9773622 L17.4448007,41.7355857 C16.402989,42.2210767 15.9522959,43.4587252 16.4380954,44.5000139 L19.9538628,52.0347622 C17.8381859,47.5082277 12.9427256,45.2842046 8.37016037,46.2600402 C7.99328763,43.6112645 9.36340596,40.9111801 11.9124311,39.723315 Z M13.1632156,62.231044 C10.036948,63.687933 6.18746224,62.206083 4.72603969,59.0738964 C3.28473737,55.9845595 4.70189541,52.2642645 7.88533219,50.7808891 C11.0186765,49.320672 14.7281533,50.6797972 16.1836091,53.7993646 C17.6429503,56.9266977 16.2597885,60.7880222 13.1632156,62.231044 Z M31.773874,62.7391386 L24.2280936,66.2555856 C21.6772647,67.4442828 18.7248636,66.7557758 16.9367996,64.7618098 C18.4617743,63.5636829 19.6294415,61.948569 20.3082564,60.0525054 C21.2557111,57.4058098 21.1317983,54.5628932 19.9594132,52.0468267 L23.4754583,59.5822683 C23.9608415,60.6224477 25.1995539,61.0739641 26.2416431,60.5883344 L30.0145332,58.8301109 C31.0571775,58.3443425 32.2945023,58.7941948 32.780718,59.8361769 C33.2774796,60.90104 32.8070825,62.2576691 31.773874,62.7391386 Z M35.5000019,56.4987556 C33.7438527,54.5782858 30.8339123,53.8576069 28.254915,55.059478 L26.3684699,55.9385204 L21.0904477,44.6270376 L22.9768928,43.7479952 C26.0974712,42.2938796 27.4523259,38.5735846 25.9972863,35.4548492 C25.5921065,34.5864845 25.0107012,33.8554053 24.3159289,33.2831055 C27.1348426,32.6818233 29.2556536,30.1744932 29.2556536,27.1807013 L29.2556536,25.1004812 L41.744489,25.1004812 L41.744489,27.1807013 C41.744489,30.1744932 43.8654388,32.6816846 46.6842137,33.2831055 C45.9893026,33.8552666 45.4080361,34.5863459 45.0028563,35.4548492 C43.5478167,38.5735846 44.9026714,42.2937409 48.0232498,43.7479952 L49.9098336,44.6270376 L44.6318114,55.9385204 L42.7453664,55.059478 C40.1666466,53.8580229 37.2565674,54.5778698 35.5000019,56.4987556 Z M46.7721877,66.2557242 L39.2264074,62.7392772 C38.1931989,62.2578077 37.7228017,60.9013173 38.2197021,59.8361769 C38.7048078,58.7965522 39.9457403,58.3453132 40.9858869,58.8301109 L44.758777,60.5883344 C45.7997561,61.0734094 47.0393011,60.6232797 47.5249619,59.5822683 L51.0396193,52.0500162 C49.8687606,54.565528 49.7451252,57.4069192 50.6921637,60.0525054 C51.3709786,61.948569 52.5385071,63.5636829 54.0636206,64.7618098 C52.2754177,66.7559145 49.3231554,67.4444214 46.7721877,66.2557242 Z M66.2738254,59.0738964 C64.8133742,62.2038643 60.9647209,63.6889038 57.8366495,62.231044 C54.7402153,60.7881609 53.3570536,56.9268364 54.8162559,53.799226 C56.2749033,50.6727249 59.9864614,49.3231681 63.1145329,50.7807505 C66.2982472,52.2642645 67.715544,55.9845595 66.2738254,59.0738964 Z" id="Shape"></path>
                            </g>
                            <circle id="Oval" fill="#FFFFFF" fill-rule="nonzero" cx="35.5" cy="10.5" r="6.5"></circle>
                            <circle id="Oval" fill="#FFFFFF" fill-rule="nonzero" cx="10.5" cy="56.5" r="6.5"></circle>
                            <circle id="Oval" fill="#FFFFFF" fill-rule="nonzero" cx="60.5" cy="56.5" r="6.5"></circle>
                        </g>
                    </g>
                </g>
            </g>
        </g>
    </g>
</svg>