<?xml version="1.0" encoding="UTF-8"?>
<svg width="80px" height="80px" viewBox="0 0 80 80" version="1.1" xmlns="http://www.w3.org/2000/svg" xmlns:xlink="http://www.w3.org/1999/xlink">
    <!-- Generator: Sketch 51.2 (57519) - http://www.bohemiancoding.com/sketch -->
    <title>mew connect</title>
    <desc>Created with Sketch.</desc>
    <defs></defs>
    <g id="Symbols" stroke="none" stroke-width="1" fill="none" fill-rule="evenodd">
        <g id="03---elements" transform="translate(-889.000000, -4820.000000)">
            <g id="icons">
                <g transform="translate(72.000000, 4681.000000)">
                    <g id="mew-connect" transform="translate(818.000000, 139.000000)">
                        <g>
                            <g id="Group-8" transform="translate(12.679012, 0.000000)" fill="#05C0A5">
                                <circle id="Oval" cx="3.41358025" cy="3.41358025" r="3.41358025"></circle>
                                <circle id="Oval" cx="12.191358" cy="8.29012346" r="3.41358025"></circle>
                                <circle id="Oval" cx="20.9691358" cy="13.1666667" r="3.41358025"></circle>
                            </g>
                            <g id="Group-7" transform="translate(0.000000, 0.975309)">
                                <g id="box" transform="translate(27.150265, 0.711078)">
                                    <polygon id="Path-2" fill="#FFFFFF" points="3.84201869 15.2601023 18.4416897 23.8063782 18.4416897 41.2022763 3.84201869 32.9848297"></polygon>
                                    <polygon id="Path-2" fill="#FFFFFF" transform="translate(29.583544, 28.612692) scale(-1, 1) translate(-29.583544, -28.612692) " points="22.2837084 15.2601023 36.8833794 24.0237752 36.8833794 41.9652815 22.2837084 33.3767797"></polygon>
                                    <g id="package-(1)-copy-3" fill-rule="nonzero">
                                        <polygon id="Shape" fill="#00FFB0" points="20.0541733 22.9613673 29.4430988 17.5172496 38.2571922 12.4066453 20.0541733 1.86173249 11.24008 6.97233674 1.85115446 12.4066453"></polygon>
                                        <path d="M40.7205499,12.3248944 C40.7176409,12.1649001 40.6982479,12.0068451 40.6575225,11.8565475 C40.6400687,11.7915801 40.6051613,11.73437 40.5809199,11.6723116 C40.5440732,11.5772847 40.5140139,11.4803184 40.463592,11.3920791 C40.4286845,11.3309904 40.3782626,11.2815376 40.3365676,11.2252972 C40.2783884,11.1467545 40.2269968,11.0633636 40.1571819,10.9935479 C40.1077296,10.9440951 40.0447022,10.9082176 39.9904017,10.8636131 C39.9157384,10.803494 39.8468931,10.7365873 39.7625334,10.6871346 C39.7586548,10.6851952 39.7538065,10.6842256 39.7499279,10.6822862 C39.7460493,10.6803469 39.74411,10.6774379 39.7402314,10.6754986 L21.316837,0.251627402 C20.7243794,-0.0838758008 19.9990794,-0.0838758008 19.4066219,0.251627402 L10.489699,5.30162938 C10.4887293,5.30162938 10.4877597,5.30259904 10.48679,5.30259904 L0.984197122,10.6745289 C0.980318512,10.6764683 0.977409555,10.6803469 0.974500598,10.6822862 C0.970621989,10.6842256 0.965773727,10.6851952 0.96286477,10.6871346 C0.880444322,10.734648 0.814507963,10.8005851 0.741784038,10.8587648 C0.68457455,10.9043389 0.619607843,10.9411861 0.569185922,10.9925782 C0.497431649,11.0643332 0.44410077,11.1486939 0.384951978,11.2301455 C0.345196232,11.2844466 0.295743963,11.3329297 0.262775783,11.3911095 C0.2075056,11.4861364 0.173567768,11.5918296 0.135751327,11.6946138 C0.115388628,11.7489149 0.0843597533,11.7993374 0.0688453159,11.8555778 C0.0290895701,12.0010272 0.0126054804,12.1522945 0.00872687103,12.3064708 C0.00678756636,12.3248944 0,12.3423483 0,12.3617416 L0,34.1791464 C0,34.878273 0.376225107,35.5230986 0.984197122,35.8673287 L19.4075915,46.2911999 C19.5064961,46.3464707 19.6121882,46.3794392 19.7169106,46.4162864 C19.7673325,46.43471 19.8148455,46.4637998 19.8672067,46.4773751 C20.0291387,46.5210099 20.1959189,46.5433122 20.3626991,46.5433122 C20.5294793,46.5433122 20.6962595,46.5210099 20.8581914,46.4783448 C20.909583,46.4647695 20.957096,46.4356796 21.0084875,46.417256 C21.11321,46.3804089 21.2189021,46.3474403 21.3178066,46.2921696 L39.741201,35.8682984 C40.349173,35.5240682 40.7253981,34.8792427 40.7253981,34.1801161 L40.7253981,12.3627112 C40.7253981,12.349136 40.7205499,12.3375 40.7205499,12.3248944 Z M3.87860935,15.6896231 L18.4233944,23.9269055 L18.4233944,41.2780451 L3.87860935,33.04852 L3.87860935,15.6896231 Z M36.8467888,33.04852 L22.3020037,41.2780451 L22.3020037,23.9269055 L36.8467888,15.6896231 L36.8467888,33.04852 Z" id="Shape" stroke="#003945" fill="#003945"></path>
                                        <polygon id="Shape" fill="#05C0A5" points="20.7391449 19.1299253 34.6907234 11.4806837 20.6875595 3.60179069 6.78756636 11.5594646"></polygon>
                                    </g>
                                </g>
                                <g id="box" transform="translate(0.000000, 16.096229)">
                                    <polygon id="Path-2" fill="#FFFFFF" points="3.84201869 15.2601023 18.4416897 23.8063782 18.4416897 41.2022763 3.84201869 32.9848297"></polygon>
                                    <polygon id="Path-2" fill="#FFFFFF" transform="translate(29.583544, 28.612692) scale(-1, 1) translate(-29.583544, -28.612692) " points="22.2837084 15.2601023 36.8833794 24.0237752 36.8833794 41.9652815 22.2837084 33.3767797"></polygon>
                                    <g id="package-(1)-copy-3" fill-rule="nonzero">
                                        <polygon id="Shape" fill="#00FFB0" points="20.0541733 22.9613673 29.4430988 17.5172496 38.2571922 12.4066453 20.0541733 1.86173249 11.24008 6.97233674 1.85115446 12.4066453"></polygon>
                                        <path d="M40.7205499,12.3248944 C40.7176409,12.1649001 40.6982479,12.0068451 40.6575225,11.8565475 C40.6400687,11.7915801 40.6051613,11.73437 40.5809199,11.6723116 C40.5440732,11.5772847 40.5140139,11.4803184 40.463592,11.3920791 C40.4286845,11.3309904 40.3782626,11.2815376 40.3365676,11.2252972 C40.2783884,11.1467545 40.2269968,11.0633636 40.1571819,10.9935479 C40.1077296,10.9440951 40.0447022,10.9082176 39.9904017,10.8636131 C39.9157384,10.803494 39.8468931,10.7365873 39.7625334,10.6871346 C39.7586548,10.6851952 39.7538065,10.6842256 39.7499279,10.6822862 C39.7460493,10.6803469 39.74411,10.6774379 39.7402314,10.6754986 L21.316837,0.251627402 C20.7243794,-0.0838758008 19.9990794,-0.0838758008 19.4066219,0.251627402 L10.489699,5.30162938 C10.4887293,5.30162938 10.4877597,5.30259904 10.48679,5.30259904 L0.984197122,10.6745289 C0.980318512,10.6764683 0.977409555,10.6803469 0.974500598,10.6822862 C0.970621989,10.6842256 0.965773727,10.6851952 0.96286477,10.6871346 C0.880444322,10.734648 0.814507963,10.8005851 0.741784038,10.8587648 C0.68457455,10.9043389 0.619607843,10.9411861 0.569185922,10.9925782 C0.497431649,11.0643332 0.44410077,11.1486939 0.384951978,11.2301455 C0.345196232,11.2844466 0.295743963,11.3329297 0.262775783,11.3911095 C0.2075056,11.4861364 0.173567768,11.5918296 0.135751327,11.6946138 C0.115388628,11.7489149 0.0843597533,11.7993374 0.0688453159,11.8555778 C0.0290895701,12.0010272 0.0126054804,12.1522945 0.00872687103,12.3064708 C0.00678756636,12.3248944 0,12.3423483 0,12.3617416 L0,34.1791464 C0,34.878273 0.376225107,35.5230986 0.984197122,35.8673287 L19.4075915,46.2911999 C19.5064961,46.3464707 19.6121882,46.3794392 19.7169106,46.4162864 C19.7673325,46.43471 19.8148455,46.4637998 19.8672067,46.4773751 C20.0291387,46.5210099 20.1959189,46.5433122 20.3626991,46.5433122 C20.5294793,46.5433122 20.6962595,46.5210099 20.8581914,46.4783448 C20.909583,46.4647695 20.957096,46.4356796 21.0084875,46.417256 C21.11321,46.3804089 21.2189021,46.3474403 21.3178066,46.2921696 L39.741201,35.8682984 C40.349173,35.5240682 40.7253981,34.8792427 40.7253981,34.1801161 L40.7253981,12.3627112 C40.7253981,12.349136 40.7205499,12.3375 40.7205499,12.3248944 Z M3.87860935,15.6896231 L18.4233944,23.9269055 L18.4233944,41.2780451 L3.87860935,33.04852 L3.87860935,15.6896231 Z M36.8467888,33.04852 L22.3020037,41.2780451 L22.3020037,23.9269055 L36.8467888,15.6896231 L36.8467888,33.04852 Z" id="Shape" stroke="#003945" fill="#003945"></path>
                                        <polygon id="Shape" fill="#05C0A5" points="20.7391449 19.1299253 34.6907234 11.4806837 20.6875595 3.60179069 6.78756636 11.5594646"></polygon>
                                    </g>
                                </g>
                                <g id="box" transform="translate(27.150265, 31.481379)">
                                    <polygon id="Path-2" fill="#FFFFFF" points="3.84201869 15.2601023 18.4416897 23.8063782 18.4416897 41.2022763 3.84201869 32.9848297"></polygon>
                                    <polygon id="Path-2" fill="#FFFFFF" transform="translate(29.583544, 28.612692) scale(-1, 1) translate(-29.583544, -28.612692) " points="22.2837084 15.2601023 36.8833794 24.0237752 36.8833794 41.9652815 22.2837084 33.3767797"></polygon>
                                    <g id="package-(1)-copy-3" fill-rule="nonzero">
                                        <polygon id="Shape" fill="#00FFB0" points="20.0541733 22.9613673 29.4430988 17.5172496 38.2571922 12.4066453 20.0541733 1.86173249 11.24008 6.97233674 1.85115446 12.4066453"></polygon>
                                        <path d="M40.7205499,12.3248944 C40.7176409,12.1649001 40.6982479,12.0068451 40.6575225,11.8565475 C40.6400687,11.7915801 40.6051613,11.73437 40.5809199,11.6723116 C40.5440732,11.5772847 40.5140139,11.4803184 40.463592,11.3920791 C40.4286845,11.3309904 40.3782626,11.2815376 40.3365676,11.2252972 C40.2783884,11.1467545 40.2269968,11.0633636 40.1571819,10.9935479 C40.1077296,10.9440951 40.0447022,10.9082176 39.9904017,10.8636131 C39.9157384,10.803494 39.8468931,10.7365873 39.7625334,10.6871346 C39.7586548,10.6851952 39.7538065,10.6842256 39.7499279,10.6822862 C39.7460493,10.6803469 39.74411,10.6774379 39.7402314,10.6754986 L21.316837,0.251627402 C20.7243794,-0.0838758008 19.9990794,-0.0838758008 19.4066219,0.251627402 L10.489699,5.30162938 C10.4887293,5.30162938 10.4877597,5.30259904 10.48679,5.30259904 L0.984197122,10.6745289 C0.980318512,10.6764683 0.977409555,10.6803469 0.974500598,10.6822862 C0.970621989,10.6842256 0.965773727,10.6851952 0.96286477,10.6871346 C0.880444322,10.734648 0.814507963,10.8005851 0.741784038,10.8587648 C0.68457455,10.9043389 0.619607843,10.9411861 0.569185922,10.9925782 C0.497431649,11.0643332 0.44410077,11.1486939 0.384951978,11.2301455 C0.345196232,11.2844466 0.295743963,11.3329297 0.262775783,11.3911095 C0.2075056,11.4861364 0.173567768,11.5918296 0.135751327,11.6946138 C0.115388628,11.7489149 0.0843597533,11.7993374 0.0688453159,11.8555778 C0.0290895701,12.0010272 0.0126054804,12.1522945 0.00872687103,12.3064708 C0.00678756636,12.3248944 0,12.3423483 0,12.3617416 L0,34.1791464 C0,34.878273 0.376225107,35.5230986 0.984197122,35.8673287 L19.4075915,46.2911999 C19.5064961,46.3464707 19.6121882,46.3794392 19.7169106,46.4162864 C19.7673325,46.43471 19.8148455,46.4637998 19.8672067,46.4773751 C20.0291387,46.5210099 20.1959189,46.5433122 20.3626991,46.5433122 C20.5294793,46.5433122 20.6962595,46.5210099 20.8581914,46.4783448 C20.909583,46.4647695 20.957096,46.4356796 21.0084875,46.417256 C21.11321,46.3804089 21.2189021,46.3474403 21.3178066,46.2921696 L39.741201,35.8682984 C40.349173,35.5240682 40.7253981,34.8792427 40.7253981,34.1801161 L40.7253981,12.3627112 C40.7253981,12.349136 40.7205499,12.3375 40.7205499,12.3248944 Z M3.87860935,15.6896231 L18.4233944,23.9269055 L18.4233944,41.2780451 L3.87860935,33.04852 L3.87860935,15.6896231 Z M36.8467888,33.04852 L22.3020037,41.2780451 L22.3020037,23.9269055 L36.8467888,15.6896231 L36.8467888,33.04852 Z" id="Shape" stroke="#003945" fill="#003945"></path>
                                        <polygon id="Shape" fill="#05C0A5" points="20.7391449 19.1299253 34.6907234 11.4806837 20.6875595 3.60179069 6.78756636 11.5594646"></polygon>
                                    </g>
                                </g>
                            </g>
                            <g id="Group-9" transform="translate(54.617284, 58.518519)" fill="#05C0A5">
                                <circle id="Oval" cx="3.41358025" cy="3.41358025" r="3.41358025"></circle>
                                <circle id="Oval" cx="12.191358" cy="8.29012346" r="3.41358025"></circle>
                                <circle id="Oval" cx="20.9691358" cy="13.1666667" r="3.41358025"></circle>
                            </g>
                        </g>
                    </g>
                </g>
            </g>
        </g>
    </g>
</svg>