<?xml version="1.0" encoding="UTF-8"?>
<svg width="56px" height="71px" viewBox="0 0 56 71" version="1.1" xmlns="http://www.w3.org/2000/svg" xmlns:xlink="http://www.w3.org/1999/xlink">
    <!-- Generator: Sketch 51.2 (57519) - http://www.bohemiancoding.com/sketch -->
    <title>Migrating</title>
    <desc>Created with Sketch.</desc>
    <defs></defs>
    <g id="Symbols" stroke="none" stroke-width="1" fill="none" fill-rule="evenodd">
        <g id="03---elements" transform="translate(-383.000000, -5216.000000)">
            <g id="icons">
                <g transform="translate(72.000000, 4681.000000)">
                    <g id="Migrating" transform="translate(311.000000, 535.000000)">
                        <g id="Layer_1">
                            <g>
                                <polygon id="Path-4" fill="#FFFFFF" points="3.17472979 7.24015299 6.994172 3.34420423 33.146905 3.34420423 35.1529949 5.29217861 35.1529949 15.1644657 37.073015 19.9851137 41.940744 21.2379084 48.8138273 21.2379084 52.8230646 21.2379084 54.2377001 57.3070669 52.062413 65.6801199 48.8138273 67.4861158 8.50517629 67.4861158 3.17472979 64.9099049 3.17472979 58.5113094"></polygon>
                                <polygon id="Path-2" fill="#05C0A5" points="35.5336104 5.83169962 35.5336104 15.3098801 38.5147243 19.4241716 44.4442045 20.916357 50.5535285 20.916357 44.4442045 10.8257767 35.5336104 4.78695421"></polygon>
                                <path d="M9.35156227,0 C4.19489607,0 0,4.21237433 0,9.39052711 L0,60.9011405 C0,66.0792933 4.19489607,70.2916667 9.35156227,70.2916667 L46.6484387,70.2916667 C51.8004387,70.2916667 56,66.0792933 56,60.9011405 L56,21.1881783 C56,21.0850838 55.9501973,20.9892383 55.9361973,20.8861434 C55.9221973,20.783049 55.9095087,20.6963559 55.8815087,20.5932615 C55.7741753,20.1996282 55.6057413,19.8267899 55.316408,19.5315649 L36.6497395,0.78712046 C36.5844061,0.721514904 36.491875,0.715217708 36.421875,0.658984375 C35.9832083,0.241920486 35.4014789,0 34.7994789,0 L9.35156227,0 Z M9.35156227,4.68611111 L32.6666667,4.68611111 L32.6666667,14.2047743 C32.6666667,19.3454382 36.8259794,23.5312338 41.9453113,23.5312338 L51.3333333,23.5312338 L51.3333333,60.9011405 C51.3333333,63.4925599 49.2291053,65.6055556 46.6484387,65.6055556 L9.35156227,65.6055556 C6.77089607,65.6055556 4.66666667,63.4925599 4.66666667,60.9011405 L4.66666667,9.39052711 C4.66666667,6.79910813 6.7708956,4.68611111 9.35156227,4.68611111 Z M37.3333333,8.17323665 C40.488,11.3223033 44.772294,15.60702 48.0156227,18.8451227 L41.9453113,18.8451227 C39.401978,18.8451227 37.3333333,16.763391 37.3333333,14.2047743 L37.3333333,8.17323665 Z M41.0703113,41.113303 L37.861978,44.5180556 L40.888022,47.3919585 L31.2447917,47.3919585 L31.2447917,52.0780696 L40.9882807,52.0780696 L37.84375,55.15333 L41.088544,58.5123204 L48.371092,51.4099332 C48.8284253,50.9647527 49.0866973,50.3493351 49.0820307,49.7167101 C49.077364,49.0747128 48.8101973,48.4684472 48.352864,48.0326389 L41.0703113,41.113303 Z" id="path7" fill="#003945" fill-rule="nonzero"></path>
                            </g>
                        </g>
                    </g>
                </g>
            </g>
        </g>
    </g>
</svg>