<?xml version="1.0" encoding="UTF-8"?>
<svg width="75px" height="69px" viewBox="0 0 75 69" version="1.1" xmlns="http://www.w3.org/2000/svg" xmlns:xlink="http://www.w3.org/1999/xlink">
    <!-- Generator: Sketch 51.2 (57519) - http://www.bohemiancoding.com/sketch -->
    <title>net work</title>
    <desc>Created with Sketch.</desc>
    <defs></defs>
    <g id="Symbols" stroke="none" stroke-width="1" fill="none" fill-rule="evenodd">
        <g id="03---elements" transform="translate(-1408.000000, -5218.000000)">
            <g id="icons">
                <g transform="translate(72.000000, 4681.000000)">
                    <g id="net-work" transform="translate(1336.000000, 537.000000)">
                        <g>
                            <circle id="Oval-7" stroke="#003945" stroke-width="2" fill="#FFFFFF" cx="39.8148148" cy="37.962963" r="13.8888889"></circle>
                            <circle id="Oval-8" stroke="#003945" fill="#05C0A5" cx="39.3518519" cy="7.87037037" r="5.09259259"></circle>
                            <circle id="Oval-8" stroke="#003945" fill="#05C0A5" cx="67.1296296" cy="21.7592593" r="5.09259259"></circle>
                            <circle id="Oval-8" stroke="#003945" fill="#05C0A5" cx="62.5" cy="60.6481481" r="5.09259259"></circle>
                            <circle id="Oval-8" stroke="#003945" fill="#05C0A5" cx="16.2037037" cy="60.6481481" r="5.09259259"></circle>
                            <circle id="Oval-8" stroke="#003945" fill="#05C0A5" cx="6.94444444" cy="29.1666667" r="5.09259259"></circle>
                            <g id="network-(1)" fill="#003945" fill-rule="nonzero">
                                <path d="M74.0934864,18.8990259 C73.132659,17.0947532 71.5305092,15.7750965 69.5820914,15.1825297 C67.6336737,14.5896308 65.5722563,14.7955677 63.7778089,15.7614781 C61.9833614,16.7277206 60.6703188,18.3383462 60.0808704,20.2970716 C59.6880149,21.6017813 59.6559653,22.9556501 59.9566369,24.2480701 L51.7278182,28.6777057 C49.2249753,25.1452241 45.3235141,22.6842785 40.8408647,22.1172878 L40.8408647,15.0579711 C44.0848134,14.1784214 46.4792824,11.1963227 46.4792824,7.66118375 C46.4792824,3.43682065 43.0605477,0 38.8584149,0 C34.6562822,0 31.2372171,3.43682065 31.2372171,7.66151591 C31.2372171,11.1966548 33.6320165,14.1787536 36.8756347,15.0583033 L36.8756347,22.1169556 C31.1503197,22.8413884 26.3703029,26.6555385 24.2464383,31.8438191 L15.2404993,29.4044636 C15.2424818,28.0768351 14.9061261,26.7654823 14.2294499,25.5840025 C13.2141052,23.8102882 11.5723064,22.5401227 9.60703782,22.0076762 C5.54830227,20.9082391 1.35905545,23.3333118 0.265734386,27.4121905 C-0.263910117,29.3881879 0.00372060517,31.4532033 1.01906531,33.2265855 C2.03441001,34.9999677 3.67620885,36.2704653 5.64147741,36.8029118 C6.30130278,36.9816118 6.97071,37.0699654 7.63648272,37.0699654 C8.95315979,37.0699654 10.2533164,36.7235264 11.4256051,36.0455955 C12.6008674,35.3656717 13.5471568,34.4020864 14.2089646,33.253158 L23.215234,35.6928456 C23.118094,36.4039921 23.0635766,37.1284249 23.0635766,37.8661439 C23.0635766,41.5268379 24.3055814,44.8995524 26.3838496,47.5883572 L19.7806398,54.2264997 C16.868421,52.5444605 13.0819419,52.9447087 10.5959499,55.443188 C7.62458802,58.4302691 7.62458802,63.2907114 10.5959499,66.2781247 C12.081796,67.7718313 14.0331874,68.5185185 15.9849092,68.5185185 C17.9363006,68.5185185 19.8880224,67.7718313 21.3738686,66.2781247 C23.8595302,63.7789811 24.2576722,59.9724705 22.5841542,57.0451776 L29.187364,50.407035 C31.8620192,52.4962978 35.2166547,53.7448731 38.8584149,53.7448731 C42.5001752,53.7448731 45.8548107,52.4962978 48.5294659,50.407035 L55.1326757,57.0451776 C53.4594881,59.9728027 53.8572997,63.7793132 56.3429613,66.2781247 C57.8288074,67.7718313 59.7801988,68.5185185 61.7319207,68.5185185 C63.6836425,68.5185185 65.6350339,67.7714991 67.12088,66.2781247 C70.0922419,63.2910436 70.0922419,58.4306012 67.12088,55.443188 C64.6352184,52.9443766 60.8484089,52.5444605 57.9365205,54.2264997 L51.3333107,47.5883572 C53.4115789,44.8995524 54.6535837,41.52717 54.6535837,37.8661439 C54.6535837,35.8662312 54.2802223,33.9530112 53.605859,32.1885972 L61.8287303,27.7622831 C62.7320666,28.7305186 63.8706536,29.4539549 65.1688278,29.8488887 C65.8983693,30.070769 66.6441008,30.1807127 67.3855371,30.1807127 C68.6239074,30.1807127 69.8507134,29.8738004 70.9731104,29.2696082 C72.7678883,28.3036978 74.0806004,26.6930722 74.6700488,24.7343468 C75.2594972,22.7756215 75.0543137,20.7029665 74.0934864,18.8990259 Z M69.1006866,25.7553951 C68.2399729,26.2190852 67.2510609,26.3177356 66.3163358,26.0330777 C65.3816107,25.7490841 64.613081,25.1156622 64.1521615,24.250063 C63.6909115,23.384796 63.5931106,22.3903202 63.8759401,21.4506502 C64.1584392,20.5109802 64.7885278,19.7383848 65.6495719,19.2750268 C66.1881374,18.9850544 66.7765946,18.8379092 67.3706687,18.8379092 C67.726188,18.8379092 68.0840202,18.890722 68.4339226,18.997012 C69.3686477,19.2810056 70.1371774,19.9144276 70.598097,20.7800267 C71.0593469,21.6452938 71.1571478,22.6394374 70.8743183,23.5791074 C70.5918192,24.5194417 69.9617306,25.2920372 69.1006866,25.7553951 Z M50.6880233,37.8658118 C50.6880233,44.4232403 45.3810052,49.7583339 38.8580845,49.7583339 C32.3351639,49.7583339 27.0281458,44.4232403 27.0281458,37.8658118 C27.0281458,31.3083832 32.3351639,25.9732896 38.8580845,25.9732896 C45.3810052,25.9732896 50.6880233,31.3083832 50.6880233,37.8658118 Z M35.2021167,7.66151591 C35.2021167,5.63469851 36.8422635,3.98620708 38.8580845,3.98620708 C40.8739056,3.98620708 42.5140524,5.63503067 42.5140524,7.66151591 C42.5140524,9.68800115 40.8739056,11.3368247 38.8580845,11.3368247 C36.8422635,11.3368247 35.2021167,9.68800115 35.2021167,7.66151591 Z M6.67301212,32.9542174 C5.73002684,32.6987892 4.94266386,32.0892825 4.45564203,31.2386304 C3.96828979,30.3876461 3.84009137,29.3971562 4.09417535,28.4491822 C4.61853332,26.4921177 6.62906782,25.3292387 8.57550311,25.8563706 C9.51848839,26.1117988 10.3058514,26.7209733 10.7932036,27.5719576 C11.2802254,28.4229419 11.4084239,29.4134318 11.1543399,30.3614057 C10.6299819,32.3184703 8.62010823,33.4813493 6.67301212,32.9542174 Z M18.5700237,63.4591146 C17.1449728,64.8920367 14.8251761,64.8920367 13.3994643,63.4591146 C11.9740829,62.0261926 11.9740829,59.6944558 13.3994643,58.2612016 C14.112155,57.5447405 15.0485321,57.1866761 15.9849092,57.1866761 C16.9209559,57.1866761 17.857333,57.5450727 18.5700237,58.2612016 C19.9954051,59.6944558 19.9954051,62.0261926 18.5700237,63.4591146 Z M64.3167048,58.2612016 C65.7420862,59.6941236 65.7420862,62.0258604 64.3167048,63.4591146 C62.8916538,64.8920367 60.5718571,64.8920367 59.1461453,63.4591146 C57.7207639,62.0261926 57.7207639,59.6944558 59.1461453,58.2612016 C59.858836,57.5447405 60.7952131,57.1866761 61.7315903,57.1866761 C62.667637,57.1866761 63.6040141,57.5447405 64.3167048,58.2612016 Z" id="Shape"></path>
                            </g>
                        </g>
                    </g>
                </g>
            </g>
        </g>
    </g>
</svg>