<?xml version="1.0" encoding="UTF-8"?>
<svg width="85px" height="63px" viewBox="0 0 85 63" version="1.1" xmlns="http://www.w3.org/2000/svg" xmlns:xlink="http://www.w3.org/1999/xlink">
    <!-- Generator: Sketch 51.2 (57519) - http://www.bohemiancoding.com/sketch -->
    <title>offline</title>
    <desc>Created with Sketch.</desc>
    <defs></defs>
    <g id="Symbols" stroke="none" stroke-width="1" fill="none" fill-rule="evenodd">
        <g id="03---elements" transform="translate(-887.000000, -5221.000000)">
            <g id="icons">
                <g transform="translate(72.000000, 4681.000000)">
                    <g id="offline" transform="translate(815.000000, 540.000000)">
                        <g>
                            <rect id="Rectangle-10" fill="#05C0A5" x="3.77777778" y="50.0555556" width="78.3888889" height="8.5"></rect>
                            <rect id="Rectangle-10" fill="#FFFFFF" x="9.44444444" y="1.88888889" width="66.1111111" height="44.3888889"></rect>
                            <path d="M79.1908817,46.201386 L79.1908817,7.7281669 C79.1908817,3.46668393 75.7131971,0 71.4389594,0 L13.5617296,0 C9.28749194,0 5.80980735,3.46668393 5.80980735,7.7281669 L5.80980735,46.201386 C2.58741939,46.3178237 0,48.9605133 0,52.2008478 L0,56.3225369 C0,59.6367183 2.70490408,62.3333333 6.02927288,62.3333333 L78.9707271,62.3333333 C82.2950959,62.3333333 85,59.6367183 85,56.3225369 L85,52.2008478 C85,48.9608568 82.4129251,46.3178237 79.1908817,46.201386 Z M13.5617296,5.15211126 L71.4386149,5.15211126 C72.8635905,5.15211126 74.022589,6.30755808 74.022589,7.7281669 L74.022589,46.1900514 L10.9777555,46.1900514 L10.9777555,7.7281669 C10.9777555,6.30755808 12.1370986,5.15211126 13.5617296,5.15211126 Z M79.8320518,56.3225369 C79.8320518,56.7879442 79.4375651,57.1812221 78.9707271,57.1812221 L6.02927288,57.1812221 C5.56243489,57.1812221 5.16794818,56.7879442 5.16794818,56.3225369 L5.16794818,52.2008478 C5.16794818,51.7354405 5.56243489,51.3421626 6.02927288,51.3421626 L78.9707271,51.3421626 C79.4375651,51.3421626 79.8320518,51.7354405 79.8320518,52.2008478 L79.8320518,56.3225369 Z" id="Shape" fill="#003945" fill-rule="nonzero"></path>
                            <g id="wifi" transform="translate(27.388889, 13.222222)" fill="#003945" fill-rule="nonzero">
                                <g id="Group" transform="translate(0.000000, 4.722222)">
                                    <path d="M11.0773696,7.83187773 C8.99882086,8.46906841 7.03746032,9.59497817 5.3906576,11.2405386 L8.26485261,14.1233624 C9.12217687,13.2634643 10.1213605,12.5891557 11.2007256,12.1128093 L11.0773696,7.83187773 Z" id="Shape"></path>
                                    <path d="M10.8429932,0 C6.8647619,0.804221252 3.07773243,2.74672489 0,5.83369723 L2.87419501,8.71652111 C5.18712018,6.39665211 7.99963719,4.88719068 10.9663492,4.15720524 L10.8429932,0 Z" id="Shape"></path>
                                    <path d="M19.3545578,0 L19.2312018,4.16339156 C22.1979138,4.893377 25.0104308,6.40283843 27.323356,8.72270742 L30.197551,5.83988355 C27.1259864,2.74672489 23.3327891,0.804221252 19.3545578,0 Z" id="Shape"></path>
                                    <path d="M18.9906576,12.1128093 C20.0700227,12.5891557 21.0692063,13.2634643 21.9326984,14.1295488 L24.8068934,11.2467249 C23.1662585,9.60116448 21.1987302,8.46906841 19.1201814,7.83187773 L18.9906576,12.1128093 Z" id="Shape"></path>
                                </g>
                                <circle id="Oval" cx="14.6388889" cy="22.1944444" r="2.36111111"></circle>
                                <path d="M15.600142,17.9444444 L13.6715519,17.9444444 C13.1665899,17.9444444 12.752886,17.5274257 12.7407183,17.002993 L12.2783434,0.998317684 C12.2600917,0.454929577 12.6859633,0 13.209177,0 L16.0686007,0 C16.5918144,0 17.017686,0.448611111 16.9994344,0.998317684 L16.5309756,17.002993 C16.5188079,17.5274257 16.105104,17.9444444 15.600142,17.9444444 Z" id="Shape"></path>
                            </g>
                        </g>
                    </g>
                </g>
            </g>
        </g>
    </g>
</svg>