<?xml version="1.0" encoding="UTF-8"?>
<svg width="81px" height="80px" viewBox="0 0 81 80" version="1.1" xmlns="http://www.w3.org/2000/svg" xmlns:xlink="http://www.w3.org/1999/xlink">
    <!-- Generator: Sketch 51.2 (57519) - http://www.bohemiancoding.com/sketch -->
    <title>reddit</title>
    <desc>Created with Sketch.</desc>
    <defs></defs>
    <g id="Symbols" stroke="none" stroke-width="1" fill="none" fill-rule="evenodd">
        <g id="03---elements" transform="translate(-1197.000000, -6950.000000)">
            <g id="others">
                <g transform="translate(64.000000, 5809.000000)">
                    <g id="Community-icons" transform="translate(876.000000, 1077.000000)">
                        <g id="Group-25" transform="translate(0.000000, 64.000000)">
                            <g id="reddit" transform="translate(257.333333, 0.000000)">
                                <g>
                                    <circle id="Oval-Copy-3" fill="#FF5700" cx="40" cy="40" r="40"></circle>
                                    <g id="Reddit" transform="translate(16.507937, 20.000000)" fill="#FFFFFF" fill-rule="nonzero">
                                        <path d="M31.3047619,26.0517708 C29.5012698,26.0517708 27.985291,24.6247917 27.985291,22.8653125 C27.985291,21.1068229 29.5012698,19.6323437 31.3047619,19.6323437 C33.108254,19.6323437 34.5709524,21.1068229 34.5709524,22.8653125 C34.5709524,24.6247917 33.108254,26.0517708 31.3047619,26.0517708 M32.0707937,32.2346875 C30.3909524,33.8724479 27.8003175,34.6680729 24.1511111,34.6680729 L24.1259788,34.6660938 L24.0998413,34.6680729 C20.4506349,34.6680729 17.8620106,33.8724479 16.1831746,32.2346875 C15.9358026,31.9949277 15.796506,31.6674866 15.796506,31.3257552 C15.796506,30.9840238 15.9358026,30.6565827 16.1831746,30.4168229 C16.6998928,29.9150627 17.530266,29.9150627 18.0469841,30.4168229 C19.2050794,31.5469271 21.1844974,32.0971354 24.0998413,32.0971354 L24.1259788,32.098125 L24.1511111,32.0971354 C27.066455,32.0971354 29.0468783,31.5469271 30.2069841,30.4168229 C30.7234794,29.9145281 31.5542984,29.9145281 32.0707937,30.4168229 C32.5844974,30.9205208 32.5844974,31.7329687 32.0707937,32.2346875 M13.6830159,22.8653125 C13.6830159,21.1078125 15.1959788,19.6323437 16.9974603,19.6323437 C18.8009524,19.6323437 20.2636508,21.1078125 20.2636508,22.8653125 C20.2636508,24.6247917 18.8009524,26.0517708 16.9974603,26.0517708 C15.1949735,26.0517708 13.6830159,24.6247917 13.6830159,22.8653125 M40.207619,2.5709375 C41.4290476,2.5709375 42.4222751,3.54072917 42.4222751,4.73020833 C42.4150775,5.92807226 41.4245117,6.8943081 40.207619,6.89046875 C38.9907264,6.8943081 38.0001606,5.92807226 37.992963,4.73020833 C37.992963,3.54072917 38.9861905,2.5709375 40.207619,2.5709375 M48.2539683,19.3661458 C48.2539683,16.2469792 45.6532804,13.7096875 42.4544444,13.7096875 C41.1245258,13.7080176 39.8344133,14.1562574 38.8002116,14.9793229 C35.2646032,12.8111458 30.7769841,11.5048958 25.9666667,11.2288021 L28.475873,3.49026042 L35.3721693,5.07359375 C35.5531217,7.52380208 37.651164,9.46239583 40.207619,9.46239583 C42.8816931,9.46239583 45.0571429,7.33973958 45.0571429,4.73020833 C45.0571429,2.12265625 42.8806878,1.16080741e-15 40.207619,1.16080741e-15 C38.4016957,-0.00161867602 36.7436759,0.982298308 35.9019577,2.55510417 L27.8897884,0.714479167 C27.2210051,0.558435529 26.5426859,0.934512945 26.3315873,1.57838542 L23.2161905,11.1832813 C18.0329101,11.3059896 13.1612698,12.6171875 9.36529101,14.9110417 C8.34556869,14.1312563 7.09078453,13.7085029 5.79952381,13.7096875 C2.60068783,13.7096875 -1.13686838e-13,16.2469792 -1.13686838e-13,19.3661458 C-1.13686838e-13,21.2948438 0.995238095,22.9998958 2.51021164,24.0201563 C2.44687831,24.4694271 2.41470899,24.9206771 2.41470899,25.3778646 C2.41470899,29.2768229 4.73793651,32.9046354 8.95714286,35.5903646 C13.0014286,38.1652604 18.3546032,39.5833333 24.0294709,39.5833333 C29.7033333,39.5833333 35.0565079,38.1652604 39.1007937,35.5903646 C43.32,32.9046354 45.6442328,29.2768229 45.6442328,25.3778646 C45.6442328,24.9622396 45.6150794,24.5485938 45.5617989,24.1379167 C47.1793122,23.1334896 48.2539683,21.3700521 48.2539683,19.3661458"></path>
                                    </g>
                                </g>
                            </g>
                        </g>
                    </g>
                </g>
            </g>
        </g>
    </g>
</svg>