<?xml version="1.0" encoding="UTF-8"?>
<svg width="65px" height="65px" viewBox="0 0 65 65" version="1.1" xmlns="http://www.w3.org/2000/svg" xmlns:xlink="http://www.w3.org/1999/xlink">
    <!-- Generator: Sketch 51.2 (57519) - http://www.bohemiancoding.com/sketch -->
    <title>rocket</title>
    <desc>Created with Sketch.</desc>
    <defs></defs>
    <g id="Symbols" stroke="none" stroke-width="1" fill="none" fill-rule="evenodd">
        <g id="03---elements" transform="translate(-379.000000, -5597.000000)">
            <g id="icons">
                <g transform="translate(72.000000, 4681.000000)">
                    <g id="rocket" transform="translate(307.000000, 916.000000)">
                        <g>
                            <polygon id="Path-5" fill="#FFFFFF" points="3.88059701 32.0308525 13.1019975 30.9176628 19.0456625 35.6997709 27.2655643 43.4027931 32.5678838 49.7787477 33.5029189 57.1666411 32.5678838 61.119403 38.0820916 59.7462605 43.9592929 51.7895425 43.9592929 42.6070076 45.9736517 38.5188654 57.6161456 26.5598978 61.119403 10.3040294 61.119403 4.18916538 59.6685648 2.91044776 43.9592929 5.92806207 34.4851034 10.9985642 28.197191 19.1009013 23.1232337 21.8614069 18.333877 20.9245529 10.2895073 23.2186223 7.05324051 26.5598978"></polygon>
                            <g id="Group-7">
                                <polygon id="Path-10" fill="#05C0A5" points="14.3849427 45.3848608 18.8225276 45.3848608 19.7196926 50.0757073 17.5913508 53.7209974 10.7286412 54.8614615 10.7286412 50.0757073"></polygon>
                                <g id="Rocket" fill="#003945" fill-rule="nonzero">
                                    <g id="Layer_1">
                                        <path d="M64.732451,2.76077059 C64.5913717,1.34997808 63.5332773,0.291883695 62.1224848,0.150804443 C44.2759595,-1.25998807 31.5082873,7.41638589 23.5373096,18.2794882 C19.1638528,16.8686957 14.4376979,17.3624731 10.1347807,19.7608204 C5.9729428,22.088628 2.51650114,26.0388471 0.259233124,30.8355416 C-0.234544255,31.9641756 -0.0229253783,33.2338889 0.894089755,34.0803644 C1.74056526,34.9268399 3.08081815,35.0679191 4.13891253,34.5036021 C8.65344858,32.1052549 13.7323016,32.5990322 16.7655055,35.6322361 L29.1804796,48.0472103 C32.2842232,51.1509538 32.7780005,56.2298068 30.3796533,60.7443429 C29.8153363,61.8024373 30.0269551,63.1426901 30.802891,63.9891657 C31.367208,64.5534827 32.0726043,64.8356412 32.8485402,64.8356412 C33.2717779,64.8356412 33.6950157,64.7651015 34.0477138,64.5534827 C38.8444084,62.2962146 42.7946274,58.7692334 45.122435,54.6779351 C47.5913219,50.3750179 48.0850993,45.648863 46.6037672,41.2048666 C49.7780503,38.8770589 52.670175,36.3376324 55.0685223,33.5160474 C62.5457226,24.9807527 65.7905454,14.6114277 64.732451,2.76077059 Z M9.49992408,27.3790999 C12.533128,24.4164357 16.3422678,22.5824054 20.3630264,23.2878017 C19.2343924,25.2629112 18.3173773,27.2380207 17.4709018,29.2131302 C15.0725545,27.8728773 12.3215091,27.2380207 9.49992408,27.3790999 Z M37.6452347,55.453871 C37.7157743,52.5617463 37.0809177,49.8107009 35.8112045,47.4123536 C37.8568536,46.5658781 39.8319631,45.5783234 41.736533,44.520229 C42.4419293,48.5409876 40.6784386,52.420667 37.6452347,55.453871 Z M32.0020647,42.827278 L22.0559774,32.8811907 C27.0642909,19.5492015 39.479265,5.30019712 59.3008998,5.65289524 C59.9357564,29.2836698 40.4668197,39.5119156 32.0020647,42.827278 Z M50.2718277,14.6819673 C51.1183032,15.5284428 51.6120806,16.7276165 51.6120806,17.9267901 C51.6120806,19.1259637 51.1183032,20.3251374 50.2718277,21.1716129 C49.4253522,22.0180884 48.2261786,22.5118658 47.0270049,22.5118658 C45.8278313,22.5118658 44.6286577,22.088628 43.7821821,21.1716129 C42.9357066,20.2545978 42.4419293,19.1259637 42.4419293,17.9267901 C42.4419293,16.7276165 42.9357066,15.5284428 43.7821821,14.6819673 C44.6286577,13.8354918 45.8278313,13.3417144 47.0270049,13.3417144 C48.2261786,13.3417144 49.4253522,13.8354918 50.2718277,14.6819673 Z M7.17211644,55.0306332 C7.17211644,56.582505 8.4418297,57.8522182 9.99370146,57.8522182 L10.0642411,57.8522182 C11.5455732,57.8522182 17.7530603,57.6405993 20.9273434,54.4663162 C22.902453,52.4912067 23.3256907,50.4455575 23.3256907,49.1053046 C23.3256907,47.2007348 22.5497548,45.3667045 21.0684227,43.8853723 C17.5414414,40.2878514 13.097445,41.4164854 10.5580185,44.0264516 C7.31319569,47.2712744 7.17211644,53.7609199 7.17211644,55.0306332 Z M16.9771244,50.4455575 C16.2717281,51.1509538 14.7198564,51.6447312 13.097445,51.85635 C13.3796035,50.2339387 13.8733809,48.6820669 14.5082375,48.0472103 C15.0020149,47.5534329 15.4252526,47.2712744 15.91903,47.2712744 C16.2717281,47.2712744 16.6949659,47.4828933 17.1182037,47.906131 C17.5414414,48.3293688 17.7530603,48.7526065 17.7530603,49.1053046 C17.6825207,49.5285424 17.3298225,50.0928594 16.9771244,50.4455575 Z" id="XMLID_2180_"></path>
                                    </g>
                                </g>
                            </g>
                        </g>
                    </g>
                </g>
            </g>
        </g>
    </g>
</svg>