<?xml version="1.0" encoding="UTF-8"?>
<svg width="41px" height="67px" viewBox="0 0 41 67" version="1.1" xmlns="http://www.w3.org/2000/svg" xmlns:xlink="http://www.w3.org/1999/xlink">
    <!-- Generator: Sketch 51.2 (57519) - http://www.bohemiancoding.com/sketch -->
    <title>Secalot1</title>
    <desc>Created with Sketch.</desc>
    <defs></defs>
    <g id="Symbols" stroke="none" stroke-width="1" fill="none" fill-rule="evenodd">
        <g id="03---elements" transform="translate(-909.000000, -5409.000000)">
            <g id="icons">
                <g transform="translate(72.000000, 4681.000000)">
                    <g id="Secalot1" transform="translate(837.000000, 728.000000)">
                        <g>
                            <rect id="Rectangle" fill="#FFFFFF" fill-rule="nonzero" x="3" y="3" width="35" height="40" rx="4"></rect>
                            <g>
                                <path d="M2.6694045,27.1750877 L6.17116845,44.6381079 L38.0203636,14.1718073 C38.2003631,10.2212543 37.5873689,7.44359113 36.181381,5.83881768 C34.775393,4.23404423 32.0140565,3.16029717 27.8973715,2.61757651 L2.6694045,27.1750877 Z" id="Path-9" fill="#05C0A5"></path>
                                <path d="M23.9166667,53.6 C23.9166667,55.4501539 22.3869729,56.95 20.5,56.95 C18.6130271,56.95 17.0833333,55.4501539 17.0833333,53.6 L17.0833333,50.25 L23.9166667,50.25 L23.9166667,53.6 Z M31.9418605,41.7581395 L9.05813953,41.7581395 C6.95175119,41.7581395 5.24418605,40.1187729 5.24418605,38.0965116 L5.24418605,8.80348837 C5.24418605,6.78122712 6.95175119,5.14186047 9.05813953,5.14186047 L31.9418605,5.14186047 C34.0482488,5.14186047 35.755814,6.78122712 35.755814,8.80348837 L35.755814,38.0965116 C35.755814,40.1187729 34.0482488,41.7581395 31.9418605,41.7581395 Z M24.7112403,61.8581395 L16.2887597,61.8581395 C13.9629559,61.8581395 12.0775194,60.1838927 12.0775194,58.1186047 L12.0775194,46.9 L28.9224806,46.9 L28.9224806,58.1186047 C28.9224806,60.1838927 27.0370441,61.8581395 24.7112403,61.8581395 Z M0,6.7 L0,40.2 C0,43.9003078 3.05938754,46.9 6.83333333,46.9 L6.83333333,60.3 C6.83333333,64.0003078 9.89272088,67 13.6666667,67 L27.3333333,67 C31.1072791,67 34.1666667,64.0003078 34.1666667,60.3 L34.1666667,46.9 C37.9406125,46.9 41,43.9003078 41,40.2 L41,6.7 C41,2.99969218 37.9406125,0 34.1666667,0 L6.83333333,0 C3.05938754,0 0,2.99969218 0,6.7 Z" id="usb-[#196]" fill="#003945" fill-rule="nonzero"></path>
                                <rect id="Rectangle-5" fill="#003945" transform="translate(16.000000, 15.500000) scale(-1, 1) rotate(45.000000) translate(-16.000000, -15.500000) " x="-3" y="13" width="38" height="5"></rect>
                                <rect id="Rectangle-5-Copy" fill="#003945" transform="translate(23.500000, 28.500000) scale(-1, 1) rotate(45.000000) translate(-23.500000, -28.500000) " x="3" y="26" width="41" height="5"></rect>
                            </g>
                        </g>
                    </g>
                </g>
            </g>
        </g>
    </g>
</svg>