<?xml version="1.0" encoding="UTF-8"?>
<svg width="63px" height="75px" viewBox="0 0 63 75" version="1.1" xmlns="http://www.w3.org/2000/svg" xmlns:xlink="http://www.w3.org/1999/xlink">
    <!-- Generator: Sketch 51.2 (57519) - http://www.bohemiancoding.com/sketch -->
    <title>Security</title>
    <desc>Created with Sketch.</desc>
    <defs></defs>
    <g id="Symbols" stroke="none" stroke-width="1" fill="none" fill-rule="evenodd">
        <g id="03---elements" transform="translate(-123.000000, -5215.000000)">
            <g id="icons">
                <g transform="translate(72.000000, 4681.000000)">
                    <g id="Security" transform="translate(51.000000, 534.000000)">
                        <g>
                            <polygon id="Path-4" fill="#FFFFFF" points="5.1191377 16.3406326 14.9683725 11.2279893 25.2088669 7.10662931 29.5251655 3.80788222 35.2336846 3.80788222 41.5657306 7.10662931 48.4687667 10.0742574 54.5588677 13.0487982 56.441891 16.3406326 59.1890035 19.5163333 59.1890035 29.0766167 56.441891 50.2792929 45.4009043 61.9272158 32.1540706 71.5386533 14.9683725 61.9272158 5.1191377 47.826662 3.62599149 22.6339673"></polygon>
                            <g id="shield">
                                <g id="lock" transform="translate(20.045455, 20.045455)">
                                    <circle id="Oval-5" fill="#05C0A5" cx="11.4545455" cy="21" r="9.54545455"></circle>
                                    <path d="M11.4545455,17.1818182 C10.4018727,17.1818182 9.54545455,18.179443 9.54545455,19.405681 C9.54545455,20.2910325 9.99196364,21.0569944 10.6363636,21.414528 L10.6363636,24.8181818 L12.2727273,24.8181818 L12.2727273,21.4144645 C12.9171273,21.0568673 13.3636364,20.290969 13.3636364,19.4056174 C13.3636364,18.179443 12.5072182,17.1818182 11.4545455,17.1818182 Z" id="Shape" stroke="#003945" stroke-width="2" fill="#003945" fill-rule="nonzero"></path>
                                    <path d="M18.2608696,11.6330474 L18.2608696,6.85895033 C18.2608696,3.07689166 15.2075858,0 11.4545455,0 C7.70150514,0 4.64822134,3.07689166 4.64822134,6.85895033 L4.64822134,11.6330474 C1.83020395,13.7379087 0,17.1131814 0,20.9114339 C0,27.2763391 5.13847589,32.4545455 11.4545455,32.4545455 C17.770615,32.4545455 22.9090909,27.2763391 22.9090909,20.9114339 C22.9090909,17.1131814 21.078887,13.7379087 18.2608696,11.6330474 Z M6.64031621,6.85895033 C6.64031621,4.18382587 8.79994625,2.00749766 11.4545455,2.00749766 C14.1091447,2.00749766 16.2687747,4.18382587 16.2687747,6.85895033 L16.2687747,10.4389209 C14.8043194,9.75249053 13.1731921,9.3683224 11.4545455,9.3683224 C9.73589881,9.3683224 8.10477154,9.75249053 6.64031621,10.4389209 L6.64031621,6.85895033 Z M11.4545455,30.4470478 C6.236917,30.4470478 1.99209486,26.1694049 1.99209486,20.9114339 C1.99209486,15.653463 6.236917,11.3758201 11.4545455,11.3758201 C16.6721739,11.3758201 20.916996,15.653463 20.916996,20.9114339 C20.916996,26.1694049 16.6721739,30.4470478 11.4545455,30.4470478 Z" id="Shape" stroke="#003945" stroke-width="2" fill="#003945" fill-rule="nonzero"></path>
                                </g>
                                <path d="M55.7053809,9.48015767 C48.5685023,8.21617543 41.9960761,4.36431605 38.7135416,2.18084925 C36.5687406,0.754143111 34.0744676,0 31.5001471,0 C28.9258267,0 26.4314066,0.754143111 24.2867526,2.18070384 C21.0042182,4.36417063 14.431792,8.21617543 7.29491342,9.48015767 C3.0679955,10.2287749 0,13.8430195 0,18.0739863 L0,35.6275179 C0,41.4263928 1.64170867,47.0791214 4.87921644,52.4290877 C7.41218883,56.6143929 10.9216225,60.6144343 15.3101068,64.3181117 C22.6890407,70.5456818 29.9958729,73.7930343 30.3031139,73.928274 L31.5,74.4545455 L32.6968861,73.928274 C33.0042742,73.7931797 40.3109593,70.5456818 47.6898932,64.3181117 C52.0782303,60.6144343 55.5879583,56.6143929 58.1207836,52.4290877 C61.3585856,47.0792669 63,41.4263928 63,35.6275179 L63,18.0741317 C63.0002943,13.8430195 59.9322988,10.2287749 55.7053809,9.48015767 Z M57.1123916,35.6276634 C57.1123916,44.2728249 52.6931537,52.4053844 43.9771036,59.7997969 C38.9105702,64.0980927 33.766638,66.8997358 31.5004414,68.0367672 C26.2911764,65.4209696 5.88790272,53.9981591 5.88790272,35.6276634 L5.88790272,18.0741317 C5.88790272,16.6642942 6.91645373,15.4587704 8.3336175,15.2077772 C16.5323021,13.7557681 23.9079987,9.44685671 27.5745844,7.00788867 C28.7439542,6.22989684 30.1013766,5.81865181 31.5001471,5.81865181 C32.8989177,5.81865181 34.2564873,6.22989684 35.4257099,7.00774325 C39.0924428,9.44685671 46.4679922,13.7554773 54.6666768,15.2074863 C56.0836934,15.4584796 57.1123916,16.6640034 57.1123916,18.0738409 L57.1123916,35.6276634 Z" id="Shape" fill="#003945" fill-rule="nonzero"></path>
                            </g>
                        </g>
                    </g>
                </g>
            </g>
        </g>
    </g>
</svg>