<?xml version="1.0" encoding="UTF-8"?>
<svg width="46px" height="30px" viewBox="0 0 46 30" version="1.1" xmlns="http://www.w3.org/2000/svg" xmlns:xlink="http://www.w3.org/1999/xlink">
    <!-- Generator: Sketch 51.2 (57519) - http://www.bohemiancoding.com/sketch -->
    <title>094-south-korea</title>
    <desc>Created with Sketch.</desc>
    <defs></defs>
    <g id="Symbols" stroke="none" stroke-width="1" fill="none" fill-rule="evenodd">
        <g id="03---elements" transform="translate(-866.000000, -8593.000000)" fill-rule="nonzero">
            <g id="others">
                <g transform="translate(64.000000, 5809.000000)">
                    <g id="flags" transform="translate(512.000000, 2715.000000)">
                        <g id="Group-5" transform="translate(2.000000, 69.000000)">
                            <g id="094-south-korea" transform="translate(288.000000, 0.000000)">
                                <path d="M42.5549414,0.0245535714 L3.44505859,0.0245535714 C1.54234766,0.0245535714 0,1.55732143 0,3.44821429 L0,26.5517857 C0,28.4425893 1.54234766,29.9754464 3.44505859,29.9754464 L42.5549414,29.9754464 C44.4575625,29.9754464 46,28.4426786 46,26.5517857 L46,3.44821429 C46,1.55732143 44.4576523,0.0245535714 42.5549414,0.0245535714 Z" id="Shape" fill="#F5F5F5"></path>
                                <path d="M27.4031523,8.44026786 C23.7588203,6.02580357 18.8365508,7.01294643 16.4086133,10.6283036 C15.1907812,12.4328571 15.6858203,14.8849107 17.5078516,16.0921429 C19.3285352,17.299375 21.7880078,16.8091071 23.0027852,14.9982143 C24.2175625,13.1874107 26.6786523,12.7032143 28.4992461,13.9041071 C30.3228945,15.1113393 30.8133516,17.5633929 29.5968672,19.3679464 C32.0264219,15.7466071 31.0443398,10.8548214 27.4031523,8.44026786" id="Shape" fill="#FF4B55"></path>
                                <path d="M16.4085234,10.6283929 C15.1906914,12.4329464 15.6857305,14.885 17.5077617,16.0922321 C19.3284453,17.2994643 21.787918,16.8091964 23.0026953,14.9983036 C24.2174727,13.1875 26.6785625,12.7033036 28.4991562,13.9041964 C30.3228047,15.1114286 30.8132617,17.5634821 29.5967773,19.3680357 C27.170457,22.9958929 22.2498047,23.970625 18.6054727,21.5561607 C14.9644648,19.1419643 13.9790586,14.2501786 16.4085234,10.6283929" id="Shape" fill="#41479B"></path>
                                <g id="Group" transform="translate(7.726562, 3.214286)" fill="#464655">
                                    <path d="M23.7115625,2.24901786 L25.152207,4.40098214 C25.2732266,4.58178571 25.2242617,4.82589286 25.0426875,4.94669643 L24.6773828,5.18982143 C24.4950898,5.31107143 24.2483789,5.26232143 24.1267305,5.08089286 L22.6842891,2.92946429 C22.5629102,2.74848214 22.6121445,2.50392857 22.794168,2.383125 L23.1612695,2.13955357 C23.3436523,2.01857143 23.5900938,2.06767857 23.7115625,2.24901786 Z" id="Shape"></path>
                                    <path d="M25.9342969,5.56696429 L27.3796133,7.71758929 C27.5016211,7.89919643 27.4518477,8.14491071 27.2684766,8.26526786 L26.9015547,8.50625 C26.7195313,8.62589286 26.4744375,8.57669643 26.3532383,8.39642857 L24.9087305,6.24803571 C24.787082,6.06714286 24.835957,5.82241071 25.0180703,5.70142857 L25.3841836,5.45821429 C25.566207,5.33723214 25.8125586,5.38589286 25.9342969,5.56696429 Z" id="Shape"></path>
                                    <path d="M25.2540898,1.22598214 L28.9223203,6.69678571 C29.0437891,6.87785714 28.9944648,7.1225 28.8122617,7.24321429 L28.4437227,7.48732143 C28.2615195,7.60803571 28.0152578,7.55910714 27.8937891,7.37803571 L24.2243008,1.90758929 C24.1027422,1.72642857 24.1521563,1.48160714 24.3345391,1.36089286 L24.7042461,1.11633929 C24.8865391,0.996071429 25.1326211,1.04491071 25.2540898,1.22598214 Z" id="Shape"></path>
                                    <path d="M26.7923945,0.204553571 L28.2361836,2.36071429 C28.357832,2.54232143 28.3078789,2.7875 28.1246875,2.90776786 L27.7574961,3.14883929 C27.575293,3.26848214 27.3301094,3.21928571 27.209,3.03866071 L25.7641328,0.885357143 C25.6425742,0.704285714 25.6918984,0.459553571 25.8741016,0.33875 L26.2423711,0.0948214286 C26.4245742,-0.0258928571 26.6709258,0.023125 26.7923945,0.204553571 Z" id="Shape"></path>
                                    <path d="M29.0165664,3.52955357 L30.4581094,5.68125 C30.5793984,5.86214286 30.5302539,6.10642857 30.3485,6.22723214 L29.9823867,6.47044643 C29.8000938,6.59151786 29.5533828,6.54267857 29.4319141,6.36125 L27.9903711,4.20955357 C27.8691719,4.02866071 27.9182266,3.784375 28.0999805,3.66357143 L28.4660938,3.42035714 C28.6484766,3.29919643 28.8950078,3.34794643 29.0165664,3.52955357 Z" id="Shape"></path>
                                    <path d="M4.19758984,15.1769643 L7.86537109,20.641875 C7.98683984,20.8228571 7.93778516,21.0675 7.75558203,21.1883036 L7.38830078,21.4320536 C7.20609766,21.5529464 6.95983594,21.5041071 6.8381875,21.3229464 L3.17040625,15.8580357 C3.04884766,15.6770536 3.09799219,15.4324107 3.28019531,15.3116071 L3.64756641,15.0678571 C3.82967969,14.9469643 4.07603125,14.9958036 4.19758984,15.1769643 Z" id="Shape"></path>
                                    <path d="M2.65775781,16.1991071 L4.09777344,18.345625 C4.21915234,18.5265179 4.1701875,18.7707143 3.98843359,18.8916964 L3.62312891,19.1347321 C3.44101562,19.2558929 3.19448437,19.2072321 3.07274609,19.0260714 L1.63102344,16.8800893 C1.509375,16.6991071 1.55842969,16.454375 1.74063281,16.3334821 L2.10773438,16.0899107 C2.28984766,15.9691071 2.53619922,16.0179464 2.65775781,16.1991071 Z" id="Shape"></path>
                                    <path d="M4.88309766,19.5182143 L6.32473047,21.6701786 C6.44601953,21.8510714 6.396875,22.0954464 6.21494141,22.2161607 L5.84855859,22.4596429 C5.66626563,22.5807143 5.41982422,22.531875 5.29817578,22.3505357 L3.85564453,20.1990179 C3.73426563,20.0180357 3.78341016,19.7734821 3.96543359,19.6527679 L4.33271484,19.4090179 C4.51509766,19.2878571 4.76153906,19.336875 4.88309766,19.5182143 Z" id="Shape"></path>
                                    <path d="M1.11783594,17.2209821 L4.78328125,22.6861607 C4.90466016,22.8670536 4.85551563,23.1115179 4.67376172,23.2324107 L4.30746875,23.4758036 C4.12526563,23.596875 3.87882422,23.5480357 3.75717578,23.366875 L0.0895742188,17.9024107 C-0.031984375,17.7213393 0.0173398438,17.4766071 0.199542969,17.3558036 L0.568082031,17.1116964 C0.750105469,16.9909821 0.996367188,17.0399107 1.11783594,17.2209821 Z" id="Shape"></path>
                                    <path d="M3.17094531,7.71794643 L6.8381875,2.24857143 C6.95974609,2.06732143 7.20609766,2.01839286 7.38839063,2.13928571 L7.75558203,2.38294643 C7.93769531,2.50375 7.98675,2.74839286 7.86537109,2.929375 L4.19669141,8.39571429 C4.07540234,8.57633929 3.83003906,8.62544643 3.64792578,8.505625 L3.28217188,8.265 C3.09907031,8.14464286 3.04929688,7.899375 3.17094531,7.71794643 Z" id="Shape"></path>
                                    <path d="M1.63039453,6.69714286 L5.29826562,1.22669643 C5.41982422,1.04544643 5.66635547,0.996517857 5.84864844,1.11758929 L6.21494141,1.36098214 C6.39678516,1.48178571 6.44583984,1.72616071 6.32455078,1.90705357 L2.65766797,7.37776786 C2.53610938,7.55901786 2.28975781,7.60803571 2.10746484,7.48705357 L1.74018359,7.24339286 C1.55816016,7.12267857 1.50901563,6.878125 1.63039453,6.69714286 Z" id="Shape"></path>
                                    <path d="M0.0889453125,5.68071429 L3.75717578,0.204821429 C3.87873438,0.0234821429 4.12535547,-0.0255357143 4.30764844,0.0955357143 L4.67394141,0.338928571 C4.85569531,0.459732143 4.90483984,0.703839286 4.78373047,0.884821429 L1.11774609,6.36151786 C0.996367188,6.54276786 0.749925781,6.59196429 0.567632813,6.47116071 L0.199273438,6.22705357 C0.0169804687,6.10633929 -0.0322539062,5.86178571 0.0889453125,5.68071429 Z" id="Shape"></path>
                                    <path d="M22.684918,20.6417857 L24.1266406,18.4958036 C24.2483789,18.3146429 24.4949102,18.2659821 24.6770234,18.3871429 L25.0423281,18.6301786 C25.224082,18.7510714 25.272957,18.9953571 25.1515781,19.17625 L23.7115625,21.3226786 C23.5900039,21.5038393 23.3436523,21.5527679 23.1614492,21.431875 L22.7943477,21.1883036 C22.6123242,21.0675 22.5632695,20.8228571 22.684918,20.6417857 Z" id="Shape"></path>
                                    <path d="M24.9085508,17.3340179 L26.3526094,15.1774107 C26.4739883,14.9961607 26.7204297,14.9470536 26.9027227,15.0678571 L27.2707227,15.3116071 C27.4530156,15.4324107 27.50225,15.6773214 27.3806016,15.8583929 L25.9334883,18.0116071 C25.8121094,18.1921429 25.5667461,18.2411607 25.3846328,18.1211607 L25.0196875,17.8808036 C24.8368555,17.7602679 24.787082,17.5153571 24.9085508,17.3340179 Z" id="Shape"></path>
                                    <path d="M24.2242109,21.6694643 L25.666832,19.5178571 C25.7883008,19.3366964 26.0345625,19.2876786 26.2168555,19.4084821 L26.5855742,19.6528571 C26.7676875,19.7735714 26.8169219,20.0180357 26.6956328,20.1991964 L25.2539102,22.3509821 C25.1325313,22.5321429 24.8864492,22.58125 24.7040664,22.460625 L24.3343594,22.2160714 C24.1521563,22.0954464 24.1027422,21.850625 24.2242109,21.6694643 Z" id="Shape"></path>
                                    <path d="M26.4502695,18.3449107 L27.8936992,16.1983036 C28.0153477,16.0175 28.2613398,15.96875 28.4434531,16.089375 L28.8119922,16.3334821 C28.994375,16.4542857 29.0435195,16.6991964 28.9216914,16.8803571 L27.4782617,19.0270536 C27.3567031,19.2078571 27.1106211,19.2566071 26.9285977,19.1359821 L26.5599688,18.891875 C26.3775859,18.7709821 26.3284414,18.5260714 26.4502695,18.3449107 Z" id="Shape"></path>
                                    <path d="M25.764582,22.6858036 L27.2088203,20.5379464 C27.3301094,20.3576786 27.5751133,20.3085714 27.7571367,20.428125 L28.1242383,20.6691964 C28.3075195,20.7895536 28.3573828,21.035 28.2355547,21.2166071 L26.7923945,23.3673214 C26.6709258,23.5483929 26.4246641,23.5972321 26.2424609,23.4766071 L25.8742813,23.2326786 C25.6918984,23.1117857 25.6427539,22.866875 25.764582,22.6858036 Z" id="Shape"></path>
                                    <path d="M27.9911797,19.3722321 L29.4318242,17.2217857 C29.5533828,17.0404464 29.8000039,16.9914286 29.9822969,17.1125893 L30.3481406,17.355625 C30.5300742,17.4765179 30.5790391,17.7210714 30.4575703,17.9019643 L29.015668,20.0495536 C28.8944688,20.2302679 28.6488359,20.2792857 28.4667227,20.1592857 L28.101957,19.9191071 C27.9193047,19.7986607 27.8696211,19.5535714 27.9911797,19.3722321 Z" id="Shape"></path>
                                </g>
                            </g>
                        </g>
                    </g>
                </g>
            </g>
        </g>
    </g>
</svg>