<?xml version="1.0" encoding="UTF-8"?>
<svg width="67px" height="67px" viewBox="0 0 67 67" version="1.1" xmlns="http://www.w3.org/2000/svg" xmlns:xlink="http://www.w3.org/1999/xlink">
    <!-- Generator: Sketch 51.2 (57519) - http://www.bohemiancoding.com/sketch -->
    <title>suggestion</title>
    <desc>Created with Sketch.</desc>
    <defs></defs>
    <g id="Symbols" stroke="none" stroke-width="1" fill="none" fill-rule="evenodd">
        <g id="03---elements" transform="translate(-640.000000, -5596.000000)">
            <g id="icons">
                <g transform="translate(72.000000, 4681.000000)">
                    <g id="suggestion" transform="translate(568.000000, 915.000000)">
                        <g>
                            <circle id="Oval-2" fill="#FFFFFF" cx="33.5" cy="34.4305556" r="30.7083333"></circle>
                            <polygon id="Path-6" fill="#05C0A5" points="8.08471846 16.3640796 17.0412335 21.9942679 17.5839522 30.6640949 17.0412335 36.8419732 17.5839522 44.5808928 8.08471846 51.2720753 3.99651408 44.0398313 1.68146685 33.1336719 3.45379542 24.7824332"></polygon>
                            <polygon id="Path-6" fill="#05C0A5" transform="translate(56.160487, 33.818077) scale(-1, 1) translate(-56.160487, -33.818077) " points="54.6124962 16.3640796 63.5690113 21.9942679 64.1117299 30.6640949 63.5690113 36.8419732 64.1117299 44.5808928 54.6124962 51.2720753 50.5242919 44.0398313 48.2092446 33.1336719 49.9815732 24.7824332"></polygon>
                            <g id="help-lifeguard-symbol" fill="#003945" fill-rule="nonzero">
                                <path d="M57.2677736,9.89168203 C44.2322101,-3.23320157 23.0241793,-3.30759363 9.89296927,9.73227049 C-3.23611533,22.7700091 -3.30413066,43.9781206 9.72930737,57.1072552 C22.7691218,70.2342643 43.9771526,70.3065309 57.1083627,57.2687923 C70.2353218,44.2310536 70.3054626,23.0229421 57.2677736,9.89168203 Z M48.011312,8.33795087 L40.9058353,15.3945685 C36.2127773,13.477379 30.9245853,13.4582496 26.2187745,15.3435568 L19.1621838,8.23805297 C28.0913216,3.17726789 39.1161818,3.21340118 48.011312,8.33795087 Z M15.3490742,40.7813879 L8.24359746,47.83588 C3.17858069,38.9067081 3.21683931,27.8818059 8.34349498,18.9866419 L15.4022112,26.0921457 C13.480778,30.783096 13.4637742,36.0734337 15.3490742,40.7813879 Z M18.9900199,58.6609864 L26.0976222,51.6043688 C30.7885546,53.5194328 36.0788722,53.5406877 40.7825575,51.653255 L47.8391482,58.7608843 C38.9121358,63.8216694 27.8830246,63.7855361 18.9900199,58.6609864 Z M44.1599438,44.2353046 C38.2404844,50.1144023 28.6418207,50.0803945 22.7606199,44.1609125 C16.8815446,38.2414306 16.9155523,28.6427303 22.8371372,22.7636327 C28.758722,16.884535 38.3552603,16.9164173 44.2343356,22.8358992 C50.1155363,28.7553811 50.0815287,38.3540814 44.1599438,44.2353046 Z M51.5991208,40.9046661 C53.516303,36.2115903 53.5375577,30.9233781 51.6501323,26.2175494 L58.755609,19.1609318 C63.8185003,28.0879782 63.7823672,39.1150059 58.6557115,48.0101699 L51.5991208,40.9046661 Z" id="Shape"></path>
                            </g>
                        </g>
                    </g>
                </g>
            </g>
        </g>
    </g>
</svg>