<?xml version="1.0" encoding="UTF-8"?>
<svg width="69px" height="70px" viewBox="0 0 69 70" version="1.1" xmlns="http://www.w3.org/2000/svg" xmlns:xlink="http://www.w3.org/1999/xlink">
    <!-- Generator: Sketch 51.2 (57519) - http://www.bohemiancoding.com/sketch -->
    <title>swap icon</title>
    <desc>Created with Sketch.</desc>
    <defs></defs>
    <g id="Symbols" stroke="none" stroke-width="1" fill="none" fill-rule="evenodd">
        <g id="03---elements" transform="translate(-639.000000, -4824.000000)">
            <g id="icons">
                <g transform="translate(72.000000, 4681.000000)">
                    <g id="swap-icon" transform="translate(567.000000, 143.000000)">
                        <g>
                            <path d="M60.2482432,11.4212437 C64.7277725,11.4212437 68.372093,15.0607234 68.372093,19.5347801 C68.372093,24.0088368 64.7277725,27.6484546 60.2482432,27.6484546 L15.1847381,27.6484546 L21.6272429,34.08289 C22.7695339,35.2237503 22.7695339,37.0731929 21.6272429,38.2140532 C21.0562357,38.7846214 20.3074804,39.0697674 19.5591401,39.0697674 C18.8107997,39.0697674 18.0621828,38.7844833 17.4910373,38.2140532 L0.856718263,21.6004307 C-0.285572754,20.4595705 -0.285572754,18.6101279 0.856718263,17.4692676 L6.04046201,12.2922929 C6.05000646,12.2824841 6.05968924,12.2729516 6.06937201,12.2634191 L17.4911756,0.855645211 C18.6333283,-0.28521507 20.4855052,-0.28521507 21.6275195,0.855645211 C22.7698105,1.99650549 22.7698105,3.84594804 21.6275195,4.98680832 L15.1850148,11.4212437 L60.2482432,11.4212437 Z" id="Shape" fill="#003945" fill-rule="nonzero"></path>
                            <path d="M60.2486582,21.8060011 L9.33537264,21.8060011 L7.06130334,19.5347801 L9.33509599,17.2638354 L60.2485199,17.2638354 C61.5025778,17.2638354 62.5225892,18.2825692 62.5225892,19.5347801 C62.5225892,20.7871292 61.5025778,21.8060011 60.2486582,21.8060011 Z" id="Path" fill="#05C0A5"></path>
                            <path d="M60.1485411,52.7362337 L6.99363535,52.7362337 L4.61944287,50.4650127 L6.99334652,48.194068 L60.1483967,48.194068 C61.4576686,48.194068 62.5225892,49.2128018 62.5225892,50.4650127 C62.5225892,51.7173617 61.4576686,52.7362337 60.1485411,52.7362337 Z" id="Path" fill="#FFFFFF" transform="translate(33.571016, 50.465151) scale(-1, 1) translate(-33.571016, -50.465151) "></path>
                            <path d="M67.5153082,48.3995002 L50.8809014,31.7858778 C49.7388905,30.6450175 47.8868575,30.6450175 46.74457,31.7858778 C45.6022824,32.926738 45.6022824,34.7761806 46.74457,35.9170409 L53.1870552,42.3514763 L8.12354847,42.3514763 C3.64417117,42.3514763 0,45.9910941 0,50.4651508 C0,54.9390694 3.64417117,58.578549 8.12354847,58.578549 L53.1870552,58.578549 L46.74457,65.0131226 C45.6022824,66.1539829 45.6022824,68.0034254 46.74457,69.1442857 C47.3157137,69.7147159 48.0643284,70 48.8126665,70 C49.5610046,70 50.3097576,69.714854 50.880763,69.1442857 L62.3026703,57.73665 C62.3091254,57.730295 64.0465792,55.99492 67.5150315,52.5305251 C68.6577341,51.389803 68.6577341,49.5403605 67.5153082,48.3995002 Z M59.0370945,52.7359574 L8.12354847,52.7359574 C6.869771,52.7359574 5.84976272,51.7172236 5.84976272,50.4650127 C5.84976272,49.2128018 6.869771,48.1937917 8.12354847,48.1937917 L59.0368179,48.1937917 L61.3108803,50.4650127 L59.0370945,52.7359574 Z" id="Shape" fill="#003945" fill-rule="nonzero"></path>
                        </g>
                    </g>
                </g>
            </g>
        </g>
    </g>
</svg>