<?xml version="1.0" encoding="UTF-8"?>
<svg width="78px" height="78px" viewBox="0 0 78 78" version="1.1" xmlns="http://www.w3.org/2000/svg" xmlns:xlink="http://www.w3.org/1999/xlink">
    <!-- Generator: Sketch 51.2 (57519) - http://www.bohemiancoding.com/sketch -->
    <title>tokens</title>
    <desc>Created with Sketch.</desc>
    <defs></defs>
    <g id="Symbols" stroke="none" stroke-width="1" fill="none" fill-rule="evenodd">
        <g id="03---elements" transform="translate(-634.000000, -5213.000000)">
            <g id="icons">
                <g transform="translate(72.000000, 4681.000000)">
                    <g id="tokens" transform="translate(562.000000, 532.000000)">
                        <g>
                            <circle id="Oval-9" fill="#05C0A5" cx="6.03571429" cy="29.25" r="4.17857143"></circle>
                            <circle id="Oval-9" fill="#05C0A5" cx="6.03571429" cy="47.8214286" r="4.17857143"></circle>
                            <circle id="Oval-9" fill="#05C0A5" cx="71.0357143" cy="47.8214286" r="4.17857143"></circle>
                            <circle id="Oval-9" fill="#05C0A5" cx="71.0357143" cy="29.25" r="4.17857143"></circle>
                            <circle id="Oval-9" fill="#05C0A5" cx="49.6785714" cy="6.03571429" r="4.17857143"></circle>
                            <circle id="Oval-9" fill="#05C0A5" cx="31.1071429" cy="6.03571429" r="4.17857143"></circle>
                            <circle id="Oval-9" fill="#05C0A5" cx="30.1785714" cy="71.9642857" r="4.17857143"></circle>
                            <circle id="Oval-9" fill="#05C0A5" cx="48.75" cy="71.9642857" r="4.17857143"></circle>
                            <path d="M27.3,11.366111 L27.3,19.1839633 C27.3,20.2606917 28.1730447,21.1335524 29.25,21.1335524 C30.3269553,21.1335524 31.2,20.2606917 31.2,19.1839633 L31.2,11.366111 C33.886216,10.4165904 35.4975506,7.67034081 35.0157516,4.86280222 C34.5339526,2.05526362 32.0991624,0.00307304222 29.25,0.00307304222 C26.4008376,0.00307304222 23.9660474,2.05526362 23.4842484,4.86280222 C23.0024494,7.67034081 24.613784,10.4165904 27.3,11.366111 Z M29.25,3.89918478 C30.3269553,3.89918478 31.2,4.77204555 31.2,5.84877388 C31.2,6.92550221 30.3269553,7.79836298 29.25,7.79836298 C28.1730447,7.79836298 27.3,6.92550221 27.3,5.84877388 C27.3032124,4.77337871 28.1743782,3.90239654 29.25,3.89918478 Z M48.75,6.58176852e-06 C45.8974482,-0.00424226829 43.4577349,2.04908516 42.9754886,4.85998847 C42.4932423,7.67089179 44.1090867,10.4197086 46.8,11.366111 L46.8,19.1839633 C46.8,20.2606917 47.6730447,21.1335524 48.75,21.1335524 C49.8269553,21.1335524 50.7,20.2606917 50.7,19.1839633 L50.7,11.366111 C53.3909133,10.4197086 55.0067577,7.67089179 54.5245114,4.85998847 C54.0422651,2.04908516 51.6025518,-0.00424226829 48.75,6.58176852e-06 Z M48.75,7.79836298 C47.6730447,7.79836298 46.8,6.92550221 46.8,5.84877388 C46.8,4.77204555 47.6730447,3.89918478 48.75,3.89918478 C49.8269553,3.89918478 50.7,4.77204555 50.7,5.84877388 C50.6967876,6.92416905 49.8256218,7.79515123 48.75,7.79836298 Z M50.7,66.636962 L50.7,58.8191097 C50.7,57.7423814 49.8269553,56.8695206 48.75,56.8695206 C47.6730447,56.8695206 46.8,57.7423814 46.8,58.8191097 L46.8,66.636962 C44.113784,67.5864827 42.5024494,70.3327322 42.9842484,73.1402708 C43.4660474,75.9478094 45.9008376,78 48.75,78 C51.5991624,78 54.0339526,75.9478094 54.5157516,73.1402708 C54.9975506,70.3327322 53.386216,67.5864827 50.7,66.636962 Z M48.75,74.0843924 C47.6730447,74.0843924 46.8,73.2115316 46.8,72.1348033 C46.8,71.0580749 47.6730447,70.1852142 48.75,70.1852142 C49.8269553,70.1852142 50.7,71.0580749 50.7,72.1348033 C50.6967876,73.2101984 49.8256218,74.0811806 48.75,74.0843924 Z M31.2,66.636962 L31.2,58.8191097 C31.2,57.7423814 30.3269553,56.8695206 29.25,56.8695206 C28.1730447,56.8695206 27.3,57.7423814 27.3,58.8191097 L27.3,66.636962 C24.613784,67.5864827 23.0024494,70.3327322 23.4842484,73.1402708 C23.9660474,75.9478094 26.4008376,78 29.25,78 C32.0991624,78 34.5339526,75.9478094 35.0157516,73.1402708 C35.4975506,70.3327322 33.886216,67.5864827 31.2,66.636962 Z M29.25,74.0843924 C28.1730447,74.0843924 27.3,73.2115316 27.3,72.1348033 C27.3,71.0580749 28.1730447,70.1852142 29.25,70.1852142 C30.3269553,70.1852142 31.2,71.0580749 31.2,72.1348033 C31.1967876,73.2101984 30.3256218,74.0811806 29.25,74.0843924 Z M72.1496633,35.0926104 C69.6741404,35.0932569 67.468655,33.5294124 66.6506633,31.1934322 L58.8311633,31.1934322 C57.7542081,31.1934322 56.8811633,30.3205714 56.8811633,29.2438431 C56.8811633,28.1671147 57.7542081,27.294254 58.8311633,27.294254 L66.6506633,27.294254 C67.6456815,24.4952418 70.5831855,22.8884107 73.4774288,23.559975 C76.3716721,24.2315394 78.3010383,26.9676524 77.96128,29.9187074 C77.6215217,32.8697625 75.1208283,35.0960526 72.1496633,35.0926104 Z M71.9079706,27.294254 C72.9849259,27.294254 73.8579706,28.1671147 73.8579706,29.2438431 C73.8579706,30.3205714 72.9849259,31.1934322 71.9079706,31.1934322 C70.8310153,31.1934322 69.9579706,30.3205714 69.9579706,29.2438431 C69.961183,28.1684479 70.8323488,27.2974657 71.9079706,27.294254 Z M58.8150671,46.790145 L66.6345671,46.790145 C67.5842879,44.104495 70.3311163,42.4935 73.1392466,42.9751974 C75.9473769,43.4568949 78,45.8911721 78,48.7397341 C78,51.5882961 75.9473769,54.0225732 73.1392466,54.5042707 C70.3311163,54.9859682 67.5842879,53.3749732 66.6345671,50.6893232 L58.8150671,50.6893232 C57.7381118,50.6893232 56.8650671,49.8164624 56.8650671,48.7397341 C56.8650671,47.6630057 57.7381118,46.790145 58.8150671,46.790145 Z M71.9079706,50.6893232 C70.8310153,50.6893232 69.9579706,49.8164624 69.9579706,48.7397341 C69.9579706,47.6630057 70.8310153,46.790145 71.9079706,46.790145 C72.9849259,46.790145 73.8579706,47.6630057 73.8579706,48.7397341 C73.8547582,49.8151292 72.9835924,50.6861114 71.9079706,50.6893232 Z M5.85033666,42.8909668 C8.32343375,42.8979158 10.5249775,44.4589653 11.3493367,46.790145 L19.1688367,46.790145 C20.2457919,46.790145 21.1188367,47.6630057 21.1188367,48.7397341 C21.1188367,49.8164624 20.2457919,50.6893232 19.1688367,50.6893232 L11.3493367,50.6893232 C10.3543185,53.4883353 7.41681446,55.0951665 4.52257119,54.4236021 C1.62832792,53.7520378 -0.301038326,51.0159248 0.0387200089,48.0648697 C0.378478344,45.1138147 2.87917173,42.8875245 5.85033666,42.8909668 Z M6.09202941,50.6893232 C5.01507415,50.6893232 4.14202941,49.8164624 4.14202941,48.7397341 C4.14202941,47.6630057 5.01507415,46.790145 6.09202941,46.790145 C7.16898467,46.790145 8.04202941,47.6630057 8.04202941,48.7397341 C8.03881698,49.8151292 7.16765123,50.6861114 6.09202941,50.6893232 Z M5.85033666,23.3950758 C8.32343375,23.4020248 10.5249775,24.9630743 11.3493367,27.294254 L19.1688367,27.294254 C20.2457919,27.294254 21.1188367,28.1671147 21.1188367,29.2438431 C21.1188367,30.3205714 20.2457919,31.1934322 19.1688367,31.1934322 L11.3493367,31.1934322 C10.3543185,33.9924443 7.41681446,35.5992755 4.52257119,34.9277111 C1.62832792,34.2561468 -0.301038326,31.5200338 0.0387200089,28.5689787 C0.378478344,25.6179237 2.87917173,23.3916335 5.85033666,23.3950758 Z M6.09202941,31.1934322 C5.01507415,31.1934322 4.14202941,30.3205714 4.14202941,29.2438431 C4.14202941,28.1671147 5.01507415,27.294254 6.09202941,27.294254 C7.16898467,27.294254 8.04202941,28.1671147 8.04202941,29.2438431 C8.03881698,30.3192382 7.16765123,31.1902204 6.09202941,31.1934322 Z" id="Access" fill="#003945"></path>
                            <rect id="Rectangle-8" stroke="#003945" stroke-width="4" fill="#FFFFFF" x="25.2142857" y="25.2142857" width="29.4285714" height="29.4285714" rx="14.7142857"></rect>
                            <path d="M40.3928571,38.9460829 C39.1865062,38.9460829 38.2050146,37.9772877 38.2050146,36.786542 C38.2050804,35.5958611 39.1865062,34.627066 40.3928571,34.627066 L43.5760641,34.627066 C44.1257862,34.627066 44.5714286,34.1871884 44.5714286,33.6445774 C44.5714286,33.1019665 44.1257862,32.6620889 43.5760641,32.6620889 L41.3882216,32.6620889 L41.3882216,31.6253457 C41.3882216,31.0827348 40.9425792,30.6428571 40.3928571,30.6428571 C39.8431351,30.6428571 39.3974927,31.0827348 39.3974927,31.6253457 L39.3974927,32.7812413 C37.5725154,33.2231957 36.2142857,34.8508987 36.2142857,36.786542 C36.2142857,39.0608223 38.0888373,40.91106 40.3928571,40.91106 C41.5992081,40.91106 42.5806997,41.8798551 42.5806997,43.0706009 C42.5806997,44.2613466 41.5992081,45.2300769 40.3928571,45.2300769 L37.2096502,45.2300769 C36.6599281,45.2300769 36.2142857,45.6699545 36.2142857,46.2125654 C36.2142857,46.7551764 36.6599281,47.195054 37.2096502,47.195054 L39.3974927,47.195054 L39.3974927,48.2317972 C39.3974927,48.7744081 39.8431351,49.2142857 40.3928571,49.2142857 C40.9425792,49.2142857 41.3882216,48.7744081 41.3882216,48.2317972 L41.3882216,47.0759015 C43.2131989,46.6339472 44.5714286,45.0062442 44.5714286,43.0706009 C44.5714286,40.7963206 42.696877,38.9460829 40.3928571,38.9460829 Z" id="Shape" stroke="#003945" stroke-width="1.4" fill="#003945" fill-rule="nonzero"></path>
                        </g>
                    </g>
                </g>
            </g>
        </g>
    </g>
</svg>