<?xml version="1.0" encoding="UTF-8"?>
<svg width="48px" height="69px" viewBox="0 0 48 69" version="1.1" xmlns="http://www.w3.org/2000/svg" xmlns:xlink="http://www.w3.org/1999/xlink">
    <!-- Generator: Sketch 51.2 (57519) - http://www.bohemiancoding.com/sketch -->
    <title>trezor1</title>
    <desc>Created with Sketch.</desc>
    <defs></defs>
    <g id="Symbols" stroke="none" stroke-width="1" fill="none" fill-rule="evenodd">
        <g id="03---elements" transform="translate(-387.000000, -5408.000000)">
            <g id="icons">
                <g transform="translate(72.000000, 4681.000000)">
                    <g id="trezor1" transform="translate(315.000000, 727.000000)">
                        <g>
                            <g transform="translate(0.749354, 0.000000)">
                                <polygon id="Rectangle-2" fill="#05C0A5" points="4.54095152 25 41.6293966 25 43 57.6985845 24.1202893 66 4 57.6985845"></polygon>
                                <polygon id="Path-2" fill="#FFFFFF" fill-rule="nonzero" points="10.8925161 24.4114264 10.8925161 10.2536128 21.401105 2.86145639 28.1471283 2.86145639 36.4370886 10.2536128 36.4370886 24.4114264"></polygon>
                                <g fill="#003945" fill-rule="nonzero" id="path7">
                                    <path d="M23.5378117,0 C14.1699517,0 6.5886967,7.660299 6.5886967,17.1258306 L6.5886967,23.5444352 C3.29907482,24.1461794 0,24.948505 0,25.9896179 L0,59.486711 C0,59.486711 0,60.413206 1.03037007,60.8525748 C4.76427997,62.380814 19.4541432,67.6341362 22.8288415,68.8376246 C23.2636766,69 23.3865648,69 23.5,69 C23.6606999,69 23.7363234,69 24.1711585,68.8376246 C27.5458568,67.6341362 42.2735318,62.380814 46.0074417,60.8525748 C46.9621883,60.451412 47,59.5249169 47,59.5249169 L47,25.9896179 C47,24.948505 43.7481899,24.1079734 40.449115,23.5444352 L40.449115,17.1258306 C40.4963797,7.660299 32.86786,0 23.5378117,0 Z M23.5413291,6.73824654 C29.5753803,6.73824654 33.2226749,10.454861 33.2226749,16.6035943 L33.2226749,22.7523275 C26.4550319,22.2680095 20.6792877,22.2680095 13.8703156,22.7523275 L13.8703156,16.6035943 C13.8703156,10.4443323 17.5176102,6.73824654 23.5413291,6.73824654 Z M23.494202,28.2826431 C33.1067063,28.2826431 41.1741333,29.0114829 41.1741333,30.3187668 L41.1741333,55.6314863 C41.1741333,56.0248284 41.1269554,56.0711039 40.7731208,56.2099305 C40.4310808,56.360326 24.3787883,62.0406484 24.3787883,62.0406484 C24.3787883,62.0406484 23.7300917,62.2373194 23.5413799,62.2373194 C23.3408737,62.2373194 22.7039716,61.9943728 22.7039716,61.9943728 C22.7039716,61.9943728 6.65167902,56.3140505 6.30963898,56.163655 C5.96759895,56.0132595 5.90862653,55.966984 5.90862653,55.5852108 L5.90862653,30.2724913 C5.81427066,28.9652073 13.8816976,28.2826431 23.494202,28.2826431 Z"></path>
                                </g>
                            </g>
                        </g>
                    </g>
                </g>
            </g>
        </g>
    </g>
</svg>