<?xml version="1.0" encoding="UTF-8"?>
<svg width="46px" height="30px" viewBox="0 0 46 30" version="1.1" xmlns="http://www.w3.org/2000/svg" xmlns:xlink="http://www.w3.org/1999/xlink">
    <!-- Generator: Sketch 51.2 (57519) - http://www.bohemiancoding.com/sketch -->
    <title>260-united-kingdom</title>
    <desc>Created with Sketch.</desc>
    <defs></defs>
    <g id="Symbols" stroke="none" stroke-width="1" fill="none" fill-rule="evenodd">
        <g id="03---elements" transform="translate(-578.000000, -8593.000000)" fill-rule="nonzero">
            <g id="others">
                <g transform="translate(64.000000, 5809.000000)">
                    <g id="flags" transform="translate(512.000000, 2715.000000)">
                        <g id="Group-5" transform="translate(2.000000, 69.000000)">
                            <g id="260-united-kingdom">
                                <path d="M42.5549414,0.0246428571 L3.44505859,0.0246428571 C1.54234766,0.0246428571 0,1.55741071 0,3.44830357 L0,26.5517857 C0,28.4425893 1.54234766,29.9754464 3.44505859,29.9754464 L42.5549414,29.9754464 C44.4575625,29.9754464 46,28.4426786 46,26.5517857 L46,3.44830357 C46,1.55741071 44.4576523,0.0246428571 42.5549414,0.0246428571 Z" id="Shape" fill="#41479B"></path>
                                <path d="M45.952293,2.88232143 C45.6807852,1.26098214 44.2635,0.0245535714 42.5549414,0.0245535714 L41.6585703,0.0245535714 L26.9655234,9.59125 L26.9655234,0.0246428571 L19.0344766,0.0246428571 L19.0344766,9.59133929 L4.34142969,0.0246428571 L3.44505859,0.0246428571 C1.7365,0.0246428571 0.319214844,1.26098214 0.0477070312,2.88241071 L12.6058867,11.0591964 L0,11.0591964 L0,18.9409821 L12.6058867,18.9409821 L0.0477070312,27.1175893 C0.319214844,28.7389286 1.7365,29.9753571 3.44505859,29.9753571 L4.34142969,29.9753571 L19.0344766,20.4086607 L19.0344766,29.9753571 L26.9655234,29.9753571 L26.9655234,20.4086607 L41.6585703,29.9753571 L42.5549414,29.9753571 C44.2635,29.9753571 45.6807852,28.7390179 45.952293,27.1175893 L33.3941133,18.9408036 L46,18.9408036 L46,11.0590179 L33.3941133,11.0590179 L45.952293,2.88232143 Z" id="Shape" fill="#F5F5F5"></path>
                                <g id="Group" fill="#FF4B55">
                                    <polygon id="Shape" points="25.379332 0.0246428571 20.620668 0.0246428571 20.620668 12.6354464 0 12.6354464 0 17.3645536 20.620668 17.3645536 20.620668 29.9753571 25.379332 29.9753571 25.379332 17.3645536 46 17.3645536 46 12.6354464 25.379332 12.6354464"></polygon>
                                    <path d="M2.22749609,29.7546429 L18.9908125,18.9408929 L16.0773594,18.9408929 L0.82871875,28.7776786 C1.20183984,29.2104464 1.68133594,29.5495536 2.22749609,29.7546429 Z" id="Shape"></path>
                                    <path d="M31.1207969,18.9408929 L28.2073437,18.9408929 L44.4435469,29.4145536 C44.8978867,29.1180357 45.2770273,28.7175 45.547457,28.2471429 L31.1207969,18.9408929 Z" id="Shape"></path>
                                    <path d="M0.363777344,1.91741071 L14.534832,11.0591071 L17.4482852,11.0591071 L1.39033203,0.700178571 C0.959171875,1.01910714 0.606355469,1.43607143 0.363777344,1.91741071 Z" id="Shape"></path>
                                    <path d="M29.8789766,11.0591071 L45.1555586,1.20419643 C44.7783047,0.772857143 44.2950352,0.435714286 43.7451016,0.234553571 L26.9655234,11.0591071 L29.8789766,11.0591071 Z" id="Shape"></path>
                                </g>
                            </g>
                        </g>
                    </g>
                </g>
            </g>
        </g>
    </g>
</svg>